/* XPM */
static char *_24186eedfa54566e52c45653388ddf1HoguFrPQPweCwtea[] = {
/* columns rows colors chars-per-pixel */
"64 64 218 2 ",
"   c #5D3A1F",
".  c #6A3F10",
"X  c #653B24",
"o  c #6F4206",
"O  c #764302",
"+  c #7A4503",
"@  c #7E4A05",
"#  c #77450C",
"$  c #7E4A0B",
"%  c #66421C",
"&  c #6B451D",
"*  c #6D491B",
"=  c #744910",
"-  c #74531E",
";  c #5D4236",
":  c #664421",
">  c #6C4320",
",  c #604D29",
"<  c #724A25",
"1  c #6D5527",
"2  c #785A28",
"3  c #665939",
"4  c #755D33",
"5  c #776137",
"6  c #5B5945",
"7  c #69634B",
"8  c #74684B",
"9  c #656555",
"0  c #77745C",
"q  c #777766",
"w  c #814703",
"e  c #824B04",
"r  c #894E05",
"t  c #844D09",
"y  c #884F09",
"u  c #855005",
"i  c #8B5406",
"p  c #85520B",
"a  c #8D540A",
"s  c #8E5909",
"d  c #915706",
"f  c #9B5905",
"g  c #915609",
"h  c #945B0C",
"j  c #9B5D0D",
"k  c #885C17",
"l  c #945D13",
"z  c #995E14",
"x  c #A15C04",
"c  c #A05E0B",
"v  c #9E630C",
"b  c #8E641B",
"n  c #9D6313",
"m  c #9C6719",
"M  c #A96605",
"N  c #A3650A",
"B  c #AC6A0B",
"V  c #B26C0C",
"C  c #B86F0C",
"Z  c #B4730B",
"A  c #BC790A",
"S  c #A26413",
"D  c #A56A14",
"F  c #AC6D15",
"G  c #A56719",
"H  c #A56B1A",
"J  c #AB6D1B",
"K  c #B26E14",
"L  c #B26E19",
"P  c #A77017",
"I  c #AE7114",
"U  c #AD721A",
"Y  c #B37316",
"T  c #BC7413",
"R  c #B67916",
"E  c #BB7B17",
"W  c #B3731B",
"Q  c #BA741B",
"!  c #B6791B",
"~  c #BC791B",
"^  c #825E2B",
"/  c #8F6A24",
"(  c #86632B",
")  c #966A28",
"_  c #9D732E",
"`  c #876433",
"'  c #956D3C",
"]  c #98713A",
"[  c #A66D22",
"{  c #AB6E20",
"}  c #AD7020",
"|  c #A3752A",
" . c #A67829",
".. c #B57B23",
"X. c #B77926",
"o. c #BB7C23",
"O. c #AE7D32",
"+. c #C37916",
"@. c #C47C1C",
"#. c #CA7E1B",
"$. c #C37D22",
"%. c #926841",
"&. c #89704C",
"*. c #977847",
"=. c #84765A",
"-. c #977B55",
";. c #A67746",
":. c #AC7D4C",
">. c #B47E4A",
",. c #887C63",
"<. c #B7821C",
"1. c #BE801C",
"2. c #BB8023",
"3. c #B68229",
"4. c #B78736",
"5. c #C3830F",
"6. c #C48312",
"7. c #CC8C16",
"8. c #C3821D",
"9. c #CC831D",
"0. c #CB8B19",
"q. c #D3871E",
"w. c #D4881E",
"e. c #D4931D",
"r. c #D8961D",
"t. c #C38222",
"y. c #CC8523",
"u. c #CE8B24",
"i. c #C3842B",
"p. c #CC862A",
"a. c #C48B29",
"s. c #CD8B2B",
"d. c #D38722",
"f. c #D38821",
"g. c #D18629",
"h. c #D28A29",
"j. c #CA9025",
"k. c #CC922C",
"l. c #D39225",
"z. c #DA9623",
"x. c #DC9B22",
"c. c #D5942A",
"v. c #DB9829",
"b. c #CC8D32",
"n. c #D08D39",
"m. c #CA9537",
"M. c #DA9931",
"N. c #E39D24",
"B. c #E19E2B",
"V. c #E19E33",
"C. c #E39F38",
"Z. c #DFA02D",
"A. c #DDA33A",
"S. c #E5A225",
"D. c #EBA426",
"F. c #E4A22C",
"G. c #EAA62A",
"H. c #EDAA2C",
"J. c #F0A72B",
"K. c #F3AE2D",
"L. c #F5B02D",
"P. c #E4A232",
"I. c #EAA634",
"U. c #EEAC33",
"Y. c #E4A53A",
"T. c #E8A93B",
"R. c #EDAC3A",
"E. c #F2A732",
"W. c #F3AD32",
"Q. c #F3AE3B",
"!. c #ECB13C",
"~. c #F5B033",
"^. c #F4B13B",
"/. c #F9B33B",
"(. c #AD874D",
"). c #B78348",
"_. c #AE8C52",
"`. c #AC905D",
"'. c #B19156",
"]. c #B3945D",
"[. c #8A8169",
"{. c #958266",
"}. c #948B74",
"|. c #939379",
" X c #A68D6D",
".X c #AE9467",
"XX c #B3996A",
"oX c #AC9771",
"OX c #B39D75",
"+X c #D59B42",
"@X c #D6A55E",
"#X c #D9A75D",
"$X c #E9AC44",
"%X c #F4AE41",
"&X c #EDB242",
"*X c #F4B141",
"=X c #CB9C60",
"-X c #D6A661",
";X c #D8A863",
":X c #949382",
">X c #AA9B88",
",X c #A49D95",
"<X c #B7A686",
"1X c #A9A69B",
"2X c #B7A991",
"3X c #ABAAAA",
"4X c #B5AEA4",
"5X c #B7B5B3",
"6X c #C2B297",
"7X c #C5BAA5",
"8X c #CAC2B3",
"9X c #CDCDCB",
"0X c #D4CFC6",
"qX c #D3D3D3",
"wX c #DBD9D5",
"eX c #DCDBDB",
"rX c #E2E1DF",
"tX c #E7E7E7",
/* pixels */
"; -X-X-X#X;X).< %.(.:.:.:.:.%.< ).).).).).).>.] ^ -X@X-X#X@X#X' < -X#X#X@X@X=X< ` :.:.;.:.:.%.> >.>.>.).).).).;.2 ;X@X@X#X@X#X;.",
"* Q.L.K.L.~.c.+ # i s t j w t w p.d.q.q.w.q.d.W g Q.D.K.H.W.D.W r Q.K.K.K.K.C.e @ p j $ j e t + t.w.w.w.f.f.d.Q h %XD.H.K.G.G.2.",
"% E.K.K.L.H.u.u n <.2.h t.F [ w d.d.d.d.d.w.w.L g V.u.M.v.v.z.H r Q.K.J.K.W.C.e H Y 8.h t.Y D @ d.w.w.d.d.f.f.Q a C.y.c.M.v.v.} ",
"* Q.K.K.K.L.f.t R P.$X[ $XV.W e d.d.w.q.d.w.q.Y t G j z j S j b r Q.K.H.K.K.P.i U F.U.Z Q.S.E e $.d.d.d.d.d.d.~ t H j l S c j ) ",
"% U.K.G.K.K.j.t ..4.4 ,.4 +X} e y.d.d.w.w.w.d.L + a i @ l i s @ e Q.K.G.W.L.P.u I H.H.Z ^.H.Y @ g.d.d.d.d.d.q.~ @ g l + z a l $ ",
"* F.H.D.W.K.f.t t./ }.q ,.| W e d.q.q.q.q.w.d.L g c.a.N z.1.M.h e I.W.H.W.L.P.e I H.H.A /.K.R e y.d.w.w.d.d.q.~ a o.X.i $.J X.l ",
"* F.H.D.W.K.h.t i. .8 q 3 4.! e d.d.d.w.d.w.d.Q h U.P.E U.S.K.P r P.W.N.L.W.P.r I K.U.A ^.L.E e y.w.w.w.w.w.w.~ a u.h.c d.#.d.{ ",
": Z.K.S.W.K.j.e 2.A._ ( _ &XI w d.w.w.d.w.d.d.Q j U.I.1.L.G.K.H e V.H.S.~.K.P.r I W.W.5.^.L.Y @ y.w.w.w.w.w.w.~ s u.h.x d.q.q.{ ",
"& x.G.S.W.W.l.p 8.~.^.j.R.~.Y e y.w.w.w.f.f.d.Q h U.U.0.K.H.W.U e z.U.r.K.K.P.r L W.U.6.Q.~.~ t 9.q.w.w.d.w.w.~ a y.p.B w.w.w.} ",
": l.I.F.I.U.j.@ 2.K.W.5.H.~.Y e y.d.d.w.w.w.#.Q v U.H.r.L.K.L.P e h.I.r.U.I.M.a Y K.K.6.W.W.Y @ y.w.w.w.w.d.w.~ s d.h.V w.d.d.{ ",
": D I F U U H @ 8.W.K.7.H.~.Y t y.d.w.w.w.w.d.Q h K.H.r.K.H.L.U t N W N J L W p L K.L.7.U.W.R @ y.q.d.@.q.d.d.~ a d.h.+.w.f.d.U ",
"  @ @ O @ O O $ t.W.K.0.H.W.U e u.w.w.w.w.w.d.+.v U.H.S.L.H.L.U O e e + @ O O @ V K.L.r.W.W.R t t.d.' 1X>X9.d.~ a y.d.+.f.d.d.} ",
"X c J r n g m t t.W.W.r.H.~.U @ y.d.d.w.w.w.d.W s U.H.F.K.H.L.P @ z L r G y { t Y K.L.z.U.L.Y @ y.d.,X3X5X~ d.~ g y.d.+.w.w.f.L ",
"* ~ 9.f @.T Q t t.W.K.r.G.U.I w y.w.w.w.w.d.d.Q v H.L.F.K.L.L.U t ~ g.f #.K t.t I W.K.N.I.~.~ t y.d.[ 3X{.q.q.~ a d.d.q.f.f.d.} ",
"% #.9.x #.+.~ t 8.W.K.r.G.W.U w h.w.d.w.w.f.f.W v U.L.L.K.H.~.U e $.d.x 9.+.y.t Y W.K.D.H.K.W e y.d.s.X.X.y.w.Q a h.d.d.w.f.f.{ ",
"% 9.#.x y.#.~ e $.W.K.S.H.W.Y e d.w.w.f.w.f.f.Y h U.K.K.L.K.~.U e y.d.x 9.#.y.t I K.K.G.H.U.E @ @.u./ 4 4 i.g.o.s p.f.f.d.f.d.} ",
"& u.9.M q.q.~ t y.W.K.D.G.W.Y @ y.f.w.d.w.w.d.Q v U.L.H.L.L.~.U t g.d.x 9.g.p.y Y W.K.H.H.W.E w 9.i.3 1Xq - b.~ a g.d.f.w.f.f.U ",
": d.9.V d.9.~ $ $.W.K.G.G.W.Y w u.w.d.w.f.f.d.Q s U.L.L.H.L.L.P @ h.d.B q.d.$.y F W.W.K.G.L.Y @ 9.b.4 q 6 ^ b.! a h.f.d.w.w.d.} ",
"* f.9.V d.q.~ e 8.L.K.H.K.~.W e y.w.d.w.f.f.d.Q v U.K.K.L.H.L.! e h.d.M d.q.$.y Y W.~.K.K.K.E t 8.h.4.1 - +Xg.Q a g.d.d.w.w.w.} ",
"X d.d.C f.q.~ t t.K.K.H.K.W.U w g.w.f.w.f.f.d.L s U.K.K.L.H.L.P @ f.d.B w.-.2X,.,.k.G.K.K.L.Y w y.q.h.i.g.q.q.$.a h.d.d.w.w.d.J ",
"* d.q.C f.q.~ t t.L.K.H.W.W.W e u.q.q.9.f.d.q.W h U.K.K.K.K.L.U t u.d.V } tXtXtXtXtXtXqXK.~.E @ y.0.q.@.f.w.h.o.s h.d.d.w.w.w.W ",
"> d.9.T f.d.E t 8.K.K.H.K.W.Y e J I W n T Y S G l W.K.K.K.K.K.P w d.d.V <XtXtXtXtXtXtXtXx.L.! t J Y Y n Y I D H a h.w.d.w.w.f.} ",
"X d.9.+.q.f.~ t 8.W.K.H.K.W.W + j S m u j G e e l U.L.K.K.K.K.U w g.f.` tXtXtXtXtXtXtXtXa.K.! @ z n n t n n i u r h.d.d.w.w.w.{ ",
"> d.9.@.f.q.E e 8.W.L.H.K./.Y @ $.$.s.D 8.8.8.F s U.K.L.K.K.K.U e g. .eXtXtXtXtXtXtXtXtX.XK.~ @ ! t.~ U y.t.t.W a d.d.w.w.w.w.} ",
": d.9.#.q.q.~ t @.W.K.K.K.W.U w %XW./.z.U.~.U.8.h U.K.K.K.K.K.P e d. XtXtXtXtXtXtXtXtXtXOX/.Y @ Y.W.^.c.W.W.W.k.a p.d.w.w.w.w.U ",
"> d.9.9.q.w.~ e 2.W.W.E.K.W.Y e R.K./.N.U.L.K.E h U.K.K.K.K.K.I t *.rXtXtXtXtXtXtXtXtXtX6XL.~ @ P.K.~.z.W.L.K.u.a h.d.d.w.w.w.} ",
"& d.q.9.w.w.Q t 2.T.3.b 3.&XU e Q.K.~.D.K.K.K.E h U.L.K.K.K.K.U . wXtXtXtXtXtXtXtXtXtXtX2X~.R @ I.K.W.B.~.L.K.h.a d.h.d.w.w.w.{ ",
": u.q.9.w.d.~ t t.3.5 ,.5 m.U w Q.K.L.B.W.L.L.1.h U.L.L.K.K.K.U }.tXtXtXtXtXtXtXtXtXtXtX0X~.Y e U.K.~.F.~.L.W.u.g g.w.d.w.w.w.{ ",
"> d.q.f.w.f.~ t 2.) |.9 7 _ Y u R.K.W.G.K.K.K.8.h E.K.L.K.K.K.( rXtXtXtXtXtXtXtXtXtXtXtXrXF.~ e P.K.W.G.K.K.K.u.g h.f.w.w.w.w.W ",
"X d.d.d.w.q.~ u 1.4.5 7 , *.` 1 _.(._._.'.'.'.-.&.]..X].XXXX.XqXtXtXtXtXtXtXtXtXtXtXtXtXtXU.Y @ R.K.K.G.K.K.K.u.g h.f.d.w.w.d.{ ",
"> d.d.d.w.q.~ p 1.&X4./ 4.eXtXtXtXrXwXqX9X9XeXrXtXtXtXtXtXtXqXtXtXtXtXtXtXtXtXtXtXtXtXtXtXk.~ @ P.K.K.G.W.K.K.u.s h.w.d.w.w.q.{ ",
"& d.d.d.w.w.~ e i.^./.U./.m.tXtXtXtXtXtXtXtXtXtXtXtXeXeXwXeXeXtXtXrXrXeXeXeXrXtXtXtXtXtXtX(.~ w I.K.K.U.K.K.K.u.g h.d.d.w.w.w.{ ",
"X d.w.d.w.d.Q t D E ~ Y ~ ! 2XtXtXtXtXtXtXtXtXtXtXtXtXtXtXtXtXtXtXtXtXtXtXtXtXtXtXtXrXqX9X4X^ = M.H.K.W.K.K.K.0.s p.d.d.d.d.w.{ ",
"> q.w.d.d.d.$.O O e t o a O : rXtXtXtXtXtXtXtXtXtXtXtXtXtXtXtXtXtXtXtXtXtXtXtXtXtXtXtXtXtXtXtXtXtXtXtXqXoXK.K.u.d h.#.d.d.d.#.{ ",
"& w.q.d.w.d.Q y l J W a ..n m 8 tXtXtXtXtXtXtXtXtXtXtXtXtXtXtXtXtXtXtXtXtXtXtXtXtXtXtXtXtXtXtXtXtXtXtX9XK.L.K.u.s i.R Q $.@.+.[ ",
"> d.q.q.d.d.Q t J $.y.v h.@.U @ tXtXtXtXtXtXtXtXtXtXtXtXtXtXtXtXtXtXtXtXtXtXtXtXtXtXtXtXtXtXtXtXtXtXrXx.K.K.K.u.u D h h c z c z ",
"& 9.9.9.d.d.@.r Y q.d.j q.0.J e OXtXtXtXtXtXtXtXtXtXtXtXtXtXtXtXtXtXtXtXtXtXtXtXtXtXtXtXtXtXtXtXtXtX<XK.K.K.K.u.$ p p O z a g t ",
"& 9.q.#.d.d.~ t W y.d.c q.u.J e I.8XtXtXtXtXtXtXtXtXtXtXtXtXtXtXtXtXtXtXtXtXtXtXtXtXtXtXtXtXtXtXtX2XG.~.K.K.K.u.a a.3.i $.R $.k ",
"& 6.9.#.d.d.Q r L d.d.N q.f.I e R.x.tXtXtXtXtXtXtXtXtXtXtXtXtXtXtXtXtXtXtXtXtXtXtXtXtXtXtXtXtXtXeXF.K.K.K.K.K.0.d *X%XB /.D.E.X.",
"X @.9.#.f.d.Q t L d.d.N 9.f.J w ^.K.8XtXtXtXtXtXtXtXtXtXtXtXtXtXtXtXtXtXtXtXtXtXtXtXtXtXtXtXtXtXOXL.K.K.K.K.K.u.g %X%XZ K.H.K.X.",
"& ~ y.#.q.q.~ e T q.q.B y.q.L e T.K.l.tXtXtXtXtXtXtXtXtXtXtXtXtXtXtXtXtXtXtXtXtXtXtXtXtXtXtXeX,XF.L.K.K.K.L.K.u.d ^.*X<.a.R.W.2.",
"% ~ y.#.#.y.o.t L q.q.B y.d.J e Q.K.K.`.8X7X7X<X>X<X2XoX<XOX<X{.}.-.-.%.] ) _ # l @.#.K y.h.F @ I.L.K.L.K.K.K.u.g ^. .4 =.( A...",
": D D D D J G t W q.d.V d.d.J e R.K.K.K.K.K.E.2.v U.H.x.L.L.L.U e f J c F F } p F w.d.T d.d.J e I.K.K.K.W.L.W.u.h %X2 :Xq =.4...",
"  e u w e e O e L q.q.T 9.d.J e R.K.K.K.K.K.W.t.s !.K.x.L.K.L.P O e y @ e $ + @ B w.w.T d.d.F t I.K.K.L.K.K.U.u.d Q./ 8 9 4 m.3.",
"% v P e n i D t Q w.w.K y.d.U w Q.K.K.K.K.L.L.$.v U.H.S.K.K.K.U e n P u U e J t B f.w.+.y.w.F @ I.K.K.L.K.L.W.u.s !.Z./ (  .U.3.",
"* M.I.M M.l.j.t W q.w.+.9.d.F e I.K.K.K.K.K.W.$.s H.K.H.K.K.~.W t M.^.N I.8.Y.e K d.w.@.9.d.L t P.K.L.L.K.K.K.u.d !.K.H.*X/.K.2.",
"% F.H.M F.x.l.t W d.w.@.d.d.J w U.K.K.K.L.K.W.@.h ~.L.H.K.K.L.J e C.W.N U.e.B.u K f.d.8.9.d.Y e E.L.K.L.W.L.K.u.d ^.K.H.K.L.H...",
"* U.G.Z H.G.j.t Y q.w.@.y.d.F e U.K.K.L.W.K.W.$.s ~.L.K.K.K.~.U e R.W.B K.N.F.e B f.d.9.9.d.J e C.K.L.L.K.L.W.u.s ^.K.K.K.H.K.2.",
"* U.H.A W.J.h.t Y u.q.@.y.d.F e !.H.+Xk b T.U.<.v U.L.K.K.K.L.U u W.K.A W.K.F.u F q.f.9.#.w.L t I.K.K.K.~.K.K.u.s Q.K.K.K.K.K.@.",
"% ~.S.A L.K.f.p Y q.d.#.q.q.F w U.Y.1 [.[._ &X<.s U.K.L.K.K.L.F t ^.W.A W.L.M.u F f.d.9.9.d.J w E.K.K.K.K.K.K.j.g %XK.K.L.K.K...",
"* ~.H.5.W.W.l.p W f.f.9.q.#.F e !.m.3 :X7 1 !.<.h U.K.K.K.K.~.U u W.W.+.K.W.P.t I q.d.f.q.d.L t F.K.K.K.~.K.W.y.d /.K.L.K.K.K.~ ",
"% ~.H.7.W.W.f.t W f.d.9.d.q.F w &XA.1 8 3 3.!.<.h W.K.K.K.K.~.P t Q.K.5.W.K.P.u F q.w.d.d.d.J w I.K.K.K.K.K.H.j.g Q.K.K.K.K.K...",
"* U.K.7.~.K.l.e W f.d.9.d.q.K w R.E.$Xm _ T.K.~ h Q.K.K.K.K.K.U u W.K.6.K.W.P.u F w.d.d.f.w.Y e P.L.~.F.~.K.W.u.d /.K.K.K.K.K.o.",
"* U.G.7.K.W.h.t W w.w.d.d.w.L r ~ R 2.F R E F J l U.K.L.L.K.W.U e /.K.7.K.L.P.e F d.w.d.d.d.J e W T ~ F E Y Y } h W.K.K.K.K.K.o.",
"% ^.H.e.K.K.h.y W w.d.w.d.q.F @ n S m a v n a t h U.K.K.L.K.K.J @ /.K.e.L.L.V.i K d.w.w.q.d.F $ n S n p n n g a i *XK.K.K.K.K.! ",
"* U.H.x.L.W.j.e W w.q.f.q.0.F @ H L U j F I F G h H.K.K.K.K.K.Y u Q.W.r.K.K.P.e F w.q.w.q.d.J @ G J H z J L L D g /.K.K.K.K.K.2.",
"% ^.H.N.K.K.l.t W d.d.w.f.q.P @ p.d.h.E d.d.d.Q h U.K.K.K.K.K.P @ /.K.z.K.L.P.e F d.q.q.w.w.F @ y.d.y.o.h.9.d.o.h Q.K.K.K.K.K.! ",
"* U.K.S.K.K.u.t W w.w.d.w.q.L e y.q.h.~ d.d.d.K h W.K.K.K.K.W.U u ^.K.N.K.K.F.i F d.w.q.w.w.J @ i.d.d.~ u.d.f.Q h Q.K.K.K.K.K.2.",
"% ^.K.G.K.K.u.t W w.d.d.f.q.F w y.d.f.#.w.d.w.K h W.K.K.K.K.L.U e ^.K.D.K.L.P.e F d.y.g.d.d.U e y.w.d.@.f.d.d.Q g Q.K.K.K.K.K.~ ",
"% U.G.K.K.K.h.y Q d.w.d.f.q.F w d.d.f.#.w.w.d.L h W.K.K.K.K.W.U e ~.K.D.K.~.P.u F p.i.[ $.s.J e y.d.q.@.f.f.d.Q g Q.K.K.L.L.L...",
"* R.K.K.K.K.k.t Q w.f.d.f.q.F e y.d.h.y.q.q.w.L g W.K.K.K.K.W.U r ~.K.L.L.K.V.r F X.4 }.8 O.J w $.w.w.#.d.d.w.o.g Q.K.K.H.K.K.o.",
"& W.K.K.K.K.u.t W w.f.d.u.q.F w y.q.d.y.q.q.w.L j R.K.K.K.K.~.H e /.K.L.L.L.P.e S ` 0 0 ,._ { t d.w.w.#.d.g.d.+.g Q.K.K.L.K.W.! ",
"* U.K.K.L.~.h.t Q d.d.d.d.d.F r y.d.d.d.d.d.d.W h U.K.K.W.L.L.U t Q.K.K.K.K.P.p S O.3 q 3 O.J w g.d.q.#.d.d.d.@.h %XL.K.K.W.K.2.",
": %XR.W.U.!.s.t X.g.d.h.g.g.J w p.g.g.y.h.h.h.} b T.R.R.W.!.^.[ t *XR.E.Q.Q.A.p G n.+X] 4.b.{ w p.g.d.d.g.g.g.X.l &X!.R.Q.E.R.3."
};
