/* XPM */
static char *ab44937f17ea4faafa1d75f008f764352b9xqffm39Q5XsC3[] = {
/* columns rows colors chars-per-pixel */
"64 64 237 2 ",
"   c #5D3A1F",
".  c #6A3F10",
"X  c #653B24",
"o  c #754302",
"O  c #7A4503",
"+  c #7D4A05",
"@  c #7E4A0B",
"#  c #66421C",
"$  c #6B451D",
"%  c #6D491B",
"&  c #74531E",
"*  c #5D4236",
"=  c #664421",
"-  c #6C4320",
";  c #724A25",
":  c #6C5728",
">  c #785A28",
",  c #665939",
"<  c #755D33",
"1  c #776238",
"2  c #5B5945",
"3  c #575B5C",
"4  c #746B4D",
"5  c #6D6A55",
"6  c #475763",
"7  c #516A7A",
"8  c #656768",
"9  c #6B6B6B",
"0  c #777766",
"q  c #777778",
"w  c #834805",
"e  c #824C05",
"r  c #894E05",
"t  c #844D09",
"y  c #855005",
"u  c #8B5406",
"i  c #85520B",
"p  c #8D540A",
"a  c #8E590A",
"s  c #965805",
"d  c #915609",
"f  c #945B0C",
"g  c #9A5D0D",
"h  c #8E5911",
"j  c #945D13",
"k  c #985F15",
"l  c #A15C06",
"z  c #956212",
"x  c #9D6313",
"c  c #9A6719",
"v  c #A4640A",
"b  c #AA6808",
"n  c #B36C0C",
"m  c #B86F0C",
"M  c #B8770B",
"N  c #A26413",
"B  c #A56914",
"V  c #AC6D15",
"C  c #A56719",
"Z  c #A56B1A",
"A  c #AB6D1B",
"S  c #B26E15",
"D  c #B26E19",
"F  c #A77016",
"G  c #AE7014",
"H  c #AD721A",
"J  c #B37315",
"K  c #BC7513",
"L  c #B4731B",
"P  c #BA751B",
"I  c #B87A18",
"U  c #BC791B",
"Y  c #8B6727",
"T  c #946A27",
"R  c #9D732D",
"E  c #916A37",
"W  c #A56D21",
"Q  c #AB6E20",
"!  c #AD7020",
"~  c #A5772A",
"^  c #B57B23",
"/  c #BB7C23",
"(  c #B87926",
")  c #AE7D32",
"_  c #C47916",
"`  c #C57C1B",
"'  c #CA7E1B",
"]  c #C27B24",
"[  c #926841",
"{  c #84765A",
"}  c #AA7B4A",
"|  c #B47E4A",
" . c #877B61",
".. c #7F8176",
"X. c #BC811D",
"o. c #BB8023",
"O. c #B7822A",
"+. c #B78836",
"@. c #C3830F",
"#. c #C88814",
"$. c #C3821E",
"%. c #CC831D",
"&. c #D18E16",
"*. c #D3871E",
"=. c #D4881E",
"-. c #D4931C",
";. c #D9961D",
":. c #C38222",
">. c #CC8523",
",. c #CE8B24",
"<. c #C4862A",
"1. c #CC862A",
"2. c #CD8B2A",
"3. c #D38721",
"4. c #D38821",
"5. c #D1862A",
"6. c #D28A29",
"7. c #CB9027",
"8. c #D89526",
"9. c #CC8D32",
"0. c #CD9337",
"q. c #D99A32",
"w. c #E39D24",
"e. c #E19E2C",
"r. c #E29E34",
"t. c #DDA33A",
"y. c #E6A224",
"u. c #EAA426",
"i. c #E3A22C",
"p. c #EBA62A",
"a. c #EDAA2C",
"s. c #F0A72B",
"d. c #F3AE2D",
"f. c #F5B02E",
"g. c #E4A232",
"h. c #EAA633",
"j. c #EEAC33",
"k. c #E5A73A",
"l. c #ECAD3A",
"z. c #F3AE32",
"x. c #FAAC35",
"c. c #F4AE3B",
"v. c #ECB13C",
"b. c #F4B133",
"n. c #F4B13B",
"m. c #F8B03E",
"M. c #AD804E",
"N. c #B78348",
"B. c #8E8970",
"V. c #D59B42",
"C. c #D6A55E",
"Z. c #D9A75D",
"A. c #E9AC44",
"S. c #F3AD41",
"D. c #EDB242",
"F. c #F4B141",
"G. c #CB9C60",
"H. c #D7A762",
"J. c #55768C",
"K. c #748490",
"L. c #5586A2",
"P. c #6B9BB4",
"I. c #77A4BA",
"U. c #838586",
"Y. c #8C8C8C",
"T. c #91918A",
"R. c #949494",
"E. c #99999B",
"W. c #9C9DA0",
"Q. c #9AA4A6",
"!. c #A9A8A9",
"~. c #AEADAF",
"^. c #B2B3B3",
"/. c #B5B7BB",
"(. c #BBBCBC",
"). c #89B5CC",
"_. c #98BCCE",
"`. c #8DBAD3",
"'. c #B4BDC4",
"]. c #97C2D6",
"[. c #BEC2C6",
"{. c #A3C8DB",
"}. c #B4CCD9",
"|. c #AACDE3",
" X c #ABD3E8",
".X c #B2D3E5",
"XX c #B7D8E8",
"oX c #BADEF4",
"OX c #BEE3F2",
"+X c #C6C7C7",
"@X c #D4CBCD",
"#X c #CBCED1",
"$X c #CBD8DC",
"%X c #D7D6D7",
"&X c #D4DBDC",
"*X c #DBDDDD",
"=X c #E5DDD5",
"-X c #E3DEDD",
";X c #DEE1DE",
":X c #E3E2DD",
">X c #E9E2DC",
",X c #EAE8DE",
"<X c #C7DAE7",
"1X c #D4DCE3",
"2X c #DCDDE3",
"3X c #DCDFEA",
"4X c #C2DBF2",
"5X c #E1DFE1",
"6X c #CBE3EC",
"7X c #D6E2E5",
"8X c #DEE3E3",
"9X c #D3E3EB",
"0X c #DCE4EB",
"qX c #DBE9ED",
"wX c #CAE5F5",
"eX c #D6E5F1",
"rX c #D5EBF4",
"tX c #DBECF4",
"yX c #D4EDFA",
"uX c #DCECFA",
"iX c #CEF1FB",
"pX c #DCF2FB",
"aX c #DBF5FA",
"sX c #E3E3E3",
"dX c #EAE6E3",
"fX c #E5E8E6",
"gX c #EAE9E5",
"hX c #E4E5EA",
"jX c #EAE5E9",
"kX c #E5E9EB",
"lX c #EAE9EA",
"zX c #F2EAE8",
"xX c #E4EDF3",
"cX c #E2E9F6",
"vX c #EAECF1",
"bX c #E5F2F9",
"nX c #F3F2F1",
/* pixels */
"* H.H.H.Z.Z.N.; [ M.M.} | } [ ; N.N.N.N.N.N.| R > H.H.C.Z.Z.Z.E ; H.Z.Z.Z.C.G.; E } } } } } [ - | | | N.N.N.N.} > H.C.Z.Z.Z.Z.} ",
"% c.d.d.f.b.8.o @ u a t g w t w 1.3.*.*.*.*.3.L j c.p.s.s.z.u.L r m.d.f.s.d.g.t + y f w f t t O :.*.=.=.4.4.3.U d c.y.z.s.a.u.O.",
"# z.d.d.a.f.2.y c X.o.z $.G W O 3.3.3.3.3.3.*.L d r.4.q.8.8.q.Z w c.d.s.d.z.g.y Z L $.a :.J B e 3.3.=.=.3.3.3.U p r.1.6.q.q.8.! ",
"% l.d.d.d.f.6.y H g.A.Z A.r.L w 3.3.=.3.3.*.*.J t C g k x N f j i c.d.s.d.d.g.i H g.j.M n.y.I e ] 3.4.4.3.3.3.U t C g z N l g T ",
"# j.s.a.d.d.4.t / +.< 0 1 V.! e 3.3.3.=.*.*.*.D O p i + f u a + e c.z.p.z.f.g.y G a.a.M n.a.J + 5.3.4.4.4.4.3.U + p h O k p j @ ",
"% i.a.u.z.d.7.+ o.T B.B. .~ H e 3.3.*.=.=.3.3.P d 8.7.v 8.X.q.f t h.z.p.z.f.g.e G a.a.M b.d.I e >.*.=.=.4.3.*.U i ] / u ] J ( h ",
"% i.a.u.z.z.4.t :.~ 4 9 , +.L e ' 3.=.4.4.=.5.P j j.h.I z.y.d.F t i.z.w.f.z.g.r G z.b.M n.f.I t >.*.*.=.=.=.*.U p 5.2.l 3.' 3.Q ",
"= e.d.u.d.d.,.y :.t.R Y R l.S e 3.=.3.4.=.4.' P f z.h.I d.a.d.B w e.z.w.f.d.g.y G z.d.@.n.b.J + >.*.=.*.=.=.*.U a 5.6.v 4.*.3.A ",
"% 8.p.y.z.b.7.i X.f.n.7.l.b.L e >.*.3.4.4.=.3._ f j.h.-.f.a.f.H r 8.a.;.d.s.g.r S z.z.@.c.b.I e %.=.=.=.4.*.*.U u 4.1.b =.4.=.L ",
"# 8.h.i.h.b.7.+ X.z.b.@.a.f.J e >.*.*.=.=.=.' P f j.a.-.a.f.b.F e 6.j.8.j.h.g.i J z.z.#.z.z.J t 3.=.=.=.4.3.*.U u ,.6.n =.=.4.Q ",
"# B H V G H Z @ :.z.d.&.a.b.L e ,.3.=.=.=.=.4.P f f.a.;.d.a.f.F t v J v D H L i S d.d.&.j.d.I + >.3.4.=.=.4.3.U d 4.5._ =.4.4.Q ",
"  + + o + o o + :.z.s.-.a.b.L e >.=.=.=.=.=.4.P z f.a.y.d.d.f.H o O t O O o o + V d.d.-.l.f.P e >.*.=.4.4.=.*.U u 1.4._ 4.4.4.Q ",
"X l A r x p C + $.x.d.;.p.b.H + 1.=.=.=.*.=.3.P a f.a.i.a.f.f.F + x D r C r Q t n b.d.;.j.b.J e >.*.4.4.4.3.*.U d 1.3.' *.=.4.A ",
"% U 3.s ` K P t $.z.d.;.p.a.H + >.=.=.=.=.*.3.P f f.f.a.f.a.f.H t U 3.s ' S :.r J z.d.w.j.b.I t ] 3.4.*.*.*.=.U p 3.3.' 4.4.4.! ",
"  ' %.s ' ` I t :.z.d.y.a.z.J + 5.=.=.4.=.=.4.L f j.a.f.f.f.b.F e ] =.l %._ ] i G z.f.y.a.z.J e %.=.6.( ( >.*.U p 3.3.4.4.4.4.! ",
"% %.*.l %.' U t ] z.d.y.a.z.J e 3.=.4.=.4.4.4.I f j.f.f.f.f.b.H t >.4.l %.' 1.r G d.d.a.a.z.L e $.1.T < < <.5./ p 1.4.4.=.=.4.! ",
"% >.%.b *.*.P t :.x.d.a.p.).`.|..X}.XX$X$X$X&X&X&X$X<XXX[.a.f.H t 1.3.l >.3.1.r J z.f.a.a.z.K e %.<., !.0 : <.P p 5.4.4.3.=.4.Q ",
"# 3.%.n 3.%.I t :.d.d.a.<X<X<X<X1X2X&X&X;X*X&X*X&X%X&X&X$X6X.XI.L.5.3.b *.3.:.r V z.b.s.a.f.J e %.1.: ..2 Y 9.U p 6.4.3.=.4.=.Q ",
"% 3.3.n 4.=.U t $.b.b.<X3X5X2X%X&X&X*X*X%X&X*X%X*X*X*X*X*X&X<X6X.XI.L.b 3.*.<.i J z.f.d.s.f.I e :.,.+.& & V.3.U d 6.3.4.=.=.=.! ",
"X 3.%.m 4.=.P t $.x.d.4X1X*X-X%X*X*X*X*X;X*X*X;X&X*X*X*X;X&X;X<X9XwX|.).3.*.>.y G d.z.d.d.f.J + >.=.6.<.1.*.3.] p 5.4.4.=.=.4.A ",
"- 3.*.m ,.4.U t $.x.d.<X3X*X>X*X*X*X;X*X;X;X&X;X*X*X2X*X*X*X;X*X2X9XeX6X.X).P.y G a.f.d.d.d.U e $.=.3.$.4.=.4.( d 6.4.3.=.=.=.L ",
"- =.%.K *.*.U t $.z.d.}.cX%X>X*X;X8X;X8X;X;X;X;X;X;X;X8X;XsX:X*X2X2X8X9X9X6XXX].I.d.f.d.d.d.I t H J J x J J B W p 3.4.4.=.=.3.Q ",
"= 3.%._ *.=.U e $.d.d.z.cX2XsX*X:X8X8X;XsX8X8X8X;XsX8X;X8XsX%X>XdX-X:X:X;XqXqX6XXX].d.d.d.f.I + j x x t g x u y r 5.4.4.=.=.=.Q ",
"- 3.%.` 4.=.U e $.x.d.z.uX5XsX;X8X:X8XsX;X;X8XsX8XsX8XsX8XsXfX:X-X>X=X>XgX;X;X7XaXyXwX_.d.z.I + I :.U H >.:.:.L i 6.4.*.=.=.=.! ",
"= 3.%.` *.*.U t $.d.d.x.uX0XjXsX:XfXfXsX8XsXsXsX8XsXsX:X8XsX8X8X:X:X=X>X>X>XdXhX0XeXeXuXwX_.J + k.b.j.8.x.z.z.7.p 5.4.4.=.=.=.A ",
"- 3.*.%.*.*.U w o.z.z.x.eXvX5XjXsXsXsXsXhXdXdXhXdXkXhXdXdXfXqX8X8XfXfXfX>XdXdXsXhXhXcX3XcXuXwX{.k.z.b.8.b.f.f.,.d 3.3.4.=.=.=.! ",
"% 4.*.' *.*.U t o.k.o.c 4XbX;XgXdXdXdXdXlXdXkXdXhXdXdXhXdXkX8X2X8XfXfXfXdXdXjXjXjXjXjXlXkXtXtXrX4X}.).q.z.f.b.6.p 5.4.4.=.=.=.Q ",
"X >.4.%.*.3.U t o.O.< B.1 bXsXgXfXgXkXkXfXhXdXlXkXgXlXkXlXlXkXjXkXfXfXkXhXhXjXjXjXjXjXlXlXfXfXxXbXrXwX X).f.b.7.d 5.4.4.=.=.=.Q ",
"- 3.3.3.=.4.U t <.T B.5 5 bXlXzXgXlXlXlXdXkXlXnXlXlXlXlXgXdXzXzXzXvXjXcXxXhXvXhXlXgXdXlXkXdXdXdXfXxXbXpXaX.Xz.6.d 6.4.=.=.=.=.L ",
"# 4.4.3.=.=.I t X.+.< 4 : XX&X%X*X*X:XsX8XdXdXgXlXlXlXgXlXlXzXzXjXjXvXvXxXxXxXlXgXzXgXlXvXvXjXlXlXnXlXqXaXbXaX Xd 6.3.4.=.=.*.Q ",
"- 3.4.3.=.4.U t X.F.+.T 0.Q.~.~.~.~.~.~.^.^././.(.(.+X+X+X+X@X@X@X%X%X%X&X&X2X-X=X>XsXjXhXhXjXvXvXhXlXxXvXkXtXpX X1.4.4.=.=.*.Q ",
"- 3.4.3.=.=.U e o.n.n.n.n.L.K.K.U.T.Y.T.Y.Y.R.R.R.R.R.R.R.R.E.E.E.E.W.W.W.!.W.!.!.!.~.~.~././.'.[.[.#X#X$X%X$X0X.X5.4.4.=.=.=.Q ",
"X 3.*.*.3.3._ r B I U L U J.7 8 8 9 9 9 9 9 8 8 9 9 9 9 9 q q q U.U.Y.Y.R.R.W.W.!.!.~.^./.'.[.+X+X+X#X#X&X$X1X9X|.6.>.4.4.*.3.Q ",
"- 3.*.3.3.3.` . o e e o i 7 6 6 3 3 8 9 q q U.Y.R.E.!.^.(.(.[.[.+X@X%X%X1X2X2X3X3X3X5X3X5X*X;X:X>X,X:X;X1X<XyXoX`.5.' 3.3.3.' Q ",
"$ =.*.3.*.3./ w j A L f ^ _.'.[.+X@X#X%X*XsXdXdXdXfXsX-X-X-X5XsX5X5X5X5X3X5X2X2X3X1X2X2X2X:X-X=X=X=X;X8XyXiXoX].p <.L U ] ] ` Q ",
"- 4.*.3.*.3.U t A ] 5.v 6.yX0X0XsXgXdXsX*X*X*X%X*X*X*X8X-X5XsX5X5X5X5X5X5X5X3X5X5X0X0X3X*X5X*X:X;X;X;X7XXX].j.,.y B f f x l g k ",
"# >.*.' *.4.U r J *.3.v |.yX1XsX;X2X:XsX-X8XsXsX-X*X5XsX5XsX*X-X5X>X5XdX5XjX5X5X5X5X5X5X8X8XqX0X;X6XXX].f.d.f.,.+ i h o g p d t ",
"$ %.*.' 3.4.U t L *.5.l OXrX8XsXsX:X:X2X8X-X5XsX8XsX*XsXsX2XsXsX5X5X5X>X5X5X>X-X5X5XjX5X2X9XrXwX X].f.f.f.d.a.,.i <.O.u ` J <.h ",
"$ #.%.' 3.3.` t D 3.3.v iX0X8X:X5XsXsXsXsXsX5XsXsXsXsXsX5XsX0X8X5X5X5X>X-X=XzXdXdXsX*X8XpXyXXX+ i.f.f.f.d.d.d.,.a m.F.b x.y.z.( ",
"X ` %.' 3.3.P t D 3.3.b yX7XsX:XsXsXsXsXsXsXsXsXsXsXsXsXsXfXhXfX5X5X5X5XzXzX5X-X1XkXbXqXXX).V e j.f.a.b.d.d.d.&.d F.F.n b.a.j.^ ",
"# _ 1.' =.*.U t D *.*.n uX;XfX:XfXsXfXsXsXdXfXsXfXsXsXfXsXhXfX0X5X5X5XjXsXfX0XqXrXwX.X).5.=.G t i.f.d.d.d.f.j.-.u m.F.X.7.k.d./ ",
"X I >.' ' >.U w J =.*.XXeX8XgX:XsXdXdXfXhXsXsXhXfXhXdXhXhXdXfX8XjXcXhXhX9XrXrXiX X*.=.n 5.4.V + h.f.d.f.z.d.d.,.s n.~ 1 0 Y k.^ ",
"# N V v V A Z t D *.,.6X7XgX:X,XdXdXdXdXhXdXhXdXdXdXfXfXdXdXsXsXdXkXvX0XrXwX|.i V *.*.m 3.5.A e h.d.d.d.d.f.d.1.f S.> B.0  .+.^ ",
"  y y + t + o t L *.*.rX7XnX:XgXfXfXhXgXgXgXfXjXlXgXfXfXfXhX8XsXkXxXuXwX|.+ O + b *.*._ 3.4.V t h.f.d.f.d.d.j.,.a c.T 4 5 : 0.O.",
"  v F y x u B y L 4.3.yX0XsXgX,XfXlXfXlXgXgX>X:XgXgXfXfXkXkXhXeXuXyX Xy A t Z y V =.=._ %.4.V + h.d.d.d.d.f.d.,.a v.q.T Y ) v.^ ",
"% q.h.b q.7.7.y J =.*.iXyXbXkXfXvXvX0XhXsXgXzXgXgXlXlXxXtXtXyXwX|.q.v.v h.#.g.r S =.*.` %.4.D e g.d.f.f.z.d.z.,.a v.f.a.F.j.a.o.",
"# i.a.b y.w.7.t L *.3.` OXiXiXrXpXtXcXcXxXxXlXkXvXvXxXcXuXwX{.F w r.c.v h.-.e.t S *.3.$.>.4.S t h.d.x.f.d.f.d.,.s n.f.a.d.d.a.^ ",
"% a.a.b a.a.,.t J =.3.%.,.).].]..X4XwXuXpXbXpXbXuXuXyX<X{.f.f.H t l.z.b z.w.e.y G *.3.%.%.=.A w h.d.d.f.d.f.d.,.a b.f.a.d.a.f.o.",
"% b.p.M z.s.4.i L *.3.%.%.3.V t l.a.V.& c k.f.X.a j.f.f.d.d.f.H y x.d.M z.s.i.y V *.4.%.' 4.A t h.d.d.d.f.f.d.,.u c.d.d.f.d.d.U ",
"# b.y.X.x.d.7.t J =.*.%.%.3.V w v.k.: B.B.R v.X.f j.a.f.d.d.b.V + z.d.X.z.z.i.e V 4.3.%.*.3.V w h.d.d.d.b.f.z.,.d m.d.f.f.d.s.U ",
"% j.u.@.z.f.4.i L 4.4.*.*.' V w v.0., T.2 : v.X.f j.f.f.d.d.b.H y x.z._ z.d.r.y V =.4.4.%.3.D w y.d.f.d.f.a.a.,.d c.d.f.f.d.d.o.",
"# f.a.&.b.f.,.i L 4.4.3.3.*.V w v.t.& 4 , O.v.X.f j.f.f.d.d.b.F + n.d.@.z.f.g.y V =.*.3.3.3.A w l.d.d.a.f.a.b.7.d m.d.d.d.d.d.U ",
"% b.a.&.f.f.,.y L 4.4.=.3.*.S w l.c.A.c R v.j.U f n.d.d.d.d.f.H y n.d.@.d.d.g.y V *.4.4.3.=.D t g.f.b.i.b.d.z.,.a n.d.d.d.d.d.o.",
"% j.a.&.f.z.6.t L =.=.4.*.*.S w I J X.V I I V A f j.d.d.d.d.d.H y b.f.#.d.f.g.t V 3.=.3.4.4.V e L K I V U J S ! a x.d.d.d.d.d.^ ",
"# v.a.&.d.d.,.t J 4.=.4.=.%.V + x N c u f N p t z j.d.f.f.d.d.A e n.f.8.d.b.r.t S 4.=.*.=.4.A + g N x t x x d p u m.f.d.f.d.d.U ",
"% j.a.w.d.z.7.t L 4.4.=.4.*.G + A D L g G G V C f a.d.d.f.d.d.J y x.d.-.d.f.i.r V =.=.*.=.4.D + Z A A k G S D Z f m.d.d.d.f.a.o.",
"# l.s.w.d.d.7.t L 3.=.4.=.*.V O 1.*.6.P 4.4.3.D f z.d.d.d.d.z.F + n.x.;.d.f.i.r V 3.=.*.*.*.V + >.3.>./ 3.>.3./ a m.d.d.d.d.d.I ",
"% j.d.u.d.f.7.t L =.4.4.4.*.V w >.*.6._ 4.3.3.K f z.f.d.d.d.d.H y n.d.w.d.f.i.y V 3.*.*.=.*.A + <.3.3.U >.*.3.U f c.d.d.d.d.d.X.",
"$ z.d.u.d.d.7.t J 3.4.4.=.*.V w >.*.6.' *.*.3.S f j.f.d.d.d.d.H e n.f.y.d.f.g.y V 3.%.3.3.4.H + >.*.4.` 5.=.3.P a c.d.d.f.d.d.^ ",
"# c.d.d.s.d.6.t L 3.3.4.4.*.V e 3.=.6.' *.=.3.D f z.a.d.d.d.z.H e n.f.u.d.f.r.y A 5.<.Q ] 2.V t >.3.4.` 4.=.3./ d c.d.d.d.f.a.o.",
"% l.s.z.d.d.7.r P *.4.3.3.*.V w >.*.4.>.*.*.*.D f z.s.d.d.d.b.H y n.d.f.f.x.e.t N ( < B.4 ) A O ] =.=.' 3.4.4.P d c.f.d.d.d.d.U ",
"# z.d.f.d.d.,.t L =.4.3.3.>.V e 1.3.3.>.=.*.3.L f c.d.d.d.d.j.F w x.d.f.f.f.e.y N E { 9  .R Q w 3.=.=.' 3.3.3._ d m.d.f.d.d.d.^ ",
"% z.d.d.d.z.6.t P 3.4.4.4.*.S w >.3.3.3.3.=.4.L f l.d.d.b.d.b.H y b.s.d.d.d.g.i C ) , 0 , ) A w 5.3.=.' 3.3.3.] f c.a.f.z.d.d.o.",
"= D.z.z.n.v.9.t L 5.6.3.6.5.A w 1.5.5.>.6.6.2.! h l.l.l.z.n.n.W t F.l.c.c.c.t.i k V.V.R +.9.Q @ 1.3.3.3.5.5.5.( h D.l.l.c.j.l.O."
};
