/* XPM */
static char *result[] = {
/* columns rows colors chars-per-pixel */
"64 64 238 2 ",
"   c #5D3A1F",
".  c #6A3F10",
"X  c #653B24",
"o  c #754302",
"O  c #7A4503",
"+  c #7D4A05",
"@  c #7E490D",
"#  c #66421C",
"$  c #6B451D",
"%  c #6D491B",
"&  c #78541E",
"*  c #5D4236",
"=  c #664421",
"-  c #6C4320",
";  c #724A25",
":  c #6C572A",
">  c #795928",
",  c #685938",
"<  c #755D33",
"1  c #776137",
"2  c #5B5945",
"3  c #575B5C",
"4  c #74694E",
"5  c #6F6C57",
"6  c #475763",
"7  c #516A7A",
"8  c #656768",
"9  c #6B6B6B",
"0  c #777766",
"q  c #777778",
"w  c #824B04",
"e  c #854B04",
"r  c #844D09",
"t  c #855006",
"y  c #8B5406",
"u  c #85520A",
"i  c #8D540A",
"p  c #8E590A",
"a  c #945806",
"s  c #915609",
"d  c #945B0C",
"f  c #9A5D0D",
"g  c #8E5911",
"h  c #945D13",
"j  c #995E14",
"k  c #A15C06",
"l  c #9E630C",
"z  c #9D6313",
"x  c #9B6618",
"c  c #A96608",
"v  c #B26C0B",
"b  c #B86F0C",
"n  c #B8750B",
"m  c #A26413",
"M  c #A66A14",
"N  c #AC6D15",
"B  c #A56719",
"V  c #A56B1A",
"C  c #AB6D1B",
"Z  c #B26E15",
"A  c #B26E19",
"S  c #A77016",
"D  c #AE7114",
"F  c #AE721B",
"G  c #B37316",
"H  c #BB7513",
"J  c #B3731B",
"K  c #BA741B",
"L  c #B87A18",
"P  c #BC791B",
"I  c #8A6728",
"U  c #946A27",
"Y  c #9C732E",
"T  c #916A37",
"R  c #A56D21",
"E  c #AB6E20",
"W  c #AD7020",
"Q  c #A5772A",
"!  c #B57B23",
"~  c #BB7C23",
"^  c #B87926",
"/  c #AE7D32",
"(  c #C47916",
")  c #C47C1B",
"_  c #CB7E1B",
"`  c #C37C24",
"'  c #926841",
"]  c #84765A",
"[  c #A67746",
"{  c #AC7D4C",
"}  c #B47E4A",
"|  c #827A62",
" . c #BC811C",
".. c #BB8023",
"X. c #B68229",
"o. c #B78836",
"O. c #C3830F",
"+. c #C98915",
"@. c #C2821E",
"#. c #CD831D",
"$. c #D18E16",
"%. c #D3871E",
"&. c #D4881E",
"*. c #D7951C",
"=. c #C38222",
"-. c #CC8523",
";. c #CE8B24",
":. c #C3842B",
">. c #C9872A",
",. c #CD8B2B",
"<. c #D38621",
"1. c #D38821",
"2. c #D1862A",
"3. c #D28A29",
"4. c #CB9027",
"5. c #D89626",
"6. c #CC8D32",
"7. c #D08D39",
"8. c #C9963C",
"9. c #D99A31",
"0. c #E29D24",
"q. c #E19F2A",
"w. c #E29E34",
"e. c #DDA33A",
"r. c #E6A224",
"t. c #EAA426",
"y. c #E5A22C",
"u. c #EBA62A",
"i. c #EDAA2C",
"p. c #F0A72B",
"a. c #F4AE2D",
"s. c #F5B02D",
"d. c #E4A232",
"f. c #EAA634",
"g. c #EEAB33",
"h. c #E5A73B",
"j. c #EDAC3A",
"k. c #F3AE32",
"l. c #FAAC34",
"z. c #F3AE3B",
"x. c #EDB13C",
"c. c #F4B033",
"v. c #F4B13B",
"b. c #F9B43C",
"n. c #AD804E",
"m. c #B78348",
"M. c #8E8970",
"N. c #D69A43",
"B. c #D6A55E",
"V. c #D9A75D",
"C. c #EAAC44",
"Z. c #F4AE41",
"A. c #EEB143",
"S. c #F4B141",
"D. c #CB9C60",
"F. c #D7A762",
"G. c #55768C",
"H. c #748490",
"J. c #5487A3",
"K. c #6B9BB5",
"L. c #77A4BB",
"P. c #838586",
"I. c #8C8C8C",
"U. c #91908D",
"Y. c #949494",
"T. c #96959B",
"R. c #9A9A9B",
"E. c #9C9DA0",
"W. c #9AA4A6",
"Q. c #A9A8A9",
"!. c #AEADAF",
"~. c #B2B3B3",
"^. c #B5B7BB",
"/. c #BBBCBC",
"(. c #89B5CD",
"). c #8FBAD2",
"_. c #93BCD3",
"`. c #B4BEC5",
"'. c #8FBFE1",
"]. c #97C2D6",
"[. c #BEC2C6",
"{. c #A4C6D9",
"}. c #B5CEDE",
"|. c #A8CCE2",
" X c #ABD3E8",
".X c #B2D3E5",
"XX c #B8D8E7",
"oX c #BADEF5",
"OX c #BEE3F3",
"+X c #C6C7C7",
"@X c #D4CBCD",
"#X c #D6D6CD",
"$X c #CBCED1",
"%X c #CED7DA",
"&X c #D7D6D7",
"*X c #D4DBDC",
"=X c #DBDDDD",
"-X c #E5DDD5",
";X c #E3DEDD",
":X c #DEE1DE",
">X c #E3E2DD",
",X c #E9E2DC",
"<X c #EAE8DE",
"1X c #C7DAE6",
"2X c #D4DDE3",
"3X c #DCDDE3",
"4X c #DCDFEA",
"5X c #C2DBF2",
"6X c #E1DFE1",
"7X c #CBE3EC",
"8X c #D6E2E5",
"9X c #DEE3E3",
"0X c #D3E3EB",
"qX c #DCE4EB",
"wX c #DBE9ED",
"eX c #CAE5F5",
"rX c #D6E5F1",
"tX c #D5EBF4",
"yX c #DBECF4",
"uX c #D4EDFA",
"iX c #DCECFA",
"pX c #CEF1FC",
"aX c #DCF2FB",
"sX c #DBF5FA",
"dX c #E3E3E3",
"fX c #EAE6E3",
"gX c #E5E8E6",
"hX c #EAE9E5",
"jX c #E4E5EA",
"kX c #EAE5E9",
"lX c #E5E9EB",
"zX c #EAE9EA",
"xX c #F2EAE8",
"cX c #E4EDF3",
"vX c #E2E9F6",
"bX c #EAECF1",
"nX c #E5F2F9",
"mX c #F3F2F1",
/* pixels */
"* F.F.V.V.B.m.; ' n.n.{ { { ' - m.m.m.m.m.m.} Y < F.V.F.V.V.V.T ; F.V.V.B.V.D.; T { { [ n.{ ' - } } } m.m.m.m.[ > F.V.B.V.V.V.[ ",
"% z.a.a.s.k.5.o + i p r f w r e >.<.%.%.%.%.<.A f z.t.p.i.p.t.J e b.a.a.p.a.d.w + t d O d e r O -.&.&.&.1.1.<.~ d z.t.i.a.u.t.X.",
"# k.k.a.a.a.;.u x  ...f =.N R w <.<.<.<.<.&.&.J s w.;.9.5.9.5.V e z.a.a.a.k.w.u V J  .d =.G M O <.%.&.&.<.1.1.K i w.-.3.w.5.5.Q ",
"% j.a.a.a.i.5.r F d.C.R C.w.A w <.<.&.<.<.&.%.G r B f j m x f h y z.a.u.a.k.w.y F y.j.n v.t.L w ` <.<.<.<.<.<.P r B j j j m k U ",
"# g.i.t.a.s.;.+ P o.> 0 < N.W r -.<.<.&.&.&.<.A O i y O f y p + w z.k.u.k.s.d.r D i.i.n c.i.G w 2.<.1.1.1.<.%.P + i g O j i h @ ",
"% y.a.t.k.a.5.+ ..I M.M.| Q F w <.%.&.%.%.&.<.A d 3.;.m 5. .9.g e f.k.u.k.s.y.t D i.i.n c.a.L + -.<.%.&.1.1.%.P i ` ~ y ` A ^ h ",
"% y.a.t.a.k.1.@ :.Q 4 0 , o.J w <.%.&.<.<.<.<.K d c.d.L g.r.s.S e f.k.0.s.a.d.r D a.s.n v.c.P r -.%.&.&.&.&.&.P i ,.,.k 1._ <.C ",
"= 9.i.t.k.a.;.t =.e.Q 1 Y j.G w <.&.<.&.<.&.<.K f g.d. .s.i. X X|.'.a.0.c.a.w.t D c.g.O.v.c.G + -.%.&.&.&.&.%.P i ;.3.k <.%.<.C ",
"% 5.u.r.k.k.4.t @.s.v.4.x.c.J w -.&.&.<.&.<.<.K f g.f.$.s. XaXqX7XoX'.*.a.a.d.y N k.k.O.k.c.L w #.&.&.&.<.&.&.P y 1.-.v %.%.%.W ",
"# 5.f.q.g.k.4.+  .k.c.O.i.s.G w -.<.<.&.&.&._ K d g.g.*.s.sXyX%X2XuXoX*.g.f.9.i A a.l.+.z.k.G r -.&.&.&.&.<.<.P i ,.3.v 1.1.1.E ",
"= M J M S F N w =.k.a.$.i.c.J w ;.<.&.&.&.&.<.K d s.i.5. XnXyX&X*X1XuX].J N J u N a.i.$.g.c.G + -.&.&.1.<.&.&.P i 1.1.( 1.1.1.C ",
"  + w o + o . + ` k.a.$.i.g.J w -.&.&.&.&.&.<.( d i.i.(.sXaXbX%X%X2XiXXXO o o + Z a.s.*.g.s.P r -.&.1.1.&.<.<.P i -.3.( &.1.1.W ",
"X k C e z i x r @.l.s.*.i.c.F + -.1.1.&.&.&.<.J d s.i. XaXwXzX$X%X=XgX7X].e W r v s.s.*.k.c.G w -.<.&.1.<.&.&.P s ,.<.( 1.&.1.E ",
"% P <.a ) H P r @.c.s.*.u.g.D + -.%.&.&.&.&.&.K d s.(.pXnXbXbX$X$X>X#X:XXXv =.t D c.s.5.g.c.P w ` <.&.&.%.<.%.P i 1.1.#.&.<.&.W ",
"  #.#.k _ ) K w =.k.a.0.i.k.J + 3.&.<.&.&.<.1.K d g.|.pXqXmXkX+X+X<X-X>X0X].=.u D a.a.t.i.k.G + -.%.2.^ ^ -.%.~ i <.<.<.1.1.<.E ",
"% #._ k -._ P r @.l.a.t.u.k.G w <.&.&.<.<.&.%.J f g.7XyXkXxXbX[.+X<X-X:X8XXX>.t D k.a.i.i.k.P + @.1.U < < :.<.~ i >.1.<.1.1.1.A ",
"% <.#.c %.#.P r =.l.a.p.p.s.D w -.%.<.&.1.1.<.K d {.uXcXgXhXbX`.+X>X-X:XqXeX` y G k.a.u.i.a.P w #.:., Q.0 ; 6.L i >.1.1.&.&.1.E ",
"= <.#.v <.#.P r =.a.a.i.i.k.A w ;.%.&.<.1.&.<.K d 7XyXlXgXzXjX^./.>X=X>XqXuXXXr N k.a.a.i.a.G w #.6.: 0 2 I 6.L i 1.<.1.&.1.&.E ",
"% <.#.b <.%.P r @.k.s.a.i.c.J w -.1.1.&.&.<.<.K ].yXyXjXgXbXjX~./.9X;X=XqX8XuX).G k.k.a.a.a.L e =.;.o.& & N.2.K g 2.1.1.&.&.&.W ",
"X <.-.b 1.%.L r @.a.a.s.s.k.F w <.<.1.&.1.1.1.A eXvXlXzXzXzXjX~.^.3X9X3XdX2XcXXXD k.k.a.a.a.G + ;.1.3.:.>.%.%.` i 2.<.1.&.&.1.C ",
"$ <.%.b 1.1.P r @.l.a.a.a.k.J w -.1.%.#.1.1.&._.uX4XkXbXzXfXxX!.~.3X3X3X6XjXqXtX(.k.s.a.a.a.H w =.%.&.) 1.%.1.~ s <.1.1.&.&.&.J ",
"- <.#.H 1.%.L r =.a.a.a.a.c.G w F D J l G J c eXrXjXkXkXfXxX;X!.!.wX3XqX6XkX=XcX}.a.a.a.a.s.P r F G G z G D M R i 3.1.<.&.&.<.E ",
"- <.#.( &.&.P r @.k.a.s.a.k.J O f m x t f x _.iXqXvXkXkXhXhX-XQ.Q.qX2XdX6X6XdXwXeXs.a.a.s.s.J r j z z r z z y t y 2.1.1.&.&.&.E ",
"- -.%.) <.&.L w @.k.s.c.a.c.G + ` ` ,.S  .L.XXiXqXjXkXkXhXzX=XQ.E.4X3X4X6X6XfX*XtX.Xs.a.s.s.L O J =. .C -.@.=.J i >.<.&.&.&.&.W ",
"- -.%.) %.%.P r ) k.a.a.s.c.D + Z.l.b.5.i.].7X8XwXfXkXjXkXlX6XQ.E.6X4X6X6X6XkX6XwXpXa.a.a.s.G O h.k.z.5.k.a.z.4.i <.1.&.&.&.&.C ",
"- <.%._ %.%.P w ..k.k.l.p.c.J w z.a.c.5.K.XXwX:XdXfXfXkXlXbX3XQ.E.4X4X6X6X6XxX6XwXtX{.a.a.a.P w d.a.c.5.k.s.s.3.i 2.1.<.&.&.&.W ",
"$ <.#.#.&.&.P r ..h.X.x X.x.F t z.a.c.u.).7X9XdXfX,XkXjXkXvX3XE.T.2X3X6X,X;X-XxXgXtXeXk.a.c.L O f.a.k.q.c.s.a.;.s 2.<.1.&.&.&.E ",
"- -.%.%.&.<.P r =.X.< M.1 8.F + z.a.k.t..X0X9X,X,XfXgXjXvXbX2XE.Y.2X6X6XkX;X-XfXgX8XtX{.s.k.L w f.a.c.y.c.s.a.;.i 2.<.1.&.&.&.E ",
"- -.<.1.&.1.P r ..U M.5 5 Y L + g.a.k.(.5X8X>X,X-XfXgXlXlXbX&XE.I.;X6X6X6X,XfX6XdX9XwXuXa.c.J r d.a.a.y.k.a.a.;.i 3.1.1.&.&.&.J ",
"$ <.1.<.&.%.P t  .o.< 4 : 8.S + v.a.J. XrX9X,X;X,XfXgXlXbXzX&XE.I.&X;X6X,X6X6X6XdXjXlXiX.Xc.G + j.a.c.u.a.a.a.;.s 3.1.1.&.&.<.E ",
"- -.<.<.&.1.P r @.x.o.U o.A.G + z.a.L.eX0X3X;X;X>XgXgXgXlXkX&XR.P.@X6X6X6X6X6X6XqXfXlXcXuXz.K w d.a.a.u.a.a.a.;.s 2.<.&.&.&.&.E ",
"- <.1.<.&.%.P e :.v.b.z.b.b. .+ z.J..XrX2XdXfX-X>X9X9XlXzXxX@XE.G.+XkX6X6X6X6X6XdXqXfXjXvX|.P w d.a.a.a.a.a.a.;.s 3.1.1.&.&.&.E ",
"X <.%.<.&.<.( e M L P L L P M w c.L.7X8X=X;X;X>X:XgX9XjXxXxX@XR.M.+XkX6X6X6X6X6XwXdXdXdXwXeXV w f.a.a.k.a.s.i.$.i ,.<.1.<.%.<.C ",
"% <.&.<.<.<.P . . w w o u o o + g.|.7X8X=X>X&XgX9XqXqXgXxXxX@XR.| [.6X6X6X6XjXkXjXlX>XdXwXtX{.o d.a.p.a.a.a.a.;.p 3._ <.<.<._ E ",
"X &.%.<.&.<.) r f N J g ! l x + v.1X*X*X:XdX=XdXgXgXlXzX6XxX+XY.G./.6X6X6X6X6XkXlXdXdXfXbXwXeX+ f.k.a.a.a.a.a.;.y >.J P ` ( ) R ",
"% &.%.%.<.<.K r M -.;.m 3.) F w {.*X=X=X=X=X:XdXgXgXfXzXkXkX+XY.| ^.6X6XdX6XjX6XdXfXlXlXlXyXyX{.d.i.a.a.a.a.a.;.t M d d j m f j ",
"$ <.%._ &.<.P r J %.<.m %.#.S w 1X*X*X*X=X9X9XdX:XgXhXzXzXzX+XR.9 !.6X9X6X6XdXdXjXgXgXdXlXlXiXeXf.c.a.k.a.s.a.;.+ u p o j s s @ ",
"- _ %._ <.<.) r A %.<.k %.;.F w %X*X*X:X=X:XdX9XdXgXfXhXzXzX/.Y.9 Q.dX=X6XdXdXdXdXfXfXlXgXlXvXuXf.s.a.k.a.s.a.;.i :.X.y ) G :.h ",
"$ ) #._ <.<.K r A &.<.m %.1.D w %X*X*X=X=XdX9X:XdXjXjXlXzXzX/.Y.9 R.fX=X;XdXdXdXdXjXgXhXhXhXcXiXd.k.a.s.a.a.a.;.s S.S.M z.t.k.! ",
"# ) #._ <.<.P y A <.1.c #.1.C + :X*X=X=X=X:X9XdXdXlXfXhXzXzX/.Y.9 Y.fX=X3X3XdXdXfXfXgXhXhXhXbXiXg.s.k.s.a.s.a.$.a Z.S.v a.a.u.! ",
"# P -.( &.&.( r G %.&.v %.<.A r 8X*X=X*X:X:X:XdXdXfXdXlXmXlX/.Y.8 I.jX2X6XdXdXdXfXjXfXlX>XhXgXnXy.a.a.s.s.a.a.;.p v.A. .4.f.k.X.",
"# P -._ _ -.^ r A %.%.v -.<.N w *X%X=X=X=X:X9X:XdXjXlXfXlXfX^.U.9 M.dX=XdX9X;XdXdXdXfXgXfXxXzXnXf.s.a.a.k.a.a.;.a z.Q 1 0 I d.~ ",
"= M M m M N B r J %.<.b #.<.C w %X*X=X*X:X:XdX:X9XfXlXfXzXdX~.U.9 q 6X=XdX>XdXdXdXjXlXfXfXhXcXnXd.s.a.s.a.a.k.;.d Z.> M.0 ] o.^ ",
"  t t w r + o r J %.%.b #.<.C e 1X=X=X=X=X:X9XdXdXfXkXgXfXdX~.I.9 q =X;X3X;XdXdXdXfXfXgXgXfXcXaXd.s.a.s.s.a.a.;.s z.U 4 5 : 8.X.",
"# l S t z y z t K %.&.( #.3.N w %X*X*X=X9X:X9XdXdXdXhXzXzX9X~.I.9 9 &XdXdXdXdXdXfXjXfXlXhXdXvXuXj.a.a.s.a.s.k.;.p v.9.U I / j.! ",
"% 9.f.c 9.5.4.u J %.&.) #.<.C w XX*X=X=X=X9X:X9XgXdXfXlXhX9X!.I.8 8 $XfX6X:X6XdXdXdXlXhXfXwXnXeXd.a.a.s.a.s.a.>.p x.i.i.S.c.i...",
"# y.i.c y.*.4.r J %.<.) #.1.N w }.:X=X=X=X:X9XdXgXdXgXgXzX:X!.I.9 3 @XfX9X=XdXdXgXgXgXgXgXcXiX5Xp.a.a.l.k.s.c.;.p v.a.i.s.s.i.X.",
"% i.i.v i.t.5.r J %.&.#.<.<.S + .X8X*X=X=X:X:X:X>XdXfX<XfX:X!.I.8 3 $XdX;XdXdXfXdXdXfXfXfXbXyX.Xf.s.a.s.s.s.i.;.a c.a.a.s.i.i. .",
"% g.i.n k.u.1.r J %.%.#.-.%.N e |.1X%X&X=X=X=XdX>XfXfXfXxX#X!.P.8 6 +XjXqXdXdXdX:X>X<XfXfXlXsX].f.a.a.a.a.s.g.;.i v.a.a.a.a.a.) ",
"# x.r. .l.a.;.u J %.%.#.%.%.M w '.2X3X;X;X,XjX6XjXdX=XdXbX&X!.H.7 6 `.wX2X3X9XdXgXgX<X>XhXlXpX(.f.a.a.a.s.s.a.;.d v.a.a.l.a.a.L ",
"% s.t.O.k.a.5.r J ;.%.<.%._ Z e (.1X6X=X=X&X6X6XjXvXnXnXnX1XW.J.G.7 _.tXiXtX0X9X:X:XgXmXdXnXpX(.y.a.a.s.g.s.a.;.s v.a.a.s.i.p...",
"# s.i.$.k.a.;.r J 1.%.1.&.%.B w Z.5X2X2X4XvXvXvXiXrX5Xs.a.p.z.S r k.k.O.{.OXpXaXaXrX8X8XqXiXoXw j.a.a.i.a.a.i.4.s z.a.a.s.a.a.P ",
"% g.i.$.s.k.5.r J &.1.&.<.%.Z e j.z.eX1X1X}.g.) h z.a.a.a.a.a.F t z.a.O.a.a.d.t N XX7XeXuXpXA w d.s.c.y.c.s.k.;.a v.a.a.s.a.a...",
"% c.i.$.k.a.3.e J &.&.1.<.&.Z e L G ) M G L N C f f.a.a.a.a.a.F r c.s.+.a.c.d.r N <.&.%.1.1.N r J H P N P G A F d k.a.a.a.a.a.! ",
"# c.i.*.a.a.;.r J 1.&.1.%.%.N O z m x y f z i e h k.a.a.a.a.a.N r k.s.5.a.s.y.t N <.&.%.1.&.M @ z m z r z B s i y b.a.a.a.a.a.P ",
"% g.i.5.a.k.4.r J &.1.1.%.%.S O C A J f S D M B s i.a.a.s.a.k.J t z.a.*.s.a.d.r N <.&.%.1.1.A + B N C h N N N V d v.a.a.a.a.a.X.",
"# g.i.0.a.a.;.r J 1.&.1.1.%.N O ,.%.3.K <.<.<.K d k.a.a.s.i.s.S + v.a.0.p.s.d.e N &.&.%.&.&.N + >.<.-.K <.-.<.~ s z.a.a.a.a.a.L ",
"% j.a.r.a.a.4.r J &.1.1.&.%.N e -.%.1.) 1.<.<.G d g.s.a.a.a.a.F t c.a.0.a.s.y.y N <.&.&.&.<.N + -.<.<.~ -.%.<.P d z.a.a.a.a.a...",
"% j.a.u.a.p.;.r J &.<.1.<.%.N e -.<.1._ <.%.1.Z d k.a.a.a.a.s.F r v.a.r.a.s.d.r M <.<.<.<.3.N r -.<.1.) 1.1.<.P s z.a.a.a.a.i.! ",
"# z.a.a.a.a.3.r J <.&.1.<.%.N w <.1.1.` <.%.<.A d g.a.a.a.a.g.F w v.a.t.a.s.d.t C 2.:.Q ` ,.N w -.<.1.) 1.1.<.~ d z.a.a.s.a.a...",
"% g.a.a.a.a.4.y K &.1.1.<.1.N w -.%.<.-.%.%.&.A d k.a.a.a.a.k.F r b.a.s.a.a.w.t M / < M.1 / A e -.%.&._ <.<.&.K d z.s.a.i.a.a.P ",
"# z.a.a.a.s.;.r J &.&.<.<.#.N w ;.-.1.-.%.%.<.A f j.a.a.a.a.c.V w l.a.s.s.a.w.t V U ] 5 | Y A . -.%.&._ 2.<.<.( s Z.a.s.s.a.a.! ",
"% g.a.a.s.s.3.r K <.1.<.<.<.N e -.<.<.<.1.%.1.J d g.a.a.k.s.c.F t c.p.a.a.a.d.t M / < 0 , m.C e 2.<.%._ <.<.<.P d z.a.i.a.a.a.X.",
"= j.z.k.j.v.6.r W 2.2.3.<.2.C e 2.2.2.-.3.3.,.W h h.j.j.z.x.c.W + S.j.z.z.z.e.u C 7.m.T o.6.E r :.<.<.<.2.2.2.^ h Z.j.j.j.k.z.X."
};
