/* XPM */
static char *result[] = {
/* columns rows colors chars-per-pixel */
"64 64 232 2 ",
"   c #5D3A1F",
".  c #633D21",
"X  c #764302",
"o  c #7A4503",
"O  c #7D4A05",
"+  c #7E490D",
"@  c #66421C",
"#  c #6B451D",
"$  c #6D491B",
"%  c #70521E",
"&  c #5D4236",
"*  c #664421",
"=  c #6C4320",
"-  c #724A25",
";  c #6C5626",
":  c #795B29",
">  c #645939",
",  c #755D33",
"<  c #786339",
"1  c #5A5D56",
"2  c #766A4A",
"3  c #6F6D59",
"4  c #4C5C68",
"5  c #5A646B",
"6  c #646667",
"7  c #6A6A6A",
"8  c #767667",
"9  c #757676",
"0  c #824B04",
"q  c #854B04",
"w  c #844D09",
"e  c #855006",
"r  c #8B5406",
"t  c #85520A",
"y  c #8D540A",
"u  c #8E5909",
"i  c #965805",
"p  c #915609",
"a  c #945B0C",
"s  c #9A5C0D",
"d  c #865815",
"f  c #935D13",
"g  c #995E14",
"h  c #A15C06",
"j  c #9E630C",
"k  c #9D6313",
"l  c #9B6619",
"z  c #A96707",
"x  c #B26C0B",
"c  c #B86F0C",
"v  c #B8760B",
"b  c #A26413",
"n  c #A56914",
"m  c #AC6D15",
"M  c #A56719",
"N  c #A56B1A",
"B  c #AC6D1B",
"V  c #B26E15",
"C  c #B26E19",
"Z  c #A77016",
"A  c #AE7115",
"S  c #AD721A",
"D  c #B37315",
"F  c #BB7513",
"G  c #B97A17",
"H  c #B3731A",
"J  c #BA741B",
"K  c #BC791C",
"L  c #8B6727",
"P  c #956927",
"I  c #9D732D",
"U  c #8B6536",
"Y  c #987237",
"T  c #A56D21",
"R  c #AB6E20",
"E  c #AD7020",
"W  c #A5772A",
"Q  c #B57B23",
"!  c #B77826",
"~  c #BB7C23",
"^  c #AE7D32",
"/  c #C47916",
"(  c #C47C1B",
")  c #CA7E1B",
"_  c #C37D22",
"`  c #926841",
"'  c #84765A",
"]  c #A67746",
"[  c #AC7D4C",
"{  c #B47E4A",
"}  c #877B61",
"|  c #7F8176",
" . c #BC811D",
".. c #BB8023",
"X. c #B6822B",
"o. c #B88736",
"O. c #C3830F",
"+. c #C88814",
"@. c #C3821E",
"#. c #CD831D",
"$. c #D18E16",
"%. c #D3861E",
"&. c #D4881E",
"*. c #D7951C",
"=. c #C38222",
"-. c #CC8523",
";. c #CE8B24",
":. c #C78529",
">. c #CE8B2A",
",. c #D38621",
"<. c #D38821",
"1. c #D1862A",
"2. c #D28A29",
"3. c #CB9027",
"4. c #D39225",
"5. c #DA9727",
"6. c #CB8C32",
"7. c #CD9337",
"8. c #D99A31",
"9. c #E39D24",
"0. c #E19E2B",
"q. c #E29E34",
"w. c #DDA33A",
"e. c #E6A224",
"r. c #EAA426",
"t. c #E4A32C",
"y. c #EAA62A",
"u. c #EDAA2C",
"i. c #F0A72B",
"p. c #F3AE2D",
"a. c #F5B02D",
"s. c #E3A132",
"d. c #EEAC33",
"f. c #E6A738",
"g. c #ECAC3A",
"h. c #F3AE32",
"j. c #FAAC34",
"k. c #F4AE3B",
"l. c #ECB039",
"z. c #F4B133",
"x. c #F4B13B",
"c. c #F8B03E",
"v. c #AD804E",
"b. c #B78348",
"n. c #8D886F",
"m. c #D59C44",
"M. c #D6A55E",
"N. c #D9A75D",
"B. c #E9AD45",
"V. c #F4AE41",
"C. c #EDB143",
"Z. c #F4B141",
"A. c #CB9C60",
"S. c #D7A762",
"D. c #527286",
"F. c #74838F",
"G. c #5688A4",
"H. c #6F9DB4",
"J. c #7AA5BB",
"K. c #838485",
"L. c #8C8C8C",
"P. c #91918A",
"I. c #949494",
"U. c #99999B",
"Y. c #A7A899",
"T. c #9D9DA1",
"R. c #899EB2",
"E. c #A6A4A7",
"W. c #ACABAB",
"Q. c #ADABAD",
"!. c #B2B2B3",
"~. c #B5B7BB",
"^. c #BBBCBC",
"/. c #88B5C8",
"(. c #88B2CC",
"). c #95B9CB",
"_. c #94BED5",
"`. c #ABBECA",
"'. c #99C2D3",
"]. c #BAC4C8",
"[. c #A9C8D8",
"{. c #B1CFDD",
"}. c #92C1E1",
"|. c #A7CCE2",
" X c #ADD3E4",
".X c #B6D6E6",
"XX c #B8D9EE",
"oX c #C5C7C8",
"OX c #D4CBCD",
"+X c #D2D2CD",
"@X c #C8CFD5",
"#X c #CDD6D8",
"$X c #D7D6D8",
"%X c #D5DBDC",
"&X c #DBDDDD",
"*X c #E5DDD5",
"=X c #E3DEDD",
"-X c #DEE1DD",
";X c #E3E2DD",
":X c #E9E3DC",
">X c #C7DAE5",
",X c #D4DDE3",
"<X c #DCDDE3",
"1X c #DBDFEA",
"2X c #E1DFE1",
"3X c #C9E3EC",
"4X c #D6E3E6",
"5X c #DDE3E3",
"6X c #D3E3EB",
"7X c #DCE4EB",
"8X c #DBE9ED",
"9X c #C7E6F5",
"0X c #CCE3F2",
"qX c #CDE9F5",
"wX c #D5EBF4",
"eX c #D9E9F5",
"rX c #DCECF4",
"tX c #D4EDFA",
"yX c #DAF1F6",
"uX c #E3E3E3",
"iX c #EAE6E3",
"pX c #E5E8E6",
"aX c #EAEAE5",
"sX c #E4E5EA",
"dX c #EAE5E9",
"fX c #E5E9EB",
"gX c #EAE9EA",
"hX c #F2E9E8",
"jX c #E4ECF3",
"kX c #E6EAF4",
"lX c #E5F2F8",
"zX c #F2F1F0",
/* pixels */
"& S.S.S.M.M.b.- ` v.v.[ [ [ ` - v.b.b.b.b.b.{ Y U M.S.M.N.S.N.Y - S.M.N.M.M.A.- U [ [ ] [ [ ` = { { { { b.b.b.] : S.M.M.N.N.N.] ",
"$ k.p.p.a.z.4.O O r p 0 s 0 0 q -.,.%.%.&.%.<.C p d.r.i.i.h.r.H q c.p.p.p.p.q.0 O e a q a w w o -.%.&.&.&.%.<.K p V.r.u.p.y.y.X.",
"@ h.p.p.p.p.;.t l  ...f @.m T o ,.<.,.,.,.,.&.J a q.2.8.4.5.5.N q k.p.p.p.h.q.t N H  .a =.D n O ,.&.&.&.<.2.<.J y q.2.2.8.5.5.E ",
"$ g.p.p.p.a.2.e S s.B.T B.q.H q ,.,.&.,.&.&.%.D w M a g k n f f w h.p.i.p.h.q.r D t.g.v k.e.G 0 -.,.,.,.,.,.,.K w M a k k b s P ",
"@ d.u.y.p.p.<.O  .o.: 8 , m.E w -.,.<.&.%.%.,.C o y r O f r u O q k.p.y.h.a.s.e A u.u.v z.u.G 0 -.,.<.<.<.,.%.K 0 y f o g y f + ",
"# t.p.r.p.h.4.O ..P n.| } W S 0 ,.%.%.%.&.%.,.J a 2.=.z 5. .8.a w d.h.y.h.a.t.e A u.u.v x.p.D O -.,.<.<.<.<.%.K r ~ ! y _ C ~ f ",
"# t.u.r.h.p.2.w =.W 2 8 > o.H q ,.%.&.<.,.&.,.J s d.s. .p.e.u.Z w q.h.9.h.p.s.r A h.h.v x.z.K 0 -.%.%.&.%.&.%.K r >.2.h <.) ,.R ",
"# t.u.r.h.p.;.e =.w.I U I g.A 0 ,.&.,.&.,.,.) J a h.s.@.p.u.z.n q 0.h.9.p.p.q.w A p.h.O.x.a.D O -.%.%.%.&.&.%.K y >.2.h <.%.,.N ",
"$ 5.r.e.h.z.4.t ..a.x.3.g.z.H q -.%.&.&.,.&.,.J a d.u.4.p.p.h.S r 4.i.5.p.p.q.r V h.h.O.k.z.K 0 #.&.&.&.<.<.&.K y ,.:.x %.<.%.E ",
"@ 5.s.t.f.d.>.O  .z.h.+.u.a.A 0 -.<.,.&.,.&.,.C a d.u.*.p.p.z.Z 0 ;.d.*.d.d.q.w V p.p.+.h.h.G O -.&.&.&.&.<.%.J y ;.2.x &.&.<.R ",
"* n S m A S N O @.h.p.$.u.z.H 0 ;.<.&.&.&.&.,.J a a.y.*.u.p.p.Z 0 b D z C S E t m h.p.$.d.p.H 0 -.%.&.<.<.&.%.J y 2.<./ <.<.%.R ",
"  0 O X O X X O =.h.p.$.u.z.H 0 -.<.&.&.&.&.,./ a d.p.9.a.u.a.S X o w o o X o O V p.p.*.g.a.G 0 -.%.<.<.&.,.,.( y -.<./ %.&.<.E ",
". h B r k y l 0 @.h.a.*.y.z.S O -.<.&.&.%.%.<.J a a.u.u.a.p.p.Z O g C q B w R w x p.a.*.h.z.H O -.,.%.,.%.&.%.K p -.<./ <.<.&.E ",
"= G ,.i ( F K w @.j.a.*.y.d.A 0 -.%.&.&.&.%.,.H a a.u.u.u.p.a.S w ( ,.i ) V _ w A h.p.9.d.h.K w -.,.<.%.%.%.&.K y ,.<.%.&.<.&.E ",
"@ ) ) h ) ( J 0 =.h.p.9.u.h.S 0 2.&.&.<.&.&.<.J a d.p.d.a.p.z.S O _ ,.h %.F -.r D h.p.e.u.h.G 0 #.%.2.! ! ;.%.J y 1.,.,.,.&.,.R ",
"@ #.) h -.) K w @.j.p.r.u.h.A 0 ,.&.<.<.&.,.<.G a d.a.a.p.p.h.S 0 -.,.h ) ) -.w A h.p.u.s.a.F O @.2.L , : o.1.~ y >.<.<.,.,.&.E ",
"# ;.#.z %.#.J w =.h.p.u.r.h.A 0 -.&.<.%.,.<.,.J a z.a.a.u.a.h.S 0 -.&.'.>XwX8XrXkXyXjXjXeX0X>X{.'.'.J.Y.8 ; 6.Q y ,.<.<.<.<.<.B ",
"* ,.#.x ,.%.K w =.p.p.p.u.h.C 0 ;.&.%.<.,.&.,.J a u.a.a.a.u.h.B 0 [.6XwXyXkXkXkXfXgXjXjXkXrXrXyX8XqXqXXX1 L >.J y 1.<.,.<.%.<.R ",
"$ ,.,.x <.&.K w @.j.p.p.p.z.H q -.<.<.%.<.,.%.J a l.a.a.a.a.a.{.0XwX8XjXkXkXgXaXaXzXaXuXuX8XjXkXfXjXlXyXqXm.,.~ p 1.<.<.&.&.&.E ",
". ,.#.c <.&.K O @.p.p.a.p.h.S 0 ,.<.<.%.<.<.<.C a u.a.a.a. XqXeX7X7XlXfXpXpXaXaX:X:XiXaXgXpXpXgXaXaX5X8XyX<.) _ y 1.<.<.&.&.<.B ",
"= ,.%.c <.<.K 0 =.h.p.p.p.h.H q -.&.&.#.<.<.%.H u d.p.[.qXeXkXsXpXuXuXpXpXdXdXpXaXaXuXgXgXgXaXuXaX:XzX4XqX<.<.~ y 1.<.<.&.&.&.E ",
"= %.#.F ;.%.K 0 @.p.p.p.p.h.D e S m H k F H b M l [.9XqX7XfXkXuXuXuXdXpXpXaXuXaXuXaXdXpXuXaXuXaX:X:XaX4X3XS n T y ,.<.<.&.&.<.C ",
"= -.#./ <.<.K 0 @.h.p.p.p.h.S O s b l w g l t  XqXtXwX8XsXfXdXsXuXsXuXgXdXuXsXuXpXuXuXuXuXuXuXiX;XaX-X8X.Xl u e r 1.<.<.&.&.<.R ",
"$ ,.%.( <.&.K 0 @.h.a.z.a.z.G O _ _ >.N )..X3XeX8X7XuXuXuXuXdX2XsXsXpXuXuXdXuXpXuXpXuXaXdXuXuXuX-XpX4XyX6.=.=.H t 1.<.&.&.&.&.E ",
". ,.) ( %.%.J w @.h.p.a.a.z.A O V.k.)..XeXkX7X<X&XiXiXiX=X2X2X2X5X7XuXuXuXuXuXuXuXuXuXuXuXuXuXuXuXuX4XyXx.h.h.3.y ,.<.<.%.&.&.B ",
"- ,.%.) %.%.K w  .h.j.j.a.z.Q + C.XXtXjX7X&XuXiXiXiX=X*XiXiX2X2X5XsXuXuXuXuXuXuX5XuXuXuXuXuX;XuXuX4X8XqXz.a.p.2.y 2.<.<.%.%.&.E ",
"# <.%.#.%.%.K w ..f...l X.C.'. XqXwX4X<XsXdX2X2X=XiX=X:X=X2X2X2XuXuXuX&X<XuX<XuXuX=X&XuX&X5X2XuXuX<XeX9Xz.a.p.;.p 1.<.<.&.&.&.R ",
"= -.<.#.%.<.K w =.X.2 n.'..X3X-X4X5X7X5X2X2X2X2X2X2XiX2XiX2XiX2X<X=X2XuXuX;X2X&X2XuXuX=XuX=X;X<XuX,XtX|.z.a.z.;.y 1.<.<.&.&.&.R ",
"= -.%.,.%.,.K 0 o.Y }.XX6X-X-X-X;X&X5X&X<XsX1X1X2X2X1X2X2X2X2X=X=XuX&X=X&X&X&X&X&X&X&X&X5XuXpXuXsX6XqXw.p.a.p.;.p <.<.%.&.&.&.H ",
"@ ,.,.,.&.%.( % }.XXtXeXpX$X*X*X*X=X&X-X<X,X,X<X1X2X1X1X=X=X2XdXuXuX;X;X;XuXuXdXdXdXuX=X$X$X+X@XoX].[.s.p.p.p.;.p 2.<.<.&.&.%.R ",
"- -.<.,.&.<.K _.9XtX3X%X-X-X:X:X-X*X&X<X<X7X1X<X1X2X<X$X$X$XOXOX^.`.^.~.!.E.U.I.L.K.F.} 9 6 6 1 4 4 5 f.h.p.h.;.p 1.<.<.&.&.%.E ",
"= ,.<.<.&.&.K |.3X,X#X$X@X+XoXoXoX].^.~.!.Q.W.E.T.T.I.I.L.L.K.D.D.} 9 9 7 9 7 7 7 7 7 6 7 6 7 7 5 5 D.d.p.p.p.;.p 1.<.<.&.&.&.R ",
"= ,.%.,.%.,.!  X4X%X$X$X@X@XoXoX^.`.~.!.!.Q.W.W.E.E.E.T.T.T.U.T.E.T.I.I.I.I.I.I.I.P.L.L.L.L.L.K.K.F.G.a.p.a.p.&.u ;.-.<.<.,.<.E ",
"= ,.&.%.<.,.~ [.tXeXjXlXgXkX2XkXhXfXpXsXiX:X=X;X=X<X%X&X%X$X$XOXOXOXoXoXoX^.^.^.^.~.!.!.!.W.W.W.W.W.R.a.u.a.p.;.y ;.) ,.<.) ) E ",
"= %.%.,.,.,.! w  XyXlXyXsXjXzXzXhXdXgXkXdXhXaXgXgXkXkXkXkXdXhXhXhXhXhXiXgXgX2XhXgXuXuXuXuX&X&X$X+X%X@Xh.a.a.p.&.u :.H K _ _ ( R ",
"= <.%.,.%.,./ q B =.{.tXyXlX8XsXgXuXdXgXaXiXdXdXpXfXkXfXkXfXgXgXhXhXiXhXgXgXgXhXgXdXpXpXgXdXaXaXhXgXlXh.a.a.u.;.e n a a b g h g ",
"= #.#.) %.<.J w H #.2./.{.9XwXjXjXsXpXfXdXdXdXdXdXpXsXsXsXfXfXpXpXpXpXgXgXgXgXaXgXuXaXdXaXgXaXpXaXuXlXj.h.p.p.;.o r d X s y p w ",
"= ) %.) ,.<.( w H %.<.h -./.[.>XwXeX8XfXkXdXdXdXdXdXdXdXpXpX5X8X7XsXpXgXdXuXdXpXdXgXpXgXuXuXaXpXaX&XkX>Xp.p.p.;.y :.X.r ( D _ d ",
"@ +.#.#.,.,./ w C <.,.z <.<.m e [.>XyXrX1XkXsXdXdXiXiX:X:X:XpXuX5X8XpXuXuXuXpXgXdXuXpXpXuXuXuXuXiXuXkX0Xp.p.p.;.y c.C.x z.r.k.! ",
". / #.) ,.%.! w C ,.,.z %.-.S 0 x.p.[.3X0XeX7X1XsXuX:X:X;X:X;X:XpX5XuXuXuX2XuXuXuXuX2XuXuXpXpX;X;XaX7XeXp.p.p.&.p Z.Z.x a.u.p.! ",
"# K -./ %.%.( w H %.%.x %.,.m 0 g.p.p.h.).wXtXwX4X-X-XaX:X:X=X=X;X:X5XpXuX5X5X5XuXuX5XuXuX-XuXuX2X2X2XeXp.p.p.;.u x.Z...3.g.p...",
"@ K -.) #.-.Q w D %.%.x -.,.m q k.p.a.p.a.h.'..X3X6X8X-X-X;X=XiX;X$X5X-X5X5X;X5X-X5X5X-X5X5X-X-X;X2X1XkXh.p.p.;.i k.W < 8 L f.Q ",
"* n n b m N M w C %.,.c #.,.B w g.p.p.p.a.p.z.J.'..X3X6X4X-X4X&X=X2X;X5X5X-X-X-X5X5X-X5X-X-X-X-X&X;X&X7X].a.h.;.p V.: n.8 ' X.! ",
"  q e 0 w O o 0 H %.%.F #.,.B 0 g.i.p.p.p.a.p.( f H.). X3XwX4X4X%X-X&X-X-X-X-X$X&X&X&X&X&X-X-X-X&X=X&X4X>Xa.h.;.p Z.L 2 3 > 7.X.",
"@ j Z e k r k e J %.%./ -.,.m O h.p.p.p.a.p.j.@.a d.a.t.(. X9X3X6X-X%X%X-X$X%X-X&X&X&X&X&X%X%X$X&X=X&X,X>Xp.p.;.u x.8.L L X.f.Q ",
"# 5.f.z 8.4.3.e H %.%./ #.<.B 0 f.p.p.p.p.p.h.( u d.p.u.d.G.J..X3X>X-X%X%X-X%X-X&X&X&X&X-X$X%X%X$X&X2X,X3Xp.p.;.u l.a.u.x.z.u.X.",
"* t.u.z t.5.3.r H %.<.) %.,.m 0 k.p.p.p.p.p.h.K a p.h.p.p.p.h.G.J. X>X%X%X%X%X%X$X%X%X%X%X-X-X,X>X,X>X>Xx.p.p.;.u x.p.u.a.u.a.Q ",
"% u.y.x u.u.<.w H %.%.) -.,.m q d.p.p.z.h.p.z.@.a g.p.p.p.p.z.S t g.l.[.>X#X>X,X-X#X%X>X#X.X.X X|._.(.c.h.p.p.;.i x.p.a.a.a.u...",
"$ d.y.v h.i.<.w S &.%.#.-.%.V 0 l.d.7.d L f.l. .a d.a.a.p.p.a.S e k.p.v h.u.s.t A 2.2.-.-.1.R d w.k.h.p.d.a.a.;.u x.p.p.p.p.p.K ",
"@ z.e. .j.p.4.w H &.%.#.#.%.m 0 l.f.; n.n.I l. .a d.a.a.p.p.a.m 0 h.p. .h.z.t.q m ,.%.,.#.,.C o g.i.p.p.p.p.p.;.p V.p.a.j.p.p.K ",
"$ d.r.O.k.p.4.e H &.;.,.) %.m q d.7.> P.1 ; l. .p d.p.p.p.p.z.S e k.h./ h.h.s.e m &.%.<.#.<.C q s.p.p.p.p.a.p.;.i k.a.a.p.p.p. .",
"@ a.u.$.z.p.2.w H <.&.%.,.) M 0 l.f.% 3 ; X.l. .a d.a.p.p.p.z.Z 0 z.p.O.h.p.s.0 m %.<.<.<.,.B q g.p.p.u.p.p.d.;.y x.p.p.p.p.p.Q ",
"$ d.u.$.a.p.2.0 H &.&.<.,.&.V q g.k.B.l I l.h.K a z.p.p.a.p.p.S e z.p.+.p.h.s.e m %.,.<.<.%.C 0 s.a.z.t.a.h.h.;.p x.p.p.p.p.p.K ",
"$ z.u.$.a.h.;.r H &.<.<.&.&.C q G D  .n G G m C a k.p.p.a.p.p.S e h.p.+.p.a.s.e m <.&.<.<.<.m w J F K B G D C E p h.p.p.p.p.p...",
"@ z.u.*.p.p.;.w H ,.<.&.&.%.m O k b M t f j y w f d.p.p.p.p.p.m w j.p.4.a.a.q.r V ,.&.%.,.&.m O s b k t k b p y u c.p.p.p.p.p.Q ",
"$ d.u.5.p.h.3.w H %.&.&.&.%.m O B C S s A A n M u d.p.a.p.a.p.H e k.a.*.p.p.q.q m %.&.%.2.<.C O n S N g m C m N p c.p.p.p.p.p...",
"@ g.p.9.p.p.3.w H ,.%.<.&.%.m o 1.#.2.J <.<.,.C a h.p.p.p.p.p.Z 0 x.p.9.i.a.s.e m <.%.%.%.%.m O :.,.,.Q ,.-.<.~ a x.p.p.p.p.p.G ",
"$ g.p.e.p.p.4.w H &.<.<.<.%.m q -.%.2.( <.<.,.F a h.p.a.p.p.h.S e z.p.9.a.p.t.e m <.%.%.&.,.m O -.,.,.K -.,.,.K p k.a.p.p.p.p...",
"@ h.p.r.p.p.;.w H <.<.<.%.%.m q -.%.<.) %.%.<.C a h.u.p.p.p.p.S w x.p.e.p.a.s.0 m ,.%.<.<.2.m O -.,.<.( 2.&.<.J p k.p.p.a.u.p.G ",
"@ h.p.i.p.p.2.w H %.%.<.,.%.m 0 ,.<.2.,.%.,.%.C a h.p.p.p.p.z.S 0 x.p.r.a.a.s.e m 1.:.W _ 2.m w _ ,.<.( <.&.%.J a x.p.p.a.a.a.Q ",
"= h.p.h.a.p.3.t J <.<.<.-.%.m 0 -.,.,._ &.%.%.C a h.p.p.p.u.z.S 0 z.j.p.a.a.q.e n ! , n., ^ M + -.&.&.) ,.,.<.! p k.p.p.p.p.p.~ ",
"@ k.p.p.p.p.;.w H <.<.,.<.,.m 0 -.%.<.-.%.%.%.C a k.p.u.p.p.z.N w j.p.a.j.p.q.e M P 8 3 n.Y C q ,.%.&.) ,.,.,./ a c.p.p.p.p.p.Q ",
"# z.p.p.p.h.2.w J ,.,.,.,.,.m q -.<.<.,.,.<.2.D a g.p.p.h.a.z.S e x.p.p.a.h.t.e M ^ , 8 > ^ B q -.,.%.) ,.,.,._ p k.d.a.h.p.p...",
"* g.g.h.z.g.7.w E ,.,.1.,.1.B q :.1.1.-.2.2.>.E f f.g.k.k.x.z.T w x.g.h.k.k.w.w B 7.b.I { 6.R w :.1.,.,.1.1.1.! f C.l.d.k.k.g.Q "
};
