/* XPM */
static char *result[] = {
/* columns rows colors chars-per-pixel */
"64 64 233 2 ",
"   c #5D3A1F",
".  c #6A3F10",
"X  c #653B24",
"o  c #754302",
"O  c #7A4503",
"+  c #7D4A05",
"@  c #7E490D",
"#  c #66421C",
"$  c #6B451D",
"%  c #6D491B",
"&  c #74531E",
"*  c #5D4236",
"=  c #664421",
"-  c #6C4320",
";  c #724A25",
":  c #6C5628",
">  c #785A28",
",  c #665939",
"<  c #755D33",
"1  c #776137",
"2  c #585A55",
"3  c #746A4D",
"4  c #6D6B56",
"5  c #495965",
"6  c #526B7B",
"7  c #646667",
"8  c #6B6B6B",
"9  c #777766",
"0  c #777878",
"q  c #824B04",
"w  c #854A04",
"e  c #844D09",
"r  c #855005",
"t  c #8B5406",
"y  c #85520B",
"u  c #8D540A",
"i  c #8E590A",
"p  c #945806",
"a  c #915609",
"s  c #945B0C",
"d  c #9A5D0D",
"f  c #885C17",
"g  c #935D13",
"h  c #985F15",
"j  c #A15C06",
"k  c #9E630C",
"l  c #9D6313",
"z  c #9B671A",
"x  c #A96608",
"c  c #B36C0B",
"v  c #B86F0C",
"b  c #B8750B",
"n  c #A26413",
"m  c #A56914",
"M  c #AC6D15",
"N  c #A56719",
"B  c #A56B19",
"V  c #AC6D1B",
"C  c #B26E15",
"Z  c #B26E19",
"A  c #A77016",
"S  c #AE7115",
"D  c #AD721B",
"F  c #B37215",
"G  c #BB7413",
"H  c #B97A17",
"J  c #B3731B",
"K  c #BA751B",
"L  c #BC791C",
"P  c #8B6727",
"I  c #946A27",
"U  c #9D732E",
"Y  c #916A37",
"T  c #A56D21",
"R  c #AB6E20",
"E  c #AD7020",
"W  c #A5772A",
"Q  c #B57B23",
"!  c #BB7C23",
"~  c #B87926",
"^  c #AE7D32",
"/  c #C37816",
"(  c #C47C1B",
")  c #CB7E1B",
"_  c #C27B24",
"`  c #926841",
"'  c #84765A",
"]  c #A67746",
"[  c #AC7D4C",
"{  c #B47E4A",
"}  c #877B61",
"|  c #BC811D",
" . c #BB8023",
".. c #B68229",
"X. c #B78836",
"o. c #C3830F",
"O. c #CB8A15",
"+. c #C2821E",
"@. c #CC831D",
"#. c #D18E16",
"$. c #D3871E",
"%. c #D4881E",
"&. c #D7941C",
"*. c #C38222",
"=. c #CC8523",
"-. c #CE8B24",
";. c #C4852A",
":. c #C9872A",
">. c #CD8B2A",
",. c #D38721",
"<. c #D38821",
"1. c #D1862A",
"2. c #D28A29",
"3. c #CB9027",
"4. c #D29224",
"5. c #D99727",
"6. c #CC8D32",
"7. c #CA963A",
"8. c #D99A31",
"9. c #E29E27",
"0. c #E29E34",
"q. c #DDA33A",
"w. c #E6A224",
"e. c #EAA426",
"r. c #E4A32D",
"t. c #EBA62A",
"y. c #EDAA2C",
"u. c #F0A72B",
"i. c #F3AE2D",
"p. c #F5B02D",
"a. c #E4A232",
"s. c #EAA634",
"d. c #EDAB34",
"f. c #E5A83B",
"g. c #EDAC3A",
"h. c #F3AE32",
"j. c #FAAC34",
"k. c #F3AE3B",
"l. c #EDB13B",
"z. c #F4B033",
"x. c #F4B13B",
"c. c #F8B33E",
"v. c #AD804E",
"b. c #B78348",
"n. c #8E8970",
"m. c #D59B42",
"M. c #D6A55E",
"N. c #D9A75D",
"B. c #E9AC44",
"V. c #F3AD41",
"C. c #EDB242",
"Z. c #F4B141",
"A. c #CB9C60",
"S. c #D7A762",
"D. c #55768C",
"F. c #5587A3",
"G. c #6C9BB4",
"H. c #79A5BB",
"J. c #848687",
"K. c #8C8C8C",
"L. c #91918A",
"P. c #949494",
"I. c #96959B",
"U. c #9A9A9B",
"Y. c #A9A897",
"T. c #9C9DA0",
"R. c #8A9FB4",
"E. c #A9A8A9",
"W. c #AFADAE",
"Q. c #B2B2B3",
"!. c #B4B7BA",
"~. c #BBBCBC",
"^. c #8AB5CA",
"/. c #97BBCD",
"(. c #86B3D0",
"). c #94BED5",
"_. c #B5BFC6",
"`. c #98C2D5",
"'. c #BCC5CB",
"]. c #A6C7D8",
"[. c #90C0E1",
"{. c #A8CCE2",
"}. c #ACD2E5",
"|. c #B2D3E4",
" X c #B7D7E7",
".X c #BBDEF5",
"XX c #BEE3F1",
"oX c #C6C7C8",
"OX c #D4CBCD",
"+X c #CFD1CF",
"@X c #CDD6D8",
"#X c #D7D6D7",
"$X c #D5DBDC",
"%X c #DBDDDD",
"&X c #E5DDD5",
"*X c #E3DEDD",
"=X c #DEE1DD",
"-X c #E3E2DD",
";X c #E9E3DC",
":X c #C7DAE7",
">X c #D4DDE3",
",X c #DBDDE3",
"<X c #DCDFEA",
"1X c #E1DFE1",
"2X c #CAE3EC",
"3X c #D6E2E5",
"4X c #DEE3E3",
"5X c #D3E3EB",
"6X c #DCE4EB",
"7X c #DBE9ED",
"8X c #CBE3F4",
"9X c #CAE8F5",
"0X c #D6E5F3",
"qX c #D5EBF5",
"wX c #DCECF4",
"eX c #D4EDFA",
"rX c #DCECF9",
"tX c #D7F2FB",
"yX c #DCF2FA",
"uX c #E3E3E3",
"iX c #EAE6E3",
"pX c #E5E8E6",
"aX c #EAE9E5",
"sX c #E4E5EA",
"dX c #EAE5E9",
"fX c #E5E9EB",
"gX c #EAE9EA",
"hX c #F2EAE8",
"jX c #E4ECF3",
"kX c #E1E9F5",
"lX c #E9ECF1",
"zX c #E5F2F8",
"xX c #F2F2F1",
/* pixels */
"* S.S.N.M.S.b.; ` v.v.[ [ [ ` ; v.b.b.b.b.b.{ Y P S.S.S.N.N.N.Y ; S.N.N.N.M.A.; Y [ [ ] [ [ ` - { { { b.b.b.b.] > S.M.N.N.N.N.] ",
"% k.i.i.p.z.4.+ + y a q d w + w 1.,.$.$.%.$.,.K a k.e.y.u.h.e.J u V.u.i.u.h.a.q + t s + s e e O =.%.%.%.<.<.,.L s V.e.d.u.y.t...",
"# k.h.i.i.i.-.y z |  .g *.M T w ,.,.,.,.%.%.$.Z s 0.,.8.4.5.8.B w k.i.i.i.h.a.y B J +.p *.F m + ,.,.%.%.,.,.,.K u a.-.2.8.5.5.E ",
"% d.i.i.i.i.<.e F a.B.T B.0.D w ,.,.%.%.%.%.%.F e N s h l m s g r h.i.u.i.i.0.y S r.d.S k.w.H q _ ,.,.,.,.,.,.L e N g d N j d I ",
"# d.y.t.i.i.4.q ! X.< 9 < m.E q =.,.,.%.%.%.$.J O u r + g t i + q k.i.t.h.p.a.r S y.y.b z.y.H + 1.,.<.,.<.<.,.L + u g O h u g @ ",
"% r.i.e.h.i.4.+  .I n.n.} W D q =.$.$.$.%.$.,.C s 2.:.x 5.| 8.s w s.h.t.z.p.a.r S y.y.b x.z.F q =.%.%.%.<.<.%.H t  .~ u _ J ~ g ",
"% r.y.e.i.h.<.@ *.W 3 8 , X.J w ,.,.,.%.,.%.,.Z d d.a.H y.w.p.A q a.h.9.j.p.0.r S h.z.b x.z.H q =.$.$.%.$.%.$.K u 2.2.j <.) ,.R ",
"# 9.d.e.h.i.-.r *.q.U P U l.S q ,.%.%.,.%.,.,.K d d.s.| p.y.p.m w 0.i.9.p.p.a.w S i.h.o.x.p.J q =.$.%.%.%.%.%.L u -.2.j ,.$.,.B ",
"% 5.y.w.h.h.4.r | z.x.3.l.z.J w =.%.,.,.<.%.,.K s d.d.-.i.p.h.D q 4.h.&.i.h.0.r C h.h.o.k.h.K q @.%.%.%.<.%.,./ u =.>.x <.%.%.E ",
"= 4.a.9.s.d.3.+ *.i.z.o.y.p.S q =.$.%.%.%.%.,.K k y.y.&.y.y.p.M q 4.d.&.d.y.0.t C i.i.O.h.h.F q =.%.%.%.%.,.,.K u ,.2.v <.<.<.R ",
"= m D M D S M q +.h.i.#.y.z.J q =.<.<.<.<.<.,.Z s p.y.&.p.y.i.V q n J x v C J e M h.i.#.h.h.Z @ =.%.%.,.,.<.$.K u ,.,.G %.,.<.V ",
"  q + O + o . + _ h.i.#.y.z.J q -.-.eXeXqX2X X~ s d.y.9.i.p.i.A o + w O w . . + C d.'.:X:X8XK e =.%.<.%.<.%.,.L u -.2./ <.<.<.E ",
"X j V r n u z e +.j.p.&.t.z.D + 3.XXtX7X3X3X7XyXtXtXXX{.h.y.h.m + l J w N :X8XrXwXkXkX,X>X>X:Xe =.$.,.%.%.%.%.L u ,.,./ <.%.,.Z ",
"% H ,.p ( G L e +.h.i.&.t.d.D w ^.9XwXuXxXpX4X3X3X7XqXtXeX/.D.D.D.R.:XzXzXzXkXsX,X,X*X#X#X1X:X(.;.,.,.%.%.%.$.L u ,.,.$.%.<.<.E ",
"X ) @.j ) / K e *.h.i.w.y.h.D + ^.tXfXhX-X-XiXiXuX4X3X3X0X_.5 6 K.W.:XlXuX,X1XdXuXuX*X-X1X,X>X).=.%.1.~ ! =.,.K u >.,.,.%.<.,.R ",
"% @.) j =.) L q *.h.i.e.y.h.S w `.yXpXaXaX-X-X*X1XuXuX4XsXoX2 7 K.W.+XaXaXaXiX-X*X=X%X%X%X#X:X{.+.,.P < < X.,.! u 2.,.<.<.,.<.E ",
"% =.@.x $.@.L q *.j.i.y.t.i.J + |.wXlXgXiXiXuXiXuXuX*X1XpXoX2 7 J.W.#XaXiXpXuX-X4X=X=X%X=X@X=X|.=.;., Y.9 & >.H u 2.<.,.<.<.%.R ",
"# ,.@.c ,.@.L e *.i.i.y.y.z.S + :XwXjXpXpXpXuXuXuX1XuX%XpX+X7 7 K.W.*XgXdXaXuXuXuX=X=X%X$X=X@X X=.:.< 9 2 > 6.L u ,.<.<.%.%.%.R ",
"% ,.=.c <.,.L q +.h.p.i.i.h.J w 8XzXsXsXsXpXpXpXuXuX-X,XuX+X8 8 K.W.,XaXpXaXuXpX4X=X=X=X=X$X=X|.*.2.X.: & m.,.L u 1.,.%.%.%.%.E ",
"X ,.$.v <.,.H e +.i.i.i.i.h.J w eXkX4XgXaXpXuXiXuXuXuX-XuX#X8 8 L.W.uXgXaXsXuXuXuX4X=X%X%X%X=X:X:.<.2.:.1.$.,._ g 1.,.<.%.%.<.V ",
"$ =.$.v <.,.L q +.j.i.p.i.z.J w yXjX-XaXaXpXuXdXuXuX1XuX,X,X0 7 K.Q.uXpXdXsXpXuX4X4X=X=X%X$X$X@X=.%.$.( <.%.-.~ a 2.<.<.%.%.%.D ",
"- ,.$.G <.<.L q +.h.i.i.i.z.F w zXlXaXaXaXsXuXuXuX1XuX%X,XsX} 8 L.Q.uXaXaXsXaX1XuX=X4X%X%X%X%X@XD S J l F S M B u ,.%.<.%.%.,.R ",
"- ,.@./ $.<.L q *.i.i.i.i.h.J O yXgXhX;XdXaXpXuXuXuX*XuX%XdXJ.7 L.!.pXdXpXaXpX-XuX4X=X%X$X$X=X@Xl l g e d l i r y 1.<.,.%.%.%.R ",
"- =.@.( <.%.L r +.h.p.p.z.z.F + zXsXaX*XaXpXuXdXuXuXuXuX%XuXK.8 P.~.gXgXdXaXsXuX4XuX4X%X=X$X$X>XQ *.+.V =.*.*.J u ,.<.%.%.%.%.E ",
"- ,.@.( $.%.K e +.i.i.j.i.h.F + rXlXaXaXaXpXuXuXuX1XuX1X*XuXP.8 P.~.gXxXpXpXdXuX4X=X=X%X%X%X#X=Xf.h.k.5.h.i.h.3.u 1.,.<.%.%.%.V ",
"- ,.$.) $.$.K w  .h.h.j.i.l.J q qXlXgXaXdXsXuXaXuXuXuX1X1X1XI.8 P.~.gXhXaXsXpXuXuX4X4X%X%X%X%X:Xf.i.h.5.h.p.z.-.u 1.<.<.%.%.<.E ",
"% ,.$.@.%.%.L e  .f. .z ..g.S r eXjXgXpXaXuXuXpXuX-X,X-X1X1XE.8 P.~.gXgXdXaXaXuX4X=X=X,X%X%X$X@Xs.i.p.9.z.p.h.2.u ,.,.<.%.%.%.R ",
"- =.<.@.%.%.L e  ...< n.1 7.D + 2XzXjXpXpXpXdXuXuXuX,XuX1X1XW.0 I.oXgXgXdXpXpX1XuXuX4X%X$X%X$X Xs.i.z.a.z.p.i.-.a 1.,.<.%.%.%.R ",
"- =.,.,.%.%.L e  .I n.4 4 U D r ).kX7XfXpXpXpXpXpX1XuXuX%X*X_.8 P.oXgXdXgXdXpXuX4X=X4X%X%X$X$X].a.i.h.t.h.i.i.-.u 2.<.%.%.%.%.J ",
"- ,.<.,.%.%.L e | X.< 3 , 7.S + Z.8XwXjXpXpXsXpXuXuX1X,X*X4X'.} P.oXdXaXpXpXpXuXuX=X-X=X%X$X:Xe g.i.h.e.i.i.i.-.a 2.<.,.%.%.$.R ",
"- =.,.,.%.<.L q +.C.X.I X.l.H r k.].rXsXiXuXpXsX6XuX1X*XuXuX~.} U.OXhXhXpXpX6X4XuX#X%X=X=X2X}.q a.u.i.t.i.i.i.-.a 1.<.<.%.%.%.R ",
"- ,.,.,.%.%.H e ;.z.c.x.c.c.S r k.p.8X0XuXuX4XpXuX6XsX1X*XuX~.D.U.OXhXgXpX7X4X4X-X-X%X=X>X2XH.w s.i.i.d.i.i.i.-.a 2.<.<.%.%.%.R ",
"- ,.$.,.%.,./ w N H L F L H m q k.i.{.rXsXpXuX4X1XuXiX1X1X1XOXD.U.OXhXhXsX6XuXuX*X;X1X>X0X}.F.e s.i.i.h.i.p.i.-.u >.=.<.<.$.,.V ",
"$ $.%.,.%.,._ . o w q o t o o + h.u.i.eXjXfXsX4X1X1X1X*X1X1XOXJ.U.OXdXdXsXsXpX-X;X&X,X<X8XH.o o 0.i.u.i.i.i.i.O.i 2.@.,.,.,.) R ",
"X %.$.,.$.,.K e g V J g Q l z + k.i.i.|.rXjXpXuXuX1X1X1X1X*X#XK.T.#XlXlXfXpX-X;X;X-X4X9X}.F.z + s.z.i.i.i.p.i.-.a ;.G L _ / ( T ",
"$ ,.$.$.,.,.( e V _ ,.n 4.L D q k.u.i.z.9X6XpXuX1XiX;XiX1X1X>XK.T.#XlXlXpXpX-X;X;X=X3X2X(.( M q a.y.i.i.p.p.y.-.r m s a h n d h ",
"$ @.$.) $.,.L w J @.<.x $.@.A q k.i.i.i.].qX7XuXhX*X*XiX1X1X<XK.U.$XlXlXpXpXiX;XiX=X5X}.2.@.M q s.p.i.h.i.p.i.-.+ y f o d u a @ ",
"- @.@.) %.,.L e J $.,.j $.$.V q g.u.i.i.z.9XqXpXiX&X;X1X1X<X,XI.E.>XkXlXfXaXiX;X-X7X2X).2.=.Z e s.z.i.z.i.i.i.-.u ;...t _ G *.g ",
"# @.@.@.,.,.( e Z ,.2.x %.-.S q k.i.i.i.z.].rX<X;XiX;X1X1X1X<XT.T.,XfXfXuXdXdX1X=X5X XG.2.<.C q a.h.i.i.i.p.i.-.a c.Z.x z.e.h.~ ",
"X ( @.) ,.,.K y Z ,.=.x @.-.D q k.i.p.i.h.h.9XsX1XhX1X1X1X>X,XT.E.*XgXsXdXdXdXdX3X2X`.c 2.<.V q d.p.i.p.i.p.i.%.a V.Z.c z.y.d.Q ",
"$ H =./ %.,.L e K $.$.c @.,.V w g.u.i.i.p.j.}.wX>XaX*X1X1X<X<XT.E.*XgXgXdXdXsXsXrX XH.c 2.,.D q r.i.i.p.i.i.i.-.t c.x.| 3.g.z...",
"# L :.( ) ,.~ e F $.$.c =.,.V w k.i.i.p.p.p.i.8XfXiX1X1X<X<X<XE.W.&XaXdXdXdXsX0XeX/.,.v 2.,.M + d.p.i.i.i.p.h.-.p k.W < 3 P f.Q ",
"# m m x m V N q J $.$.v @.,.V w k.i.i.i.i.j.h.|.kX,XuX,X6X>XsXW.W.-XhXaXdXdXkX0X8X$.%.G ,.,.V + a.i.i.p.i.p.i.-.p V.> L.9 ' X.Q ",
"  r r w q + O e Z $.$.G @.,.V w d.u.i.i.i.p.h.^.qX4XuX4X,X,X,XQ.Q.dXpXaXgXsX6XqX/.$.$.G =.<.C e a.p.i.i.h.p.h.-.i k.I 3 4 < 7.~ ",
"# k A r l i m q J %.%./ =.,.M w k.i.i.i.i.p.p._  XzX3XuX=X=X=X~.Q.dXlXgXgXfXwX2XM %.%./ =.%.M q d.i.p.p.h.i.i.-.i l.8.I P W l.Q ",
"% 8.d.x 8.4.4.y J $.%.( @.,.V + d.i.i.i.i.i.h.*.^.tX3X6X=X=X=X~.Q.sXlXpXpXfXwX`.M %.%.( @.,.V q a.i.j.j.i.p.d.-.i l.y.y.Z.l.i. .",
"# r.y.x 9.9.-.e J $.,.) @.,.V w d.i.i.i.i.i.i.( s  XqX6X=X%X=X~.!.dXgXsXfXwX2Xy M $.,.) @.<.V e u.i.i.i.i.p.p.-.p x.i.y.i.i.y.Q ",
"% y.y.x y.t.-.y J $.$.@.=.,.M w d.i.i.p.h.p.h._ s l.9X3X-X&X-XoX_.hXdXpXjXqX].+ S %.,.@.@.<.C q s.i.i.i.i.p.p.-.t c.i.i.p.p.y. .",
"% p.r.b h.u.<.r J %.$.@.=.%.C w l.y.m.& z f.l.| i d.}.5X-X&X&XoX'.lXxXpXrX2Xr.r M $.,.@.) ,.V q a.i.i.i.p.p.h.-.u k.p.p.i.i.i.( ",
"# l.w.| j.i.-.y D %.$.@.@.,.m w l.a.& n.n.U l.| i l.`.5X=X&X;XoXoXsXxXjXeX].r.w M ,.$.,.) ,.V w d.i.i.i.p.y.i.-.a c.p.i.p.i.i.L ",
"% p.e.o.h.h.4.e J <.%.$.,.) M w l.7., n., : C.| s d.p. X=X%X=X+X+XsXgXzX9X(.0.r M %.,.<.,.,.Z q t.p.i.p.i.p.y.-.a c.i.i.i.i.u. .",
"# p.y.#.z.h.<.e J <.<.<.,.$.m w C.g.: 3 , ..l.| s d.y.`.2X6X=X+X+XsX7XrX}.i.a.r M %.%.,.,.,.V q s.i.i.y.p.p.d.3.a k.u.i.i.i.i.Q ",
"% d.y.#.z.i.4.e J %.<.%.,.$.C w k.k.B.I U f.d.( k l.i.z. XrX$X$X@XlXjXtX^.i.a.r M %.,.<.,.<.C q s.i.z.r.p.z.h.-.t c.i.i.i.i.i.! ",
"% z.y.#.z.i.-.e J %.<.<.%.$.C w F G | m H H c Z s d.p.y.[.eX2X@X@XkXzX|.h.p.a.q M ,.%.<.<.%.M e J G L M H F C E a h.i.i.i.i.p.L ",
"# z.y.&.i.i.-.e J %.<.%.%.%.M O h n z u l l u e s l.p.p.h..XeX>X@XyXyX4.p.z.0.r M ,.%.%.<.<.V + l n l e l m a u t c.i.p.i.i.i.Q ",
"% d.y.5.i.h.-.y J %.%.<.<.%.A O V Z J s S A m N s y.i.i.h.[..X5X7XtX X&.p.j.9.r M %.%.$.$.,.Z + z V V h V C M N a c.i.i.i.i.i. .",
"# h.y.9.i.i.-.e J ,.<.%.<.%.M O ,.,.2.K <.<.,.Z a h.i.i.p.d.(.{.|.}.i.5.u.p.r.r M ,.%.$.$.%.M + =.<.=.~ ,.=.,.L s c.i.i.i.i.i.H ",
"% g.i.9.i.i.4.y J %.<.%.%.$.M w =.$.2.L <.,.,.K p h.i.i.p.p.l.D y g.i.9.p.p.r.r M ,.$.%.%.%.V + ;.,.$.L -.,.,.L i k.i.i.p.i.i. .",
"# x.i.e.i.i.-.e Z $.<.<.,.$.M w =.$.2.) %.%.,.C d d.i.i.p.i.h.D q x.i.e.i.p.0.t M ,.,.1.,.<.D + =.,.<.( ,.,.,.L a k.i.i.i.i.i.Q ",
"# h.i.y.i.i.2.e K ,.<.,.,.$.M + ,.%.2._ %.%.%.C s l.p.y.p.i.h.D q x.i.t.i.i.a.q V 1.;.E _ >.M e =.%.%._ ,.<.,.K a k.i.p.p.i.p.Q ",
"% d.i.h.i.i.4.e J %.<.<.<.,.M w =.$.,.=.$.,.<.Z p h.p.i.i.i.h.D y z.j.p.p.j.9.e n ~ < n.3 ^ V @ _ %.%.) ,.,.,.~ a k.i.p.i.i.y.| ",
"# k.i.i.i.i.-.e J %.<.,.=.$.M + =.,.<.=.$.%.%.C d g.i.i.i.i.h.A q j.i.p.p.p.0.t N I 9 4 } I V w ,.%.%.) ,.,.,./ s c.i.p.i.i.i.Q ",
"% d.i.i.i.i.2.e K ,.<.,.,.$.C w =.,.,.,.$.<.<.F s l.p.y.h.p.z.D r x.u.p.i.i.a.y N ^ 1 9 , X.V w ,.,.%.) ,.,.,._ s k.i.y.i.h.i.! ",
"- C.h.h.l.g.6.e ~ ,.2.,.1.1.V w :.1.1.=.2.2.>.E g f.g.k.k.x.z.T e l.g.h.k.x.q.@ N m.b.U ^ 6.R @ :.1.,.,.1.1.1.~ s B.g.g.k.h.g..."
};
