/* XPM */
static char *result[] = {
/* columns rows colors chars-per-pixel */
"64 64 232 2 ",
"   c #5A3A1B",
".  c #6A3F10",
"X  c #4D3D2B",
"o  c #653B24",
"O  c #56411E",
"+  c #754302",
"@  c #7A4503",
"#  c #7D4A05",
"$  c #7B480C",
"%  c #65421C",
"&  c #6B451D",
"*  c #6B491B",
"=  c #714B12",
"-  c #755219",
";  c #4D4735",
":  c #664421",
">  c #6C4320",
",  c #724A25",
"<  c #6C5628",
"1  c #785A28",
"2  c #675938",
"3  c #735B36",
"4  c #786238",
"5  c #3D574F",
"6  c #2D5C71",
"7  c #535851",
"8  c #6D5A4E",
"9  c #746A4D",
"0  c #696455",
"q  c #736B52",
"w  c #56566A",
"e  c #4C5775",
"r  c #665474",
"t  c #49676D",
"y  c #777766",
"u  c #626278",
"i  c #824B04",
"p  c #854B04",
"a  c #844D09",
"s  c #855005",
"d  c #8B5406",
"f  c #85520A",
"g  c #8C540A",
"h  c #8E590A",
"j  c #975806",
"k  c #915609",
"l  c #945B0B",
"z  c #9A5D0D",
"x  c #895A17",
"c  c #945C13",
"v  c #995E14",
"b  c #A15C06",
"n  c #9E630C",
"m  c #9D6313",
"M  c #9A6619",
"N  c #A86508",
"B  c #B36C0C",
"V  c #B86F0C",
"C  c #B8750B",
"Z  c #A36413",
"A  c #A56A14",
"S  c #AC6D15",
"D  c #A56719",
"F  c #A56B1A",
"G  c #AC6D1B",
"H  c #B26E15",
"J  c #B26E19",
"K  c #A77016",
"L  c #AF7114",
"P  c #AD721B",
"I  c #B37315",
"U  c #BB7513",
"Y  c #B3731B",
"T  c #BA741B",
"R  c #B87A18",
"E  c #BC791B",
"W  c #835C28",
"Q  c #815B32",
"!  c #8B6727",
"~  c #936927",
"^  c #9D732D",
"/  c #876838",
"(  c #966B3B",
")  c #967437",
"_  c #A56D21",
"`  c #AB6E20",
"'  c #AE7020",
"]  c #A5782A",
"[  c #B57B23",
"{  c #B77926",
"}  c #BB7C23",
"|  c #AE7D32",
" . c #C37816",
".. c #C47C1B",
"X. c #CA7E1B",
"o. c #C27E22",
"O. c #8B734C",
"+. c #AA7B4A",
"@. c #B47E4A",
"#. c #877B61",
"$. c #B7821C",
"%. c #BE811C",
"&. c #AD842F",
"*. c #BB8023",
"=. c #B88529",
"-. c #B78836",
";. c #C3830F",
":. c #CA8916",
">. c #C2821D",
",. c #CD831D",
"<. c #D18E16",
"1. c #D3871E",
"2. c #D4881E",
"3. c #D7951C",
"4. c #C48222",
"5. c #CC8523",
"6. c #CE8B24",
"7. c #C5852A",
"8. c #CD8B2B",
"9. c #D38721",
"0. c #D38821",
"q. c #D1862A",
"w. c #D28A29",
"e. c #CA9028",
"r. c #D89727",
"t. c #CB9137",
"y. c #D99A32",
"u. c #E19E28",
"i. c #E29E34",
"p. c #DDA33A",
"a. c #E8A325",
"s. c #E5A32B",
"d. c #EBA62B",
"f. c #EDAA2C",
"g. c #F0A72B",
"h. c #F4AE2D",
"j. c #F4B02D",
"k. c #E5A233",
"l. c #EAA634",
"z. c #EDAB33",
"x. c #E4A73A",
"c. c #EDAC3A",
"v. c #F3AE32",
"b. c #FAAC34",
"n. c #F3AE3B",
"m. c #ECB13D",
"M. c #F4B033",
"N. c #F4B13C",
"B. c #F9B33B",
"V. c #AD804E",
"C. c #B78348",
"Z. c #8F896E",
"A. c #D59B42",
"S. c #D6A55E",
"D. c #D9A75D",
"F. c #E9AC44",
"G. c #F4AE41",
"H. c #F1B242",
"J. c #CB9C60",
"K. c #D7A762",
"L. c #196F9B",
"P. c #306D8F",
"I. c #197AAA",
"U. c #2A74A6",
"Y. c #3972AC",
"T. c #2C7DBB",
"R. c #3C75B5",
"E. c #3A79B6",
"W. c #347ABC",
"Q. c #4F5E8B",
"!. c #645B98",
"~. c #496B89",
"^. c #566197",
"/. c #60619F",
"(. c #486CAA",
"). c #4B6CAB",
"_. c #5667A8",
"`. c #4B71AF",
"'. c #4272B2",
"]. c #4879B6",
"[. c #6874AB",
"{. c #2E7EC1",
"}. c #1883B4",
"|. c #2D83BC",
" X c #4B8EBE",
".X c #718CB7",
"XX c #1C88C8",
"oX c #1C8ACC",
"OX c #148ED1",
"+X c #1A8BD0",
"@X c #0D93D5",
"#X c #0896DA",
"$X c #039ADD",
"%X c #1393D4",
"&X c #2485C6",
"*X c #2A81C4",
"=X c #2285C9",
"-X c #3688C5",
";X c #2C94D0",
":X c #28A7DD",
">X c #059DE0",
",X c #16A2E1",
"<X c #25A6E2",
"1X c #36ABE3",
"2X c #5292C2",
"3X c #6B9AC3",
"4X c #799CC0",
"5X c #4EA7D5",
"6X c #79A8C9",
"7X c #70B2D5",
"8X c #4DB2E4",
"9X c #66B9E6",
"0X c #75BEE6",
"qX c #8F8E83",
"wX c #95A5A3",
"eX c #A5AEB5",
"rX c #85B4CB",
"tX c #89B7CC",
"yX c #89B8CD",
"uX c #94BEDB",
"iX c #A7CCDC",
"pX c #87C3E6",
"aX c #95C7EA",
"sX c #A6CCE8",
"dX c #B6CFEC",
"fX c #ADD1E4",
"gX c #B7D5E4",
"hX c #DEE1DF",
"jX c #C6DAE3",
"kX c #D3DFE5",
"lX c #D5E1E4",
"zX c #DCE2E2",
/* pixels */
"; K.K.D.S.K.C., O.@.V.+.@.+.O.> V.C.C.C.C.C.@.( W K.S.S.D.K.D.( , K.D.D.D.S.J., / +.@.+.+.+.O.> @.@.@.@.C.C.C.+., K.S.D.D.S.D.+.",
", b.h.h.j.M.r.@ @ d h i z i p p 5.9.1.2.2.1.9.J z n.d.f.d.v.g.J p n.g.h.g.h.k.i @ d c i l a a @ ,.1.2.2.0.0.9.E l G.a.f.g.f.a.=.",
". n.h.h.j.h.8.s M } *.v ..S _ p 9.9.9.9.9.2.1.T l i.6.y.r.r.r.F p N.h.h.h.v.i.f A P %.l 4.B F # 9.2.2.2.9.0.9.T h i.6.w.y.y.r.' ",
"& c.h.h.h.j.6.s I k.F.F F.i.J p 9.9.2.9.9.2.1.I a D l m Z Z z c s n.h.g.h.h.i.g P s.m.C n.a.R i o.9.9.2.0.9.9.E s F v v Z b z ~ ",
"% z.f.f.h.h.6.a } -.3 y 4 A.' i 5.9.9.2.1.1.9.J @ g s # v s k # i c.h.d.M.j.k.i L d.f.C M.f.I i q.9.0.0.0.9.9.E # g c @ v g c $ ",
"* l.h.a.v.h.6.# *.~ Z.#.#.^ Y i 9.1.1.2.2.9.9.J l w.e.N r.%.] r   l.v.d.v.j.k.s L f.f.C N.j.R # 5.9.0.2.0.0.1.E g *.{ g o.J } c ",
"* s.f.a.h.v.0.a 4.] 9 y 2 -.Y i 9.1.2.0.9.2.9.T z M.k.R j.a.h.K @ i.v.u.M.h.k.p L v.j.C N.j.E i 5.1.1.1.2.2.1.E d w.w.b 9.X.9.` ",
"% u.z.a.v.h.6.s 4.p.] 4 ^ m.I i 9.2.9.0.2.9.9.T l z.k.%.f.f.h.A p i.h.a.h.h.k.s L v.M.;.N.M.Y i 9.1.1.1.2.2.1.E g 6.w.b 9.1.1.` ",
"* r.f.a.v.v.e.s %.M.H.e.M.M.Y i 5.1.9.9.9.2.9.T l z.z.<.h.h.v.P i r.f.3.h.h.i.a H v.v.;.n.M.E i ,.2.2.2.1.9.9.E g w.5.B 9.2.1.' ",
"> 6.l.u.z.z.e.# *.h.M.;.f.M.I i 5.1.2.2.2.2.X.T z v.d.2.h./ =.P p w.z.3.z.d.i.g H h.h.:.v.v.I # 5.2.2.2.0.9.9.E d 6.w.B 9.0.0.` ",
": A I A P P F a >.v.h.<.f.M.Y i 6.9.2.1.2.2.9.T z f.i.u.8 !.u.P i m T N H S Y f S h.h.<.z.v.R i 5.1.0.0.2.0.1. .d w.0. .0.0.0.G ",
"  i # + # + + # 4.v.h.<.f.v.Y i 5.0.2.2.2.2.9. .l j.b.u.q !.r W + # i + i . @ # S h.h.3.z.h.R i 5.1.2.0.0.1.9.E k 5.9. .1.0.0.' ",
"o Z S p Z g M a 4.v.h.3.d.M.P # 6.9.1.2.1.1.9.T l z.j.s.^ !.[./.w x J p G p ` a I h.h.3.z.h.Y # 5.9.1.9.9.2.1.E g 9.9. .0.0.1.` ",
"> E 1.j ..U E a 4.v.h.3.d.f.P # 5.1.2.2.1.1.9.T l j.f.f.f.0 /.tX.X!.o.j X.H 5.a H h.h.u.z.M.E i 5.9.9.1.1.9.2.E g w.0.,.0.2.0.' ",
"% X.,.b .. .T # >.b.h.a.f.v.Y # w.0.9.2.1.0.0.T l e./ j.g.f.^.rXyX[.r j 1.U 5.a L v.j.d.f.v.Y i 5.1.q.[ { 5.1.} k 8.9.9.0.0.9.G ",
"& ,.X.b 5.,.E a >.b.h.a.f.h.I i 9.2.2.0.2.0.0.Y l Q.r.j.h.] .XtXyXrX!.j X.X.5.a L h.h.f.d.v.R i >.6.~ 3 1 -.9.} g 9.0.9.2.0.0.' ",
"& 5.,.N 1.,.E a 4.v.h.f.f.h.Y i 5.1.2.0.2.2.9.T % ^.s.h.u 6XrXtXrX_.Q N X.w o.a H v.h.f.d.v.T i ,.7.2 wXy < 7.E g q.0.0.0.0.2.` ",
"% 0.,.B 9.,.E i >.b.h.g.f.v.S i 6.2.9.0.0.0.9.T ^._.f.0 .X[.tX4X^.~ 9.N X./.7.a L v.h.h.f.h.R # ,.8.3 #.8 W e.} g w.9.0.1.2.2.` ",
"& 9.5.B 0.1.E i >.v.j.h.f.v.Y p 5.1.0.1.9.9.9.x _._.a.Q._._..Xw a 5.9.N o.3 q.g I v.v.h.h.h.U i >.w.-.< 1 t.9.{ g w.9.0.2.2.2.' ",
": 9.1.V 0.0.E a >.h.h.h.j.M.Y i 9.9.0.1.0.9.9.w )._.=.8 )._.^.M @ Q 9.N J 9.o.a L v.v.h.h.h.R # 5.1.w.7.5.1.9.o.k q.0.0.2.2.0.G ",
"& 9.1.V 0.0.E i >.b.h.j.h.v.Y i 5.1.2.,.0.0.1._._._.) h.q ).9 P X 1 1.B 9.2.X.a L v.h.h.j.j.U # 5.1.2...0.2.0.} k 9.2.9.2.2.2.' ",
"> 0.,.U 9.0.E i >.v.h.h.h.M.I i G L Y m Y I c (.3X).).] b.=./ K Q.8 1.B 9.1.5.g L h.j.h.h.h.E a P L Y m I L K F g w.0.0.2.2.0.G ",
": 9.,. .0.2.E a 4.h.h.h.h.v.Y @ z Z M s z M X (.6X`.`.(.0 a.h.K (.(.X.U 9.2.4.a L j.h.h.h.h.R # v m m a z m d s a q.0.0.2.2.2.` ",
"> 9.,...0.2.E i >.v.j.M.j.M.Y # 7.o.8.A 4.4.3 (.rX6X(.`.'.(.) P Q.`.w  .9.2.7.g L h.j.h.h.h.R # Y >.%.G 5.4.4.Y g w.0.0.2.2.2.' ",
"> 5.1...2.1.T i 4.v.j.h.h.v.L i G.b.B.3.z.v.e '.rXyX6X`.].'.'.Q.Q.Y.'.7 9.1.o.g I h.h.h.h.h.R @ x.v.z.r.v.v.v.e.g 9.9.0.2.2.2.G ",
"> 9.1.X.1.1.E a %.v.v.b.h.M.Y i c.h.B.r.v.j.w Y.6XyXyXyX6X3X].'.R.Y.R.'.~ 1.9.p L v.j.h.h.h.T # k.h.M.r.v.j.j.w.g w.0.0.2.2.2.' ",
"& 9.,.,.1.1.E p 4.x.=.M &.m.I # n.h.b.a.j.h.O.R. XtXyXyXtXtXtXtX3X'.'.R.Q.1.W $ S h.v.h.h.M.U i l.v.b.u.M.j.v.6.k q.9.0.2.2.2.` ",
": 5.1.1.1.9.E a 4.&.3 Z.4 t.P # v.h.v.a.h.f.e.'.].tXyXyXtXtXtXtXtXrX'.R.Y.9.o.Y.M v.h.h.h.v.R # z.h.M.k.M.j.h.6.k q.9.0.2.2.2.` ",
"> 9.9.9.2.0.E a *.~ Z.0 q ) $.# c.h.v.d.v.h.z.Y.R.3XrXtXtXtXtXtXtXyX6XR.R.1.5.Y.(.z.j.h.h.h.E i k.h.h.s.v.h.h.6.g w.0.1.2.2.2.Y ",
"> 9.0.9.2.2.E a 4.&.3 9 2 t.I # N.h.b.g.M.h.v.< W.W.rXrXtXtXtXyXtXtXtXW.Y.2.} E.|./ j.h.h.v.Y # c.h.v.d.h.h.h.6.k w.0.0.2.2.1.` ",
"> 9.9.9.2.6.E i >.H.-.~ -.m.$.s n.h.h.d.h.j.v.>.~.W. XrXtXtXtXyXtXtXtXW.w 9.1 W.W.e j.j.v.M.E # k.h.h.d.h.h.h.6.k q.0.0.2.2.1.` ",
": 9.9.9.2.2.E p 7.M.N.N.B.B.I # n.v.v.h.j.j.j...f Y.T.2XtXtX6X6XyXtXtXW.A 9.P.W.{.~.B.B.B.B.T i k.h.h.h.h.h.h.6.k w.0.0.2.2.2.` ",
"o 9.1.9.1.9. .p A E E R E R F i n.h.h.v.h.h.h.%.z y.E.{.2X2X{.{.3XyX6Xt 2.1 W.{.{.P.U U E R A p l.h.h.h.h.h.h.,.h 6.9.9.0.9.1.` ",
"& 9.1.9.1.9.o.. . i i + h + + # z.h.h.j.j.j.v.>.h f.] T.{.*X{.{.-XyX|.5.,.T.T.*X{.X d + d @ + + k.v.g.h.h.j.h.6.h w...9.9.1.X.` ",
"& 9.1.1.1.9.E a z S Y g Y m M i n.g.j.h.j.j.h.>.l u.2.] *X*X*X*X*X6X8 4.P.*X*X*X{.c [ k T b M # c.v.h.h.h.j.f.6.h 7.R } o....._ ",
"& 0.1.9.9.9. .a F 5.5.Z r.E P i z.h.h.j.j.j.h...i P.j Z ; *X*X*X-X|.~ 6 *X*X*X*X7 o.5.b 5...G a k.f.h.h.h.j.j.2.s A j k v v b v ",
"& ,.1.X.9.0.E a Y 1.9.Z 2.,.P i n.h.h.h.j.j.b.>.  |.# # c U.XX&X-X7 6 &X*X=X&X*XA ,.9.b w.,.G i l.h.h.v.j.h.h.6.$ f h + z k k $ ",
"o 1.1.X.9.0.E a J 1.9.b 1.,.F i n.g.h.h.M.j.j.$.L.&X2 h :.- =XXXXXU.&X&X=X=X=XO A ,.9.N w.5.H i k.h.h.v.h.j.h.6.g 7.=.s o.U 4.x ",
"& :.,.,.0.9. .a J 1.9.N 1.6.L i n.h.h.h.j.j.M.%.U.=XoX< j.r.|.XXXXoX&X=X&XXXT.s S 9.1.N w.0.H i k.h.j.h.j.h.h.6.d G.H.B M.a.b.{ ",
"o  .,.X.0.9.T a J 9.w.N 1.6.G i n.h.h.h.j.j.M.%.; =XXXXXU.P.XXoX+XXX&X5X=XXX8 s S 2.9.B w.0.G i z.M.v.j.j.h.h.0.l G.H.B M.h.f.{ ",
"% E 5.X.1.1.E a J 1.2.B ,.9.J i c.h.h.h.h.j.b...x }.OX+XoXoXoX+X+X=X;X7X+X+X{ s A 6.2.B w.9.G i s.j.h.j.h.h.h.6.d B.H.*.e.z.v.} ",
"% E 5.X.X.5.T a I 1.1.B 5.0.G i n.h.h.h.h.h.h.o.h &.oXoX5X%XoXoX+X+XjX;X+X}.7.a m 5 2.B 9.w.S i z.h.h.h.h.h.v.6.j N.] 4 y ! p.[ ",
"% Z S Z A F F a T ,.2.B 1.9.G i z.h.h.h.j.j.v.o.l M.P.%X;XjX5X;X7XkXzXOXOXI.P # I.3 0.U 9.9.G # l.h.h.j.v.j.h.6.k G.1 Z.y #.-.} ",
"  s s i a # @ a Y 1.0.U ,.9.G i c.h.h.h.j.j.v.>.l z.&.%X%XuXhXhXzXzXzXOX@XL.@ 6 oXT 1. .5.9.H a k.h.h.h.h.j.z.6.l c.~ 9 0 < t.=.",
"  n K s m j m s T 1.2. .1.w.S i N.g.h.h.b.j.b...l m.&.@X%X%XzXzXzXzXlX%X@XL.F OXP.<.0. .5.2.S i z.h.h.j.v.j.h.6.h m.y.! ! &.c.[ ",
"* y.z.N y.6.e.f Y 1.1. .,.9.F i l.j.h.h.h.h.v...h j.4 >X@X@XgXzXzXzXzX#X@X}.i.I.= 1.2...,.0.G i k.h.h.b.h.h.v.6.h N.j.d.H.M.f.*.",
"& d.f.N d.3.e.d T 1.9...,.9.G i v.h.h.h.h.h.v.E l z.}.#X#X@X0XhXzXzXzX%X#XOXy.; S 9.9...,.0.G a z.h.h.b.h.h.h.6.h N.f.j.h.j.f.*.",
"* f.f.B f.d.e.a Y 1.9.X.9.9.S i z.h.h.M.v.h.v.4.l j.}.#X#X#X5XhXzXzXzX%X#X#X=.s L 1.0.,.,.0.I i l.h.h.h.v.h.h.6.l v.j.j.j.f.f.*.",
"* m.a.C v.g.0.f Y 1.1.,.5.9.S p m.f.y.1 M x.z.$.l ) $X$X$X$X5XzXzXzXhX8X#X$Xt s S 9.1.,.X.9.J @ l.g.h.j.h.h.v.6.g N.h.h.h.h.h...",
"% M.a.%.b.h.e.s Y 2.1.,.,.1.S i m.x.< #.Z.^ m.$.l }.$X$X$X$X0XhXzXzXhXsX$X$X@X# S 0.2.5.1.9.G p l.h.h.h.h.j.h.6.k n.h.h.h.h.g.} ",
"* j.a.;.b.h.w.s Y 2.0.9.X.1.S p z.t.2 qX0 - m.$.s $X$X$X>X>XjXzXzXzXhXlX>X$X$X5 S 2.9.0.,.9.J a s.j.h.j.z.j.f.6.k B.h.h.j.h.h.} ",
"% j.f.<.M.j.6.s Y 0.0.1.9.1.Z p m.x.< q 2 &.m.$.= >X>X>X>X8XlXzXzXzXhXhX:X>X>X@XS 2.1.9.9.9.G i z.j.h.g.j.j.M.6.k N.h.h.h.h.h.R ",
"* v.j.<.j.h.e.a Y 2.0.2.9.1.H p c.n.F.M ^ m.v.E ; ,X,X,X:XlXhXzXzXzXzXzX0X,X,X,XS 9.2.0.0.2.J i k.j.v.s.M.M.v.6.k n.h.j.h.h.h.} ",
"& v.d.<.v.h.w.a T 2.0.0.9.1.H p R U $.S R I S Y * <X:X:XpXzXzXzXzXzXzXzXfX,X<X<XA 1.2.0.9.0.S a Y U E S R I I ' l v.j.h.h.h.h.*.",
"% N.f.3.h.h.6.a Y 2.0.2.2.2.S @ m Z D g z m g a - :X1X1XfXhXzXzXzXzXzXzXjX1X1X1XH 9.2.1.0.2.G # m Z m f m Z k g d G.h.h.h.h.h.R ",
"* z.f.r.h.v.6.a Y 1.0.2.0.2.K @ G G P l L L A D h 5X8X1XfXhXzXhXzXzXzXzXjX8X8X XS 9.2.1.2.0.Y @ Z G G v S S G F l B.h.h.j.h.f.*.",
"% z.h.u.h.h.0.a Y 9.2.0.2.2.S @ 8.1.w.E 9.9.9.J n 9 8X9XaXzXzXzXpXpXhXlXgX8X8X7 S 9.1.1.1.1.S # 7.9.9.{ 9.5.9.} l n.h.h.h.h.j.R ",
"* z.h.a.h.j.e.a Y 2.0.0.0.,.S p 5.1.w. .9.9.9.U l m.9X9X9XzXzXjX9X9XpXhXfX9X9X= S 9.1.1.1.2.G # 5.9.9.E 5.1.9.E l n.h.h.h.h.h.} ",
"& M.g.a.h.h.e.a Y 1.9.0.9.1.S i 5.1.w.X.9.1.9.J l j.q 0X0XjXzXsX0X0X0XlXpX0X7Xs S 9.9.9.9.w.H # 5.9.0...9.w.9.E k n.h.h.h.h.h.[ ",
"& c.h.h.h.h.w.a Y 9.2.0.0.1.S i 5.1.9.1.1.1.2.J l M.l.wXpXpXhXsXpXpXpXjXpXpXO.s F q.7.] o.8.S a 5.1.2...0.1.9.} k n.h.h.h.j.j.[ ",
"& c.h.h.h.h.8.a T 2.1.w.5.9.S i 5.9.w.o.1.5.9.H l m.h.u.uXaXdXsXaXaXaXgXaXuXs.s S { 3 Z.9 | G p o.2.2.X.9.9.9.T l n.h.h.j.h.g.$.",
"% v.h.h.h.h.6.f T 1.0.9.0.1.S i 5.9.9.9.2.1.1.T z z.j.f.=.iXsXsXsXsXsXsXsX&.i.s Z ( y q #.^ D $ 9.9.2.X.9.9.9. .k n.h.h.h.h.h.[ ",
"* v.h.h.h.j.w.a J 9.0.9.9.9.S p 5.9.9.9.1.2.w.I h z.j.h.v.y.eXdXdXdXgXdXO.M.k.# D ^ 2 y 2 | G i 9.9.1.X.9.9.9.} l n.z.j.h.h.h.} ",
": F.v.v.m.c.e.a { q.9.q.q.9.G p 7.q.q.5.w.w.8.' c c.c.c.n.n.n.1 qXeXZ.y.M.N.x.# D t.A.^ C.q.` a 7.q.9.9.q.q.q.{ c G.c.z.n.n.c.=."
};
