/* XPM */
static char *result[] = {
/* columns rows colors chars-per-pixel */
"64 64 230 2 ",
"   c #5D3A1F",
".  c #6A3D0A",
"X  c #653B24",
"o  c #754302",
"O  c #7A4502",
"+  c #7D4A05",
"@  c #72470B",
"#  c #7E490D",
"$  c #66421C",
"%  c #6B451D",
"&  c #674919",
"*  c #6D491B",
"=  c #76531D",
"-  c #524D39",
";  c #664521",
":  c #6C4320",
">  c #724A25",
",  c #6C5627",
"<  c #785A28",
"1  c #665939",
"2  c #755D33",
"3  c #766439",
"4  c #7F713B",
"5  c #374E50",
"6  c #335D76",
"7  c #34667C",
"8  c #4B534B",
"9  c #5C5849",
"0  c #685A45",
"q  c #41615F",
"w  c #736B4B",
"e  c #686653",
"r  c #766F52",
"t  c #4E6C68",
"y  c #777766",
"u  c #824804",
"i  c #824B04",
"p  c #894E05",
"a  c #844D09",
"s  c #855005",
"d  c #8B5406",
"f  c #85520A",
"g  c #8C530A",
"h  c #8E590A",
"j  c #975806",
"k  c #915609",
"l  c #945B0C",
"z  c #9A5D0D",
"x  c #885C17",
"c  c #945C13",
"v  c #995E14",
"b  c #A15C06",
"n  c #9E630C",
"m  c #9D6313",
"M  c #9B671A",
"N  c #A4620B",
"B  c #AA6708",
"V  c #B36C0C",
"C  c #B86F0C",
"Z  c #B8750B",
"A  c #A26413",
"S  c #A56A14",
"D  c #AC6D15",
"F  c #A66618",
"G  c #A56B1A",
"H  c #AC6D1B",
"J  c #B26E15",
"K  c #B26E19",
"L  c #A77017",
"P  c #AE7114",
"I  c #AD721A",
"U  c #B37315",
"Y  c #BC7513",
"T  c #BB7B17",
"R  c #B3731B",
"E  c #BA741B",
"W  c #B67919",
"Q  c #BC791B",
"!  c #8B6627",
"~  c #946926",
"^  c #9D742D",
"/  c #8E6D39",
"(  c #A56D21",
")  c #AB6E20",
"_  c #AE7020",
"`  c #A57729",
"'  c #B57B23",
"]  c #B77926",
"[  c #BB7C23",
"{  c #AB7C31",
"}  c #C27816",
"|  c #C57A16",
" . c #C47C1B",
".. c #CA7E1B",
"X. c #C27E21",
"o. c #926841",
"O. c #847859",
"+. c #A67746",
"@. c #AC7D4C",
"#. c #B47E4A",
"$. c #877B61",
"%. c #BB8319",
"&. c #BE811C",
"*. c #BB8023",
"=. c #B7842A",
"-. c #A0813B",
";. c #B78836",
":. c #C3830F",
">. c #CA8916",
",. c #C2811D",
"<. c #CD831D",
"1. c #D18E16",
"2. c #D3871E",
"3. c #D4881E",
"4. c #D7951C",
"5. c #C48223",
"6. c #CC8523",
"7. c #C48A27",
"8. c #CE8B24",
"9. c #C3842B",
"0. c #CC862A",
"q. c #CD8B2B",
"w. c #D38722",
"e. c #D38821",
"r. c #D18629",
"t. c #D28A29",
"y. c #CB9028",
"u. c #D39225",
"i. c #DC9A23",
"p. c #D79528",
"a. c #DC9A2C",
"s. c #CB8C32",
"d. c #D08D39",
"f. c #CA963A",
"g. c #D99A31",
"h. c #E29E24",
"j. c #E19E2C",
"k. c #E19E33",
"l. c #E39F38",
"z. c #DDA33A",
"x. c #E5A124",
"c. c #EAA326",
"v. c #E4A22C",
"b. c #EBA62B",
"n. c #EDAA2C",
"m. c #F0A72B",
"M. c #F3AE2D",
"N. c #F4B02D",
"B. c #E4A232",
"V. c #EAA634",
"C. c #EEAC33",
"Z. c #E5A83B",
"A. c #EDAC3A",
"S. c #F3AE32",
"D. c #FAAC34",
"F. c #F3AE3B",
"G. c #ECB13D",
"H. c #F4B033",
"J. c #FAB337",
"K. c #F4B13C",
"L. c #F9B33C",
"P. c #AD804E",
"I. c #B78348",
"U. c #8A886D",
"Y. c #928C76",
"T. c #D59B42",
"R. c #D6A55E",
"E. c #D9A75D",
"W. c #E9AC44",
"Q. c #F4AE41",
"!. c #EDB242",
"~. c #F5B241",
"^. c #CB9C60",
"/. c #D7A762",
"(. c #1D739B",
"). c #2A6E91",
"_. c #1A7EA8",
"`. c #3472A6",
"'. c #297DBB",
"]. c #3976B6",
"[. c #357ABB",
"{. c #476A85",
"}. c #2B7FC3",
"|. c #1684B6",
" X c #2187BA",
".X c #538895",
"XX c #689AAA",
"oX c #178AC9",
"OX c #1B8ACC",
"+X c #0D8CD1",
"@X c #158DD1",
"#X c #1A8BD1",
"$X c #0C92D5",
"%X c #0797DB",
"&X c #0B95DA",
"*X c #039ADD",
"=X c #1291D4",
"-X c #1B9CD8",
";X c #2385C7",
":X c #2985C6",
">X c #2185CA",
",X c #3395D0",
"<X c #14A2DF",
"1X c #069EE1",
"2X c #15A2E2",
"3X c #28A5E3",
"4X c #37AAE3",
"5X c #4FB4DC",
"6X c #6DB6DD",
"7X c #44AFE5",
"8X c #53B4E4",
"9X c #65B9E8",
"0X c #76BDE6",
"qX c #7BC2E5",
"wX c #939483",
"eX c #96958B",
"rX c #95A6A4",
"tX c #8DB4CA",
"yX c #AACCDE",
"uX c #B8D6DF",
"iX c #88C3E7",
"pX c #98C8E6",
"aX c #A6CDE9",
"sX c #B8D4E8",
"dX c #A2CCF0",
"fX c #C9DAE2",
"gX c #D5DFE2",
"hX c #DCDFE3",
"jX c #D4E0E6",
"kX c #DCE2E2",
/* pixels */
"- /./.E.R.R.I.> o.P.@.@.@.@.o.> I.I.I.I.I.I.#./ ! /././.E./.E./ > /.E.E.E.R.^.> / @.+.@.@.@.o.: #.#.I.#.I.I.I.+.< /.E.R.E.E.E.+.",
": D.D.M.N.H.p.@ + d h i z u a u 0.w.2.2.3.2.w.R k F.c.m.m.m.c.R p L.M.M.m.M.l.i + s z O l i a O 5.3.3.3.e.e.w.Q k Q.c.C.m.b.b.=.",
"$ F.M.M.N.S.8.f M &.*.z 5.J ( O w.w.w.w.w.e.2.U k k.w.g.p.a.p.M u F.M.M.M.S.l.s G R &.l 5.V G + w.3.3.w.w.e.w.E h l.8.t.g.p.p._ ",
"* C.M.m.M.N.e.s U B.W.( W.k.R i w.w.3.3.w.2.2.U a F c m m A z M p F.M.m.M.M.B.p I B.C.Z F.c.T i 6.w.w.w.e.w.w.Q a F z c A A b ~ ",
"& C.n.b.M.M.t.+ [ ;.2 $.2 T._ s w.w.w.2.2.2.2.E O g d + m s h + i F.S.b.H.N.B.s P n.n.Z H.n.U i 0.w.e.e.w.e.w.Q O h c O v g c # ",
"% v.M.c.S.M.u.+ *.! Y.y $.^ I i 6.2.2.2.2.2.w.K k p.7.N p.%.g.l i V.S.b.S.N.v.a P n.n.Z K.M.W + 6.w.e.3.e.e.2.Q h *.] d X.R ] c ",
"* j.n.c.M.S.e.a X.{ r y 1 ;.R i w.w.w.3.2.w.w.E c C.B.T H.x.M.L p B.S.h.N.S.B.p P S.N.Z K.N.Q i X.2.2.3.3.3.2.Q g r.t.b e...w.) ",
"; v.M.x.S.M.u.+ *.z.^ ! ^ A.U i w.3.3.w.3.e...E z C.B.&.M.b.M.S i k.S.h.N.M.B.a P S.S.:.K.H.R i w.2.3.3.2.3.2.Q g w.t.b w.2.2.( ",
"& i.n.x.S.M.y.f ,.M.~.y.C.H.R i 6.2.w.w.e.3.w.E l C.n.u.M.M.S.I a p.n.4.S.m.B.a J S.S.:.F.H.W i <.3.3.3.w.2.2.Q g 8.0.V w.2.2._ ",
"; p.B.j.V.C.y.+ &.S.H.:.n.H.U i w.w.3.3.3.3.w.E l C.n.4.n.M.M.L i e.C.4.C.V.B.f U M.S.>.S.S.W + 6.3.3.3.w.w.2.Q g 8.t.V w.w.e.) ",
"; A P D I I G a 5.S.M.1.n.H.R i 6.e.3.3.3.3.w.E l N.b.4.N.n.S.I i N R N H U R s J M.m.1.S.S.W i 6.2.e.3.3.e.2.Q k w.w.T e.3.3.) ",
"  i + o + O o + X.S.M.1.n.H.R i 6.e.3.3.3.3.w.E l C.n.h.N.N.N.I o + a O O o O i D M.N.4.C.M.E i 5.w.e.3.w.3.w.Q g 8.w.| 3.e.e.) ",
"X b H p m g A + 5.S.N.4.b.N.I + 8.w.2.3.3.2.w.R n C.C.b.N.M.N.L + m K p F g ) a U M.N.i.C.S.W O w.w.w.2.w.e.2.Q g w.w.| e.e.3._ ",
"% T w.j  .Y [ a ,.D.N.4.b.C.I + 6.e.3.3.3.2.w.E l N.n.b.n.M.M.I a Q w.j ..J 5.a J S.M.i.C.S.Q i 6.w.w.2.2.2.3.Q k 6.w.2.3.e.w._ ",
"$ ..<.b .. .E i 5.S.M.x.b.S.P i w.e.w.3.3.3.e.E l C.N.N.M.M.H.I i X.w.b ..Y 6.a P M.M.c.n.S.W + 6.2.t.] ] 8.2.E h 0.w.w.3.w.3.) ",
"% <...b 6...Q a ,.D.N.c.b.M.I i w.3.e.e.3.w.3.W l C.N.N.M.M.S.I a 6.w.b <...0.a U M.M.n.b.S.W u ,.8.~ 2 2 9.r.[ g t.e.w.e.3.w._ ",
"% 6.<.B 2.<.Q a ,.S.M.b.b.N.U i 6.2.w.3.e.e.w.E l N.N.H.N.C.S.R a r.w.b w.w.X.a P S.M.M.b.S.Y i <.9.1 rXy , q.Q g t.e.e.e.e.e.K ",
"$ w.2.B w.<.Q a ,.D.M.M.b.H.K i 8.3.3.e.3.e.w.E l C.N.N.n.N.M.L i r.w.B w.w.0.a P S.M.m.b.M.W + ..s.2 $.9 ! s.Q h w.e.w.w.e.e.) ",
": w.<.V e.w.Q i ,.S.M.M.M.S.R i 6.2.e.2.e.w.2.E l H.M.N.N.N.N.W i 6.w.B w.2.0.g U S.H.M.M.M.T i 5.8.;.= < d.w.] g t.w.e.3.3.e._ ",
"; w.w.C 8.2.Q a ,.M.M.N.M.H.I i r.2.e.2.e.e.e.K l C.n.N.N.n.N.L i w.w.B 2.w.X.g P S.S.M.M.M.W + 6.e.t.9.r.3...X.g r.e.e.3.3.e.H ",
"% 6.2.C 2.e.Q i 5.D.M.M.M.S.R i 6.3.3.<.e.e.2.R l C.N.N.M.M.N.R a w.e.V 2.2.X.a D S.N.M.N.M.Y i 6.2.2...e.3.e.[ k r.e.e.3.3.3._ ",
": 2.2.Y w.3.Q i ,.M.M.M.M.S.U i I P I m Y R N F l S.N.n.M.M.M.I i 0.6.C w.2.r.p U M.M.M.N.D.W i I P U M U P S ( g e.e.3.3.3.e.H ",
": w.<.} e.3.Q a 5.S.M.M.M.S.U + z A m s z m a i c C.M.M.M.M.M.L i r.e.Y 2.w.9.g P M.N.M.M.M.W + c m m s v m d s a t.e.w.3.3.3.) ",
": 6.<. .e.3.Q i ,.S.N.N.H.H.R i X.X.q.L 5.5.,.D h C.N.M.M.M.N.I i r.w.} w.w.6.s U N.M.M.M.M.Q + W 5.Q H 6.,.5.R g r.e.e.3.3.3._ ",
": w.<. .2.2.E i 5.S.M.M.M.S.U O Q.D.L.p.C.S.C.Q l C.M.M.M.M.M.G + w.3.| w.2.X.k U M.M.M.M.M.W O Z.S.S.p.D.S.S.y.g w.e.e.3.2.3.H ",
": w.2...2.2.Q a &.S.D.D.M.C.R i F.S.J.i.S.N.M.&.l S.M.N.M.M.M.U i 0.w.| 2.2.0.p P S.N.M.M.M.Y + B.S.H.p.H.N.N.8.h t.e.w.3.3.3._ ",
"% e.2.<.2.2.Q i *.Z.=.M =.A.I s S.D.H.c.M.M.M.T l C.N.M.D.M.s.8 8 ~ w.| 2.3.X.p P M.M.M.M.H.W + V.M.M.j.S.N.S.t.k r.w.e.3.3.3._ ",
": 6.e.<.2.w.Q a *.=.2 U.3 f.I + A.M.S.h.S.N.N.&.l C.M.N.j.{.].].].].9 ..3.2.0.g U S.S.M.D.M.W u V.M.H.B.H.N.M.8.g r.w.e.3.3.3.) ",
": w.w.w.3.e.Q a 5.~ Y.e e ^ I s A.M.H.b.N.M.M.&.z S.M.M.`.].].].].9 0 2.2.3.6.a P M.M.M.M.M.E a B.M.N.b.S.N.M.8.k e.e.e.3.3.3.R ",
"$ w.e.e.3.3.Q a &.;.2 w , T.W + K.D.H.m.D.N.M.,.c S.S.3 ].].[.[.. w.2.w.2.3.6.p P H.M.M.M.S.W + A.M.S.b.M.M.M.8.k t.e.e.3.3.w.) ",
": 6.e.w.3.e.Q a &.~.;.~ ;.G.%.+ A.M.M.b.N.N.S.,.l S.S.t [.[.[.`.+ 0.3.w.2.2.6.a V H.M.D.S.S.R i B.M.M.b.M.M.M.8.g t.e.2.3.3.2.) ",
": w.w.w.3.3.Q i =.K.J.F.L.~.I + K.M.D.m.N.M.M.,.z C.M.w [.[.[.`.+ 6.w.2.e.2.6.a D L.L.L.L.J.Q i V.M.M.n.M.M.M.q.k r.e.e.3.3.3.) ",
"X w.2.w.2.w.} a G Y Q W T Q S i F.M.M.S.M.M.M.&.l C.M.M.t {.].[.@ 6.3.w.w.3.6.a S } Q Y Q T S i V.M.M.M.M.N.M.>.h q.6.w.e.w.2.) ",
"* w.3.w.2.w.[ . . i i o f o o + C.M.M.N.N.N.S.,.l C.c.M.b.n.b.7 [._ e.e.3.3.<.u . + g O d O o o l.M.m.M.M.M.M.8.d t...w.w.w...) ",
"X 3.2.w.2.w. .a z D ] g ' m M + F.m.N.M.N.N.M.,.l a.3.a.p.a.a., :X'.~ 9.w.w.5.a m S ] k R A M + V.S.M.M.M.N.M.8.k 9.Y Q X.} } ) ",
"* 3.2.2.w.w.E p G 6.6.N u. .I i C.M.M.N.N.N.M. .i S j z z n j 6 }.:X'.; = s.0.p F X.6.b w.| H i B.M.M.M.M.N.M.8.f S l l v A z v ",
"X <.2...2.w.Q a U <.e.b 3.<.L i F.M.M.M.N.N.D.&.O g f + m g & }.:X;X:X{.9 6 [ a D <.6.b e.<.D i V.N.M.S.D.N.M.8.O g f o v g k # ",
": 2.2...w.w.Q a R w.w.A 2.8.H i F.m.M.M.D.N.N.%.f 0.] c >.- OX>X;X:X;X).e '.`.p D <.2.B t.6.K a B.S.M.S.M.N.M.e.g 7.=.d X.Y X.c ",
"% | <...w.w. .a K w.w.S 3.e.P i F.N.M.M.H.M.M.%.z S.B.Q e OX X,X:XOX>X5 , _.OX5 D w.w.B t.e.J i B.N.S.N.M.N.M.8.k ~.Q.S H.b.F.] ",
"; ..>...w.w.E p K 2.w.B <.e.H i F.N.M.M.M.N.M.&.l H.v.I >X>X:XyX>XOX>X~ s.OXOX'.S w.w.V t.e.H i C.H.M.N.M.N.M.>.k ~.~.Z N.b.n.' ",
"% Q 5...2.2.Q p Y 2.w.V <.w.H i A.M.M.M.D.N.D. .l H.n.%.@XoXyX6XOX#X`.T ` OXoXOXS >.2.V t.w.U i b.M.M.M.S.M.M.8.d L.K.%.7.Z.S.=.",
"X E 6...<.6.] a J 2.2.V 6.w.H i F.M.M.N.M.N.S. .l C.n.>.OX#XgXyXOX#X! Y ).oX@X@XD 2.2.C 6.e.H + V.N.M.N.M.M.M.8.k F.` 2 O.! Z.] ",
"$ S D N S H F a R 2.6.C 6.w.K i V.m.M.M.D.N.S.,.s N.n.4.4 OXfXjX@X@Xm s oXoX=XoXV 2.2.Y r.e.H i V.M.M.M.M.N.M.8.l Q.< wXy $.;.] ",
"  s s + i + O i R 2.2.Y <.w.H i F.M.M.M.N.M.S.X.5 $Xt i.N.q 6XjX,X_.d 5 =X=X=X5 S 2.2.} w.w.D a B.M.M.N.S.M.S.8.k F.~ w e , f.' ",
"  n L + m h m s E 2.2.} 6.w.D u F.M.M.M.N.N.D.,.j oX$Xt N.N. XkXyX+XL ).+X$X$X+ V <.e.} w.2.D i C.M.M.D.M.N.S.8.h G.g.~ ! -.C.Q ",
"* a.C.B g.u.y.s R 2.2.| <.w.H i C.M.M.M.M.M.S. .j |.$X$Xc.N.|.fXhX-X-.(.$X$Xr s J e.3.| 6.e.H i B.M.D.M.M.N.S.8.d G.N.n.~.K.n.*.",
"; v.n.B v.4.y.p W 2.w...<.w.H i C.M.M.M.M.M.S.Q l |.$X&X^ =.$XpXkX0X$X$X&X7 g.s J 2.e.,.<.e.D + V.N.M.N.S.M.M.8.k K.N.n.N.n.N.' ",
"* n.n.V n.n.u.a R <.w...w.w.D i C.M.M.H.S.M.S.,.j |.%X*X4 |.&XuXkXfX&X&XoX4.j.+ D 2.w.<.<.3.K a V.M.N.N.M.N.M.8.d L.N.N.N.N.n.*.",
"* C.n.Z S.m.e.a R >.2.<.6.w.D i K.n.f.x M Z.C.&.l $X%X%X$X%X-XkXkXkX&X%X4 n.v.s D 2.2.<...w.H a B.N.M.N.M.N.S.8.g K.N.N.N.M.m...",
"& H.n.Z S.M.u.a R e.2.2.<.2.D u G.B., U.O.^ G.%.h *X*X*X*X*XuXkXkXkX*X*X;.N.k.s D e.w.6.<.2.H u V.N.M.M.S.M.M.8.k F.M.M.N.M.M.W ",
"* C.n.:.S.S.u.a _ 3.e.2...2.F p Z.f.1 wXe < G.%.@ *X*X1X1X5XkXkXkXuX*X*Xt N.v.s D 3.3.e.2.w.K a b.M.M.M.M.N.M.8.k F.D.M.M.M.m.*.",
"& C.n.1.H.M.t.a E e.e.w.3.2.F u G.Z., w 1 -.G.%.- 1X1X*X1XjXkXkXkXjX<X1X1Xj.v.s D 3.2.e.w.w.K O C.M.M.m.N.N.C.8.k K.M.M.M.M.M.' ",
"* S.b.1.H.M.u.a R 2.3.e.w.3.J u A.F.W.M ^ G.M.Q 8 <X2X2X8XkXkXkXkXkXsX2X<X XB.s D 3.w.e.e.3.K u B.M.S.v.H.M.S.7.k F.N.m.M.M.M.&.",
"& S.n.1.M.S.8.a R 3.e.3.3.3.J p W Y &.G W W D H - 3X3X4XjXkXkXkXkXkXkXuX3X3Xr d D w.2.e.e.e.J a W Y Q H T W U _ l S.N.N.M.M.M.[ ",
"% F.b.4.M.m.8.a R w.3.e.3.2.D + z F M g l N g a & 4X4X4XkXkXkXkXkXkXkXkX4X4X.Xa J w.3.3.3.e.H + v A m f z A k g d L.N.N.M.M.M.' ",
"* C.n.h.M.S.u.a R 2.e.e.3.2.L O H K _ z P P D F + 4X7X8XkXkXkXkXkXkXkXkXqX4XXXa D 2.2.2.3.e.H + A H H v H D K G l F.M.M.M.M.M.*.",
"$ K.n.h.M.M.7.a R w.e.3.e.2.D O 6.w.t.Q w.w.e.E j .X8X9XkXkXkXhXkXkXkXkXpX5X.Xs D w.2.2.2.2.D + 0.w.6.] w.e.w.[ k F.M.M.M.M.M.Q ",
"& C.N.c.M.M.u.f R 3.3.e.e.2.J i 6.2.t.} e.w.w.K l p.0X6XhXkXkXhXkXkXkXkXaX9X-.s D w.2.2.3.e.H + 5.w.2.Q 8.<.w.E l F.M.M.M.M.M.[ ",
"& F.m.b.M.M.8.a R w.2.e.w.2.D i 6.2.t...w.2.w.J l S.U.6XuXkXhXgXkXkXkXkXaXqXy.+ D w.2.r.w.t.P + 6.w.w. .8.w.w.[ k F.M.M.N.n.M.Q ",
"$ S.M.m.M.M.t.a R 2.e.w.w.2.D u w.3.t.6.2.2.e.J l C.D.XXiXgXhXhXkXkXkXkXpXXXB.f D r.9.( [ t.D a 6.w.e...e.w.w.E l F.M.M.N.N.n.*.",
"% C.m.S.M.M.u.a E 2.e.e.e.2.D i 6.e.e.X.2.2.w.K l S.M.n.tXaXgXgXfXhXhXgXpX-.v.s F ] 2 Y.w { ) u 5.3.3...w.w.w. .l F.M.N.N.M.M.[ ",
"% F.M.M.M.M.8.a R 3.e.w.6.2.D i 6.w.e.w.<.2.w.K l F.M.M.m.tXaXfXdXyXhXaXeXN.j.s A / y r $.^ ) u w.2.2...w.r.w.} j F.M.M.M.M.C.Q ",
"% C.M.M.M.M.t.a E w.w.w.w.w.D p 6.w.w.w.e.e.w.W l C.M.M.m.V.wXsXsXsXsXrXN.H.B.+ F { 0 $.1 { H u w.w.2...w.w.w.X.l Q.n.N.S.m.M.*.",
": !.S.H.K.G.s.f _ w.r.r.w.r.H i 0.r.r.6.t.t.q._ c Z.A.A.F.F.F.~ 0 wX;.H.A.K.z.f v d.T.^ { d.) a 9.r.w.w.r.r.r.] k W.G.A.F.F.C.=."
};
