/* XPM */
static char *result[] = {
/* columns rows colors chars-per-pixel */
"64 64 230 2 ",
"   c #5A3A1B",
".  c #663E0D",
"X  c #533C26",
"o  c #754302",
"O  c #7A4503",
"+  c #7D4A05",
"@  c #7D490B",
"#  c #6B4914",
"$  c #66421C",
"%  c #6B451D",
"&  c #6D491B",
"*  c #714D16",
"=  c #54472E",
"-  c #4A4739",
";  c #664422",
":  c #6C4320",
">  c #724A25",
",  c #6C5627",
"<  c #7A5A28",
"1  c #675938",
"2  c #755B34",
"3  c #776137",
"4  c #325A65",
"5  c #356774",
"6  c #5A5646",
"7  c #4F5250",
"8  c #54625A",
"9  c #67674A",
"0  c #756A4B",
"q  c #676554",
"w  c #77745C",
"e  c #485A73",
"r  c #6C5C67",
"t  c #456572",
"y  c #767767",
"u  c #606173",
"i  c #824B04",
"p  c #864B04",
"a  c #844D09",
"s  c #855005",
"d  c #8B5406",
"f  c #85510A",
"g  c #8C540A",
"h  c #8E590A",
"j  c #975806",
"k  c #915609",
"l  c #945B0C",
"z  c #9A5D0D",
"x  c #895D18",
"c  c #945D13",
"v  c #995E14",
"b  c #A15C06",
"n  c #99640F",
"m  c #9D6313",
"M  c #9A6719",
"N  c #A4630B",
"B  c #AA6708",
"V  c #B36C0C",
"C  c #B86F0C",
"Z  c #B8750B",
"A  c #A26413",
"S  c #A56A14",
"D  c #AC6D15",
"F  c #A66618",
"G  c #A56B1A",
"H  c #AC6D1B",
"J  c #B26E15",
"K  c #B26E19",
"L  c #A77017",
"P  c #AE7114",
"I  c #AD721A",
"U  c #B37315",
"Y  c #BB7513",
"T  c #B3731B",
"R  c #BA741B",
"E  c #B87A18",
"W  c #BC791B",
"Q  c #805E2D",
"!  c #8C6727",
"~  c #966A26",
"^  c #9D732E",
"/  c #856637",
"(  c #9A7236",
")  c #907039",
"_  c #A56D21",
"`  c #AB6E20",
"'  c #AE7020",
"]  c #A5772A",
"[  c #B57B23",
"{  c #BB7C23",
"}  c #B87926",
"|  c #AE7D32",
" . c #C47916",
".. c #C47C1B",
"X. c #CA7E1B",
"o. c #C27E22",
"O. c #8A714C",
"+. c #AA7B4A",
"@. c #B47E4A",
"#. c #867B62",
"$. c #7F8176",
"%. c #BC811D",
"&. c #AD822F",
"*. c #BB8023",
"=. c #B68229",
"-. c #B78736",
";. c #C3830F",
":. c #CB8A15",
">. c #C3821E",
",. c #CD831D",
"<. c #D18E16",
"1. c #D3871E",
"2. c #D4881E",
"3. c #D7951C",
"4. c #C48222",
"5. c #CC8523",
"6. c #CE8B24",
"7. c #C5862A",
"8. c #CD8B2B",
"9. c #D38622",
"0. c #D38821",
"q. c #D18629",
"w. c #D28A29",
"e. c #CB9028",
"r. c #D89727",
"t. c #CC8C33",
"y. c #D08D39",
"u. c #CA9438",
"i. c #D99A31",
"p. c #E19E28",
"a. c #E29E34",
"s. c #DDA33A",
"d. c #E6A224",
"f. c #EAA326",
"g. c #E4A32C",
"h. c #EBA62B",
"j. c #EDAA2C",
"k. c #F0A72B",
"l. c #F3AE2D",
"z. c #F4B02D",
"x. c #E5A233",
"c. c #EAA634",
"v. c #EDAC33",
"b. c #E4A73A",
"n. c #EDAC3A",
"m. c #F3AE32",
"M. c #FAAC34",
"N. c #F3AE3B",
"B. c #ECB13D",
"V. c #F4B033",
"C. c #FAB337",
"Z. c #F4B13C",
"A. c #F9B33C",
"S. c #AD804E",
"D. c #B78348",
"F. c #8E8970",
"G. c #D59B42",
"H. c #D6A55E",
"J. c #D9A75D",
"K. c #E9AC44",
"L. c #F4AE41",
"P. c #EDB242",
"I. c #F5B241",
"U. c #CB9C60",
"Y. c #D7A762",
"T. c #327095",
"R. c #2C77AB",
"E. c #2A7CB9",
"W. c #3876B5",
"Q. c #337BBC",
"!. c #565A87",
"~. c #4F6992",
"^. c #5F5DA0",
"/. c #4A6BAB",
"(. c #5266A7",
"). c #4371AE",
"_. c #4374B3",
"`. c #2D7EC2",
"'. c #327DC0",
"]. c #1881B9",
"[. c #2B83B6",
"{. c #5688BA",
"}. c #0E8ECC",
"|. c #198ACC",
" X c #1A8BCD",
".X c #158ED2",
"XX c #198BD2",
"oX c #0C93D6",
"OX c #0696DB",
"+X c #0A94D9",
"@X c #039ADE",
"#X c #0999D9",
"$X c #1191D3",
"%X c #1D95D4",
"&X c #2384C6",
"*X c #2A81C3",
"=X c #2385CA",
"-X c #248ACC",
";X c #2D97D2",
":X c #1CA3DF",
">X c #049CE1",
",X c #12A1E1",
"<X c #23A5E3",
"1X c #33AAE2",
"2X c #4A91C7",
"3X c #699CC2",
"4X c #57AED8",
"5X c #77A9C8",
"6X c #6AB7DD",
"7X c #43AEE3",
"8X c #4FB3E7",
"9X c #55B5E6",
"0X c #65B8E5",
"qX c #72BCE9",
"wX c #97968A",
"eX c #A2A49F",
"rX c #87B5CA",
"tX c #8BB6D3",
"yX c #A0B5C2",
"uX c #91C5DC",
"iX c #B1CCDE",
"pX c #8BC4E9",
"aX c #A6CBE9",
"sX c #B2CEEC",
"dX c #AFD2E6",
"fX c #DCE1DE",
"gX c #E0E0DD",
"hX c #CFDCE4",
"jX c #D4E1E5",
"kX c #DCE2E2",
/* pixels */
"= H.Y.Y.H.Y.D.> O.@.+.+.@.+.O.: S.D.D.D.D.D.@.( Q Y.H.Y.J.J.J.( > Y.H.J.J.H.U.> / +.@.+.+.+.O.: @.@.D.@.D.D.D.+.< Y.J.J.J.J.J.+.",
"> N.l.l.z.V.r.o + d h i v i p p 5.9.2.2.2.2.9.K l N.f.k.h.l.f.T p N.l.l.l.l.a.i + f l i l a i O X.2.2.2.2.0.9.W k N.f.k.j.j.f.=.",
"  m.l.l.z.l.6.f M W *.n 4.D _ p 9.9.0.9.9.2.1.R l a.0.i.r.i.r.G p N.l.k.l.m.a.f G E %.j 4.U S + 9.2.2.2.9.9.9.W g a.6.w.i.r.r.' ",
"& N.l.l.l.z.0.f U x.K._ K.a.K p 9.9.2.9.0.2.1.J a F c m A A z x a N.l.k.l.l.a.d L g.v.V N.f.E i o.9.9.9.q.9.9.W a F v c A m z ~ ",
"% v.j.h.l.l.6.i { -.2 #.2 G.' i 9.9.9.2.2.9.9.K O g s + z d h + i N.m.h.m.z.x.a P h.j.Z C.j.E + q.9.0.0.0.0.9.W + g k O v g c @ ",
"% h.l.f.m.l.6.a *.~ F.y #.] I i 9.9.1.2.1.9.9.K l w.e.N r.%.i.l a c.m.f.V.z.g.s P j.j.%.Z.z.U i 5.9.2.2.0.0.2.R d 7.} g o.K } c ",
"& g.j.f.m.l.0.+ 4.] 0 y 1 -.T p X.9.2.0.0.0.q. .l v.x.E j.d.m.L p x.m.p.z.m.x.p P l.l.Z Z.z.E i o.2.2.2.2.2.1.R d q.w.b 0.X.9.` ",
"; p.m.d.m.l.6.f *.s.^ / ^ n.P i 9.2.9.2.9.2.X.R z v.x.>.z.j.l.S a p.m.d.z.m.x.p P m.m.;.Z.V.T + q.2.2.2.2.2.1. .h 8.w.b 0.1.1._ ",
"& r.h.d.V.m.e.f >.V.Z.e.B.V.T p 5.1.0.0.0.2.9...l v.j.6.l.l.m.I p r.j.3.l.l.x.p J m.m.;.N.V.E i ,.2.2.2.2.9.9.W g q.8.B 2.2.2.' ",
"$ r.c.g.c.v.e.+ *.z.V.;.j.z.U i 5.2.2.2.0.2.X.R n v.j.3.k.l.V.L i w.v.3.v.c.i.d U m.l.:.m.m.T i 5.2.2.2.9.2.9. .k 5.q.V 0.9.9.` ",
"; S T S P I G i >.m.l.<.j.V.T i 6.9.2.2.2.2.9.K l z.h.3.z.l.z.L i N T N J J T f D m.l.<.m.m.T i 5.1.0.0.0.2.2.R d 6.0. .2.0.2.` ",
"  + + o + o o @ 4.m.l.<.j.m.T i 5.9.2.2.2.2.9. .n j.l.p.z.j.v.I o + a O p . o + J l.l.3.v.z.E i 5.1.2.0.2.9.9.W d 0.q. .0.2.0.' ",
"; z K p A h A i >.M.z.3.h.v.I i 5.0.2.2.2.2.9.T l j.j.j.k.%.h.L + m K p H g ` a V l.l.3.m.V.T + 5.9.9.2.9.0.2.W k 5.9.X.0.2.0.K ",
". o.5.b ..Y } i >.m.l.3.h.v.P i 5.2.2.2.2.2.9.R l z.j.j.r ^.!.[ a W q.j o.V 5.a U m.l.p.v.m.W i 4.9.0.2.2.9.1.W g q.9.X.2.0.9.' ",
"  X.X.b X. .R a 4.m.l.d.j.m.I + 9.2.0.2.2.2.0.R n v.z.] ^.^.r L i o.9.b X.Y 5.a P m.z.d.j.l.T i 5.1.w.} } 5.2.{ k 5.0.0.2.0.9.` ",
"% ,.X.b 5.X.E a o.m.l.f.j.m.U i q.2.0.0.2.0.2.U l v.z.( 0 j.z.I i 5.9.b 1.X.5.a P m.l.j.j.v.E i >.0.! 2 < -.9.{ g 0.0.0.0.0.9.' ",
"& q.,.B ,.,.R a 4.m.l.j.f.l.T i 5.1.9.2.9.2.0.R l j.z.i.z.z.z.G   _ 9.b 9.9.o.f U m.z.k.j.m.E i ,.7.9 eXy , 8.{ h 0.0.0.2.9.0.H ",
"% 0.,.V 9.1.E a 4.l.l.l.j.m.D i 6.2.2.9.2.0.9.R n v.z.z.z.j./ (.^.(.!.B 9.q.q.a D m.V.k.h.l.U i ,.8., #.6 Q 8...g q.0.0.2.2.0.` ",
": 9.,.V 0.9.W a >.M.l.l.j.m.T i 5.2.2.2.0.0.9.R l v.z.z.z./ /.(.(.!.e ; 9.1.5.g U m.M.l.l.l.E a 4.0.-., < y.9.{ g w.q.9.2.2.2.' ",
"; 9.1.C 0.0.W i 4.l.l.z.z.V.T i q.2.9.2.0.0.9.K l v.l.z.p./.(.(.  5.9.B 1.1.o.a P l.l.l.z.l.U + 5.1.q.7.w.9.X.o.k w.0.0.2.2.0.H ",
"% 9.1.C 0.0.W i >.l.l.l.l.V.T i 5.1.2.,.0.9.1.T c v.l.j.u (./.e + q.9.V 9.1.o.a P m.l.l.M.l.Y i 4.2.1...0.2.0.} k 0.0.0.2.2.2.' ",
": 9.,.Y 9.2.W i >.M.l.l.l.m.U p I P T m Y T A A k m.l.h./.3X/.x + 5.9.V 9.1.9.g U l.z.l.l.l.E a I U T m U P S G g q.0.0.2.2.0.H ",
"; 9.,. .0.2.W a >.m.l.l.j.V.T O v b M s n A p i c m.z.) _.tX).L i q.q.Y 1.1.2 a P z.l.l.z.z.U + c m m a n m d s a w.0.0.2.2.2.` ",
": 9.,...0.2.W i >.m.z.V.z.V.T + 7.o.8.S >.4.>.D l m.z.~._.rX).I i q.1. .9.5./.d P l.z.l.z.z.E + T 4.>.H 5.4.4.T g q.0.2.2.2.2.' ",
": 9.,...1.1.R i >.l.l.M.z.V.P i L.M.Z.r.l.m.v.>.l v.l.).3X5X).L O q.0.X.2.X.1 a P l.z.l.l.l.E + b.M.v.r.M.m.m.e.k q.0.9.2.2.2.H ",
": 9.1.X.1.1.R a *.V.m.M.l.v.T i N.l.C.r.m.l.l.W l v.g.).5XrX_.I p q.2. .2.< } a P m.l.l.l.l.T i x.m.V.r.V.z.m.6.h q.0.0.2.2.2.' ",
"% 9.1.,.2.2.R a 4.b.*.M =.B.I s N.l.V.f.m.z.v.L l m.h.W.5XrX_.L i 0.9. .1.,.e a U l.m.l.l.V.E + c.m.l.p.V.z.l.w.k q.2.9.2.2.2.` ",
"; 5.0.,.2.2.W a *.&.2 F.3 u.I + m.l.m.f.m.m.t _.g m.h.W.3XtX_.x + 0.0.,.0.!.8 a U m.l.l.z.M.U i c.l.V.x.z.z.m.6.g q.2.9.2.2.2.` ",
"& 9.9.9.2.2.W a 4.~ F.q w ^ E + n.l.M.j.l.l.=.W.f N.h.W.{.3X3X4 i 9.1.1.W W.6 a V V.z.l.l.m.E i c.l.V.g.l.l.l.6.k 0.0.2.2.2.2.T ",
": 9.9.9.1.2.W a *.&.3 9 , G.I + N.l.m.j.m.l.j.W.g N.j.W.W.Q.3XQ.. 9.1.9.< Q.1 a J m.l.l.l.m.T @ c.z.l.h.l.l.l.6.k w.0.9.2.2.2.` ",
": 5.9.9.2.0.W a >.P.-.~ -.P.I + N.l.m.j.l.z.m.W.g m.z.0 [.Q.Q.{.W.~ 9.9.6 '.T.p J l.z.z.l.V.R i g.l.z.h.m.l.m.6.g w.0.0.2.2.2.` ",
": 9.9.9.2.2.W i 7.V.C.Z.Z.A.%.+ N.l.M.k.l.z.l.t l n.z.l.~.*XQ.Q.E.W._ 9.F '.Q.. J I.A.A.A.C.W i x.l.l.v.l.l.l.6.k w.0.9.2.2.2.` ",
". 9.1.9.9.9...p S E ..T W W S i N.l.m.l.z.m.l.E # i.l.z.f.E.2X'.Q.`.`.9.9.R.'.Q.m W E E  .E S i x.l.l.m.l.l.l.6.g 8.,.0.0.1.9.H ",
"> 9.1.1.9.9.... . i i o g o o + v.l.z.l.z.z.l.1 7 m.f.l.j.8 `.tX*X`.E.! 2.Q `.`.E.+ g O d O o o x.l.k.l.l.z.l.:.h w.X.q.9.9.X.' ",
": 9.1.9.1.9.W a z J T g T m M + N.k.l.z.z.z.g.`.i r.2.i.r.7.`.2X2XE.`.7 5.9.`.*X*X- ' k T A M + n.l.l.l.l.z.z.6.k 4.R W o....._ ",
": q.1.9.1.9.W a G 5.5.A r.%.I i v.l.z.l.z.z.9 *XO D j z z j &X`.dX`.=X- * t.E.*X*XR.5.b 5...D a x.l.l.l.l.z.z.6.s S l l v A z v ",
"  5.1.X.2.9.W p T ,.0.N 2.:.G i N.l.l.l.m.z.T.&XX g f @ n f =X*XkX&X-XwX#.< t *X*XE.5.b 0.5.D i c.l.l.m.l.l.l.5.@ f x o z g k @ ",
": 1.1.X.9.0...a K 1.q.N 1.2.I i N.k.l.l.z.z.R.&X].*.{ l :.n |.=XkX*XT.y q Q e |.|.8 1.B w.5.K i c.l.l.V.l.z.l.6.g 4.=.d ..R o.c ",
"% ,.,.X.9.9. .a K 2.9.N 2.5.D p m.l.l.l.z.z.) &X-XT.b.E v.9 =X-XkX-X< 1 , -.T.].-X} 9.B w.0.K a x.l.m.l.l.l.l.6.k A.I.B V.f.m.} ",
"$  .,.X.9.9.R a K 2.q.B 1.5.H i N.l.l.l.z.z.z.R.XX XR.x ~ -X=X;XkX-X/ } t.` |.|.= 0.1.V w.0.D + v.m.l.l.l.z.l.2.k L.I.V V.j.v.[ ",
"$ W 5.X.1.1.R a U 2.2.V ,.9.D a n.l.l.l.z.l.z...&X|.|. X$X X|.tXkX|.|.6 5 XX|.4 A 1.1.V w.9.K i g.z.l.z.l.l.z.6.d Z.Z.%.e.c.m.[ ",
"$ W 5.X.X.5.{ p J 1.1.V 1.q.D i N.l.l.l.M.l.m.o.= |.|.|. X X|.jXhX|. X XXX}.5 a D 1.2.V q.0.D i c.l.l.l.m.z.l.5.j Z.] 2 w ! b.[ ",
"; S S A S H F a R 1.2.J 5.9.K i n.k.z.l.z.z.m...g .X.X.X XXX4XkX2X X$X X}.E.I f D 2.0.Y q.0.D i c.l.l.z.l.z.m.6.l L.< wXy #.&.=.",
"  p s i a + O a K 2.1.C ,.q.H i n.l.l.l.M.l.m.o.l .X.X.X$X$XhXfX#X$X$X$X$X# O @ B 2.2.Y 5.0.H a x.z.l.l.m.z.m.6.h N.! 0 q 2 u.*.",
"$ n L + m j n s R 2.2. .,.0.D + N.l.l.l.l.z.M.>.l }.$X$X$X%XkXkX;XoX$X$X$Xp G f D 2.0. .5.2.D i v.l.z.z.l.z.l.6.h B.i.~ ! | B.[ ",
"& i.v.B i.e.e.f T 2.1. .,.q.D i c.l.l.l.l.l.m...l oXoXoX#X%XkXkXaX+XoXoXoXU x.p J 2.2. .,.9.D a x.l.l.M.m.l.m.6.h B.z.j.Z.m.j.*.",
"$ g.j.B h.3.6.s T 2.2...5.0.H i N.l.l.l.l.l.m.W g +X+X+X+X+X4XkXfX;XOXoXoX4 g.s D 1.9.>.,.0.K + k.l.l.M.l.z.m.6.d C.z.j.l.l.j.[ ",
"& j.j.V j.j.6.f T 1.9.,.9.9.P p v.k.l.z.m.l.m.4.# OX+X+X+X#X#XkXkXjX#XOX#X#Xi.s P 1.0.,.,.0.K i x.l.l.l.l.z.m.6.d C.z.j.z.j.z.*.",
"& v.j.Z m.k.0.f T ,.1.,.5.9.D p B.j.s.< M b.z.%.4 @X@XOX#X#X#XfXkXkX6X#X#X#Xt s D 9.2.,.X.0.H p c.l.z.l.V.z.l.6.d Z.M.l.l.l.k...",
"$ V.d.%.M.l.6.f T 2.2.,.,.2.D i V.s., #.F.^ B.%.}.@X@X@X@X>X6XkXkXkXjX#X@X#X#X+ B 9.2.5.9.X.H i c.l.l.l.z.j.m.6.k Z.l.l.l.l.l.W ",
"* v.f.;.m.l.r.f T 2.0.9.1.X.D p B.u.1 wX6 , B.%.@X@X@X@X>X>XkXkXkXkXkX9X@X@X@X# P 0.2.9.1.9.K a g.z.l.z.V.z.v.6.k A.l.l.z.l.l.{ ",
"$ z.j.<.V.l.5.a T 0.0.2.1.1.F i B.b.& 0 1 &.B.%.>X>X@X@X>XuXfXkXkXkXfXfX#X@X@X- D 0.9.2.9.9.H a v.l.z.k.z.z.j.6.k Z.l.l.l.l.l.E ",
"# Z.j.<.z.l.6.s T 2.2.0.9.1.J p N.Z.K.~ ^ B.m.W ,X,X,X,X<XfXkXkXkXkXkXkX4X,X,X4 D 9.9.9.0.9.J i x.M.m.h.m.m.m.6.k N.z.k.l.l.l.{ ",
"& v.j.<.l.l.w.a T 2.0.2.2.1.J p U Y %.S E E D K <X<X:X<XdXfXkXkXkXkXkXkXjX,X<X4 D 9.2.0.0.2.D i E Y E D W U T ' j m.l.z.l.l.j.*.",
"$ Z.j.3.m.m.0.a T 9.0.0.2.1.S + m A M d z n g a [.1X1X1XkXfXkXkXkXkXkXkXfX1X1X= J 9.2.2.0.0.D @ c A m f n A k g d I.z.z.l.l.l.[ ",
"& v.j.r.l.l.e.a T 2.2.2.5.1.D + H K ' z D P S F $ 7X7X8XkXkXkXkXkXkXkXfXkX8X7X. D 9.2.2.0.0.D + G H G v D J D G l A.z.l.l.l.l.*.",
"$ V.l.p.l.z.6.a T 2.0.0.2.1.D O 8.1.w.R q.9.9.K j 9X8X0XkXkXkXkXkXkXkXkXkX9X9Xf D 2.2.1.2.2.D + 7.9.q.R 0.5.q.W l N.l.z.l.k.z.W ",
"& v.j.d.l.z.6.a T 2.2.0.0.1.D i 5.1.0...0.9.9.R j #.9X9XkXkXkXkXkXkXkXkXkX0X4Xd D 9.1.2.2.0.H @ 5.9.1.{ 5.1.9.R k N.l.l.l.z.l.*.",
"$ Z.l.h.l.l.e.a K 0.9.0.9.1.D i 5.2.0.X.2.2.9.J z v.5XqXjXkXkXkXkXkXkXkXjXqX) + D 0.,.q.9.q.D i 5.9.0...0.0.9.} l N.l.l.l.l.l.E ",
"$ m.k.l.l.l.w.a R 9.2.0.9.1.D i 5.2.q.1.1.1.2.J z v.r.pXuXkXkXjXfXgXkXkXaXpXi.s D w.=._ o.w.D i 5.1.0...0.0.9.R k N.l.l.z.l.z.[ ",
"& v.l.m.l.l.e.a R 2.0.9.9.1.D i 5.1.q.o.1.2.9.J l N.l.&.pXhXkXjXaXaXgXkXpX$.s.s S | 2 F.2 | H @ o.2.2.X.9.9.0. .k A.l.l.l.l.j.*.",
"$ N.l.l.l.l.6.a K 2.2.9.5.1.D i 5.2.0.9.1.2.9.U c v.z.j.&.aXhXaXaXaXfXdXaXj.g.s F ~ #.w #.( H p q.2.2.X.9.9.9...k Z.l.z.l.l.l.[ ",
"% v.k.l.l.m.q.a R 0.2.0.9.9.D p 7.9.0.9.9.2.0.T l v.z.l.m.p.yXsXsXsXdXsXe.z.s.s S | 1 y 1 -.` a 9.2.1.X.q.9.9.o.l A.z.j.l.k.l.{ ",
"; P.m.V.Z.n.e.a } q.q.q.q.9.H a q.q.w.5.q.q.w.' x b.N.n.N.N.v.2 eXiXeXu.Z.Z.s.@ D y.D.^ @.y.` a o.q.0.9.q.q.q.} k K.B.n.N.N.n.=."
};
