/* XPM */
static char *result[] = {
/* columns rows colors chars-per-pixel */
"64 64 235 2 ",
"   c #59370D",
".  c #5C3B1A",
"X  c #6A3E0B",
"o  c #653B24",
"O  c #5B4118",
"+  c #754302",
"@  c #7A4503",
"#  c #7E4A05",
"$  c #79480A",
"%  c #7E4A0A",
"&  c #6F4710",
"*  c #6A4014",
"=  c #66421C",
"-  c #6B451D",
";  c #6D491B",
":  c #7A531B",
">  c #514630",
",  c #664521",
"<  c #6C4320",
"1  c #724A25",
"2  c #6C5628",
"3  c #785926",
"4  c #655938",
"5  c #735A34",
"6  c #776239",
"7  c #384F53",
"8  c #38576D",
"9  c #2F6878",
"0  c #52524B",
"q  c #695750",
"w  c #4F655D",
"e  c #69664A",
"r  c #756949",
"t  c #7C7241",
"y  c #676756",
"u  c #797458",
"i  c #415466",
"p  c #4C6D74",
"a  c #767866",
"s  c #777371",
"d  c #824804",
"f  c #824B04",
"g  c #894E05",
"h  c #844D09",
"j  c #855005",
"k  c #8B5406",
"l  c #85520B",
"z  c #8D540A",
"x  c #8E590A",
"c  c #965806",
"v  c #915609",
"b  c #945B0C",
"n  c #9A5D0D",
"m  c #8A5C18",
"M  c #945C13",
"N  c #995E14",
"B  c #A15D07",
"V  c #986210",
"C  c #9D6313",
"Z  c #9A6719",
"A  c #A96707",
"S  c #A3630B",
"D  c #B36C0B",
"F  c #B86F0C",
"G  c #B8760B",
"H  c #A26413",
"J  c #A56A14",
"K  c #AC6D15",
"L  c #A56618",
"P  c #A56B1A",
"I  c #AC6D1B",
"U  c #B16E15",
"Y  c #B16E19",
"T  c #A77017",
"R  c #AE7114",
"E  c #AD721B",
"W  c #B37315",
"Q  c #BC7513",
"!  c #B3731B",
"~  c #BA751B",
"^  c #B87A18",
"/  c #BC791B",
"(  c #8E5E26",
")  c #8C6627",
"_  c #956A27",
"`  c #9C742D",
"'  c #8B6536",
"]  c #9B7635",
"[  c #A36C22",
"{  c #AB6E20",
"}  c #AD7020",
"|  c #A57729",
" . c #B57B23",
".. c #BB7C23",
"X. c #B87926",
"o. c #A77B32",
"O. c #C37916",
"+. c #C47C1B",
"@. c #CA7E1B",
"#. c #C27D23",
"$. c #8C704C",
"%. c #AA7B4A",
"&. c #B47E4A",
"*. c #867B62",
"=. c #7F8176",
"-. c #B7821C",
";. c #BE811B",
":. c #AB802E",
">. c #BB8023",
",. c #B8832A",
"<. c #B78836",
"1. c #C3830F",
"2. c #C98815",
"3. c #C2821D",
"4. c #CD831D",
"5. c #D18E16",
"6. c #D3871E",
"7. c #D4881E",
"8. c #D7951C",
"9. c #C48222",
"0. c #CC8523",
"q. c #C48B26",
"w. c #CE8B24",
"e. c #C3842A",
"r. c #C9852A",
"t. c #CD8B2B",
"y. c #D38722",
"u. c #D38821",
"i. c #D18629",
"p. c #D28A29",
"a. c #CB9027",
"s. c #D89627",
"d. c #CC8D32",
"f. c #D08D39",
"g. c #C99439",
"h. c #D89A32",
"j. c #E29E23",
"k. c #E19E2C",
"l. c #E29E34",
"z. c #DDA33A",
"x. c #E6A224",
"c. c #EAA326",
"v. c #E4A32C",
"b. c #EBA62B",
"n. c #EDAA2C",
"m. c #F0A72B",
"M. c #F3AE2D",
"N. c #F4B02D",
"B. c #E4A232",
"V. c #EAA634",
"C. c #EDAB33",
"Z. c #E5A73A",
"A. c #EDAC3A",
"S. c #F3AD32",
"D. c #FAAC34",
"F. c #F3AE3B",
"G. c #ECB13D",
"H. c #F4B033",
"J. c #FAB337",
"K. c #F4B13C",
"L. c #F9B33C",
"P. c #AD804E",
"I. c #B78348",
"U. c #8E8971",
"Y. c #A08961",
"T. c #D59B42",
"R. c #D6A55E",
"E. c #D9A75D",
"W. c #E9AC44",
"Q. c #F4AE41",
"!. c #EDB242",
"~. c #F5B241",
"^. c #CB9C60",
"/. c #D7A762",
"(. c #1E7A9D",
"). c #2C6C93",
"_. c #2C75AC",
"`. c #2B7CBA",
"'. c #3977B7",
"]. c #347BBD",
"[. c #585A85",
"{. c #4B658C",
"}. c #496CAA",
"|. c #5467A7",
" X c #4475B3",
".X c #4E75B0",
"XX c #2D7FC1",
"oX c #307EC0",
"OX c #2581AB",
"+X c #3088B9",
"@X c #6D8688",
"#X c #5884B8",
"$X c #1A8ACB",
"%X c #1B8ACC",
"&X c #148ED2",
"*X c #1A8CD2",
"=X c #0C92D4",
"-X c #0A95DA",
";X c #049ADD",
":X c #1293D0",
">X c #2884C6",
",X c #2385C9",
"<X c #2F91CC",
"1X c #26A4DC",
"2X c #069DE0",
"3X c #12A2E2",
"4X c #25A6E2",
"5X c #35AAE3",
"6X c #5795C5",
"7X c #6499C2",
"8X c #49A6D8",
"9X c #51AED6",
"0X c #73A8CB",
"qX c #43AEE5",
"wX c #56B5E4",
"eX c #61B8E7",
"rX c #72BCE6",
"tX c #78C2DF",
"yX c #96968A",
"uX c #A9A897",
"iX c #88B8CC",
"pX c #9ABBD3",
"aX c #A7BDD4",
"sX c #9CC3D9",
"dX c #B7D1DE",
"fX c #83C2E7",
"gX c #93C6E7",
"hX c #A6CCE9",
"jX c #B1CEED",
"kX c #B8D4E6",
"lX c #DCE2DF",
"zX c #C7DBE3",
"xX c #D1DDE3",
"cX c #D5E1E4",
"vX c #DCE2E2",
/* pixels */
"> /././././.I.1 $.&.%.%.P.&.$.< I.I.I.I.&.I.&.] ( /././.E.E.E.] 1 /.E.E.E.R.^.1 ' %.%.%.&.%.$.- &.&.&.&.I.I.I.%.3 /.E.E.E.E.E.%.",
"1 D.M.M.N.S.s.$ @ j x h n d d d r.7.7.7.7.7.y.Y z A.c.m.b.M.m.Y h F.m.M.M.M.l.f # k N # b h h @ @.7.7.7.6.u.y./ v Q.x.n.M.b.b.X.",
". F.M.M.M.M.w.j C -.9.n 9.K [ d y.u.y.y.y.u.6.~ b l.y.h.s.h.s.P d F.M.M.M.S.l.l P W 3.b 9.R P # y.y.7.7.u.u.u.~ z B.w.p.l.s.s.| ",
"; A.M.M.M.N.u.h W B.W.[ W.k.! g y.y.y.y.7.7.6.W h L M C C C n V g F.M.b.M.S.B.g E v.C.R H.x.^ f 0.7.y.y.i.y.y./ h L M N N C n Z ",
"- C.n.c.M.M.s.# -.<.5 *.5 T.E h y.y.y.7.7.6.6.Y @ z k # N k x $ f F.S.b.S.N.B.j R n.n.G H.N.W f r.y.y.y.u.u.y./ # v M @ N v M % ",
"; b.M.c.S.M.w.# >._ U.s *.o.E f y.y.6.6.6.y.y.~ b p.q.S s.;.h.b h V.S.b.S.N.B.g R n.n.G K.N.W # 0.6.y.7.u.u.6./ z ..X.z #.Y X.M ",
"; v.M.c.S.M.u.h 9.| r a 4 <.! f @.y.y.7.7.u.i.~ n C.B.^ N.x.M.T f B.S.j.N.S.B.f R M.N.G H.H./ h #.7.7.7.7.7.7.O.z w.p.B u.@.y.{ ",
"= h.M.x.S.M.a.h 9.z.` ' ` A.W f y.7.7.u.u.7.@.~ b C.V.;.n.n.M.J f k.S.j.N.M.B.g K H.S.1.K.H.W # y.7.7.7.7.7.7.~ z w.p.B u.6.y.P ",
"; s.b.x.S.M.a.l ;.H.!.a.S.H.! f 0.6.7.y.7.u.y.O.b C.n.a.M.M.H.E g s.n.8.M.M.B.g U S.S.1.F.H.^ h 4.7.7.7.u.7.u.O.z y.t.A y.u.7.} ",
"= s.V.v.V.S.a.# ;.S.H.1.n.H.R f y.y.y.7.7.7.@.~ V C.n.8.M.M.S.T f p.C.8.V.V.l.j U S.M.2.S.M.! # 0.7.7.7.7.u.y.~ z w.p.D y.u.u.{ ",
"= J ! J E E P % 9.S.M.5.n.H.! f w.y.7.7.7.7.u.~ b N.b.8.M.n.M.T h B ! 0 Y Y } h U M.M.5.F.M.W f 0.7.7.u.u.u.7.~ z 0.u.O.u.u.u.Y ",
". # # + # + + % 9.S.M.5.n.H.! f 0.7.7.7.7.7.y.~ b N.M.j.N.n.N.E X d g [.d d X h U M.M.8.C.N.^ h 9.y.u.7.y.7.y./ v w.u.O.u.y.u.{ ",
"o B I g C k L f 3.S.N.8.b.H.E # i.u.7.7.7.7.6.~ b n.N.v.M.n.N.T g B X.i L g } h W M.M.s.M.S.W # i.7.y.7.7.u.7./ z y.y.@.7.7.u.Y ",
"< / 6.c +.Q  .f 9.D.N.8.b.C.R # 9.6.7.7.7.6.y.~ b N.n.n.M.N.N.! d L @.X @.F #.h U S.M.j.n.H./ h 9.7.y.7.y.7.7./ z i.y.@.u.u.u.} ",
"= @.4.B @.+.~ f 9.S.M.j.n.S.E f i.7.7.u.7.y.u./ b C.N.H.N.n.H.E . ' i.B @.O.#.z R S.N.x.V.S.! f 0.6.p.X...4.y./ z i.y.y.u.u.u.{ ",
"= 4.@.B 0.@./ h 3.D.M.c.n.S.W f y.7.u.7.y.7.7.! b C.N.N.M.M.S.E . q y.c @.@.@.z R M.M.n.n.M.^ # +.u._ 5 5 <.y...z y.u.u.7.u.u.} ",
"- w.4.A 6.4./ h 9.S.M.m.b.M.! f 0.7.u.u.7.u.u.~ b N.N.n.N.N.S.! X |.) S 4.y.r.h R S.M.n.n.M.^ f 9.e.4 uXa 3 t./ z i.u.u.y.u.7.{ ",
"= y.4.D y.4./ h 3.D.M.M.n.S.K d w.7.7.y.u.7.y.~ V C.N.N.n.N.H.T d |.|.; 6.y.r.g R M.M.M.n.N.W f 4.t.2 =.0 3 d./ x y.u.y.7.7.7.{ ",
"< y.y.D y.6./ h 3.S.N.M.n.S.! g 0.7.y.7.7.u.y.~ b C.N.N.N.N.N.! d 4 |.|.( 6.0.h W S.S.D.M.M.^ f 9.y.<.2 : T.y...x p.i.u.7.7.7.} ",
"= y.0.F u.6.^ h 3.M.M.M.N.H.E f 0.7.u.7.u.u.u.Y b C.n.N.N.n.N.T d #.|.|.|.~ r.h R S.S.M.M.M.W f w.6.p.r.i.6.y.#.v i.u.u.7.7.u.I ",
"- 0.6.F y.u./ h 9.D.M.N.M.S.! f i.7.u.2.y.u.7.Y b :.N.n.M.M.N.E g i.q .X|.[.r.h R S.M.M.M.D.Q # 9.6.6.+.u.7.u.X.v i.u.u.7.7.7.! ",
"< 6.6.Q u.7.^ h 3.S.M.M.M.H.W f K K ! C Q Y H L b C.N.N.M.M.M.E d i.X.}.#X}.5 z W M.M.M.M.N.^ h E W ! C W E J P z u.u.y.7.7.y.{ ",
"o 7.4.O.6.7./ h 9.M.M.M.M.S.! @ n H Z h V C g g M C.N.N.e s.M.T d p.y.[.7X}.{.l R N.M.M.M.M.! # N C C h n C x j g i.u.u.7.7.7.{ ",
"< y.4.+.u.6./ f 3.S.N.H.N.H.! f #.#.t.J 3.9.3.K x C.N.N.` |.v.E d @.y.4 #X.X}.% R M.N.M.M.N./ # ! 9.;.I 0.3.9.! z i.y.7.7.7.7.} ",
"= u.6.+.6.7.~ d 9.M.M.S.M.S.W @ ~.D.L.s.n.H.C.3.b C.M.M.b. Xy P d p.u.m  X0X}.. R M.M.M.M.M.^ # Z.S.C.s.S.S.S.a.z i.u.u.u.7.7.E ",
"< y.6.@.6.7.~ f 9.H.S.D.M.H.! f F.M.J.s.S.N.M./ b C.M.N.M.{. Xm d i.u.I  XiX'.> R S.M.M.M.N.W f B.M.H.s.H.N.S.w.z i.u.u.7.7.7.} ",
"= y.6.4.7.7./ f >.C.,.Z :.G.W j F.M.N.c.S.M.M.^ b C.N.M.M.6 '.p f i.7.C  XiX X7 W M.M.M.M.H.^ # V.S.D.v.S.N.M.p.z y.u.u.7.7.7.{ ",
"< y.6.0.7.y./ h 9.:.5 U.6 g.E # F.M.M.v.M.N.N.;.b C.M.N.m.e.'.'.X #.4.0 7XiX.Xi W H.S.M.D.M.W f V.M.N.B.H.N.S.w.v i.u.u.7.7.7.{ ",
"< y.y.y.7.7./ h 9.) U.y r ] E j A.M.D.b.S.N.M.;.b S.N.N.M.v.'.'.{.0.}.'.iXiX6Xi R M.M.M.M.S./ f V.M.S.v.M.M.M.w.v u.u.u.7.7.7.} ",
", y.u.y.7.7./ h ;.<.6 e 2 T.W # F.M.S.b.S.N.M.3.n D.N.N.N.v.'.'.`.{ 5 '.iXiX7Xi K M.M.M.M.S.W # C.M.M.b.M.M.M.w.v p.u.y.7.7.y.I ",
"< 0.y.y.7.u./ h ;.!.<._ <.!.E # F.M.M.b.N.N.M.3.b F.M.n.N.b.].].].w #.'.7X0X0X8 W S.M.M.D.H./ # B.M.S.b.S.M.S.w.z p.u.7.7.7.7.} ",
"< y.u.y.7.7./ f e.K.J.K.L.L.-.# F.D.M.M.D.N.M.3.V C.M.M.M.v.].].oX].#.'.oXoX7X7 U L.L.L.L.J.~ f V.M.N.n.M.M.M.w.v p.u.u.7.7.7.{ ",
"o y.6.y.7.7.+.g J ^ / ^ ^ / J f F.M.S.M.N.N.N./ b C.M.S.N.` ].].oXoX( 9 XXXX6X. A +.~ ^ / / J f V.M.M.M.M.M.M.6.k t.6.y.u.y.6.{ ",
"; y.7.y.y.i.~ X X f f + x + + # C.M.N.M.N.N.S.3.b M.x.S.n.{.>X>XoXoX{.6 `.XX>X  X # z @ k @ + + l.M.m.M.M.N.M.w.x w.@.i.y.6.@.{ ",
"o 7.7.6.7.y.~ h n K ! x  .C Z f F.m.M.N.N.N.M.3.b k.w.s.| +X>X+XXXXX`.( _ ).oXf C P  .v ! H Z # V.S.M.M.M.N.N.w.x r.W / #.+.+.[ ",
"; 7.6.y.7.y.+.h I 0.i.S p./ E f C.M.N.M.N.N.M.9.g H v b _.XX>X>X<XXXXX, : y _.g L #.0.B y.O.K h B.M.M.M.N.N.n.6.j J b b H N B N ",
"o 4.6.@.7.y.~ h Y 4.u.S 7.4.P f F.M.M.M.D.N.M.;.@ v l 9 ,X,X>X>XsX,X,XyX*.7 0 j K 4.0.B y.6.K f V.H.M.S.M.N.M.w.$ l l @ n z v % ",
"< 6.6.@.y.y.O.h ! 6.i.B 6.w.T f F.m.M.M.N.M.M.;.l e.i XX,X,X$X>XxX,X,Xy q > [ h K 4.6.A p.0.U h B.M.M.H.M.M.M.w.z r.,.j +.! #.M ",
"* @.4.@.y.y.+.h Y y.y.A 7.u.R f F.N.M.M.M.N.M.3.v t ,X,X,X,X%X,XvX,X,X4 2 0 9.l K u.y.A p.y.K h B.H.M.M.M.N.M.w.c K.~.K S.v.F. .",
"= 3.4.@.y.y./ d ! y.i.A 4.u.I f F.M.M.M.N.M.M.3.& $X$X$X%X,X%X<XvX,X,X| d.2 t.g J 7.y.D p.y.K f C.N.S.N.M.N.M.7.v ~.~.D N.n.M. .",
"- / 0.@.6.6.~ g ~ 6.6.D 4.y.K f V.M.M.D.N.M.D.+.OX*X*X$X$X$X*XsXcX%X$XO.y.4.r.l J 6.6.D y.y.E h v.N.M.N.M.N.M.w.x K.G.-.q.Z.N.>.",
"= / 0.@.@.0...h U 6.6.D 0.y.I f F.M.M.M.M.N.M.) $X$X*X*X*X$X<XvXdX*X(.O.9.4.9.z J 6.6.F i.u.K # C.M.M.M.M.N.S.w.c F.| 5 $.' z. .",
", H J H K K L h ~ 6.y.D 4.y.Y f F.m.M.M.N.M.S.).*X&X*X*X&X$XzXvX8X&X> H K K E l J 7.7.F i.y.I f B.M.M.M.M.M.S.w.v Q.3 yXa *.<.,.",
". h j f h # @ % Y 7.6.Q 4.y.I h C.M.M.M.M.H.C.OX&X&X=X&X*XzXlXzX&X&X$ # h d $ % A 6.7.O.y.u.I f V.M.M.N.S.N.n.w.c !._ r y 2 g.,.",
"O S T j C x S j ~ 6.7.O.0.u.K # K.M.M.M.N.S.S.&X:X&X=X8XvXvXvX8X=X(.T k T j T j 7 7.u.O.0.7.I f C.M.M.D.M.N.S.w.k G.h._ ) o.A. .",
"; h.V.A h.a.a.l ! 7.6.O.4.y.I f V.m.M.M.M.M.S.=X-X:X8XvXvXvXcX-X=Xe G.S Z.2.B.O : 7.7.+.4.u.I f B.M.D.M.M.M.S.w.x G.N.n.K.S.n.>.",
", v.n.A v.j.w.j ! 7.y.+.4.y.I f S.M.M.M.M.M.M.=X-X-XxXvXvXvXcX=X-Xe H.S n.5.v.7 : u.u.3.0.u.U f S.M.M.M.S.M.M.w.x H.n.M.N.n.N. .",
"; n.n.A n.b.a.h ! 6.7.4.y.y.K f C.M.M.S.S.M.C.=X-X-XvXvXvXvXcX-X-Xe S.A S.j.k.7 2 u.u.4.4.7.Y f B.M.M.M.M.M.M.w.v L.N.N.N.N.n.>.",
"; C.n.G S.m.u.h ! 4.y.4.4.y.K f G.n.h.m ) Z.N.(.;X-XvXvXvXvXvX1X;X(.M.G C.N.v.O 9 7.6.4.@.y.I h B.M.M.M.M.N.S.w.z F.M.M.M.M.M.+.",
"= H.x.;.D.M.w.l ! 7.6.4.4.y.K g G.Z.2 *.U.` G.4 ;X;XcXvXvXvXvXhX;X;Xj.;.C.N.v.# =X0.7.0.0.y.Y d S.M.M.M.S.N.M.w.v F.M.M.M.M.m./ ",
"; C.c.1.S.M.s.l ! u.u.6.@.6.K d G.g.4 yXe 3 G.-.=X;XwXvXvXvXlXvX9X;Xp ;.N.N.v.# $XT y.y.6.y.Y d v.N.M.M.M.M.M.w.v L.M.M.M.M.M.>.",
"; N.n.5.S.M.w.h ! u.7.u.7.6.L d G.Z.; r 4 | G.-.O ;X2XzXvXvXvXvXlX5X2XZ C.N.z.# =Xw 7.y.y.7.I d C.M.M.n.N.N.C.q.b F.M.M.M.M.M. .",
"; C.n.5.N.S.w.l ! 7.7.u.y.7.Y d A.F.W._ ` G.n./ V OX3X1XlXlXvXvXlXvXwX3X:.N.v.> 2Xp a.w.u.7.Y f B.D.S.v.H.N.S.w.v H.M.M.M.M.N./ ",
"- S.n.5.S.M.u.h ! 6.u.u.7.7.U g ^ W ;.J ^ ^ K E V s.1X1XtXvXvXvXvXvXlXtX4X<X<X4X4XOX7.7.u.u.U f ! G / K ^ W W } b S.M.M.M.M.M...",
"= H.n.8.M.M.p.h ! y.u.7.w.7.K @ C H L k V V l l b C.t 5X5XzXlXvXvXvXlXlXfX5X5X5X4X=.7.7.u.7.K $ C C C l C H v z k ~.M.M.M.M.M. .",
"; C.n.s.M.S.a.j ! 6.7.7.7.7.R @ I Y E n K K , L x N.N.8XqXeXlXvXvXvXvXlXvXwXqX5X5Xw 7.7.7.u.I # L I I N I K U P v L.M.M.M.M.M.>.",
"= C.M.j.M.M.w.h ! 7.7.u.7.7.K @ 0.6.p./ y.y.p ! b S.N.a wXwXcXvXvXvXvXvXlXcXhXwXwX_ 6.6.6.7.K # r.y.0.X.i.4.y...b F.M.N.M.M.M.^ ",
"; A.M.x.M.M.a.h ! y.u.7.u.6.K g 0.6.p.O.u.y.@XL b S.M.u eXwXjXvXlXvXvXvXvXvXcXwXwX0.6.6.7.7.K % 0.y.6./ 0.y.y./ b F.M.M.M.N.M...",
"- C.m.c.M.M.a.h ! 7.y.y.u.6.K d 0.6.u.@.u.y.) @Xb C.M.@XrXrXjXvXvXvXvXvXlXlXkXtXe y.y.u.6.y.Y f 9.y.u.+.u.u.y.~ v F.M.M.N.n.M./ ",
"= K.M.M.M.M.p.g ! 7.y.y.u.4.K f i.y.p.@.6.7.y.0X@Xo.u fXfXfXzXvXvXvXlXvXlXlXgXrXJ t.e.} #.p.I f y.y.u.+.u.u.y.X.v F.M.M.N.N.N. .",
"; A.M.M.M.M.a.h ~ u.u.u.y.u.K f 0.6.i.0.6.y.y.M fXgXgXgXgXgXvXvXcXhXhXvXvXkXgX+ K o.5 U.r X.{ d 9.6.7.@.y.u.u.O.v F.M.M.M.M.M...",
"= S.M.M.M.M.p.h ! y.u.y.y.4.K f 0.y.u.0.6.6.y.Y l pXgXhXhXxXvXcXkXhXhXhXkXhXo.j J _ *.y *.` { d i.7.7.@.y.y.y.O.n Q.M.M.M.M.S.^ ",
"- S.M.M.M.S.p.h ~ y.y.y.y.y.K g 0.y.y.y.7.u.u.! b V.g.U.aXjXjXjXjXjXkXjXyXh.l.l L o.5 s 4 <.{ d @.7.6.@.u.y.i./ v F.n.N.S.M.S.,.",
"= !.F.S.H.G.d.l } y.y.i.y.i.I f t.i.p.0.i.i.i.} m W.A.W.~.h.] t s Y.$.h.K.K.z.% I f.I.] o.f.{ h r.i.u.y.i.i.i.X.M !.G.C.F.F.C. ."
};
