/* XPM */
static char *result[] = {
/* columns rows colors chars-per-pixel */
"64 64 237 2 ",
"   c #58391B",
".  c #673E0C",
"X  c #553F23",
"o  c #653B24",
"O  c #5E441F",
"+  c #754302",
"@  c #7A4503",
"#  c #7E4A05",
"$  c #74490E",
"%  c #7A480B",
"&  c #65421C",
"*  c #6B451D",
"=  c #6C4919",
"-  c #77531B",
";  c #5E462D",
":  c #474432",
">  c #654623",
",  c #6C4320",
"<  c #724A25",
"1  c #6B5528",
"2  c #775929",
"3  c #675A3A",
"4  c #765C33",
"5  c #776137",
"6  c #344D49",
"7  c #336779",
"8  c #54514D",
"9  c #465654",
"0  c #66524E",
"q  c #5C665B",
"w  c #756A4A",
"e  c #676756",
"r  c #716950",
"t  c #4A5A73",
"y  c #565975",
"u  c #684C74",
"i  c #516472",
"p  c #777866",
"a  c #824B04",
"s  c #854B04",
"d  c #844D09",
"f  c #855005",
"g  c #8B5406",
"h  c #85520A",
"j  c #8D5409",
"k  c #8E590A",
"l  c #975806",
"z  c #915609",
"x  c #945B0B",
"c  c #9B5D0D",
"v  c #8A5D18",
"b  c #945D13",
"n  c #995E14",
"m  c #A15C06",
"M  c #9E630C",
"N  c #9D6313",
"B  c #996518",
"V  c #A86608",
"C  c #B36C0C",
"Z  c #B86F0C",
"A  c #B8750B",
"S  c #A26413",
"D  c #A56A14",
"F  c #AC6D15",
"G  c #A66618",
"H  c #A56B19",
"J  c #AC6D1B",
"K  c #B26E15",
"L  c #B26E19",
"P  c #A77217",
"I  c #AF7114",
"U  c #AE721B",
"Y  c #B37316",
"T  c #BB7513",
"R  c #B3731B",
"E  c #BA741B",
"W  c #B87A19",
"Q  c #BC7A1B",
"!  c #845C24",
"~  c #8B6728",
"^  c #956927",
"/  c #9D732E",
"(  c #846834",
")  c #966B3B",
"_  c #977437",
"`  c #A46D21",
"'  c #AB6E20",
"]  c #AE7020",
"[  c #A6782A",
"{  c #B57B23",
"}  c #BB7C23",
"|  c #B87926",
" . c #AE7D32",
".. c #C47916",
"X. c #C47C1B",
"o. c #CA7E1B",
"O. c #C27E22",
"+. c #8A6D4C",
"@. c #AA7B4A",
"#. c #B47E4A",
"$. c #877B61",
"%. c #7F8176",
"&. c #BD801D",
"*. c #BB8023",
"=. c #B7852A",
"-. c #B78836",
";. c #C3830F",
":. c #CB8A16",
">. c #C2821D",
",. c #CD831D",
"<. c #D18E16",
"1. c #D3871E",
"2. c #D4881E",
"3. c #D7951C",
"4. c #C48222",
"5. c #CC8523",
"6. c #C78A25",
"7. c #CE8B24",
"8. c #C3842A",
"9. c #CA852A",
"0. c #CD8B2A",
"q. c #D38721",
"w. c #D38821",
"e. c #D18629",
"r. c #D28A29",
"t. c #CB9028",
"y. c #D89727",
"u. c #CD8D34",
"i. c #CA9538",
"p. c #DA9B31",
"a. c #E29E27",
"s. c #E29E34",
"d. c #DEA132",
"f. c #E8A325",
"g. c #E5A32B",
"h. c #EBA62B",
"j. c #EDAA2C",
"k. c #F0A72B",
"l. c #F3AE2D",
"z. c #F4B02D",
"x. c #E5A233",
"c. c #EAA634",
"v. c #EDAC33",
"b. c #E5A83B",
"n. c #EDAC3A",
"m. c #F3AE32",
"M. c #FAAC34",
"N. c #F3AE3B",
"B. c #ECB13D",
"V. c #F4B033",
"C. c #FAB337",
"Z. c #F4B13C",
"A. c #F9B33C",
"S. c #AD804E",
"D. c #B78348",
"F. c #8C8A72",
"G. c #D59B42",
"H. c #D6A55E",
"J. c #D9A75D",
"K. c #E9AC44",
"L. c #F4AE41",
"P. c #EDB242",
"I. c #F5B241",
"U. c #CB9C60",
"Y. c #D7A762",
"T. c #306E92",
"R. c #1B78A5",
"E. c #2875A3",
"W. c #3673A9",
"Q. c #2B7EBC",
"!. c #3C75B5",
"~. c #3678B9",
"^. c #5A5986",
"/. c #51659A",
"(. c #625EA1",
"). c #4A6CA9",
"_. c #5666A6",
"`. c #4574B3",
"'. c #4972B1",
"]. c #2C7FC2",
"[. c #327DC1",
"{. c #1783B8",
"}. c #2584AE",
"|. c #6C979F",
" X c #518FBA",
".X c #668EBB",
"XX c #0D8FCB",
"oX c #1A88CA",
"OX c #1B89CC",
"+X c #138ED2",
"@X c #1E8FD1",
"#X c #0695D7",
"$X c #0C93D6",
"%X c #0696DB",
"&X c #0399DD",
"*X c #1291D3",
"=X c #1A99D8",
"-X c #2583C6",
";X c #2981C3",
":X c #2285C9",
">X c #218CCC",
",X c #3592CD",
"<X c #2797D4",
"1X c #14A1DE",
"2X c #32A6DA",
"3X c #039CE0",
"4X c #0FA1E1",
"5X c #25A6E2",
"6X c #35ABE3",
"7X c #468FC7",
"8X c #639DC8",
"9X c #53A7D1",
"0X c #79A9C7",
"qX c #74ADCB",
"wX c #7CB7D8",
"eX c #4BB1E3",
"rX c #63B9E6",
"tX c #73BCE5",
"yX c #7CC2E2",
"uX c #969689",
"iX c #9FA3A0",
"pX c #81AEC8",
"aX c #83B5CB",
"sX c #89B7CC",
"dX c #89B8CB",
"fX c #B9CBDB",
"gX c #88C3E6",
"hX c #94C6EA",
"jX c #A1CAEA",
"kX c #B2CFEC",
"lX c #AFD5E3",
"zX c #B6D4E5",
"xX c #DADFDF",
"cX c #C5D9E4",
"vX c #D4DFE4",
"bX c #D4E1E4",
"nX c #DCE2E2",
/* pixels */
"; Y.Y.Y.H.J.D.< +.#.S.@.#.@.+., S.D.D.D.D.D.#._ ! Y.H.H.J.H.J.) < Y.H.J.J.H.U.< ( @.@.@.@.@.+., #.#.#.G.D.D.D.@.< Y.H.J.J.J.J.@.",
", N.l.l.z.V.y.$ @ g k a b a s s 5.q.1.2.2.1.q.L b N.f.k.k.l.f.E s N.l.l.l.l.s.a # k c a b d a @ ,.2.o.o.w.q.q.Q x I.f.m.k.j.h.{ ",
"& N.l.l.l.l.7.f N &.*.c >.F ' a q.q.q.q.q.q.1.E b s.q.p.y.p.y.H s N.l.l.l.m.s.h H R &.l 4.K G # e.q.q.q.q.q.q.Q k b.5.0.p.y.y.[ ",
"= n.l.l.l.z.r.h Y x.K.` K.s.L s q.q.2.q.2.2.1.Y d G x B n S x B d m.l.k.l.l.s.g I d.V.I m.f.W a O.q.q.q.q.q.q.Q d S b c N S c B ",
"& v.l.h.l.l.7.d W -.4 p 4 G.] a 5.q.q.2.1.1.q.L @ j f # c f j # a N.l.h.m.V.x.s I j.j.A Z.j.Y a q.q.w.w.w.q.1.Q # j b @ n j b % ",
"* h.j.h.l.z.7.# } ^ F.F.$.[ U a q.1.1.1.2.q.q.L x r.6.V y.P u O d c.m.h.m.z.g.f I j.j.A Z.z.W # 5.q.1.w.w.w.1.Q k O.| g O.L | b ",
"* g.j.h.l.m.7.f 4.[ r p 3 -.R f q.1.w.2.q.2.q...x v.x.Q V.0 [ D d h.m.a.V.l.x.d I m.z.A Z.z.Q a 5.1.1.2.1.2.2.Q k 5.r.m q.o.e.J ",
"& g.j.f.m.l.7.a } b./ ! / P.I a q.2.w.w.2.q.o.E c v.c.&.j.j.l.D a s.l.a.z.l.s.f I V.m.;.Z.z.Y a 5.1.1.2.w.2.1.Q j 0.r.m q.1.q.' ",
"= y.h.f.m.l.t.f &.V.Z.t.n.V.R s 5.1.2.q.2.q.q.E x v.j.7.l.l.m.U s y.j.3.l.m.x.d K l.m.;.N.z.Q a ,.2.2.2.2.q.1.Q j q.7.C 1.1.1.] ",
"& y.x.g.c.N.t.# &.l.V.;.j.z.I a 5.q.q.2.2.2.q.E x V.j.3.l.l.m.P a r.c.3.c.h.s.h Y l.l.:.N.l.Y # 5.2.2.2.w.q.1.Q j 7.r.Y q.q.w.' ",
"> D R H U I H # 4.m.m.<.j.V.R a 7.q.w.2.2.2.q.E x z.k.3.l.j.l.P a S R V K K ] g F m.l.<.v.l.R a 5.1.w.w.2.w.1.Q j q.q.T q.w.w.J ",
"  a # + # + + # O.m.l.<.j.V.R a 5.2.2.2.2.2.q.E k z.j.a.l.l.z.R + # d @ a . @ # K l.l.3.N.l.W a 5.1.2.w.2.q.q.Q z 5.q...2.w.w.] ",
"o m J g N z B d >.M.l.3.j.V.U # 7.q.1.2.2.2.q.E x v.z.g.l.l.l.-   n | s G d ' d C l.l.3.m.V.Y a 5.q.q.1.w.2.1.Q j q.q...w.w.2.' ",
"* Q 1.l X.T } s >.m.l.3.j.j.U # 5.w.1.2.2.1.q.R x z.j.j.k.l.l.H (.! o.m o.K O.d Y m.l.a.v.V.W d 5.q.q.1.w.1.1.Q z 5.q.1.w.2.q.] ",
"& o.o.m o...E s 4.m.l.f.j.m.U a q.w.2.w.2.2.w.E x v.z.V.l.l.m.B (.y q.m o...O.g I m.l.f.j.m.R # 5.1.r.| { 5.q.E j r.q.q.2.w.2.' ",
"* ,.o.m 5.o.Q d O.m.l.f.j.l.U a q.2.w.w.2.q.w.W x v.z.z.l.m.m.; /.^.o.m q.o.e.d I m.l.h.h.m.W # >.w.~ 4 4 8.e.} j 0.w.q.w.2.q.] ",
"* 5.,.V 1.,.E d 4.M.z.j.k.l.R a 5.1.w.w.2.w.q.E x z.z.V.z.j.( _._.^.q.V ,.0 9.d K m.l.j.j.l.Q a ,.8.w iXp - i.{ j q.w.w.w.w.w.] ",
"> q.o.C q.1.Q a >.m.l.j.j.V.F a 7.1.1.w.w.2.q.E x v.z.z.z.r _._._.0 q.V Q (.O.d Y m.l.l.j.z.Y # ,.9.1 p 8 ! 0.Q j r.q.q.w.1.1.] ",
"* q.5.C w.w.Q d >.M.l.l.j.m.R a 5.1.w.2.w.q.q.E x v.z.j./ _._.0X_.` w.V R 4 9.d I m.m.l.l.l.Q a 4.0.-.- - G.e.} z e.q.q.2.1.1.] ",
"* q.,.Z w.w.Q a >.l.l.z.l.V.R a q.q.w.1.w.w.w.L x j.z.j.)._.aX.Xt e.q.V Q 1.O.g I m.m.l.l.l.Y # 7.w.r.8.e.2.o.O.z r.q.q.2.1.w.U ",
"* q.1.Z w.w.Q a >.m.l.l.l.m.R s 5.2.2.,.w.w.1.R x j.z._ _..XsX).. e.e.C q.1.O.d I v.l.l.l.z.T a 4.<.1.X.w.2.w.| j r.w.w.2.2.2.U ",
", w.,.T w.1.Q a >.M.l.z.l.V.Y s K U R N T R m - = v.z./.'.sXpX).a o.e.Z ' e.e.g Y l.l.l.l.z.Q a J K R N Y I D J j q.q.w.2.2.w.] ",
", q.,...w.1.Q a >.m.l.z.j.V.R # c S B f c G d + 8 v.l.'.'.dX0X).. e.q.T 8 y } h Y z.z.l.l.l.W # n N N h c N k f g 9.w.w.2.2.2.' ",
", 5.,.X.w.1.Q d >.m.l.V.z.V.Y # O.O.0.D *.4.>.H > ~ k.).'.dXsX'.t o.q...^ '.y d I l.z.l.l.l.Q # W 4.Q J 5.4.4.U j e.w.2.2.2.2.] ",
", 5.1...1.1.E a >.l.l.M.l.N.I @ L.m.A.y.j.m.m.&.# e z.i `.aXsXpX'.y q...X.`.`.X Y l.l.l.l.l.Y # b.m.v.y.m.l.N.t.j e.w.w.2.2.2.J ",
", q.,.,.1.1.Q d *.m.V.M.l.n.R a N.l.C.y.m.z.m.Q : ).z.y.`.`.sXsXpX!.^ ..X.`.'.T.I m.z.l.l.l.E # x.l.C.y.m.z.l.7.j r.2.w.2.1.2.] ",
"* q.1.,.1.1.Q d *.b.*.B =.n.I f N.l.V.f.l.z.z.Q 9 `.r l.=.!..XpXaX7Xy ;.O.!.`.!.F m.l.l.l.V.T a x.m.M.a.V.z.m.7.z e.2.q.2.2.2.] ",
", 5.1.w.1.1.Q d *.=.4 F.5 i.U # N.l.m.f.l.l.z.&.& ~.`.i v.[ !. X`.0X/.,.O.!.!.!.N m.l.l.l.m.W # c.z.V.x.V.z.l.7.j e.w.w.2.2.2.' ",
", 5.q.q.1.1.Q d *.^ F.e r / W f N.l.M.h.m.l.l.&.= ~.~.~.w l.r ~.!.qXW.q.o.0 !.!.I l.l.l.l.m.Q a c.l.m.h.l.z.l.7.z r.w.q.2.2.2.R ",
"> q.q.q.2.1.Q d &.-.5 r 1 G.P # N.l.m.k.m.m.l.&.x !.aX0XW.l.j.!.~. Xt q.o.w.3 !.Y m.l.l.l.m.Y # v.l.l.h.l.z.l.7.z r.w.w.2.2.1.' ",
", q.q.q.2.w.Q h &.P.-.^ -.P.&.f N.l.l.h.l.z.l.>.x W.qXsX~.h.l.t ~.[.! q.w.2.5.W.K l.z.z.m.V.E # x.l.m.g.l.l.l.r.j e.w.w.2.2.1.' ",
"* q.q.q.2.1.Q a 8.V.C.Z.Z.A.P # N.l.l.l.z.z.M.>.k  X0XsX[.h.l.9 [.T.q.w.2.1.} ~.S I.A.A.A.C.Q a c.l.l.j.l.z.l.5.z r.w.w.2.2.2.' ",
"o q.2.q.1.q...s G W Q W Q W D a N.l.m.l.z.V.m.W t [.,X8Xq l.t.9 W.O.1.q.q.Y T.[.9 X.E T X.W D a c.l.l.l.l.l.l.7.j r.5.w.w.1.q.J ",
"* q.2.2.q.q.O.. + a a + j + + # c.l.z.z.z.z.l.~ [.}. X_ h.( =.1 + 9.w.e.~ ~.;X~.Q.# g + j @ + + s.l.l.l.l.z.l.:.k r.o.q.q.q.o.' ",
", 2.1.q.1.q.E d b D R k { N B a N.l.z.l.z.z.m.W.;Xw :.p.y._ 5 H d 7.| T.;X;X;X;XQ.S { z R S B # c.m.l.l.l.z.z.7.k 5.R Q O.X.X.' ",
", w.1.q.1.q.X.d J 5.w.S r.Q U a v.k.l.l.z.z.=.-XX G l c M O E.B d  .Q.].;X;X;X;XT.O.5.m 5...F d x.l.l.l.l.z.z.7.a D x x n S c n ",
"* ,.1.o.1.q.E d L 1.q.S 1.,.J a N.k.l.l.z.M.e }.  $ $ @ x # -X}.T.].-X:X;X-X-X;Xn ,.5.m r.,.J a c.l.l.m.z.l.l.5.# h h @ c z z d ",
"* ,.1.o.1.q.Q d R ,.r.m <.7.P a N.l.l.z.z.z.q :X-X-X:XE.W C 9 >X:X-X,X,X-X:X:X: F ,.q.V r.5.K a x.m.l.V.l.l.l.7.j 8.-.g O.Y O.v ",
"* >.,.o.q.q.X.d L q.q.V 2.w.I s m.z.l.l.z.z.=.-X:X,XwX8XE.a.d.>X:X9XwX].>X:X3 h F w.1.V r.w.K a x.m.l.l.z.l.l.7.z Z.L.V C.f.v.| ",
"& ..,.o.q.q.Q d L q.q.V ,.5.J a N.l.l.l.M.z.z.7 oXqXdXdX<Xf.f.OX,XvX>XOX{.[ 9.d D 1.q.C r.w.J a v.z.m.z.z.l.l.1.z I.I.C m.h.l.| ",
"* Q 5...1.1.Q d L 1.2.C 1.5.J s n.l.l.l.z.l.z.X.E.9XdXdX8Xg.( OXzXgXOX].Q ,.5.h D 4 ,.C r.q.J a h.z.l.z.l.z.l.7.g A.I.&.t.c.m.*.",
"* E 5.o.,.5.} s Y 1.1.C 1.q.F a N.l.l.l.z.M.m.O.$ oXqXdXaX{.oX@XnX,XoX1 4.,.8.h n 7 1.Z 0.q.F a c.l.l.l.l.l.m.7.z Z.[ 5 p ~ b.{ ",
"> S F S F J G d L 1.q.Z 5.q.J a n.k.l.l.z.z.l.O.k oX,X>XdX>XXX<XnX>X+Xc F F U % 7 T.1.T q.q.J a c.l.l.z.m.l.l.7.l L.2 F.p $.-.{ ",
"  d f a a # + d R 1.q.Z ,.e.L a n.l.l.l.l.z.m.O.c {.*X+X2X<X@X2XnX<XoX. d % @ : $X5 1.T q.q.F d x.l.l.l.l.z.v.7.k Z.^ w e 3 i.| ",
"& M P f N l N a R 1.1...,.e.F # Z.l.l.l.z.M.M.X.x {.XX+X@X<XXX=XnX9X*XR.F f B $X$XB w...5.1.F a v.l.l.z.m.z.l.7.k Z.p.~ ~ [ B.{ ",
"* p.v.V p.t.t.f R 1.2.o.,.q.F a c.k.l.l.l.l.m.X.x {.$X$X*X=X*X*XnXzX$X$XT.>.t.#X{.2.w...,.w.J a x.l.z.M.l.z.m.7.k B.z.j.Z.V.l.*.",
"& g.j.V g.a.t.d R 1.1.o.q.q.J a Z.l.l.l.l.l.m.Q x $X$X$X<X$X$X=XnXnX2X$X$XE.a.+ - q.q.>.5.w.K # c.l.l.l.l.l.z.7.g Z.j.z.l.z.j.&.",
"= j.j.V j.j.7.f R 1.1.,.5.q.F a v.l.l.z.V.l.m.4.k %X%X%X=X#X#X=XnXnXcX*X#X#X}.# I <.q.,.,.2.L d c.l.l.z.m.z.l.5.l Z.z.z.z.j.j.*.",
"= V.f.A m.k.w.f R 5.1.,.5.q.F s B.j.G.- B b.b.&.O #X&X&X#X&X#XyXnXnXnXrX&X#X#X6 F 1.q.,.o.w.J a c.l.l.l.z.z.m.7.j N.l.l.l.l.l.X.",
"& Z.f.&.M.l.7.h R 1.1.,.1.1.F a v.b.1 F.F.[ B.&.7 3X#X&X&X3X1XnXnXnXxXbX%X&X3X#XF q.1.q.q.o.J a c.l.l.l.V.z.l.7.z A.l.l.l.l.l.Q ",
"= V.f.;.M.z.7.h R ,.w.1.o.1.F s B.i.3 uX3 1 B.&.{.&X3X3X3X3XlXnXnXnXxXnXeX&X3X&Xb 1.q.q.q.q.L a h.l.l.l.z.z.m.7.z A.l.l.l.l.k.*.",
"& z.j.<.V.z.7.d E w.w.w.q.1.F @ B.b.= r 3 =.B.&.#X3X3X3X4XyXnXnXnXnXnXnXlX3X3X3XB 1.1.q.q.2.J a c.l.l.l.j.j.V.7.z N.l.l.l.l.l.{ ",
"= n.j.<.z.m.7.f R w.w.1.q.1.K s n.N.K.B / n.m.Q {.4X4X4X6XnXnXnXnXnXnXnXxX1X4X1XD 1.w.w.w.2.L d x.z.V.h.z.m.m.7.g N.l.z.l.l.l.Q ",
"= V.j.<.m.l.r.d R 2.2.w.q.1.K s W Y &.F W W F U }.5X5X5XlXnXnXnXnXnXnXnXnX6X5X}.F q.1.w.w.w.K a E T Q D Q Y K ' x m.z.l.l.l.l.*.",
"& V.j.3.l.l.7.d R 1.1.w.1.1.D # N S S g x N j d 9 6X6X6XnXnXnXnXnXnXnXnXnXeX6X: K 2.1.2.1.w.J d n S n h N S x j g A.l.l.l.l.l.{ ",
"= v.j.y.l.m.7.h R 1.w.1.q.<.U # J L ] x U Y D G $ 6X6XeXnXnXnXnXnXnXnXnXnXrXeX+ F q.1.1.2.q.J # H J J n D K F H z A.l.l.l.l.l.*.",
"& V.l.a.l.l.7.d R q.2.w.2.1.F @ 5.q.r.T q.q.q.L k 9XeXeXnXnXnXnXnXnXnXnXnXrX Xg F q.1.1.1.1.D # 9.q.q.| 5.q.e.Q x N.z.z.z.k.z.W ",
"* v.j.f.l.l.t.d R 2.w.w.w.1.F s 5.1.r.X.w.r.q.T k @.rXrXcXnXnXnXnXnXnXnXnXtX%.f F q.2.1.1.2.F # 4.q.q.Q 7.,.q.Q x N.l.l.l.l.l.} ",
"= B.k.h.l.k.7.d R 1.q.w.q.1.F s 5.1.r.o.1.1.q.K x j.|.tXgXvXnXnXnXnXnXnXbXtX/ # F q.1.e.q.w.U a 5.q.w.X.q.q.q.Q z N.l.l.z.l.l.W ",
"& N.l.l.l.l.r.d R q.2.w.q.1.F a q.1.e.1.1.1.w.L c v.p.aXgXcXnXnXbXgXlXnXjXyXt.f F 5.8.[ O.u.F a 5.q.w.X.w.w.e.E z L.l.l.l.z.j.*.",
"* m.l.l.z.l.7.g E 2.w.q.q.1.F a 5.1.e.O.1.1.1.L x N.l.=.hXhXxXvXhXhXhXvXgXF.d.# G  .4 F.w  .G a O.2.2.o.q.q.q.X.l N.l.l.l.l.l.} ",
"& m.l.l.l.z.t.d R 1.2.q.5.1.F a 5.q.w.q.1.1.q.Y b v.z.z.-.dXjXvXjXjXhXzXjXa.d.h G ^ p r $./ ' a e.2.2.o.q.q.q.X.c L.z.z.l.m.m.W ",
"= N.l.l.z.z.r.d E q.2.2.q.q.F s 5.q.q.q.w.w.r.Y x v.l.l.m.s.iXkXzXkXkXkX=.z.x.h S  .0 $.3  .J s e.2.1.o.q.q.q.E z L.l.j.l.l.l.*.",
"> n.v.N.n.Z.u.d ] e.e.r.e.e.J s 9.e.e.5.r.r.r.] v b.v.N.N.N.L.1 iXfXiXi.Z.B.b.# G u.G._  .u.' # 9.e.q.1.e.r.r.| b K.B.n.v.N.m. ."
};
