/* XPM */
static char *result[] = {
/* columns rows colors chars-per-pixel */
"64 64 235 2 ",
"   c #5A3A1B",
".  c #673E0E",
"X  c #4C3927",
"o  c #653B24",
"O  c #3B4139",
"+  c #754302",
"@  c #7A4502",
"#  c #7D4A05",
"$  c #7E4A0C",
"%  c #65431C",
"&  c #6B451D",
"*  c #6B481A",
"=  c #704C17",
"-  c #534C35",
";  c #654623",
":  c #6C4320",
">  c #734A25",
",  c #6C5628",
"<  c #795927",
"1  c #664936",
"2  c #665939",
"3  c #745C33",
"4  c #776137",
"5  c #384A43",
"6  c #2D5C6C",
"7  c #386771",
"8  c #575D52",
"9  c #615345",
"0  c #755644",
"q  c #746A4D",
"w  c #666655",
"e  c #716E54",
"r  c #43566A",
"t  c #575A6C",
"y  c #6D507B",
"u  c #566A68",
"i  c #446B74",
"p  c #767766",
"a  c #824B04",
"s  c #854A04",
"d  c #844D09",
"f  c #845005",
"g  c #8C5406",
"h  c #85510A",
"j  c #8C530A",
"k  c #8E590A",
"l  c #965806",
"z  c #915609",
"x  c #945B0C",
"c  c #9A5D0D",
"v  c #875B18",
"b  c #935C12",
"n  c #995E14",
"m  c #A15C06",
"M  c #9E640B",
"N  c #9D6313",
"B  c #9B681A",
"V  c #A4630A",
"C  c #AA6808",
"Z  c #B36C0C",
"A  c #B86F0C",
"S  c #B8760B",
"D  c #A26413",
"F  c #A66A13",
"G  c #AC6D15",
"H  c #A56719",
"J  c #A46A1B",
"K  c #AC6D1B",
"L  c #B26E15",
"P  c #B26E19",
"I  c #AE7114",
"U  c #AD721B",
"Y  c #B37316",
"T  c #BB7513",
"R  c #B3731B",
"E  c #BA741B",
"W  c #B87918",
"Q  c #BC791B",
"!  c #885E21",
"~  c #8B6727",
"^  c #936B28",
"/  c #9D742E",
"(  c #926D38",
")  c #A46B21",
"_  c #AB6E20",
"`  c #AE7020",
"'  c #A4782A",
"]  c #B57B23",
"[  c #BA7C23",
"{  c #B87926",
"}  c #AC7D35",
"|  c #C47916",
" . c #C47C1B",
".. c #CA7E1B",
"X. c #C27E22",
"o. c #8B6F4E",
"O. c #AA7B4A",
"+. c #B47E4A",
"@. c #877B61",
"#. c #BD801C",
"$. c #BB8123",
"%. c #B68429",
"&. c #BA892C",
"*. c #A68235",
"=. c #B78736",
"-. c #C3830F",
";. c #C98814",
":. c #C3821E",
">. c #CC831D",
",. c #D18E16",
"<. c #D3871E",
"1. c #D4881E",
"2. c #D6941C",
"3. c #C48223",
"4. c #CC8523",
"5. c #CE8B24",
"6. c #C5872A",
"7. c #CD8B2B",
"8. c #D38722",
"9. c #D38821",
"0. c #D18629",
"q. c #D28A29",
"w. c #CA9129",
"e. c #D89727",
"r. c #CC8C33",
"t. c #D08D39",
"y. c #CA963A",
"u. c #DA9B32",
"i. c #E19E27",
"p. c #E19E34",
"a. c #DDA33A",
"s. c #E9A426",
"d. c #E4A22C",
"f. c #EBA62B",
"g. c #EDAA2C",
"h. c #F0A72B",
"j. c #F3AE2D",
"k. c #F4B02D",
"l. c #E5A233",
"z. c #EAA634",
"x. c #EDAB33",
"c. c #E4A73A",
"v. c #EDAC3A",
"b. c #F3AE32",
"n. c #FAAC34",
"m. c #F3AE3B",
"M. c #ECB13D",
"N. c #F4B033",
"B. c #F4B13C",
"V. c #F9B33B",
"C. c #958154",
"Z. c #AD804E",
"A. c #B78348",
"S. c #8E8970",
"D. c #D59B42",
"F. c #D6A55E",
"G. c #D9A75D",
"H. c #E9AC44",
"J. c #F4AE41",
"K. c #F1B242",
"L. c #CB9C60",
"P. c #D7A762",
"I. c #327197",
"U. c #137EB1",
"Y. c #2F72AA",
"T. c #297CB8",
"R. c #3A75B4",
"E. c #3A76B9",
"W. c #337BBC",
"Q. c #5D5A88",
"!. c #5E5E9C",
"~. c #6F548B",
"^. c #78518E",
"/. c #695995",
"(. c #645C9C",
"). c #65629B",
"_. c #605EA0",
"`. c #4669A5",
"'. c #5964A3",
"]. c #4377B5",
"[. c #7A75A5",
"{. c #2D7EC2",
"}. c #307EC3",
"|. c #1582B0",
" X c #2D85B9",
".X c #4E90BD",
"XX c #7A8DB6",
"oX c #198ACA",
"OX c #1B8ACD",
"+X c #0C91CA",
"@X c #178CD2",
"#X c #0995D8",
"$X c #059ADD",
"%X c #1291D3",
"&X c #169DDB",
"*X c #2583C5",
"=X c #2A81C4",
"-X c #2385C9",
";X c #2386C9",
":X c #3585C3",
">X c #269AD3",
",X c #30A6DC",
"<X c #059CE2",
"1X c #14A3E2",
"2X c #2FA7E4",
"3X c #458EC3",
"4X c #73B0D2",
"5X c #4AB1E4",
"6X c #63B7E7",
"7X c #75BFE4",
"8X c #7EC3E5",
"9X c #8F958A",
"0X c #8596B2",
"qX c #A1AAA7",
"wX c #87ABC9",
"eX c #86B7CB",
"rX c #89B5CC",
"tX c #89B8CD",
"yX c #94B2CB",
"uX c #89B8D3",
"iX c #AABFCE",
"pX c #9EC3D9",
"aX c #ADD0DE",
"sX c #86C3E7",
"dX c #93C6EA",
"fX c #A5CBE9",
"gX c #ADD3E5",
"hX c #CCDCDD",
"jX c #DCE1DE",
"kX c #C9DBE3",
"lX c #D5DEE4",
"zX c #CDE0EA",
"xX c #DCE2E2",
"cX c #D9E3E7",
"vX c #E0E1E0",
/* pixels */
"1 P.P.G.G.P.A.> o.+.Z.O.O.O.o.> A.A.A.A.A.A.+.( ! P.F.P.G.G.G.( X P.G.H.F.F.L.> ( O.O.O.O.O.o.: +.+.+.+.A.A.+.O.> P.G.G.G.G.G.O.",
"& v.j.j.k.N.e.@ @ g k a c s s s 4.1.<.9.<.<.9.P n m.s.h.f.n.i.E ^.o.j.j.h.b.p.d # h x # b f a @ >.<.1.1.<.9.9. .x J.s.z.h.f.s.[ ",
"% m.j.j.k.j.5.f B Q $.N :.G ) s 0.1.8.8.9.9.<.R x p.q.u.q.i.e.H ^.^.n.h.j.b.p.h J Y :.l 3.Y H a 8.1.1.1.9.9.8.Q k l.5.e.p.e.e.' ",
"* x.b.j.j.N.5.f Y l.H.) H.p.P s 8.8.8.<.9.<.<.L d H x n n D c 1 ^.^.j.h.j.j.p.j I d.M.I b.s.W a X.8.8.1.0.8.9.Q f H b b D c m ^ ",
"% x.g.g.j.j.5.a [ =.3 p 3 D.` a 0.8.<.1.<.<.8.P @ j g @ b f y [.wX~.j.f.b.k.l.s I f.g.S B.g.W a 0.9.9.9.9.9.9.E # z b @ n j b $ ",
"* d.j.s.j.j.5.$ 3.^ S.@.@.' U a 8.8.<.1.1.<.0.P z e.6.V $.^.0XeX^.0 b.f.b.k.l.f I g.g.S N.j.Y a 4.9.1.1.1.9.9.E j [ { z X.P { b ",
"& d.g.s.b.j.q.f 3.' q p 2 =.R a ..8.8.1.9.9.0.| x x.l.W y 0XtXXX~.p.b.i.N.j.l.f I b.N.S B.N.W a X.1.1.1.1.1.1.E j 5.q.m 9...8._ ",
"; d.h.s.b.j.5.a $.a.' 4 / K.I s 8.1.1.9.9.1...E c x.z.< [.eXuX/.. u.j.s.j.j.p.f I j.b.-.B.k.R # 0.1.1.1.1.1.<.| j q.q.m 9...8._ ",
"* e.f.s.b.b.w.f :.k.K.w.b.N.Y s 4.1.1.9.1.9.8. .x x.g.y tXtXrX/.s q.j.2.k.j.l.f L b.b.-.b.N.Q a >.1.1.1.9.<.9.Q j 5.4.C 1.1.<.` ",
"% e.l.d.x.x.w.# $.b.N.-.g.N.I a 4.9.9.1.1.1...E M x.d./.tXtXeX/.  5.x.2.0 z.p.h L j.j.;.m.b.W # 4.1.1.1.9.9.<.E z 4.q.Z 9.9.9._ ",
"; F R F U I J f :.b.j.,.g.N.R a 4.9.1.1.1.1.8.P x k.g.y wXtXtXrX(.& R V /.G P j L b.j.,.x.b.W a 4.9.9.1.<.9.<. .j 5.9.| 9.9.9.P ",
"  a # + # + + # 3.b.j.,.g.N.R a 4.9.1.1.1.1.8.| x x.g.:.(.yX).XXrX).  @ /.@ . $ L j.j.2.x.b.W a 4.<.1.9.9.1.9.E g q.0.| 9.9.9._ ",
"o m K g N g H $ :.b.k.2.f.N.U # 5.8.<.1.1.1.<.R x k.x.d.&.(.(.(.XXwXQ.g /.j _ d Z N.j.2.x.N.Y # 4.9.9.1.9.<.<.Q z 0.8.| 9.1.9.` ",
"& E 8.l  .T E d :.n.k.2.f.x.I # 4.1.1.1.1.<.9.E x k.g.g.j.g.(.!.).tX(.l !.Z X.d I b.j.i.x.N.E a X.9.8.<.<.<.1.Q j 0.8...1.9.9.P ",
"% ....m .. .E d 3.n.j.i.g.b.U a 8.1.1.9.1.1.5.R x x.k.k.j.g.&._.!.eX!.l Q.| X.j I b.k.s.g.b.W s >.<.q.{ [ 8.<.[ z 0.9.9.9.9.9._ ",
"* >...m 4...Q a :.b.j.s.g.b.Y a 0.1.9.1.9.9.1.W x x.k.k.j.b.b.t '.XXQ.l 9 X.X.j I j.j.g.f.b.W # :.0.^ 3 3 =.8.E j 5.9.9.1.9.9._ ",
"& 4.>.C <.>.E d 3.n.j.g.h.j.Y a 4.<.1.9.1.1.9.E x t &.N.k.k.b.1 '.'.) l P 0.X.j G b.j.j.f.j.W a >.6.2 qXp , r.Q j 7.9.9.1.9.9.K ",
"% 0.<.C 8.>.Q d :.b.j.g.g.b.K a 5.1.9.9.9.9.8.E x &.&.k.k.g.b.v '.1 9.m 8.q.X.d L b.j.j.f.j.W # ..r., @.9 ! r.#.j q.8.9.1.1.9._ ",
"& 8.>.Z 9.8.Q a :.b.k.j.g.b.Y a 4.<.1.<.9.9.8.E x &.k.k.k.j.j.v + 7.<.C 8.9.0.h Y b.b.j.j.b.Q # 3.q.=., < t.8.[ j 0.q.9.1.1.1.` ",
"& 0.<.A 9.9.Q a :.j.j.j.k.N.R a 0.<.9.<.9.9.9.P x x.g.k.k.j.k.I # 0.8.Z 9.8.X.d I b.j.j.j.j.W a 4.<.q.6.q.8...X.z q.8.1.1.1.9.K ",
"& 4.<.A 9.<.Q a :.n.j.k.b.b.Y s 4.9.1.>.8.9.<.P x x.k.g.j.j.k.U d 4.9.Z 1.1.X.j I b.j.j.j.j.T a 4.>.<. .9.1.9.[ z 0.9.9.1.1.1.` ",
": <.<.T 9.9.Q d :.b.j.j.j.b.R f K I R N T R V H x b.k.k.j.j.j.U a 0.0.A 8.<...j I j.j.j.j.j.W a U Y Y B Y Y F J j q.<.9.1.1.1._ ",
": 8.>.| 9.9.Q a :.j.j.j.j.N.R @ c D B f c D a s b x.j.j.j.j.j.G X 0.8.T <.8.4.h I k.k.j.j.j.W # b N c f c N j f f 0.9.9.1.1.1.K ",
": 4.>. .9.1.Q a :.b.k.N.N.b.Y # X.X.w.F :.3.:.K k x.k.j.j.j.j.B X 4.<.| 8.<.6.d Y j.k.j.j.j.Q # W 3.:.K 4.3.3.U j 0.9.9.1.1.9.` ",
": 8.>. .1.<.E d :.j.j.n.j.N.I # J.n.V.e.x.b.x.#.x u.`.d.j.j.j.`.. 0.1.| 1.1...j Y j.j.j.j.j.W # c.b.b.e.b.b.b.w.z 0.9.<.1.1.1.K ",
": 8.<...<.<.Q a $.b.b.n.j.v.Y a m.j.V.e.b.k.j.Q x w.R.k.j.h./ ].  0.1.| 1.1.X.j L t j.j.j.j.R a l.j.V.e.b.k.j.5.z 0.9.9.1.1.9.` ",
"& 9.<.>.<.<.E d $.c.%.B %.v.Y f m.j.k.s.j.k.k.Q x i.%.k.j.j.Y.].6 0.1...<.1.0.d `.w j.j.j.N.W a z.b.j.i.N.k.b.q.g 0.1.9.1.1.1._ ",
": 4.9.>.<.9.Q d 3.%.3 S.4 y.U # m.j.b.s.b.k.j.#.j R.R.w j.s.].R.E.0.9...9.1.6.r E.&.b.j.j.n.W @ z.j.N.l.N.k.j.5.z 0.9.9.1.1.1._ ",
": 8.8.8.1.1.Q d $.^ S.w e / U f v.j.n.f.N.j.j.#.r ].].E.k./ E.E.].9 1.<.<.<.X.].R.&.N.j.j.b.R d l.j.j.f.b.k.j.5.z q.9.<.1.1.1.R ",
"% 8.9.9.1.1.Q f #.=.3 q , D.Y # m.j.b.f.b.k.N.Q }.rXrXE.&.u E.E.E.R.9.1.1.1.t ].E.&.j.j.j.b.W # v.j.b.f.j.j.j.5.z q.9.9.1.1.<._ ",
": 8.<.8.1.5.E d #.K.=.^ =.M.#.f m.j.j.f.k.j.j.! .XtXtXW.f.Y.E.E.W.E.r 1.<.1.R.4XE.&.j.j.j.b.E a l.j.j.f.j.j.j.5.j 0.9.9.1.1.<._ ",
": 0.8.8.1.1.Q s 6.N.B.m.B.K.U # m.j.n.j.j.k.n.i wXtXrXW.x.I.W.W.}.W.W. .1.1.W.tXE.u V.V.V.V.Q a l.j.j.g.j.j.j.5.z q.9.9.1.1.1._ ",
"o 8.<.8.1.0.| s H Q Q Q Q W F a m.j.N.j.j.k.b.W.wX.X.XW.j.u  XW.W.W.{.I.....}.rX3XY.{ E | W H a z.j.j.j.j.j.j.1.k 5.<.8.9.9.9.` ",
"= 8.<.8.9...X.. + a a + k + + # x.j.j.j.k.j.b.{.4X}.{.{.f.&.{.W.W.{. XW.X.K :XyX4X}.j + g @ + + p.j.j.j.j.j.j.5.j 5...0.8.....` ",
"o 1.<.8.1.8.[ s b K R j ] N B a m.h.j.k.k.k.j.{. XW.T.{.^ u.T.=X=X=X=X{.9 ) {.rXyX=X! z R V B # z.b.j.j.k.k.k.5.k 6.W Q X. . ._ ",
"> 8.<.<.8.9.| d K X.4.D e.T U a x.j.k.j.k.k.j.-X*X% l z T.c % {.=X=X=X=XY.r.{.uX3X:Xi m 0.| K a l.g.j.j.k.k.g.5.f D x x D c c n ",
"o <.<...<.9.E d R <.q.m 1.>.U a m.j.j.j.j.k.j.{.=Xj h $ ; + v  X*X3X=X=X*X< T.:X*X*XT.V q.>.G a z.k.j.b.j.k.g.5.# h v @ c j j d ",
"& >.<...<.9. .d R >.8.V <.>.J a m.h.j.j.N.j.b.7 -X6.{ x B v %.oX*X4X-X-XOX< T.;X*XOX;XC q.8.K d z.b.j.N.j.j.k.5.j 6.%.g X.T X.v ",
"& | ;...9.9.E d P <.0.C <.5.I s b.j.j.j.j.k.k.U oX&.l.Q d.%.w.;X-XpX;XOX;X} T.*XK 8 -XC q.9.P a z.b.j.j.j.k.j.1.z m.K.C n.s.m.{ ",
"; | <...9.9.E j P <.9.V <.5.K a m.j.j.j.k.j.b.Q - q d.#.*.g.i -X-XkX-X-X;X7.U.I.F  .;XV q.9.G a x.j.b.j.j.k.j.1.z J.K.Z k.f.j.{ ",
"& E 4.| 1.<. .d P <.<.Z <.8.K s v.j.j.j.j.j.j.:.k Y.g.,.g.%.@XOXOXxXOXOX X>.|.6 G <.oXZ q.8.G a l.k.j.k.j.k.j.5.g V.m.#.w.v.b.[ ",
"& E 4...X.9.{ d Y <.<.Z >.0.G a m.j.j.j.n.k.j.X.b u g.,.i.+XoXOX4XlX@XOX7 >.@XO G <.9 A 0.9.G a x.j.j.j.j.j.j.5.l m.' 4 e ~ c.[ ",
"% D G D G H H s P <.8.A 4.9.P a v.h.j.j.k.j.n. .x w.g.2.%X@XoX@XcXjXOXoXv = %Xh G <.<.T 0.9.K # l.j.j.k.b.j.x.5.x J.< 9Xp @.=.] ",
"  f f # a # @ d R <.<.T >.q.K a v.j.j.j.j.j.b.3.x x.j.oX@X%X%XuXcXpX%XoXf |.X $ C <.<.S 4.8.L d f.k.j.j.j.k.b.5.z m.~ q w , y.%.",
"  M F f N g N f E <.<.| 8.9.G a m.j.j.j.k.n.j.3.x N.7 @X%X%X>XxXjX,X+X5 I +XJ h G 1.1.| 4.1.G a z.j.n.j.j.k.j.5.k M.u.^ ~ } x.] ",
"& u.x.C u.e.w.f R <.<.| >.9.H a z.j.j.j.j.j.b. .x w.%X#X%X%XhXjXxXoX#XM l.6 l.f L 1.<. .>.9.K d l.j.j.j.b.j.b.5.g B.g.g.J.N.j.%.",
"* d.g.C d.i.5.h R <.9. .4.9.K s b.j.j.j.j.j.b. .c |.%X#X#X4XjXcXaX%XI.F z.2 a.f G <.9...4.9.K a b.j.j.n.j.k.g.5.k B.j.g.j.j.g.W ",
"* x.g.C g.g.5.a R <.<...8.9.K a x.j.j.k.b.j.b.$.k #X#X#X#XxXcXjX6X#X/ C b.7 d.# I <.9.>.>.1.L a l.j.j.k.j.k.k.5.l V.j.k.k.k.g.%.",
"* x.g.S b.h.9.h R <.<.>.4.9.G s M.g.a.< B c.M.#.- $X$X$XgXjXxXcX,X#X&.S x.i d.f G 9.<.>...8.K d l.j.j.j.j.k.x.5.j V.j.j.j.j.j. .",
"* M.s.#.n.j.w.a R 1.<.>.>.<.G s M.c., @.C./ M.#.|.$X$X#XxXcXxXjX,X$X*.S k.g.i f C 9.<.4.<.8.G s x.j.j.j.j.k.j.5.z m.n.k.j.j.j.Q ",
"* k.s.-.N.j.5.h R 1.9.8.8...G s M.r.2 S.8 < M.#.#X$X$X7XxXvXxXxX4X$X+X#.b.j.u.@ G 9.9.8.>.9.P d f.j.j.k.b.j.g.5.z m.j.k.j.j.j.Q ",
"% k.g.,.N.N.9.h R 9.9.<.8.<.G @ K.c., q 2 *.M.#.$X<X$XjXxXvXxXxXcX$X$X7 j.N.l.f G 9.<.8.9.9.H s z.k.j.h.k.k.x.w.z m.j.j.j.j.k.] ",
"* v.g.;.N.j.5.f R 9.9.1.9.<.L s v.m.H.^ / v.b.Q <X<X<XxXxXxXxXxXcXsX$X$X|.k.d.h G 9.9.9.8.1.P a z.j.b.d.N.j.b.5.g n.j.j.j.j.j.$.",
"* N.s.2.j.b.q.d R 1.1.8.<.<.L s W T #.F W W G U 1X1X1XjXxXxXxXxXcXxXaX1X1X&Xw.a G 9.1.9.9.9.G d R T Q G W W L R c b.j.j.j.j.j.] ",
"% b.g.2.j.j.q.d R <.1.9.1.1.G @ c H B j c N j a >X2X2XcXxXxXxXxXxXxXvXcX2X2X>Xa L 8.1.<.8.<.G $ N D N h N D z j g K.j.j.j.j.j.W ",
"* x.g.i.j.b.5.f R 8.1.1.5.1.U @ K P R x I I H D I.2X2XhXxXxXxXxXxXxXcXjXjX5X2X. L 8.<.<.<.9.P # B K K n G G K H x V.j.j.j.j.j.%.",
"% x.g.i.j.j.5.d R <.9.<.9.<.G @ 5.8.q.E 9.0.8.E ; 2X5X8XjXxXvXxXxXxXxXxXxXxX2Xu G 8.<.<.<.1.G # 4.8.8.{ 4.8.9.[ x m.j.j.j.j.j.W ",
"* x.j.s.j.k.5.h R <.<.9.9.<.G s 4.<.q.| <.9.8.E x 6X5X5XxXxXcXxXxXxXxXxXjXcX6X.XG 8.<.<.<.9.K # 3.8.8.Q 4.<.9.E x m.j.j.j.j.j.$.",
"* m.j.f.j.j.w.a R <.9.9.8.<.G s 4.1.q...<.9.<.L x p 6X6XsXxXxXxXxXxXcXxXxXcX8X.XK 9...q.9.q.L # 4.8.9. .q.9.8.E z m.j.j.j.j.j.W ",
"% b.h.j.j.j.q.d R 9.9.9.8.<.G a 4.<.q...<.<.9.L x x.4X8X6XkXxXxXcXjXjXxXxXcX8Xu K 0.6._ X.7.G d 4.8.1. .9.1.8.[ z m.j.j.j.k.k.] ",
"& x.j.b.j.j.w.d E 1.9.9.8.8.G a 4.8.q.>.<.<.9.P x v.w.sXsX8XzXcXjXvXvXlXxXxXsX= G { 3 S.q { K s 4.<.<...8.9.9.E x m.j.j.j.j.g.$.",
"% m.j.j.j.k.9.d P 1.9.9.4.<.G a 4.8.8.4.>.<.9.L c v.k.%.pXdXdXzXvXfXdXhXcXgX9Xf D ( p e @.( _ @ 0.<.1...8.0.8.| c m.j.j.j.b.b.W ",
"& x.j.j.j.b.q.d E 9.1.1.9.9.G s 4.8.9.8.9.9.9.R k x.k.j.j.o.fXfXgXfXfXfXgXtXa.$ H / 2 p 2 } K s 4.9.<...8.8.8. .z m.g.k.j.j.b.$.",
"; K.b.b.B.M.r.h P 0.0.0.0.0.K s 0.0.0.4.q.q.7.` b M.v.x.m.m.x.3 0XiXaXyX*.B.a.h H t.D./ =.t._ d 6.8.0.8.0.0.0.{ b H.M.v.m.m.v.] "
};
