/* XPM */
static char *result[] = {
/* columns rows colors chars-per-pixel */
"64 64 252 2 ",
"   c #5D3A1F",
".  c #6A3F10",
"X  c #653B24",
"o  c #794505",
"O  c #7D4A04",
"+  c #6D4816",
"@  c #66421C",
"#  c #6B451D",
"$  c #714914",
"%  c #78541E",
"&  c #5B493A",
"*  c #664421",
"=  c #6C4320",
"-  c #724A25",
";  c #6C5527",
":  c #785928",
">  c #6C5B35",
",  c #746036",
"<  c #3D584A",
"1  c #3A7672",
"2  c #4C4D46",
"3  c #554C4E",
"4  c #48574A",
"5  c #4D554C",
"6  c #55564A",
"7  c #4B5A56",
"8  c #595855",
"9  c #625254",
"0  c #4B6552",
"q  c #58655A",
"w  c #76694B",
"e  c #6F6851",
"r  c #66675B",
"t  c #615A6D",
"y  c #5A6866",
"u  c #51746D",
"i  c #686965",
"p  c #687269",
"a  c #777767",
"s  c #6C6D74",
"d  c #677875",
"f  c #824B04",
"g  c #854A04",
"h  c #844D09",
"j  c #8C5406",
"k  c #895509",
"l  c #8D540A",
"z  c #915609",
"x  c #935A0C",
"c  c #985A0A",
"v  c #885C17",
"b  c #955D13",
"n  c #A15C06",
"m  c #9E630C",
"M  c #9D6313",
"N  c #9A6519",
"B  c #A96608",
"V  c #B36C0B",
"C  c #B8750B",
"Z  c #A26413",
"A  c #A66915",
"S  c #AC6C16",
"D  c #A46A1A",
"F  c #AB6D1B",
"G  c #B16E18",
"H  c #AE7114",
"J  c #AE721B",
"K  c #B77615",
"L  c #B3731B",
"P  c #BB761C",
"I  c #BC791C",
"U  c #936A27",
"Y  c #916B31",
"T  c #A56D21",
"R  c #AB6E20",
"E  c #AE7121",
"W  c #A57729",
"Q  c #B57B23",
"!  c #BB7C23",
"~  c #B87A26",
"^  c #AB7934",
"/  c #C47916",
"(  c #C57C1C",
")  c #CB7E1B",
"_  c #C27B24",
"`  c #917045",
"'  c #847659",
"]  c #A97B49",
"[  c #B47E4A",
"{  c #827A62",
"}  c #3E8573",
"|  c #538A76",
" . c #6D837A",
".. c #BB811E",
"X. c #BB8023",
"o. c #B68229",
"O. c #B88836",
"+. c #BE913B",
"@. c #CA8913",
"#. c #CF8E16",
"$. c #C3821E",
"%. c #CD831D",
"&. c #D18E16",
"*. c #D3861E",
"=. c #D4881E",
"-. c #C38222",
";. c #CC8523",
":. c #CE8B24",
">. c #C9882A",
",. c #D38621",
"<. c #D38821",
"1. c #D1862A",
"2. c #D28A29",
"3. c #CC9127",
"4. c #D79628",
"5. c #CC8D32",
"6. c #C59337",
"7. c #D79A33",
"8. c #E19E26",
"9. c #E29E34",
"0. c #DCA43B",
"q. c #E6A329",
"w. c #EBA62A",
"e. c #EDAA2C",
"r. c #F0A72B",
"t. c #F3AE2D",
"y. c #F4B02D",
"u. c #E5A333",
"i. c #E7A636",
"p. c #EDAB34",
"a. c #ECAC3A",
"s. c #F3AE32",
"d. c #FAAC34",
"f. c #F4AE3B",
"g. c #EDB13C",
"h. c #F4B134",
"j. c #F4B03B",
"k. c #F8B33E",
"l. c #9E885C",
"z. c #B78348",
"x. c #AF9050",
"c. c #92896C",
"v. c #AB9A6C",
"b. c #D59B42",
"n. c #D9A75D",
"m. c #EEAF43",
"M. c #F3AD41",
"N. c #CB9C60",
"B. c #D7A762",
"V. c #697A85",
"C. c #3FA99C",
"Z. c #38B2A6",
"A. c #588885",
"S. c #52898C",
"D. c #4A9687",
"F. c #56958C",
"G. c #4A9A95",
"H. c #599896",
"J. c #678885",
"K. c #6D8A8C",
"L. c #639987",
"P. c #679B98",
"I. c #47A898",
"U. c #58A799",
"Y. c #47B39C",
"T. c #66A594",
"R. c #559DA3",
"E. c #4CAAA3",
"W. c #56A8A7",
"Q. c #48B7AA",
"!. c #56B8AA",
"~. c #50ADB3",
"^. c #4BBAB7",
"/. c #55B9B7",
"(. c #63B1AC",
"). c #3BC9B0",
"_. c #4ECBB2",
"`. c #49C6B8",
"'. c #4FB8CB",
"]. c #3CDACA",
"[. c #37EBD6",
"{. c #39F4E8",
"}. c #48CAC6",
"|. c #55C8C7",
" X c #48D9CA",
".X c #50D6D2",
"XX c #69D8CD",
"oX c #48E1DA",
"OX c #50E8D4",
"+X c #6DE5D8",
"@X c #55CFE7",
"#X c #47EFEA",
"$X c #5BF6EE",
"%X c #5CF7F1",
"&X c #6FECE2",
"*X c #64F5EE",
"=X c #6BF6EF",
"-X c #76F4ED",
";X c #63F6F2",
":X c #6CF6F2",
">X c #68F8F1",
",X c #74F6F2",
"<X c #7CF6F3",
"1X c #73F9F5",
"2X c #7CF9F4",
"3X c #929385",
"4X c #89AD97",
"5X c #AFAE91",
"6X c #97A5A2",
"7X c #B5BBA5",
"8X c #A9B9B2",
"9X c #B8C4AB",
"0X c #B7C5B6",
"qX c #C3CEB8",
"wX c #8FD9D3",
"eX c #BCCEC4",
"rX c #96EDE7",
"tX c #83F6F4",
"yX c #8CF6F4",
"uX c #83F8F4",
"iX c #8CF9F5",
"pX c #86F7F9",
"aX c #93F6F4",
"sX c #9DF7F5",
"dX c #94F9F6",
"fX c #9BF9F5",
"gX c #94F9F8",
"hX c #9CFAF8",
"jX c #A3E6E8",
"kX c #A3F7F5",
"lX c #ABF6F5",
"zX c #A4F9F6",
"xX c #ABF9F6",
"cX c #A3FAF9",
"vX c #ABFAFA",
"bX c #B3F7F6",
"nX c #B3FAF7",
"mX c #BBFAF7",
"MX c #BBF7F8",
"NX c #B4FAF9",
"BX c #BCFAFA",
"VX c #C6D6C7",
"CX c #CDDFD4",
"ZX c #CBE6DC",
"AX c #D0EFE9",
"SX c #C6F9F7",
"DX c #C3FBFA",
"FX c #CCFBFA",
"GX c #D9F7F4",
"HX c #D4FBF5",
"JX c #D3FCFB",
"KX c #DBFCFC",
/* pixels */
"& B.B.B.n.B.z.- ` [ z.] ] [ ` = z.z.z.z.z.z.[ ^ : B.B.B.n.B.n.Y - B.n.n.n.n.N.- Y ] ] ] [ ] Y - [ [ [ z.z.z.z.] : B.n.n.n.n.n.] ",
"# d.t.t.y.h.4.o o k l h b g O g ;.=.*.<.*.*.,.L z f.q.r.r.r.r.L g M.t.t.r.t.u.h O k b O x h h o _ <.=.=.,.<.,.I z M.w.e.e.w.w.! ",
"@ s.t.t.y.t.3.h M ..X.x -.S T g 1.=.,.,.<.*.*.K x 9.:.7.4.7.4.D : f.t.r.t.s.9.h N K $.c -.H A O 1.,.=.,.<.<.<.I l 9.:.2.7.4.4.E ",
"# a.t.t.t.y.<.h J u.m.T m.9.E g ,.,.,.*.<.*.*.G h F c b Z N v eX6Xd.t.r.t.t.u.j H u.h.H f.q.K h ) <.,.,.,.,.,.I h A b b Z Z c U ",
"@ p.e.w.t.y.:.O I O., { , b.E f ;.,.,.=.*.*.*.L o l k O M f ' KX8X+.6.3.h.y.u.f H e.e.C h.y.K f 1.<.<.<.<.<.*.P O l x o b z b o ",
"# w.y.w.t.t.4.O X.Y c.a { W J f ,.*.*.*.=.*.;.G x 2.:.Z 4.K GXHXFXHXJXqX8.h.u.f H e.e.C h.p.K f ;.*.<.<.<.<.=.P l X.~ l _ L ~ b ",
"# u.e.q.t.t.2.h -.W e a > O.L g ,.,.,.=.=.<.,.P x h.i...0.3.HXFXSXFXFXKXGX7.5XO M e.p.C j.h.K h -.*.*.=.*.=.*.P l 2.2.n <.) 1.F ",
"@ q.e.q.s.t.:.f X.0.W Y Y a.H f ,.=.=.<.=.<.<.P x x.x.` 9XKXFXDXDXmXDXDXJXKXKXKX5Xw.s.@.h.y.L O ,.*.*.=.*.=.*.( l 2.2.n <.*.,.F ",
"+ 4.w.q.s.y.3.h -.y.g.3.p.h.L g ;.*.<.<.<.*.*.` eXKXKXKXHXFXmXxXlXkXvXNXBXDXJXJXJXqXs.@.h.h.K f %.=.=.=.<.=.*.P k ;.2.V ,.<.,.E ",
"@ 4.u.q.p.p.3.O ..s.h.@.e.h.H f ;.=.*.=.<.5XKXKXGXKXKXGXHXSXlXfXiXaXgXkXxXNXFXJXJXKX7XT h.y.K h ;.=.=.=.*.<.*.P l :.2.V ,.,.<.F ",
"@ A J A J H D h -.s.s.&.e.h.L g ;.<.=.*.5XCXGXKXKXJXFXSXMXlXdXuX<XuXuXaXfXcXBXDXFXJXHXKX5X6.L f ;.*.<.=.<.<.*.( l 2.<.C <.=.<.R ",
"  f O o o o o O ( s.t.&.e.h.L g ;.=.=.I GXGXGXKXJXJXSXMXxXaXuX-X,X1X2XiXdXfXNXBXFXFXJXJXKXx.P h -.<.<.=.<.=.<.P z ;.<./ =.<.<.R ",
"X n F j M z M O $.d.y.&.w.y.J O ,.<.,.VXJXHXGXJXJXSXSXlXfXiX2X=X=X:X,XuXiXdXvXNXBXFXFXJXJXKXJ O ,.,.,.<.*.<.*.I z ,.<./ <.<.=.R ",
"# I %.c ( K ! h $.t.y.8.w.p.J f -.%.] HXJXGXFXJXFXDXbXaXyX2X>X>X*X;X:X<XuXyXhXvXNXDXFXFXJXKX7Xh ;.,.*.*.*.*.=.I l 1.<.*.<.=.<.R ",
"  ) %.n ) / P h -.s.t.8.r.s.J O 1.^ GXGXHXSXFXFXSXbXlXyXtX,X>X;X;X%X:X,XuXuXfXcXvXNXDXDXJXJXJX{ ;.<.1.Q ~ :.*.P l ,.,.,.<.=.=.R ",
"+ %.) n ;.) P f $.d.t.w.e.s.H f ;.GXKXJXFXFXSXGXSXbXkXtX<X,X;X%X%X%X;X:X<XuXdXgXvXMXBXDXFXJXJXeXL <.U > : O.1.~ l 1.<.<.=.,.<.R ",
"# ,.%.B *.%.P h -.d.t.e.w.t.H O 5XGXGXFXFXSXSXDXnXkXaX<X,X*X*X*X%X%X%X;X:XtXgXhXcXNXBXBXDXFXJXKXE >.> 5Xa % 5.I l :.<.<.<.<.<.F ",
"@ 2.%.V ,.*.P h -.t.t.e.e.h.S $ KXGXJXFXFXSXSXMXNXkXaX,X=X*X%X%X;X%X%X;X1XuXaXhXcXvXNXBXDXFXFXJXl.5.> a 6 : 5.I l 2.,.<.=.=.<.R ",
"# ,.%.V <.=.P f $.d.y.t.t.s.L $ KXJXFXSXSXSXMXMXvXsXaX1X=X*X%X;X;X;X%X;X1XpXgXhXhXvXNXNXBXDXFXJXJXv.O.; % b.1.P l 2.<.<.=.=.=.E ",
"* ,.,.V <.<.I f $.s.t.t.t.s.L $ JXJXFXSXDXMXMXNXvXdXyX1X=X*X*X;X>X;X%X;X1XpXaXgXsXcXvXNXBXDXFXJXFX7X1.>.2.*.*._ l 2.,.<.=.=.<.F ",
"= ;.*.C <.<.P f $.t.t.y.t.s.L + JXJXDXDXBXMXBXNXvXaXyX1X:X*X*X:X:X;X;X:X1XpXiXdXsXcXcXvXNXBXDXFXJX7X,._ <.=.<.~ z 1.<.<.=.=.=.L ",
"= ,.*.C <.<...f $.d.t.t.t.s.D % JXFXDXDXBXMXMXvXzXdXtX2X,X=X:X,X1X>X;X;X1XpXiXaXhXsXcXcXNXBXDXFXFXJXY Z G H A J l 1.<.<.=.=.<.R ",
"= ,.%./ =.=.I h $.t.t.t.e.h.0XKXFXFXDXBXMXxXvXNXzXfXaXuX<X-X=X,X2X:X:X;X1X2XiXgXfXhXcXcXNXmXDXFXJXKXKXh c M k f j ,.<.<.=.=.*.R ",
"= ;.%.( =.=.I h $.s.y.h.s.h.0XKXFXSXSXBXMXbXNXvXxXfXaX<X<X-X,X1X1X:X:X>X1X2XiXdXgXhXcXzXnXmXBXFXJXJXKXD ;.;.-.L k 1.<.=.=.=.=.R ",
"= ,.) ( =.=.P h $.t.t.s.y.h.0XKXFXSXDXMXNXnXnXbXvXsXaXuX2X-X-X,X2X,X:X=X,X<XiXgXdXhXcXcXxXmXmXFXJXJXKX4.s.s.s.3.l 1.<.*.=.=.=.F ",
"= ,.*.) *.*.P h ..s.s.d.t.h.0XKXJXFXDXMXMXnXbXNXvXsXaXyXuX-X,X2X2X,X=X:X,XtXpXgXgXsXcXzXxXnXmXFXFXKXKX<.s.y.s.:.l 1.<.<.=.=.*.E ",
"# ,.*.%.*.*.P f X.g.X.N o.m.0XKXFXFXDXDXNXMXbXMXxXkXaXyX<X-X-X<X<X,X:X:X,XpXyXgXdXfXcXzXxXnXmXDXFXJXKX4.h.y.y.2.l 1.*.<.=.=.=.R ",
"* ;.*.,.*.<.P h X.o.> c., 6.` KXFXFXDXMXMXbXbXlXlXkXaXyXuX2X2X<X<X,X,X,X<XpXyXyXdXdXzXzXxXnXmXDXFXJXKXx.h.y.s.:.l 1.=.<.=.=.=.R ",
"= ,.,.<.=.=.I k X.Y c.r e W J KXJXSXBXBXBXMXbXlXkXkXsXyXtXuX2X<X<X<X,X-X<XpXtXyXiXgXcXzXxXxXmXFXFXJXKXCXt.y.t.:.z <.<.<.=.=.=.L ",
"* ,.,.,.=.=.P h X.o., e ; b.J KXJXDXDXBXmXMXbXbXkXkXsXyXyXuX<X<X<X<X<X,X<XpXyXyXdXgXcXzXxXnXmXDXJXJXKXCXt.t.t.:.z 2.<.*.=.=.<.R ",
"= ,.,.,.=.<.I h $.m.+.U +.g.J KXFXFXBXBXMXMXxXxXlXsXsXaXyXuXtXtXtX<X,X<X<XpXyXiXiXfXcXxXxXnXmXDXFXJXKXCXs.t.s.:.z 1.<.<.=.=.*.R ",
"= ,.,.,.=.=.I f -.j.h.f.g.k.J HXFXFXDXBXMXMXnXxXlXkXcXaXyXuXtXtXtXtX<X2XpXpXyXiXiXfXfXzXxXnXmXFXFXKXKXCXt.t.t.:.z 1.<.<.=.=.=.R ",
"= ,.*.,.*.,./ g A K I K I K Z HXFXFXDXmXMXNXmXxXxXzXkXaXyXyXyXtXtXtXtX<XtXpXyXyXdXgXhXzXvXnXmXDXFXJXKXCXt.t.t.#.l 2.;.<.<.*.<.R ",
"# *.*.,.<.1./ . o f f o k o o ; HXFXDXmXmXmXNXnXlXkXzXsXaXaXyXtXtX<X<X<XtXtXyXiXgXhXzXvXxXnXBXDXJXJXx.7.t.y.t.:.k 2.) <.<.*.) R ",
"X =.*.,.*.,.! h b F L k Q m N $ JXHXDXDXmXnXnXxXxXlXzXsXaXaXiXyXtXtX<X<XuXpXyXiXgXhXcXvXnXnXBXFXFXZX3.y.t.t.t.:.k >.G I _ / / R ",
"# <.*.*.<.,./ h F -.2.Z 2.I J $ JXJXFXDXmXMXmXvXxXzXzXkXkXsXaXaXyX<XtX<XpXyXyXgXgXhXcXvXnXmXDXFXJX9Xt.y.t.y.t.:.k A c x Z Z b b ",
"X %.*.) *.<./ h L *.,.Z =.%.J $ KXJXFXFXBXmXnXnXlXlXzXkXkXaXdXaXyXtX<XuXtXyXyXgXgXcXcXvXmXmXDXJXKX9Xt.t.t.y.t.:.$ k k o c l z h ",
"# *.*.) *.<.P h L %.<.n *.:.D $ KXKXFXDXDXmXnXxXxXxXzXxXzXkXaXaXyXtXtXtXpXiXiXgXhXcXvXvXmXmXFXJXKX7Xt.h.t.t.t.:.l >.o.j _ K _ v ",
"# %.%.) <.,.P h L <.,.B =.<.A f 7XKXJXFXDXBXMXxXxXxXkXxXkXkXsXaXaXtXtXtXyXyXiXgXfXcXvXvXmXDXFXJXGX4.y.t.t.y.t.:.j k.M.V h.q.d.Q ",
"@ / %.) <.,.P h G ,.,.B %.<.J f f.KXJXFXDXBXmXnXxXzXfXzXkXkXkXdXaXtXyXpXgXgXgXsXzXvXNXBXFXFXKXKX7.y.h.y.t.y.t.<.z M.M.V h.e.e.~ ",
"@ I ;.) *.,.I h G =.=.V *.,.F g a.GXKXJXFXDXBXNXxXzXcXzXzXzXkXfXdXyXyXiXaXgXsXcXzXvXBXBXFXJXJX3X7.t.t.t.t.y.t.:.j j.m.X.3.i.t.X.",
"@ P ;.$.) ;.P h G *.*.V ,.<.S f f.4.AXJXFXDXDXBXNXvXzXzXzXxXkXfXdXiXaXdXhXhXkXzXnXmXDXDXJXJXKXw p.y.t.y.s.t.t.:.c j.W , a U 0.Q ",
"* A S B S F D h G *.<.V ;.<.G f p.t.x.KXJXFXDXDXBXnXxXcXzXxXzXsXfXaXdXfXhXcXxXnXNXDXDXFXJXKXZXf u.t.t.t.t.t.s.:.c m.: c.a ' O.~ ",
"  f f O f O o h P *.*.K ) 1.F g a.r.x.KXJXJXFXDXmXNXnXcXzXxXlXkXfXfXfXzXcXvXvXNXBXDXFXJXJXKXU h w.y.t.y.t.y.s.:.j j.U w r > 6.X.",
"@ m H f M z m k K *.*./ %.1.S f k.y.y.v.JXJXJXFXDXmXnXvXcXlXzXcXkXfXhXzXvXNXMXMXDXFXJXJX7X7XA f p.t.t.t.s.t.t.:.j g.7.U Y o.i.Q ",
"# 7.p.B 7.3.3.h L *.<./ %.,.F f p.y.y.v.KXHXHXHXDXmXmXDXlXlXbXlXrXfXhXvXvXBXSXSXFXJXJXKX%.<.F f u.s.d.t.t.y.s.:.k g.y.w.j.h.e.o.",
"@ q.e.B q.8.3.h L *.<.( %.<.F f s.t.t.qXZX+.6.HXHXFXJXBXNXvXBXvXaXzXxXBXFXSXJXFXAXZXFXKX%.<.F f p.y.t.d.t.y.y.:.x j.e.y.y.e.y.Q ",
"+ p.e.B p.w.&.h L *.*.%.,.<.S g p.t.t.y.y.y.v.9XDXxXdX-X&XXXXX&X-XXXwXwXrXrXDXJXY >.l.l.%.<.S h 9.t.y.y.h.y.e.=.z k.y.y.y.y.e.X.",
"+ h.q...s.r.<.h L =.*.%.;.<.S g g.e.7.v , 6.0X+X[.).^.K.P.R.R.|.&XXXW.S.V.} H.8X8X_ <.%.) ,.F g w.t.t.t.t.y.s.:.k k.t.t.d.t.t.( ",
"@ g.8...d.t.:.h L <.*.%.%.*.S g g.p.; e cX$XoXQ.L.d u Z.}.|.|.XX+X/./.!.Q.G.D.1 u J.0XY %.,.F g p.t.t.t.t.y.t.;.z f.t.t.t.t.e.I ",
"+ y.w.@.s.t.4.h L =.:.,.) *.S g g.O. .&X+XE.L.u W._.`.~.|.oXoX#X#X|././.Q.G.!._.} u F.K.w E F : u.t.t.t.y.y.p.:.z f.t.y.y.t.t.X.",
"@ y.e.@.s.t.:.h L <.=.=.<.*.A g m.7.cX.XW.U.| S.C.(.@X{.OX^./.oX#X{.oX{.].^.}.S.d Z.H.T.J.3Xb o p.t.t.t.y.y.p.:.z k.t.y.t.y.e.I ",
"+ p.t.#.h.t.:.h L =.=.<.<.*.G g a.x.OXG.(.`.u P.V.Y.{.}.J.D..X(._.(.P.A. .L.P.u s _.E.Q.U.d 4Xg u.t.h.w.y.s.s.:.z f.t.y.t.t.t.X.",
"+ h.e.&.t.s.4.h L =.<.=.*.*.G g G jXQ.D.|. Xa F.]. XoX.XV.J.oX~.(._._.V.V.D.Q._.H.F.Q.`.Q.L.| , P K I S I K S J z s.t.y.t.t.t.! ",
"@ g.w.&.t.t.:.h L <.=.<.=.=.S O M tXW. .#X/.s `.G.J.oX{.[.}..X}.(.H.L.L._.Y.s J.C.U.d }.^.F.d e b Z M h m M z l k M.t.t.y.t.t.I ",
"+ p.e.8.t.s.:.h L =.<.=.=.%.S O F rXE.| '.}.3 D.~.P.].!.~.{. XoX#X}. X`.H.^.U.s G.q y ).^. .T.w A F F b F S F F x k.t.t.t.y.e.X.",
"@ h.e.8.t.t.4.h L <.*.<.=.*.A f >.rXI.d L.}.E.< 8 | ^.t C.XXW.Z. XH.E.E.d s P.Y.D.8 1 `.P.| K.e ;.,.,.~ ,.;.,.! x k.t.t.t.t.y.K ",
"# p.t.q.r.t.:.h L *.<.<.<.*.S g ;.jXG.u  .Q..XU.q 3 u U.C.E.R.R.H.U.F.G.Y.u 8 7 3 8 !.W.J.d 7 w >.,.,.I ;.*.,.P z f.t.t.t.t.t.X.",
"# h.t.w.t.t.3.h L *.<.<.*.*.S f >.W Z.8 0 J.W.E.).| 6 5 7 7 q 0 8 y 0 9 9 6 q 7 d F.!. .d q 2 o -.,.<.( 2.*.,.P z f.t.t.e.y.t.I ",
"@ p.t.r.t.t.2.h L ,.=.<.,.*.S f ;.X.`.D.6 0 a d A.F.G.p 8 8 4 6 8 5 3 q 2 5 0 | A.F.u q 8 5 c.o ;.*.<.( <.=.,.! z k.t.y.y.y.p.X.",
"# f.t.t.t.t.3.h P =.<.<.<.,.S f ;.*.E _.G.4 2 8 i i p d  .p r r q r r r i p i a y i 3 2 8 ' F o ) =.=.) ,.,.=./ x d.t.t.y.t.t.I ",
"@ h.e.t.t.t.:.h L =.=.<.;.*.S f ;.*.2.0XXX`.1 3 6 6 & 7 8 i y q i p q i r 8 7 4 3 2 8 p { Y R g 1.,.=.) ,.1.,.( x f.y.y.t.t.t.Q ",
"# p.t.y.h.s.2.h G <.*.=.<.<.S g 1.,.1.,.<.4X-X/.D.q 8 5 5 2 2 5 6 6 5 5 2 2 5 7 q 3Xe i & O.R g ) <.*.) ,.,.) ! x f.y.p.t.t.t.X.",
"* m.s.h.h.a.5.h P 1.1.1.1.,.F h >.1.<.;.2.~ ^ N wXOX).D.A.y 8 3 3 3 9 0 } L.6X7X` ^ b.Y O.5.R h >.1.,.,.1.1.1.~ b m.a.a.a.f.a.o."
};
