/* XPM */
static char *result[] = {
/* columns rows colors chars-per-pixel */
"64 64 256 2 ",
"   c #603C1C",
".  c #794505",
"X  c #7D4A04",
"o  c #66421C",
"O  c #6B451D",
"+  c #6C4919",
"@  c #754D1A",
"#  c #5B4939",
"$  c #475132",
"%  c #654422",
"&  c #6C4320",
"*  c #725429",
"=  c #795A2A",
"-  c #6A5936",
";  c #756035",
":  c #3A7469",
">  c #564A48",
",  c #4B564B",
"<  c #4F514F",
"1  c #54574B",
"2  c #575957",
"3  c #644C4F",
"4  c #4A6457",
"5  c #4C6C51",
"6  c #56655B",
"7  c #6E6951",
"8  c #5D5B63",
"9  c #586A64",
"0  c #53756F",
"q  c #58756A",
"w  c #70716A",
"e  c #667875",
"r  c #824B04",
"t  c #844904",
"y  c #844D09",
"u  c #8C5406",
"i  c #895509",
"p  c #8E540A",
"a  c #955809",
"s  c #93590C",
"d  c #885C17",
"f  c #955D14",
"g  c #A15C06",
"h  c #9D6309",
"j  c #9D6515",
"k  c #A96608",
"l  c #B36C0B",
"z  c #B6740A",
"x  c #A46816",
"c  c #AC6C15",
"v  c #AB6D1B",
"b  c #B26E18",
"n  c #AE7119",
"m  c #B4731B",
"M  c #B97618",
"N  c #BC791C",
"B  c #936925",
"V  c #8E6C33",
"C  c #A56D21",
"Z  c #AB6E20",
"A  c #AE7121",
"S  c #A6782A",
"D  c #B57B23",
"F  c #B67824",
"G  c #BB7C22",
"H  c #A37B35",
"J  c #C47916",
"K  c #C57C1C",
"L  c #CB7E1B",
"P  c #C27B24",
"I  c #8D734C",
"U  c #AA7B4A",
"Y  c #B47E4A",
"T  c #877762",
"R  c #498674",
"E  c #64956F",
"W  c #688C73",
"Q  c #BB811E",
"!  c #BB8023",
"~  c #B7822A",
"^  c #B78836",
"/  c #BC9239",
"(  c #CB8A13",
")  c #C3821E",
"_  c #CD831D",
"`  c #D18E16",
"'  c #D3861E",
"]  c #D4881E",
"[  c #D19017",
"{  c #C38222",
"}  c #CC8523",
"|  c #CE8B24",
" . c #CB882A",
".. c #D38622",
"X. c #D38821",
"o. c #D1862A",
"O. c #D28A29",
"+. c #CB9027",
"@. c #D79728",
"#. c #CC9134",
"$. c #D79A32",
"%. c #E19E27",
"&. c #E29F34",
"*. c #DCA43B",
"=. c #E6A329",
"-. c #EBA62A",
";. c #EDAA2C",
":. c #F0A72B",
">. c #F3AE2D",
",. c #F4B02C",
"<. c #E8A837",
"1. c #EDAB35",
"2. c #F3AD32",
"3. c #FAAC34",
"4. c #F4AE3B",
"5. c #EBB03A",
"6. c #F4B136",
"7. c #F4B03C",
"8. c #8F8256",
"9. c #B68448",
"0. c #AF8F50",
"q. c #948F73",
"w. c #A59D66",
"e. c #9CA876",
"r. c #D59B42",
"t. c #D8A65D",
"y. c #EEAF43",
"u. c #F3AD41",
"i. c #CB9C60",
"p. c #D7A762",
"a. c #507C82",
"s. c #6C7A87",
"d. c #38B79B",
"f. c #5B8984",
"g. c #5A9688",
"h. c #529692",
"j. c #628784",
"k. c #6D9590",
"l. c #51AC97",
"z. c #64A298",
"x. c #7B97A0",
"c. c #57B6A7",
"v. c #53B5AF",
"b. c #6BAFAA",
"n. c #3CD2B8",
"m. c #4AC6B7",
"M. c #5CC4B6",
"N. c #6FCCB7",
"B. c #18FED8",
"V. c #33F4CC",
"C. c #2FEFD0",
"Z. c #2AF6D7",
"A. c #36F5D7",
"S. c #19F9E8",
"D. c #09FBF8",
"F. c #0BFDFD",
"G. c #17F9F5",
"H. c #13FDFB",
"J. c #1DFCFB",
"K. c #36EDEE",
"L. c #27F8E8",
"P. c #38F8EA",
"I. c #29F6F7",
"U. c #24FBF5",
"Y. c #2CFBF5",
"T. c #23FBFB",
"R. c #2CFCFD",
"E. c #34F5F3",
"W. c #3BF5F5",
"Q. c #34FBF3",
"!. c #3BF9F4",
"~. c #34FBFB",
"^. c #3CFBFC",
"/. c #4DD2CB",
"(. c #71D5CA",
"). c #4CECCF",
"_. c #48F6D8",
"`. c #58F6DB",
"'. c #71E9D9",
"]. c #68F5DB",
"[. c #75F6DB",
"{. c #5ACBE3",
"}. c #48EAE9",
"|. c #50EBEA",
" X c #48F8E9",
".X c #54F4E4",
"XX c #5CF5E4",
"oX c #58FAE7",
"OX c #54F4EC",
"+X c #5CF5EC",
"@X c #55FBEC",
"#X c #45F5F6",
"$X c #4DF5F3",
"%X c #44FBF4",
"&X c #4CFBF3",
"*X c #44FCFC",
"=X c #4BFBFB",
"-X c #55F5F6",
";X c #5CF5F4",
":X c #53FBF5",
">X c #5CFAF4",
",X c #53FBFC",
"<X c #5BFCFB",
"1X c #71ECE8",
"2X c #6CF5EC",
"3X c #67F8E8",
"4X c #74FAED",
"5X c #78F8E9",
"6X c #63FAF4",
"7X c #6BFBF3",
"8X c #69F8F7",
"9X c #64FAFB",
"0X c #73FAF4",
"qX c #79F8F6",
"wX c #929A8F",
"eX c #8EA890",
"rX c #ACAD91",
"tX c #859DA6",
"yX c #8FB1B0",
"uX c #A6BAB5",
"iX c #92CBB9",
"pX c #BCC5B6",
"aX c #95D8D1",
"sX c #ACD4CF",
"dX c #8FEBDA",
"fX c #A7E7D9",
"gX c #B2E6DA",
"hX c #B3D8E4",
"jX c #8AE8E5",
"kX c #98EBE8",
"lX c #86F7E9",
"zX c #8BFAEC",
"xX c #98F5EA",
"cX c #93FAEC",
"vX c #9CFAED",
"bX c #86F9F6",
"nX c #8AFBF3",
"mX c #95F9F7",
"MX c #9DFCF4",
"NX c #A7EAE7",
"BX c #BBEDE8",
"VX c #A8F6EB",
"CX c #A4FAEC",
"ZX c #B6F7ED",
"AX c #A4FBF3",
"SX c #ABFBF3",
"DX c #A8FAF8",
"FX c #B4FBF4",
"GX c #B9F9F7",
"HX c #BBFDFC",
"JX c #C2CBC7",
"KX c #C5F3EE",
"LX c #C7FBFA",
"PX c #D7F9FA",
"IX c #E6F9FA",
"UX c #F2F1F1",
/* pixels */
"# p.p.p.t.t.9.* I Y 9.U U U I & 9.9.9.9.9.9.Y H = p.p.p.t.0.0.; % 0.t.t.t.t.i.* V U U U U U V & Y Y 9.Y 9.9.9.U * p.t.t.t.t.t.U ",
"O 3.>.>.,.6.@.. X t p y f t t t } X...' X.' X.b a 4.%.0.e.dX].`.`.jXe.-.>.>.&.r . i s X s y y X } ..] ] X.X.X.N a 4.=.>.>.:.-.G ",
"o 4.>.>.,.2.+.i j G ! s { c C t ..X.....X...' M f O.BX[.A.B.B.Z.A._.[.fX=.-.#.u B Q Q s } b x X ..] ......X...N p &.O.O.$.@.@.A ",
"+ 1.>.>.>.,.X.r m =.y.C y.&.m t ..X.] ..] ] ' b + fX_.A.Z.A.OX5X3XoX_.).].dXaX- V =.,.k 6.=.M r } ............N y x f f x j f j ",
"o 1.:.:.>.>.| r m ^ ; T ; r.n r } X.] ] ] ' [ j aXV.A.].lXVXLXLXDXxXlX4X@XA.A.`.fXw.6.Q 6.;.M X o...X.X.X.X.' N y p s . f p s X ",
"O =.>.-.>.,.| X ! B q.T T H n r } ' ] ] ] ` S dX_.`.[.CXPXIXIXPXHXcX4X].4XXX`.A.A.[.0.j 6.,.M r { ..X.] X.X.' N i ~ G p P b G f ",
"+ =.1.=.>.2.X.y { H 7 w - ^ m t } ' ] X.] D aX).].5XPXPXIXIXIXIXKXVXlX].].oXoX_.V.V.].fX0.,.M X } ' ' ] ' ] ' N u ..O.g X.L o.Z ",
"% %.;.-.2.;.+.y ) *.H = H 5.c r ..' X.] G fX_._.jXZXUXIXIXIXIXIXLXZXCXlX5X].3XoX_.V.V.[.ZX%.M X } ' ] ] ' ] ' N p o.O.g ..' ' C ",
"+ @.:.-.2.,.+.y Q ,.7.+.1.6.m r } ' ' S gX]._.lXZXUXPXIXPXLXCXcXcXvXVXAXMXzX5X].oX_.Z._.[.w.Q X _ ] ] ] X.' ' N i | } c ' X.' A ",
"o @.=.@.<.2.#.X { >.1.( ;.,.n r | ] P gX`.`.lXZXPXUXPXGXvX5X3XXX].3X4XlXzXcX5X3X3X.XZ.V._.dXw.X } ] ] ] ' X.' N p ..O.l X.' X.v ",
"% x n c n n x X ) 2.>.` ;.6.m r | S G lX X'.VXPXPXVXzX2X.X XOX+XoXXXXX3X4X[.].oX3XoXP.V.V.].eXX } ' ] ..X.X.' N p | X.J ] ..X.Z ",
"  r X . X . . X { 2.>.` ;.,.m r { ~ eX.X`.5XGXPXSX5X X+X7X7XoX X:X+X3X].].].].oX3XoX_.C.V._.[.uX} ' ..] ..] ..N p } X.J ..] X.A ",
"  g v u x u j X K 3.,.[ ;.,.n X | N _..X).VXLXSX5X.X2X2XXX4XzXzX6XOX}.XX[.lX].`.oXoXoXA.V.V.`.VX} X.X.X.X.' ' K p ..X.L ] ] X.A ",
"& N ' a K M N y ) >.,.%.-.1.n X S N._..XlXLXPXlX.X+X4X4XnXnXlXzXcX2X+XOX6XlX5X]._.oX@X_.Z.Z._.dX8.X.] ' X.X.' N p ..X.L X.X.] A ",
"o L L g L J N y { 2.>.%.;.2.m X ZXA.2X;XHXPXGX1X.X0XbX7X@XoX2XlXcXzX5X8X>X2XlX5X`._.&X XA.Z.V.].aX..o.F F } X.N p o.......] ] Z ",
"o _ L g } K N y K 2.>.=.;.>.n * 4XOX}.qXLXLXzX_..X5X+XOX X#XW.W.OX5XvXzX4X>X0X5X`. XP.P.A.Z.V._.N.O.B = = ^ ..G i o.....] ..] A ",
"O | _ k ' _ N y { 2.>.;.;.>.V LXOX$X$XmXLXKX2XK.OX;XW.K.Y.U.I.E.L.E.4XmXzXqX;X3X3X_.P.L.S.Z.A.).).V - rXw = #.G p } X.X.X.X.X.n ",
"% .._ l ..' N y ) 3.>.:.;.2.I GX.X$X7XDXPXDXXXP.$X!.I.U.G.U.I.G.I.E.^.0XzXnX2X3X3X.XA.S.S.Z.A.}.].8.* W 2 d +.N p O...X.' ' X.Z ",
"O ....l X.' N y ) 2.,.>.>.2.I AX.XOXqXGXPXzXP.W.#XG.J.J.T.T.R.T.G.I.U.Y.7XcXlX2X;X|._.L.L.B.Z.A.).iXH @ = #...N p ....X.] ] ' A ",
"o ..} l ..' M y ) >.>.>.>.2.8.bX X:XxXGXGX6XL.E.I.H.U.U.I.!.!.!.I.I.J.S.%X5XzXqX+X XK.L.L.S.S.Z._.lX~  .} ' ..P f o.....] ] ' Z ",
"& ..' z X.X.N r ) 3.>.,.>.*.LX2X-X;XmXmXqX%XU.I.I.I.W.W.|.OX6X+X;X#XT.I.Y.@X5XzX1X$XP.P.L.G.S.Z.V.[.N L X.' X.G p O.X.X.] ] ] m ",
"& ..' z X.' N y ) 2.>.>.;.$.LX|.,X9XmX8X-XI.U.I.G.#X:X6X0XbXzXzX2X&X=X^.G.E.0XcX[.oXE.Y.S.G.S.Z.A.`.j j n n x v p ..X.X.] ] X.Z ",
"& } _ J ' ] N r { >.>.>.,.PXDX6X#X*X,X,X~.I.G.G.!.:X4XlXvXCXCXxXVX1X6X#X^.!.P.mXcX.XP.L.S.D.S.Z.A.`.ZXy h j u y y o.X.X.] ] ' Z ",
"& ..' ) X.' M y ) 2.,.,.,.LXmX|.#X*X^.H.J.H.G.I.:X4XvXCXZXVXvXmXxXbX0X;X%X%XP.nXzX.XQ.U.G.D.D.L.V._.ZXc } { { m p X.X.] ] ] ] Z ",
"& .._ K ' ' N y K >.>.,.>.KXmX$X,X8X<XJ.H.H.H.Q.7XcXVXZXVXxXqX7X;X8X0X8XOX$XP.nXnXoXQ.G.G.D.D.Z.A._.VX@.2.2.4.| p o.X.X.' ] ] Z ",
"& } ' L ' ' N y ! 2.2.3.>.GXbX@X8XDXDX$XF.H.U.:XlXVXVXCXxX4X:XQ.Y.W.:X6X2X6X%X5XcXoXY.G.F.D.S.S.V._.fX@.6.,.,.| p o.X.X.] ' ] A ",
"o ..' L ' ' N y ! <.~ j wXLXbXOX<XDXDX<XF.J.#X2XcXAXVXvXbX;X~.I.~.W.%X>X4X8X X4XmX4XY.H.F.F.D.B.Z._.NX=.2.,.,.| p ....X.] ] ] v ",
"& } ' ..' ' N y ! ~ - q.wXHXbX$X,XbXbX^.H.U.OX5XvXCXVXMXbX-X~.I.=X*X#X<X0X0X%XnXMX2XP.F.F.F.D.S.Z._.xX^ 6.,.>.O.p O.X.X.] ] X.Z ",
"& ......] X.N i ! B q.6 eXHXbX-X*X<X<X~.U.Y.+XcXCXVXVXcX4X$XI.~.$X-X;X0XqX8X XmXMX4XW.D.F.F.D.L.V._.MXrX2.>.>.| p O.X.' ] ] ] m ",
"% X.X...] ' N r Q ^ ; 7 wXHXbX$X^.,X,XR.Y.P.+XcXVXVXSXMX5X$X~.I.-X8XqXqX0X:X6XmXCXnXQ.H.F.F.G.L.A._.AXrX>.>.>.| a O.X.X.] ] ' Z ",
"& ......] X.N y ) y./ B rXHXmX$X^.,X,XR.!. XXXlXVXVXCXAXbX6XE.I.=X8X5X0X>X:XbXAXCXMX~.J.F.F.T.P.A._.AXrX>.>.>.| p o.X.X.] ] ' A ",
"O ......] ] N r { 7.6.4.<.GXmX,X^.,X9X=X*X XXXlXvXCXCXAXMX0X$XE.E.W.$XOX:X2XmXDXZXnX~.J.D.F.~.$X_.`.CX1.>.>.>.| a o.X.X.] ] ] Z ",
"& ..' ....o.N t x M J n P GXmX-X*X<XqX9X:X XoXlXvXvXCXCXDXbX6X,XE.I.~.=X9XmXDXSXGX4X%XT.D.F.*X:X_.`.VX1.2.>.>.| u O...X.X.....v ",
"& ..' ' ..L N . . r r . T PXDX.X X,XqX:X<X%XP.0XvXCXSXCXAXMXnXqX;X;X3X4XnXcXSXLXMX@X!.H.H.J.^..X).3XFX>.>.,.>.| u O.K } ....L Z ",
"& ] ] ......F y s v m s 8.PXHX6XP.^.<X,X,X!.P.oXnXCXAXAXAXAXMXmXbXbXbXmXAXSXGXHXbX&XI.J.H.T.*X.X_.3XGX>.,.>.,.] u { M N P P K C ",
"& ..] ..] ..J y v { } x O.PXLXbXP.E.~.<X=X~.Y.&X4XvXvXCXCXAXAXAXDXAXAXSXFXLXGXmX6X!.I.T.J.R.*X X`.lXLX>.,.,.;.| i x h s g j g f ",
"& _ ' L ' X.K y m _ O.k ' m LXDX!.Y.U.,X,X*XR.Y.@XnXMXvXAXSXSXVXSXFXFXGXFXHXAX7X&X~.R.J.R.~.&X.X.XMXPX6.,.,.>.| . i i . f u p y ",
"& L ' L ' X.N t m _ } k ' ) rXHX7XE.Q.,X7X<X~.G.!.9XnXmXMXSXDXZXSXFXGXFXSXMX0X&X^.^.~.J.R.^.OXXX3XFX0.6.,.,.;.| i { ~ u { M P f ",
"+ _ _ L ....J y m ....k ] | I HXmX X%X=XqX7X^.D.T.,X7X4XbXmXMXAXAXSXDXDXMX0X&X~.*X*X~.J.R.*XOXXX3XLX$.,.,.>.>.| p u.u.c 6.=.4.F ",
"  J _ L ....F y b ..} k ] ' n uXDX X9XQ.bX6X9XD.J.R.Q.:X8XqX0X7X0X0XqX9X<X,X=X X@X=X^.H.^.*X0X3XAXLX$.,.,.,.>.| s u.u.z ,.;.;.D ",
"O N _ L ' ' K r M L ] l ....v sXGX5X+X>X9X9X=X$XG.F.^.^.%X:X6X6X>X6X<X<X,X*X&XOX>X=X^.T.=X=X0X5XFXPX@.>.2.>.>.| u 7.y.Q +.5.1.~ ",
"o N } L ) } F y b ' ] l ....c X LXDX3XqXY.bXY.#XY.G.H.R.*X:X&X&X<X9X9X6X;X-X6X7X<X^.T.~.=X:X4XcXGX0.,.,.>.>.>.| s 7.S ; T d <.D ",
"% x x x c c x y m ] X.l L ..v r w.PXzX2X>X9X<XU.L.*XH.G.J.~.=X:X,X9X9X8X8XqXqXqX&XT.T.=X:X3X4XSXsX,.>.>.>.,.2.| a u.= q.w T ^ D ",
"  r r r y X . y m ' X.z ..o.b t r.PXDX3XqX:XbX,XY.^.!.U.D.G.~.*X>X9XqXqXqXqXqX9XQ.T.=X9X@X4X3XgX%.,.>.,.2.>.2.| a 7.B 7 7 - #.~ ",
"o h n r j u x r M ' ' J _ X.c X 6./ FX5X7X0X0XqX$XY.W.W.^.R.J.G.Y.~.*X&X&X:X<X=XR.^.9X9X>X2XzX+ 2.>.>.>.>.,.2.| i 7.$.B V H 5.D ",
"+ @.<.k @.+.+.i m ' ' K _ ..v r <.,.KXvXlX0X2XqX6X%XY.%X=X*X!.I.T.T.R.^.*X*X^.~.~.,X9X&XoXlXFX+ <.>.3.>.2.,.>.| s 5.,.-.6.,.;.! ",
"% =.;.k =.@.| i m ' X.K } X.c r 4.>.$.HXkXbXbXbXqX>X X%X XW.#X#X%XW.W.P.%X~.^.=X<X8XqX>X4XCXwXr 2.>.>.>.>.>.>.| u 7.;.,.,.;.,.N ",
"+ <.-.l ;.-.+.r m ' X.L ..X.n r <.>.;.9.sXAXDXmXbXbX;X$XP.K.K.}.K.L.K.K.W.E.=X8XbXmXbX0XmXKXj y &.>.>.>.2.,.2.| s 6.,.,.,.,.;.~ ",
"+ 5.-.z 2.:.X.y m ] ' _ } ' c t 5.1.r.= sXKXSXcXcXAXqX1X|.}.K.K.K.K.K.K.}.9XqXxXkXkXkXDXHXF c t :.>.>.>.>.,.2.| u 4.>.>.>.>.>.K ",
"+ 6.%.( 2.>.| i n ] ' _ _ ' c t 5.<.@ T sXKXfXdXdXNXNXjX1X1X|.}.}.}.}.1X1XjXkXVXfXaXaXsXBXU c t <.>.>.>.2.>.2.| a 4.>.>.3.,.>.N ",
"+ ,.=.( 2.3.+.y m X.X...L ' c t 5.#.# aXZXaXtXx.b.'.kXNXkXxXjX0X1X2XjXqXkXjXsXfXdXtXk.b.yXkXJXo -.>.>.>.2.,.;.| p 4.>.>.,.,.;.! ",
"o ,.-.( 6.,.X.i m X.' X...' c t 7.<.ZXjXb.b.k.5 b.b.jXDXNXkXhXkXkXkXkXhXNXkXaXiXk.k.l.z.k.b.sXPX<.>.>.>.,.,.;.+.s 4.>.>.>.;.,.N ",
"+ 1.:.` 6.>.O.r m ] X.X...' c t 1.2.].b.l./.W g.s.d.1XkXb.uXdXaXsXfXaXuXuXyXyXb.s.e m.R m.z.g.dX&.>.6.-.>.>.2.| s 4.>.>.>.>.>.G ",
"+ 4.;.[ 2.>.| y m ] ] ] X.' b t n eX).f.v./.s.h.v.(.(.1Xv.tX(.(.yX(.(.tXtXx.c.z.M.k.m.4 /.l.e /.pXM N c N M m A s 2.:.,.,.>.>.! ",
"o 6.;.[ >.2.| y m X.] X.X._ c X g wXC.e /./.0 c.v.s.b.1XjX'.'./.{.v.c.v.v./.v.w q R W 4 {.c.e /.= x f i h j p p u 7.,.,.>.>.>.D ",
"+ 1.;.@.>.>.| i m ] X.X.X.` c X c wX}.e h./.e < d.W n.v.yX{././.|.{.M.).h.s.n.f.k.l.< 5 {.z.q n.x v v f v c b x s 7.>.>.>.>.>.! ",
"o 2.:.%.>.>.+.y m X.] X.] ' c X | rXC.8 j.l./.a.> $ h.g.h.n.m.j.c.c.h.c.l.s.0 R h.: 1 v.v.j.W d.{ ..} N ......F s 7.>.>.>.>.>.N ",
"+ 2.>.%.>.>.+.y m ' X.X.X.' c t ] wXC.8 e j.m.n.h.4 2 9 0 0 h.d.R g.l.e e 9 < < > 8 g.m.j.j.9 d.{ ....N } ' X.N s 4.,.>.>.>.>.! ",
"+ 4.>.:.>.>.+.y m ' X.X.' ' c t | ' ).f.2 9 g.z.l.v.0 2 < > 3 # > > , > 1 > , 1 6 f.c.f.e 4 3 m.} ..X.P ......N s 4.>.>.>.,.>.N ",
"o 1.>.:.>.>.O.y m X.' X...' c t | | V /.6 , 1 9 0 s.f.f.0 0 6 , , , , , 6 5 2 w W W e 6 3 4 k.dXP ..X.K X.X...F p 4.>.>.,.;.,.! ",
"+ 1.>.>.>.>.| y m ] ..X.X.' x . } ..G aXP.0 8 2 1 4 7 8 8 w w T w w w q 6 w w w 6 2 , # , x.jXO } ] ] L ....X.J a 4.>.,.>.>.;.! ",
"o 4.>.>.>.>.+.y m ] ..X.} ..d I } ' ..} I lXn.: 2 > < 4 4 9 q q q q e q 6 9 6 , < 1 2 g.N.W V . ....] L ......K a u.>.>.>.>.>.D ",
"+ 1.>.>.>.2.O.y M ..X...X...v t } ..X...] G Q '.n.c.6 2 $ # # # > > 1 1 , > < 2 e b./.SXw H Z t } X.' L ....o.G s 4.2.;.2.;.>.! ",
"% y.4.2.2.4.#.y F o...o.o.o.v t o.o.o...O.o.+.Q ; eXl.E E 7 7 #   - * ; 7 W E R E eXH S Y #.Z X  .o...X.o.o.o.G s y.5.5.2.4.4.D "
};
