/* XPM */
static char *result[] = {
/* columns rows colors chars-per-pixel */
"64 64 255 2 ",
"   c #5D3A1F",
".  c #6A3F10",
"X  c #583C26",
"o  c #784606",
"O  c #7D4A05",
"+  c #66421C",
"@  c #6B451D",
"#  c #6D491B",
"$  c #78541E",
"%  c #5E4E35",
"&  c #6C4320",
"*  c #684620",
"=  c #6F542F",
"-  c #7A5A2A",
";  c #756035",
":  c #3E6152",
">  c #4A4D46",
",  c #5A4846",
"<  c #4A5549",
"1  c #56554B",
"2  c #5A4B55",
"3  c #4C5454",
"4  c #565755",
"5  c #69585A",
"6  c #4F614E",
"7  c #4B6659",
"8  c #57685A",
"9  c #726E4E",
"0  c #676559",
"q  c #565963",
"w  c #6C5561",
"e  c #586A65",
"r  c #51726D",
"t  c #587977",
"y  c #6A6764",
"u  c #687468",
"i  c #71756E",
"p  c #824B04",
"a  c #844904",
"s  c #844D09",
"d  c #8C5406",
"f  c #8A5509",
"g  c #8E540A",
"h  c #915609",
"j  c #975909",
"k  c #93590C",
"l  c #8E5911",
"z  c #955D14",
"x  c #A15C06",
"c  c #9D6309",
"v  c #9D6313",
"b  c #9B6417",
"n  c #A96608",
"m  c #B36C0B",
"M  c #B7740A",
"N  c #A46816",
"B  c #AC6D16",
"V  c #AB6D1B",
"C  c #B26E18",
"Z  c #AE7114",
"A  c #AD721B",
"S  c #B87615",
"D  c #B4721B",
"F  c #BB771C",
"G  c #BC791C",
"H  c #835E27",
"J  c #8A6628",
"K  c #916A2D",
"L  c #9C7539",
"P  c #A56D21",
"I  c #AB6E20",
"U  c #AE7121",
"Y  c #A6772B",
"T  c #B57B23",
"R  c #B77824",
"E  c #BB7C23",
"W  c #A3783A",
"Q  c #C47916",
"!  c #C57D1C",
"~  c #CB7E1B",
"^  c #C37C24",
"/  c #8B724F",
"(  c #AA7B4A",
")  c #B47E4A",
"_  c #847A62",
"`  c #2E937C",
"'  c #4D8D7B",
"]  c #58877A",
"[  c #6D9466",
"{  c #698378",
"}  c #708C76",
"|  c #BB811E",
" . c #BB8023",
".. c #B7822A",
"X. c #B68736",
"o. c #B6913E",
"O. c #CB8A13",
"+. c #C3821E",
"@. c #CD831D",
"#. c #D18E16",
"$. c #D3861E",
"%. c #D4881E",
"&. c #D19017",
"*. c #C38221",
"=. c #CC8523",
"-. c #CE8B24",
";. c #CA882A",
":. c #D38622",
">. c #D38821",
",. c #D1862A",
"<. c #D28A29",
"1. c #CB9027",
"2. c #D69627",
"3. c #CB9034",
"4. c #D79B33",
"5. c #E19E26",
"6. c #E29F34",
"7. c #DCA43B",
"8. c #E8A325",
"9. c #E5A42B",
"0. c #EBA62A",
"q. c #EDAA2C",
"w. c #F0A72B",
"e. c #F3AE2D",
"r. c #F4B02C",
"t. c #E5A334",
"y. c #E7A536",
"u. c #EDAB35",
"i. c #ECAC3A",
"p. c #F3AD32",
"a. c #F4AE3B",
"s. c #EBB03A",
"d. c #F4B136",
"f. c #F4B03C",
"g. c #9A8854",
"h. c #B78447",
"j. c #B4904E",
"k. c #948C6D",
"l. c #AB9D6E",
"z. c #ADA26F",
"x. c #A9A277",
"c. c #B1A373",
"v. c #D69A43",
"b. c #D8A65D",
"n. c #EEAF43",
"m. c #F3AD41",
"M. c #CB9C60",
"N. c #D7A762",
"B. c #6A7489",
"V. c #3EBABE",
"C. c #4C8D8C",
"Z. c #489489",
"A. c #579889",
"S. c #589795",
"D. c #678985",
"F. c #689997",
"G. c #739191",
"H. c #47A999",
"J. c #51AE96",
"K. c #67A599",
"L. c #599BA3",
"P. c #649AA1",
"I. c #58A8A5",
"U. c #50AAA8",
"Y. c #4ABAAB",
"T. c #58B8A9",
"R. c #58B8B6",
"E. c #6FB2AD",
"W. c #23C6A4",
"Q. c #4AC7AA",
"!. c #4FC9B6",
"~. c #70C4B8",
"^. c #5EBCC0",
"/. c #38E0CB",
"(. c #3DE2D5",
"). c #3CE6DC",
"_. c #4BD1C9",
"`. c #56D2CA",
"'. c #56DAD7",
"]. c #74CAC7",
"[. c #71D7D1",
"{. c #45E6D5",
"}. c #59E5D9",
"|. c #6CE5DB",
" X c #61DEE9",
".X c #46E9E4",
"XX c #56E9E6",
"oX c #54F3ED",
"OX c #5AF8F3",
"+X c #73EDEB",
"@X c #69F5EC",
"#X c #78F5EE",
"$X c #6CF5F3",
"%X c #65F9F6",
"&X c #6CF9F4",
"*X c #76F6F5",
"=X c #73F9F5",
"-X c #7CFBF6",
";X c #73FCFA",
":X c #7DFCFA",
">X c #929388",
",X c #99A698",
"<X c #ABAA8E",
"1X c #86ABAF",
"2X c #A8B9AA",
"3X c #B6BCA8",
"4X c #BACCBC",
"5X c #86CEC8",
"6X c #85D9D5",
"7X c #BAD9CE",
"8X c #97E3DB",
"9X c #8AF8ED",
"0X c #98F7EE",
"qX c #82F5F3",
"wX c #8DF7F3",
"eX c #84FAF5",
"rX c #8BF9F4",
"tX c #8DF6F9",
"yX c #83FBF9",
"uX c #8BFBF9",
"iX c #92F6F3",
"pX c #9BF6F5",
"aX c #94FAF5",
"sX c #9CFAF5",
"dX c #96F6FA",
"fX c #93FAF9",
"gX c #9CFBFA",
"hX c #B0ECE4",
"jX c #A7F8ED",
"kX c #A4F7F5",
"lX c #ACF6F4",
"zX c #A3FAF4",
"xX c #ABFBF4",
"cX c #A7F7F9",
"vX c #A3FBFA",
"bX c #ACFBFA",
"nX c #B3F6F3",
"mX c #BBF7F4",
"MX c #B3FBF4",
"NX c #BCFAF4",
"BX c #B4FBFA",
"VX c #BBFCFA",
"CX c #C6D7CB",
"ZX c #C6E6DB",
"AX c #C5EEE8",
"SX c #D3EBE6",
"DX c #C8F7F5",
"FX c #C3FAF5",
"GX c #CBFBF6",
"HX c #C4FBFA",
"JX c #CBFCFA",
"KX c #D5F7F7",
"LX c #D3FCFB",
"PX c #DBFCFD",
"IX c #E5FBFC",
/* pixels */
"% b.b.N.b.N.h.= K ) h.( ( ( / & h.h.h.h.h.h.h.L - N.N.j.j.4XFXGXSX<Xj.j.b.b.M.- K ( ( ( ( ( / & ) ) ) ) h.h.h.( - N.b.N.b.b.b.( ",
"@ a.p.e.r.d.2.o O s g s z a a a =.%.$.:.:.$.:.C j 4.l.DXMXjXjXjXMXMXAXZXc.z.6.O O s z p k s s O ~ %.%.%.>.>.:.G g a.8.w.e.0.0. .",
"+ a.e.e.e.e.1.s b E  .k +.B I a <.%.:.:.:.:.$.C ,XZXDXlXjXjXlXMXMXMXNXNXFXFXl.O b A | j *.S N O :.:.%.%.:.>.>.G g 6.-.<.4.2.2.U ",
"@ p.p.w.e.r.>.p D y.n.P n.6.D a :.:.:.:.%.%.@.k.GXMXlXjXNXKXKXKXGXGXGXGXNXMXMXmXFXl.o.M d.8.S p ~ %.:.%.:.>.:.F s N z z v N z b ",
"+ u.w.q.e.e.-.p R X.; 9 ; v.D p =.:.:.%.3X3X4XMXjXjXBXFXLXPXIXKXDXFXFXFXFXNXFXNXNXNXAX3X4.q.S p ,.:.>.>.>.>.%.F O g l o z h z o ",
"# 9.e.0.p.e.2.O ^ K k.k._ L A p =.:.%.G PXKXFXMXxXMXFXKXLXIXIXPXKXFXFXFXNXNXNXNXNXMXFXGXj.2.S s =.:.%.:.>.:.%.F f ^ E g ^ D E z ",
"# 9.u.8.e.p.-.s *.Y 9 i = X.D p ~ :.O.4XKXFXmXMXNXNXLXLXIXIXIXLXJXHXFXFXFXFXAXAXMXMXNXFXGXZXb s =.$.$.%.%.%.$.F f <.<.x :.~ :.I ",
"+ 5.q.8.p.e.-.s  .7.Y ; L s.B p :.$.Y KXGXNXMXmXFXGXLXIXPXKXAXFXNXnXMXmXNXNXFXNXNXMXMXjXFXGXAXo =.:.$.%.%.%.%.G d <.<.x :.$.:.I ",
"# 2.q.8.p.p.2.s +.r.f.1.i.p.D p =.L LXJXVXMXMXmXDXKXLXGXFXmXlXkXzX0XjXjXxXBXMXMXMXMXMXjXMXFXGXZX@.%.%.%.%.>.:.Q d =.;.n >.>.%.U ",
"+ 2.u.2.y.i.1.O | p.p.O.q.r.Z p @.SXKXGXNXMXmXDXKXJXJXMXjX0XiXaXaX9X0X0XkXjXlXxXMXMXlXjXjXMXFXZX=.%.%.%.>.>.$.F d <.<.m >.%.:.I ",
"+ N Z B Z A N O *.p.e.#.q.r.D o E SXHXBXxXjXGXIXDXlXlXsXpXkXsXaXrX-XaXvXzX0X0XjXjXzXzXzXzXxXNXNXx.*.>.%.%.:.%.F d <.>.Q >.%.%.I ",
"  p O o O o o O *.p.e.#.q.e./ ZX4XJXVXbXlXMXGXLXVXlXlXzXjXkX0XsXaXwXaXiXsXsXzXjXjXzXzXkXsXjXnXNXJXR %.>.>.%.:.G h =.>.Q >.:.%.U ",
"+ x V a v g N p +.p.e.&.q.u.3XLXJXFXBXxXMXFXGXNXxXxXMXzXjXzXzXsXsXpXiXwXaXzXxXxXsXzXsXsXsXjXjXMXFXU >.>.:.%.%.G h :.:.Q %.:.%.U ",
"& F $.j ! S R p +.p.e.5.0.4.7XGXFXBXxXbXNXKXGXxXxXxXnXzXzXsX0XaXaXvXsXrXaXsXzXxXjXsXsXsX0X0XsXzXNXLX>.%.%.%.%.G g :.:.$.>.%.%.U ",
"  @.@.x ~ Q F s *.p.r.8.q.j.KXGXHXlXkXlXHXLXNXjXjXnXjXpXaXrXrXeXwXaXpXkXsXsXzXxXzXsXsX0XaX0X0X0XxXFX<.R R =.%.G g ,.:.:.%.>.:.V ",
"# @.~ x =.~ F s ! p.r.8.q.j.LXHXVXzXkXBXJXLXNXjXlXlXsXwXeXeX-X-XyXrXdXcXxXzXzXxXzXzX0X9X9X9X9X0XxXHXJ = - X.,.E g ;.>.>.>.:.:.U ",
"# =.@.n $.@.F s *.p.e.q.9.KXHXHXBXvXxXNXJXHXBXpXiXiXgXeXuXeXeXeXeXyXeXdXzXxXxXxXlXzXsXuXwX9X9XaXzXBX2X<Xi $ 3.E h :.>.:.%.>.>.V ",
"+ :.~ m :.$.F s @.p.e.w.5.KXJXHXBXxXMXFXJXNXlXzXsXvXvXaXdXdXfXfXuXrXeXuXgXxXMXxXxXzXiXuXeXeXeX0XzXxX2Xi 1 H 1.G g ,.>.>.%.%.>.I ",
"& :.@.m >.>.G p +.p.r.e.9.JXHXHXBXbXBXHXHXBXzXzXzXvXbXaXaXaXgXaXfXaX:X:XuXvXMXxXlXzXaXaXeXeXeX9XsXjXLX% - 3.,.G g ,.>.%.%.%.%.U ",
"& :.=.M >.>.F p +.e.e.r.9.HXHXHXnXbXVXHXHXxXlXxXBXbXvXaXaXaX0XaXsXfXuX:XuXsXbXMXbXzXsXfXuXuXeX9X9XsXGXCX*.%.$.E l ,.:.>.%.%.>.V ",
"@ :.$.M >.>.G s +.p.e.e.9.JXHXHXvXbXBXHXBXxXBXBXBXcXvXkXzXzXzXzXxXgXdXuXuXuXvXBXBXlXgXaXuXyXeXqX9XsXGXPX+.%.$.E h ,.>.>.%.%.%.D ",
"& $.$.S >.%.G s *.e.e.o.l.JXHXmXlXvXbXBXBXNXVXbXcXzXkXxXxXMXBXMXMXlXkXdXaXuXaXMXBXxXsXdXuXyXyXeXaX9XNXLXB Z N A g >.%.:.%.%.>.I ",
"& =.@.Q %.%.S s +.p.r.c.JXLXJXmXlXzXvXbXBXBXBXvXgXlXMXjXMXmXmXMXxXxXzXkXaXuXaXlXNXxXaXaXyXyXyXeXrXsXnXLXk v f s s <.>.>.%.%.%.I ",
"& :.@.! >.%.G p +.d.r.c.LXLXJXVXxXBXBXBXVXbXvXgXvXMXNXmXMXMXxXzXzXzXvXgXgXgXgXlXNXMXsXuXyXyXyXeXrX9XxXLXE =.*.D g ,.:.%.%.%.%.U ",
"& :.@.! $.$.S p *.e.r.c.LXLXJXVXBXVXVXVXBXgXaXgXxXBXHXNXBXxXxXgXfXfXgXgXsXkXgXzXNXMXsXuX:X:X-XeXwXaXzXJXu.p.p.1.g :.%.:.%.%.%.V ",
"& =.$.~ $.%.G s  .p.p.c.LXLXHXBXBXHXHXVXlXgXgXxXMXNXFXNXMXxXgXuXfXfXgXgXzXlXzXzXNXNXaXuX:X:X-XeX9X9XzXJX9.r.p.-.g ,.>.>.%.%.%.U ",
"+ :.$.@.$.%.G s *.s. .k.PXPXJXBXbXVXHXVXkXdXvXMXNXNXFXmXMXgXdXfXtXfXfXgXzXxXzXsXVXMXaXuX:X-X-XeXeX9XsXJXu.e.e.<.g ,.>.>.%.%.%.I ",
"& =.$.$.$.%.G s *.Y ; >XIXIXJXxXBXBXbXgXaXkXzXxXNXNXNXFXMXsXuXfXdXfXgXzXzXzXzXxXMXBXvXeX:X:X-XeXeXrXjXGXCXe.e.-.g <.:.>.%.%.%.I ",
"& :.:.:.%.%.G s  .K k.G.PXIXGXxXbXBXbXgXdXkXzXMXmXNXAXNXMXsXaXfXfXvXcXxXbXlXxXxXVXBXgXeX:X:XeXeXrX9XxXJXSXr.e.-.h <.>.%.%.%.%.D ",
"* :.>.>.%.%.G s | X.; G.IXIXLXxXbXBXbXdXgXvXlXMXNXmXNXNXxXzXfXfXfXbXbXbXvXzXxXMXNXMXgXtX:X:XeXeX9XrXzXJXSXe.e.-.h <.>.>.%.%.%.I ",
"& =.:.:.%.>.G s +.n.X.k.PXIXJXzXkXBXbXgXgXzXxXxXmXmXFXNXMXvXzXfXfXgXgXsXsXsXlXVXBXxXgXuX:X:XeXeXrXrXxXHXSXe.e.-.g ,.>.:.%.%.%.I ",
"& :.:.:.%.%.G p *.f.d.c.IXIXJXzXsXBXBXvXvXvXzXMXmXNXNXNXNXMXvXgXfXfXaXaXgXxXBXNXMXxXgXuX:XyXeXrXrX9XxXJXSXe.e.-.h <.>.>.%.%.%.I ",
". :.$.:.$.$.Q a B S S k.KXIXJXzXsXBXBXvXvXvXxXxXmXNXFXmXNXVXbXzXdXiXaXgXbXVXVXVXMXzXaXuX:XyXeXeXaXwXjXJXSXr.q.-.f -.@.>.%.:.$.I ",
"& :.%.:.:.:.^ . . p p o p PXJXxXeXbXxXsXgXcXzXlXxXMXNXmXBXBXMXMXxXzXlXxXMXNXNXMXzXgXeXyX:X:XuXeXwXwXVXJXSXr.e.%.d <.@.-.:.$.~ I ",
"& :.$.$.%.:.F s j B D g A PXJXBXeXsXvXfXgXvXvXkXlXMXMXVXNXVXBXBXBXbXBXMXMXNXMXbXsXaXuXyXyXyXyXtXaXiXFXJXSXr.r.-.k ;.S G ^ ! ! I ",
"& :.$.:.$.:.! s B *.=.N <.L LXVX#XrXfXfXgXvXgXgXkXlXBXVXVXVXVXVXVXVXBXBXBXMXxXgXgXuXuX-X:XyXuXeXiXsXHXLX9.e.e.-.s N k k v v j z ",
"& @.$.~ %.:.Q s D $.<.x $.L LXHX9X#XyXfXfXgXgXfXaXgXbXBXBXBXBXBXVXBXbXbXbXbXgXaXaXuXeXyX-XeXeXuXgXlXGXLX0.r.e.-.o f f o j h h O ",
"& *.$.~ %.:.G s D $.:.n $.W KXLXwX+XyXtXrXgXgXfXuXaXgXxXxXxXMXMXMXBXxXxXgXaXaXeXeXuXeX:XqXeXrXaXzXMXKXj.e.r.q.;.l *...d ^ S ^ z ",
"@ Q @.@.:.:.G s D :.,.n >.Y k.,XkX@X:XuXtXdXgXfXuXtXfXvXzXxXlXlXlXxXzXgXaXaXuXuXrXeXeX:XeXqXeXaXzXBX<X3.r.e.e.&.d m.m.B d.9.a.R ",
"+ ! @.~ :.:.F s C :.=.n =.-.A o VX&XqXyX;XyXeXyXuXyXyXtXfXaXgXvXgXfXaXfXaXuXuXaXfXeXeX-X:XyXtXsXMXVXr.r.e.r.e.%.h m.m.M r.q.q.R ",
"@ G =.Q %.$.F s S $.%.m $.:.B o hX9XqXtX-XyXyXyXeXyX:XuXuXtXaXgXgXaXfXaXuXaXaXfXuXwXyX-X:XyXwXkXNXGXe.e.p.e.e.-.d f.m.| 1.y.r...",
"+ G =.+.=.=.G s C %.$.m @.,.B p x.lXaXeXqX-X*X*X;X;X*X;X:XyXuXdXdXaXfXaXaXaXuXaXeXeX-X-XeXrXaXxXJXl.r.r.e.e.e.-.j f.Y ; _ J y.T ",
"* N N n B V N s C %.%.m $.,.V a t.7XgXtXqX*X&X=X$X&X$X;X=X;XeXyXrXrXrXuXuXaXtXrXyX-X*X*XeXrXsXNXx.e.e.e.e.r.p.-.j m.- k.i _ X.T ",
"  s p p p O o s D %.:.S ~ :.V a i.9.zXaXeX&X@X&X%X%X%X$X;X;X;X;X:XeXeXrXrXrXrXeX-X;X$X*XwXuXkXHXl.r.e.r.p.e.p.-.d f.J 9 9 = 3...",
"+ c A p v d v p D %.%.Q =.>.B p f.9.NXaXgXOXOXOXOX%X$XOXOX$X;X;X=X&X:XyX:X*X=X@X@X$X-X#XuXsXVXAX3.e.p.e.e.r.p.-.k s.4.K J ..s.Y ",
"* 2.u.n 4.2.1.s D $.%.Q @.:.B p u.9.7XzXBX*X$X@X%XOXOXOX%X$X;X;X&X%X%X;X;X;X=X=X$X$X:X-XuXxX7X# y.e.p.r.p.r.e.-.d d.r.q.n.d.q. .",
"* 9.q.n 5.5.1.d D %.:.! =.:.V O d.r.o.NXLX-X;X=X$X%X%X%XOXOXOXOX%XOXOX%X;X&X@X%X$X-XtXfXgXBXK O a.e.r.e.p.r.r.-.d f.q.q.r.q.r.G ",
"# q.q.n q.8.2.s D $.%.~ :.:.Z p u.e.h.HXJXtX#X&XOX%X%XXXXX).)..X.X.X.X'.'.|.|.*XtXdXdXwXgXMXK o t.e.e.e.e.r.e.-.h f.r.r.r.r.q...",
"# s.0.M p.w.>.s D -.$.@.=.$.B a f.u.g.MXbX=X@X@X}.[.].[.'.'.{.(..XXX'.`.`.!.R.E.5X5X8XiXwXlXJX@ t.e.e.e.p.r.p.-.h a.e.e.e.e.e.! ",
"+ d.8.| p.e.>.f D $.$.@.@.%.B a n.y.% sXfX.X'.R.P.K.E.~.].|. XXX XXX`.`.5X5X[.[.E.F.F.P.6XpXMXZXp.e.e.e.r.r.e.;.h f.e.e.e.e.e.G ",
"# q.8.O.p.r.2.s D >.>.:.$.~ B a s.ZXmX;X).I.A.] C.!.}. X6X|.*X*X%X*X+X6X|.].1X].|.} C.D.S.1XAXKXl.e.e.r.r.u.p.-.h a.r.e.e.e.w. .",
"+ r.r.O.p.e.-.s D >.%.>.:.$.B a m.g.pX.XR.I.K.t S.S.^.XX|.~.].6X8X+X6X5X6X5X5XE.B.} !.Z.I.A.E.KXl.e.e.w.r.r.q.-.h f.r.r.e.e.e.T ",
"# p.q.O.r.p.-.s D %.%.>.:.$.B a i.t.@XY.G.`.I.t B.H._..XR.G.E.].,X6X5X1X>XG.P.R.Z.t R.I.R.J.t 5Xx.e.p.9.p.p.p.-.h a.r.r.e.e.e. .",
"# u.q.&.e.p.<.s D %.>.>.%.$.C a F C XXD.J.{.H.S.Y.Q._.oX_.I.^._.R.E.T.1XF.J.F.Z.Q.I.!.S._.!.D.J.k.S Q B G S Z U k a.w.r.e.e.e.E ",
"+ d.q.&.e.p.>.f D :.>.%.%.%.B O z v XXi Y.`.C.Z.E.u I.)._._.XX{.}.`.!._.Y.Q.Y.i r B.] r '.Y.i H._ N v s v N h g d f.e.e.e.e.e.G ",
"# u.q.5.r.p.-.s D %.%.>.%.@.Z O I N XX{ A.V.Q.3 F.J.!.R.S.Y.)._./.(.R._.L.B.Y.J.A.H.% r V.U.i Z.v C V z B B B N j f.r.e.e.e.e. .",
"+ i.e.5.e.e.-.s D %.%.>.>.$.B o -.! }.t ] L.'.H.4 < ' U.S.Q.`.F.H.Q.F.H.Y.D.r ' ' 7 3 H.I.A.D.e k.:.=.F <.:.:.F k f.r.w.e.r.w.G ",
"# u.e.8.e.e.1.s D %.>.%.%.$.B a =.+.|.t 8 D.U./.I.2 q q r e C.H.t C.Y.t r ] 2 1 , 3 A.E.K.] e > ^ :.:.G =.@.<.F k a.r.r.e.r.e. .",
"@ d.w.0.e.e.-.s D $.>.>.$.$.B p =.+.#XC.2 8 ] S.H.T.] 8 : 3 5 > 3 2 > 5 1 > 1 6 r ' I.D.u i > >X*.%.>.! >.>.:.G k a.e.e.q.r.e.G ",
"@ u.e.w.e.e.2.s D :.>.>.>.$.B p =.@.g.}.` < 1 0 t { { ] ] ] e 7 7 < : 6 5 0 0 u i } t 7 < > >X. ~ %.%.! -.%.:.E k a.e.e.r.q.r. .",
"# u.e.e.e.e.1.s F %.>.>.>.$.B a =.=.*.2XQ.Z.0 1 4 w 3 y i y u u w i / y u e 0 0 y q > < 1 i H a ,.$.%.~ :.%.%.F h a.e.e.r.e.e. .",
"+ a.e.e.e.e.<.s C %.:.:.:.=.B p =.@.Y ( G ~.`.Z.7 2 , 3 < 1 1 8 5 8 2 8 4 1 < < 3 > 4 k.y L I a :.:.%.~ ,.:.:.Q j m.e.p.p.e.r.D ",
"# u.w.r.e.e.<.s F :.>.:.:.%.B a =.:.:.$.%.+.D 8X/.W.r , > , 2 3 4 > < 3 < < 1 < u ,X% 0 = X.V a ,.,.$.~ :.:.:.^ h a.r.r.w.p.p. .",
"@ n.a.p.f.s.3.s D ,.:.<.<.,.V a ,.,.,.=.>.<.2.S [ ,XK.} [ 9 9 X % = = = 9 9 [ k./ 3.v.K h.3.I s ^ :.:.:.,.,.,.E l n.s.i.a.p.i..."
};
