/* XPM */
static char *result[] = {
/* columns rows colors chars-per-pixel */
"64 64 236 2 ",
"   c #5D3A1F",
".  c #6D3E09",
"X  c #563B24",
"o  c #754303",
"O  c #7B4503",
"+  c #7D4A05",
"@  c #7C490B",
"#  c #66421C",
"$  c #6B451D",
"%  c #6D491B",
"&  c #79541D",
"*  c #4F4A38",
"=  c #664421",
"-  c #6C4320",
";  c #724A25",
":  c #6D5627",
">  c #795928",
",  c #685937",
"<  c #765F32",
"1  c #4F613A",
"2  c #5A643D",
"3  c #766136",
"4  c #3C5249",
"5  c #396E5F",
"6  c #3E7466",
"7  c #4A4E45",
"8  c #59494B",
"9  c #4C534B",
"0  c #495849",
"q  c #515347",
"w  c #53544B",
"e  c #565B4D",
"r  c #525254",
"t  c #565855",
"y  c #5B5C54",
"u  c #675956",
"i  c #556551",
"p  c #596557",
"a  c #696547",
"s  c #776849",
"d  c #64645C",
"f  c #69675A",
"g  c #776758",
"h  c #5C5363",
"j  c #635862",
"k  c #586766",
"l  c #56776A",
"z  c #4C7975",
"x  c #587A77",
"c  c #656B61",
"v  c #6B6B63",
"b  c #686867",
"n  c #746C66",
"m  c #667569",
"M  c #767468",
"N  c #677979",
"B  c #737374",
"V  c #824804",
"C  c #824B04",
"Z  c #884E05",
"A  c #844D09",
"S  c #895507",
"D  c #8B5406",
"F  c #86520A",
"G  c #8C530A",
"H  c #975806",
"J  c #915609",
"K  c #945C0C",
"L  c #9A5D0C",
"P  c #885C17",
"I  c #945C13",
"U  c #995E14",
"Y  c #A15D07",
"T  c #9E630C",
"R  c #9D6313",
"E  c #9A671A",
"W  c #A3640B",
"Q  c #AA6708",
"!  c #B36C0C",
"~  c #B86F0C",
"^  c #B8750B",
"/  c #A26413",
"(  c #A96616",
")  c #A56A14",
"_  c #AD6D15",
"`  c #A56B1A",
"'  c #AB6D1B",
"]  c #B16E14",
"[  c #B26E19",
"{  c #A77016",
"}  c #AE7114",
"|  c #AD721B",
" . c #B37315",
".. c #BC7513",
"X. c #B3731B",
"o. c #BA741B",
"O. c #B97A18",
"+. c #BC791B",
"@. c #895E27",
"#. c #8B6727",
"$. c #936A26",
"%. c #9D722D",
"&. c #876636",
"*. c #9A7039",
"=. c #A66E21",
"-. c #AB6E20",
";. c #AE7020",
":. c #A5782A",
">. c #B57B23",
",. c #B77924",
"<. c #BA7B24",
"1. c #A77C37",
"2. c #C27816",
"3. c #C57A16",
"4. c #C47D1B",
"5. c #CA7E1B",
"6. c #C27E21",
"7. c #926E48",
"8. c #857659",
"9. c #AA7B4A",
"0. c #B47E4A",
"q. c #877C64",
"w. c #867A7A",
"e. c #478C75",
"r. c #5C8574",
"t. c #718578",
"y. c #BA8119",
"u. c #BE811B",
"i. c #BB8023",
"p. c #B78229",
"a. c #A3813C",
"s. c #B78736",
"d. c #C3830F",
"f. c #CA8916",
"g. c #C2821D",
"h. c #CD831D",
"j. c #D18E16",
"k. c #D3871E",
"l. c #D4881E",
"z. c #D6941C",
"x. c #C48223",
"c. c #CC8523",
"v. c #CE8B24",
"b. c #C48529",
"n. c #CB852A",
"m. c #CD8B2B",
"M. c #D38622",
"N. c #D38821",
"B. c #D1862A",
"V. c #D28A29",
"C. c #CB9128",
"Z. c #D89627",
"A. c #CC8C33",
"S. c #C99439",
"D. c #D89A33",
"F. c #E19E28",
"G. c #E29E34",
"H. c #DCA43B",
"J. c #E6A224",
"K. c #EAA326",
"L. c #EFAB26",
"P. c #E4A22C",
"I. c #EBA62B",
"U. c #EDAA2C",
"Y. c #F0A72B",
"T. c #F3AE2D",
"R. c #F4B02D",
"E. c #E5A233",
"W. c #EAA634",
"Q. c #EEAC33",
"!. c #E5A73A",
"~. c #EDAC3A",
"^. c #F3AE32",
"/. c #FAAC34",
"(. c #F3AE3B",
"). c #EDB13C",
"_. c #F5B033",
"`. c #FAB337",
"'. c #F4B03C",
"]. c #F9B33C",
"[. c #B28847",
"{. c #B78348",
"}. c #988869",
"|. c #8F8973",
" X c #A0916F",
".X c #ADA476",
"XX c #D59B42",
"oX c #D6A55E",
"OX c #D9A75D",
"+X c #EAAC44",
"@X c #F4AE41",
"#X c #EEB143",
"$X c #F5B241",
"%X c #CB9C60",
"&X c #D7A762",
"*X c #637B80",
"=X c #2FBAAB",
"-X c #568B86",
";X c #4B908A",
":X c #599787",
">X c #549793",
",X c #5C9B9C",
"<X c #6A878A",
"1X c #69958F",
"2X c #4DAD90",
"3X c #55AB96",
"4X c #57AAA7",
"5X c #4EB7AE",
"6X c #5BB8B4",
"7X c #74B1AD",
"8X c #4BCCB8",
"9X c #56C7B9",
"0X c #4EB8C2",
"qX c #3DD8D0",
"wX c #3EE7DD",
"eX c #2FEFE5",
"rX c #58CBC9",
"tX c #4FD1C7",
"yX c #55EEF8",
"uX c #7CFAF3",
"iX c #939489",
"pX c #94A98F",
"aX c #ABAA98",
"sX c #A5B895",
"dX c #B7B997",
"fX c #BBBBB1",
"gX c #BDC1BA",
"hX c #C3C3B6",
"jX c #89FCF6",
"kX c #97F9F8",
"lX c #9BFCFD",
"zX c #A9F8F9",
"xX c #ABFAFD",
"cX c #B8F6F6",
"vX c #CAD2CD",
"bX c #CAF7F5",
/* pixels */
"* &X&XOXOX&X{.; 7.{.[.9.9.0.7.- {.{.{.{.{.{.0.1.> &XoX&XOX&XOX*.; &XOXOXoXoX%X; &.{.9.9.9.9.7.$ 0.0.0.0.{.{.{.9.> &XoXOXOXOXOX9.",
"- /.T.T.R.^.Z.o + A G A U V V V c.N.k.M.k.k.M.X.J (.K.Y.I.^.Y.[ Z (.R.R.T.T.G.C O S I + L A A O 5.M.l.l.N.N.M.+.J @XK.W.Y.I.I.<.",
"  (.T.T.R.T.v.F E y.i.I x._ =.V M.N.M.M.M.M.k.X.K G.V.D.Z.Z.Z.` V (.T.Y.^.^.G.F ` | u.H x. .` + B.k.l.l.M.M.M.+.G G.v.Z.D.Z.Z.:.",
"% (.^.T.R.R.v.A  .E.+X=.+XG.X.V M.M.M.k.M.k.k. .A ( K U R / K E Z (.T.I.T.T.E.Z | P.Q.! _.J.O.C 6.M.N.N.M.M.M.+.A ` I K / / L E ",
"% U.U.L.^.T.v.A +.s.< 8.< XX;.C B.k.N.l.l.l.M.[ O G S + R S G + C (.T.K.^.R.E.C } U.U.^ `.U.O.+ M.M.N.N.N.M.l.+.+ G I O U G I @ ",
"$ I.T.K.^.T.v.+ i.$.|.t.q.:.| C M.M.k.k.l.N.M.[ J Z.b.T Z.y.D.K A Q.^.K._.R.P.D } I.U.y.'.R. .C c.M.N.l.N.N.l.+.G <.<.D 6.[ <.I ",
"% P.U.K.T.^.v.A b.:.s M , s.X.C 5.M.M.l.N.N.B.2.I Q.E.3.U.J.^.{ Z E.(.F.^.T.E.A } T.R.^ '.Q.O.C c.k.k.k.l.l.k.o.G V.V.Y M.5.B.-.",
"# F.U.I.^.T.v.C x.H.%.&.%.~.} C M.l.l.M.N.l.5.o.K ^.E.y.T.L.^.) C G.T.F.R.T.E.C } _._.d.'.R.X.C c.k.l.l.l.l.k.+.G v.V.Y M.k.M.' ",
"% Z.I.K.^.^.C.F u.R.'.C.~._.X.C c.l.l.N.l.N.M.o.K R.U.v.T.T._.| Z Z.I.z.T.^.E.Z ] ^.^.d.(._.O.C h.k.l.l.N.l.N.2.G V.n.Q N.N.k.;.",
"# Z.W.F.W.^.C.+ i.^.^.d.U.R. .C c.M.N.l.l.l.5.o.K Q.U.z.Q.L.R.{ C v.Q.z.Q.I.D.G  .^.T.f.^.^.X.+ c.l.l.l.l.N.M.+.G v.V.~ N.N.N.-.",
"= )  .) | | ` + g.^.T.j.U._.X.C c.N.l.l.l.l.N.o.K R.I.Z.R.L.U.| A T X.W [ | X.F _ T.T.j.Q.^.O.C c.k.N.l.N.M.k.o.D N.N...l.N.l.-.",
"  + + o + o o + 6.^.T.z.U.^.X.C c.N.l.l.l.l.M.2.K Q.^.J.R.U._.{ . V A O O o o + ] T.T.z.Q.T.O.C c.M.N.l.N.l.M.+.D V.N.3.N.l.N.;.",
"= Y ' Z R G E A x./._.z.I.R.| + v.M.k.l.k.k.M.o.K Q.Q.I.R.T._.E 3 E [ Z ( F -.A ] T.T.z.Q._.X.+ c.k.N.N.N.N.k.+.J B.M.3.N.l.N.;.",
"- o.M.H 4...+.A g.^.T.z.I.Q.| + c.M.l.l.k.k.M.o.K R.L.U.L.T.^.E a +.M.H 5.] x.A  .^.T.F.Q._.+.C x.M.l.k.M.M.k.+.G M.M.5.l.N.M.[ ",
"  5.h.Y 5.3.o.A x.^.T.J.L.^.| C M.N.N.l.N.N.N.X.K Q.R.Q.R.T.R.E 2 c.k.Y h.2.c.A } ^.T.K.U.^. .C c.k.V.,.,.M.k.<.G V.N.N.l.N.M.-.",
"% h.5.Y c.5.+.A 4.^.T.K.U.^.} C M.l.N.N.l.N.N.O.K R.R.R.R.U.^.E 1 c.M.H h.5.c.A  .T.T.I.I.^.+.+ 4.V.#.< > s.M.+.G m.N.N.N.N.M.;.",
"% M.h.Q k.h.+.A x.^.T.L.L.^.| C c.k.l.N.N.l.N.o.K _.R.R.Q.Q.T.cX2 B.M.Y M.5.6.F  .^.T.U.U.T.O.C h.b.a aXM & A.+.G V.N.M.N.N.N.' ",
"# c.k.Q M.h.+.C g./.T.Y.U.^. .V c.k.N.l.l.N.M.o.K Q.R.R.R.R.T.cX2 B.N.Q M.M.n.A ] ^.T.T.U.^. .C h.m.: M q > C.<.G V.N.N.l.l.N.-.",
"- M.c.~ N.M.+.A g.^.R.T.U.^.X.A c.l.k.N.M.k.M.o.K Q.R.T.R.T.R.cXa v.M.Q M.M.n.G  .^.^.T.T.T.+.C x.V.s.: & XXM.,.J B.N.N.l.l.l.;.",
"- M.h.~ N.N.+.C g.T.T.T.T._.| C V.k.N.k.N.M.M.o.K R.U.R.L.R.R.zXzX,.k.! N.N.6.F } ^.T.T.T.^. .+ c.M.V.b.B.k.M.6.J V.N.M.l.l.l.-.",
"$ M.k.~ M.k.+.A g./.T.R.T.^.X.C c.k.N.h.N.N.k.o.K Q.U.T.T.T.Y.zXkX,.k.! M.k.6.Z _ ^.R.T.R.T...C c.k.N.4.N.l.N.,.G M.N.N.l.l.k.X.",
"- M.h...v.k.O.A x.T.T.T.T._. .C | } X.W  .X./ / K ^.R.R.T.Y.T.zXjX,.M.~ M.l.B.Z  .T.T.T.R.T.+.C |  . .R  . .) | G V.N.M.l.l.M.-.",
"- M.h.2.k.l.+.A g.^.T.T.T.^.X.O U / E A L E Z C I Q.T.R.T.T.T.jXuX<.M...M.k.b.Z } T.R.T.T.R. .A I R R A U R S A Z V.N.N.l.l.l.-.",
"- c.k.4.N.k.O.C g.^.R._._._. .+ 6.6.m.) g.g.g._ K Q.R.T.T.Y.T.kXjX<.M.O.M.M.c.F  .R.T.T.T._.O.O X.g.u.' c.g.x.X.G B.N.l.l.k.l.;.",
"- M.h.4.k.k.+.A g.T.T.^.T.^.} C @X/.].Z.T.^.Q.u.K Q.T.T.T.Y.T.kXjX,.l.3.k.l.c.F } T.T.T.T.T.X.+ !.^.~.Z.(.T.^.m.G V.N.N.l.l.l.' ",
"$ M.k.5.k.k.+.C i.^.^./.T.).X.C (.T.`.Z.^.R.T.+.K Q.R.T.T.T..XzXkX,.N.3.k.l.n.Z } ^._.T.T.T.O.C E.T._.Z._.R._.v.G B.M.N.l.l.N.;.",
"$ M.k.h.k.k.+.C i.!.i.E p.). .+ (.T.R.K.^.R.T.+.K ^.T.R.T.T.dXlXlX,.k.3.k.k.c.A  .T.^.T.T.R.O.+ W.T./.F.R.R.^.v.J M.M.N.l.l.l.-.",
"- c.k.c.k.M.+.A i.p.< |.3 S.| + ^.T./.F.T.T.R.y.K ~.T.T.^.T.sXxXxX,.N.h.N.M.c.Z  .^.T.T.T./. .C W.T.R.E._.R.T.v.G V.N.N.l.l.l.-.",
"$ M.M.M.k.N.+.A b.$.|.c s %.| S ~.T./.I._.R.T.u.K (.R.U.R.T.sXxXxX<.l.M.k.l.c.Z  .T.T.T.T.^.+.C E.T._.I.^.R.T.v.G V.N.N.l.l.l.[ ",
"= M.M.M.k.k.+.A y.s.3 a , XX| + '.T.T.W._.T.T.g.K ^.T.R.T.T.sXxXxX<.l.M.k.l.c.A } ^.T.T.T._. .+ ~.T.T.I.T.T.T.v.J V.N.k.l.l.N.-.",
"- M.M.M.k.N.+.F u.#Xs.$.s.).O.S (.T.T.I.T.R.T.g.L (.T.T.T.T.sXxXxX,.l.k.k.l.c.F ~ ^.T.T.^._.X.C E.T.T.I.T.T.T.v.J V.N.N.l.l.l.;.",
"- M.M.M.k.l.+.C i.'.`.'.`.].| + (.T./.T.R.T.^.g.K ^.T.T.T.T.sXzXzX+.N.N.N.l.x.C ] $X].].].`.+.A E.T.T.U.T.T.T.v.J B.M.N.l.l.l.-.",
"  M.l.k.k.M.2.Z _ O.+.X.+.O.) C (.T.^.^.R.R.T.g.K Q.T.T.T.T.sXxXxXaXN.k.N.l.c.Z W 4.+...+.O.` V W.T.T.T.T.T.T.v.G V.k.N.M.k.M.-.",
"; M.l.M.M.M.<.. . C A o S o o + Q.T.R.T.R.R.T.g.K T.K.(.I.T.sXcXkXbXN.M.M.l.h.O . + S O D O o o G.T.T.T.T.R.T.f.J V.5.c.M.k.5.-.",
". V.k.M.k.M.<.A K ' X.J >.R E + (.Y.T.R.R.R.T.+.K D.l.Z.Z.F.pXxXjXbXN.x.M.B.c.F R ` ,.J X./ E + ~.T.Y.T.T.T.T.v.G b.O.+.6.6.2.-.",
"- N.k.M.k.M.2.A ` c.M./ C.3.| C ~.L.R.T.R.R.T.x.A Q H U Y L pXxXjX1.:.: & A.n.Z ( 6.c.Y M.4._ C E.T.T.T.T.R.T.v.F ) K K U Y U U ",
"- h.k.5.k.M.+.A  .k.V.Y l.h.{ C (.T.T.T.T.R./.u.@ J F + I S pXlXjXa.8.aXq.& c.Z _ h.c.Y V.h._ C E.T.T.T.R.T.T.v.+ F F o L J J A ",
"- c.k.5.M.M.2.A [ k.M.W k.v.' C (.Y.T.T._.T.R.u.F x.,.K f.Q pXlXjX9.8.M u > 6.D _ h.k.Q V.c.[ A W.T.^.^.T.R.T.v.G x.s.S x. .6.P ",
"$ g.h.5.N.M.+.A [ k.M.W l.N._ C (.T.T.T.T.R.R.g.K ^.!.+.T.F..XlXjXs.$.a : s.n.A _ N.k.Q V.N.] C E.T.^.R.T.T.T.l.K (.$XQ _.I.(.,.",
"  4.k.3.M.M.+.Z [ M.B.Q h.N.' C (.T.R.R.R.T.T.g.K ^.P.+.T.L.T.jXkX` A.p.A.V.n.A ) M.k.! V.N.' C Q._.T.T.T.R.T.v.K @X$X! _.L.Y.,.",
"% 2.c.5.k.k.o.Z o.k.k.! h.k.' C ~.T.T.T.R./.T.4.K _.U.f.L.Q.L.kXlX` k.3.h.h.b.F ) l.l.! V.M.' C P.R.T.R.T.R.T.v.G '.'.y.C.Q._.p.",
"  +.c.4.5.c.,.A  .k.k.! c.M._ V (.T.T.R.T.T.T.6.K Q.U.z.L.R.T.zX7X{ c.O.c.h.c.F _ h.k.~ M.V._ C Q.T.T.T.^.T.T.v.H '.%.3 s &.!.>.",
"- ) _ W _ ) ` A X.k.h.~ c.M.' Z W.Y.T.R.R.T./.g.K Q.Q.z.R.R.R.cX2 L _ Y _ _ | F _ l.l.~ M.N.' C W.T.T.T.T.T.T.v.H @X> iXM 8.s.>.",
"  A S + A + O A X.k.k...h.M.' A (.T.T.T.T.T.^.6.K ).R.J.R.L.R.cX1 C D + A + @ @ Q k.l...c.N._ A E.T.T.R.^.R.Q.v.G $X$.s v : S.p.",
"# T { S R H R A ..k.k.2.c.N._ C (.T.T.T.R././.g.K ).L.J.L.R._.cX2 L { S ) A ` F _ l.l.2.M.k._ + Q.T.T.T.T.R.^.v.K ).D.$.#.a.R.>.",
"- Z.E.W D.C.C.A X.k.M.4.h.M.( C Q.T.T.T.T.T.^.4.K Q.R.L.R.L._.bX2 D.'.T Q.g.E.Z ] l.k.4.h.M.[ C E.T./.T.T.T.^.v.S '.Q.Q.'._.L.i.",
"= P.U.Q P.z.v.S X.k.k.4.c.N.' V ~.T.T.T.T.T.^.+.K R.Q.[.U.T.'.bXe H._.W s.z.E.A ] k.N.g.c.N._ C W.T.T./.^.R.R.v.J '.R.L.R.L.Q.>.",
"% Q.U.^ U.L.v.A X.k.M.h.M.M._ C Q.T.T.R.^.T._.x.K ).C.vX XM n pX1Xa 8.8.gXa.P.+ } k.N.h.h.l.' A W.R.T.R.T.R.T.v.J '.L.R.R.R.U.i.",
"% Q.U.^ ^.Y.N.A  .c.k.h.c.k._ C ~.Q.D.P #.!.Z.E : w.u k 6 r.m ;XrX3X:X5 4 r b w.fX=.+.h.5.M.' A W.T.R.T.R.R.T.v.G ].T.T.T.T.L.4.",
"# _.J.y./.T.v.F X.k.k.h.k.k._ V ~.!.: q.}.s n v w w p r.N N ,X6X4XB x 3X<Xe.;Xz t M M 7.5.M.[ V W.T.T.T.R.Q.^.v.J (.T.T./.T.T.+.",
"% Q.L.d.^.T.Z.F X.N.N.M.k.k._ V ~.S., t.t c k w 8XqX0X>XqXeXeXyXyXqX0XrXh p 1XtXx r f f |.7.[ A I.T.T.T._.R.^.v.D '.T.T.R.R.T.<.",
"# Q.L.j.^.T.v.A X.N.k.N.k.k.( V #XG., iXc d j 5Xm m tXtX6X1XrXtXtXtX9X8X=X4X;Xm x 5Xt f n iX&.@ W.T.T.L.R.L.Q.v.K '.T.T.T.U.T.+.",
"% _.U.j.R.R.C.A X.l.N.l.M.k._ V (.(.B b M k r.p u ;XwXx N 4X3XB 6X6X<Xb m N >Xb u 6X-Xm p m pXV E.T./.I.Q.R.^.v.K /.R.T.T.T.T.i.",
"% ).I.j._.Q.N.A X.k.N.N.k.k._ Z X. Xy M b b r.-X5X4X8X6Xl 5X0X4X4X2X;Xb r.*Xk 2X<X4X;Xb g c j @ X...+.) y. .] ;.K (.T.T.T.T.T.<.",
"# _.I.z.T.^.v.A X.k.N.k.N.k.) + / q.b v M p 5X7Xn z rXrXtX8XtXtX4X5X3X3X<X6XB 1 z *Xk n p m b q.R / U F T / J G D ].R.T.T.T.T.>.",
"% U.U.F.T.T.v.F X.N.N.l.N.k.} O ' }.k v d b e 2X>X9X4Xj h 8X<X;X5Xb ,Xr.n >X1Xr.2X8 e g m b d o ` ' ( E ' ] ' ` K (.L.T.T.T.T.i.",
"# ^.U.F.T.T.v.A X.k.N.l.N.k.) V V.iXd v v v e 7 r r.3X;X5X8X-Xb 4X<Xe.:X<Xb l ;Xl 4 t b c v t q.n.M.M.,.V.c.M.+.K (.T.L.T.T.T.+.",
"% ~.T.J.T.T.C.A X.N.l.N.N.k._ Z n.fXq f d c f y 9 9 t k *X-X2Xk :X3Xl 6 e.8 i 8 0 y n M v y 7 o x.M.M.+.h.M.M.+.J (.T.T.T.T.T.i.",
"# _.T.K.T.Y.v.F  .N.N.N.N.k._ C v.hXc 9 d f n f i 0 7 8 r 8 0 0 8 4 8 q q w 9 0 f M v v p 9 B C c.M.N.4.V.k.B.o.J (.T.T.T.T.T.>.",
"$ ~.T.T.T.T.V.Z X.N.M.N.M.k._ O c.;.hXv 7 w d u v v b p e r 0 0 8 t w p u f n k v d u r w B #.A c.M.N.4.N.k.M.,.K (.T.T.R.T.R.>.",
"% Q.T.T.T.T.C.A o.l.N.N.N.k._ C c.k.,.aXM e 9 9 t u b m m g m n M u M f d c m y e * i 7 8 :.' V c.k.k.5.M.N.N.2.K (.T.R.T.T.T.+.",
"# (.T.T.T.T.v.A X.M.M.N.M.c._ C c.k.N.M.*.3 B t 7 9 r w 0 y y p e i i e q e 7 q * e B c |.*.-.V M.k.l.5.M.M.M.2.J '.T.T.T.T.T.>.",
"% ^.T.T.R._.V.A o.M.M.M.M.M._ Z n.M.M.M.N.M.<.U iXd 7 9 e e 0 * q q q q q q q y iXfX, M , s.' V n.M.k.5.M.M.M.,.K (.R.Q.^.T.^.i.",
"= #X~.^.'.).A.A ;.M.N.V.B.M.( A n.B.B.c.V.V.m.-.E !.D.}.s 3 , * X , , 3 8.}. X}.@.A.{.*.s.b.-.@ n.M.M.M.B.B.B.,.I @X~.Q.(.~.Q.p."
};
