/* XPM */
static char *result[] = {
/* columns rows colors chars-per-pixel */
"64 64 243 2 ",
"   c #5D3A1F",
".  c #6C3D0A",
"X  c #593D26",
"o  c #6B420B",
"O  c #754302",
"+  c #7A4503",
"@  c #7E4A05",
"#  c #79480C",
"$  c #66421C",
"%  c #6B451D",
"&  c #6C4A1B",
"*  c #754F18",
"=  c #514935",
"-  c #664421",
";  c #6C4320",
":  c #724A25",
">  c #6A562A",
",  c #795928",
"<  c #665836",
"1  c #765F32",
"2  c #776137",
"3  c #3C6054",
"4  c #494C44",
"5  c #574C49",
"6  c #4A5648",
"7  c #55564A",
"8  c #53554C",
"9  c #574B51",
"0  c #4A5856",
"q  c #595B53",
"w  c #625259",
"e  c #476853",
"r  c #58675A",
"t  c #68675C",
"y  c #756D52",
"u  c #5C5F60",
"i  c #576A67",
"p  c #58786D",
"a  c #567072",
"s  c #686C65",
"d  c #6F6F6F",
"f  c #767769",
"g  c #697775",
"h  c #824B04",
"j  c #854A04",
"k  c #844D09",
"l  c #8B5406",
"z  c #8A5507",
"x  c #86520A",
"c  c #8C5309",
"v  c #915609",
"b  c #935B0B",
"n  c #985A0A",
"m  c #895B18",
"M  c #945D14",
"N  c #995E14",
"B  c #A15D07",
"V  c #9E630C",
"C  c #9D6313",
"Z  c #9B671A",
"A  c #A86609",
"S  c #B46D0B",
"D  c #B8750B",
"F  c #A26413",
"G  c #A56A14",
"H  c #AD6D15",
"J  c #A76619",
"K  c #A56B1A",
"L  c #AC6D1B",
"P  c #B16E14",
"I  c #B26E19",
"U  c #AF7114",
"Y  c #AE721B",
"T  c #B37315",
"R  c #BB7413",
"E  c #B3731B",
"W  c #BA751B",
"Q  c #B97A18",
"!  c #BC791B",
"~  c #8C6627",
"^  c #936A26",
"/  c #9D732F",
"(  c #906B37",
")  c #A36E22",
"_  c #AB6E20",
"`  c #AE7020",
"'  c #A5772B",
"]  c #B57B23",
"[  c #B77924",
"{  c #BB7C23",
"}  c #A17336",
"|  c #C37816",
" . c #C47C1B",
".. c #CB7E1B",
"X. c #C27E21",
"o. c #8E7046",
"O. c #85785A",
"+. c #AA7B4A",
"@. c #B47E4A",
"#. c #867B66",
"$. c #4E8974",
"%. c #59867B",
"&. c #688479",
"*. c #768173",
"=. c #BC811C",
"-. c #BB8023",
";. c #B68229",
":. c #B78837",
">. c #BE9137",
",. c #C3830F",
"<. c #CA8916",
"1. c #C2821E",
"2. c #CC831D",
"3. c #D18E16",
"4. c #D3871E",
"5. c #D4881E",
"6. c #D7951C",
"7. c #C38222",
"8. c #CC8523",
"9. c #CE8B24",
"0. c #C78529",
"q. c #CD8B2B",
"w. c #D38622",
"e. c #D38821",
"r. c #D1862A",
"t. c #D28A29",
"y. c #CB9128",
"u. c #D89728",
"i. c #C98D32",
"p. c #D08D39",
"a. c #C89538",
"s. c #D79931",
"d. c #E29E26",
"f. c #E29E34",
"g. c #DDA234",
"h. c #E8A325",
"j. c #E4A22C",
"k. c #EBA62A",
"l. c #EDAA2C",
"z. c #F0A72B",
"x. c #F4AE2D",
"c. c #F4B02D",
"v. c #E5A233",
"b. c #EAA634",
"n. c #EEAB33",
"m. c #E4A73A",
"M. c #EDAC3A",
"N. c #F3AE32",
"B. c #FAAC34",
"V. c #F3AE3B",
"C. c #EDB13C",
"Z. c #F4B033",
"A. c #F4B03C",
"S. c #F9B33C",
"D. c #9B824E",
"F. c #968358",
"G. c #B78348",
"H. c #B08D4C",
"J. c #928B70",
"K. c #AB9C6B",
"L. c #D59B42",
"P. c #D6A55E",
"I. c #D9A75D",
"U. c #EEAF43",
"Y. c #F4AE41",
"T. c #CB9C60",
"R. c #D7A762",
"E. c #697A80",
"W. c #3FAF9E",
"Q. c #5B8983",
"!. c #4B918A",
"~. c #57938B",
"^. c #579997",
"/. c #648887",
"(. c #6E928E",
"). c #659C9D",
"_. c #4FAC97",
"`. c #56A89A",
"'. c #689CA3",
"]. c #59A9A3",
"[. c #49B7A7",
"{. c #49B3AD",
"}. c #57B5A8",
"|. c #57B9B2",
" X c #66AEA3",
".X c #3BC8AA",
"XX c #4AC5B9",
"oX c #51C9B5",
"OX c #51BDC5",
"+X c #39CDC4",
"@X c #33EFD1",
"#X c #46D7C7",
"$X c #4FD0CC",
"%X c #6FD2CD",
"&X c #49E5D5",
"*X c #45DCE6",
"=X c #51EFEA",
"-X c #71F2EB",
";X c #6BF9F1",
":X c #77F8F4",
">X c #90968C",
",X c #9FA384",
"<X c #98AB98",
"1X c #A3A184",
"2X c #ABAD94",
"3X c #B6BB9C",
"4X c #94A1A1",
"5X c #B6BAA1",
"6X c #BAC8BA",
"7X c #C4CDBB",
"8X c #BDD4CD",
"9X c #A7DBDC",
"0X c #90F1EE",
"qX c #82F5F4",
"wX c #87F7F4",
"eX c #8CFAF5",
"rX c #92F4F2",
"tX c #9CF6F4",
"yX c #98F9F5",
"uX c #B1EDE8",
"iX c #A5F6F5",
"pX c #ABF5F4",
"aX c #A3F9F5",
"sX c #ABFAF6",
"dX c #A4FAFA",
"fX c #ADFBFA",
"gX c #B7F6F7",
"hX c #B4FBF6",
"jX c #BCF9F6",
"kX c #B3FBFB",
"lX c #BCFCFB",
"zX c #C9E2DA",
"xX c #D3E5DE",
"cX c #D1EEE9",
"vX c #CBF4EC",
"bX c #C4F7F5",
"nX c #C4F9F5",
"mX c #C4FCFB",
"MX c #CAF8F8",
"NX c #CBFCFB",
"BX c #D2F8F7",
"VX c #D3FCFB",
"CX c #DBFCFC",
/* pixels */
"= R.R.R.P.R.H.: o.@.G.+.+.+.o.; G.G.G.G.G.G.@.} , R.P.R.I.I.I.( : R.I.I.I.P.T.: ( +.+.+.+.+.o.; @.@.@.@.G.G.G.+., R.P.I.I.I.I.+.",
"; B.x.x.c.Z.u.O + l v h N h k j 8.w.4.w.e.4.w.I M B.h.l.z.x.h.E c Y.z.x.z.x.v.h @ z b h M k h + 8.4.5.5.e.e.w.W v Y.h.N.x.k.k.] ",
"$ N.x.x.x.x.9.x C { -.b X.H ) h w.w.w.w.w.w.5.E v f.e.s.u.s.u.K j V.x.x.x.N.m.k Z T 1.n 7.T J @ w.w.5.5.w.e.w.W v v.9.t.s.u.u.' ",
"% V.x.x.x.c.e.x E v.U.) U.f.I j w.w.5.w.5.5.4.T k J M C C F n M j V.x.z.x.x.f.l Y j.Z.U N.h.Q h X.5.w.w.e.w.w.W k J M b F F n Z ",
"$ n.x.k.c.x.9.h ] >., O.1 L.` h 8.w.w.5.5.5.w.I + c z @ b z x & & V.N.h.x.Z.v.h U l.l.D Z.c.Q @ r.w.w.w.w.e.4.! @ v M + N c M # ",
"% k.l.k.x.x.9.@ -.~ J.*.#.' Y h w.4.5.4.4.5.w.I v u.9.C u.=.:.VXuXb.N.k.N.c.j.l U l.l.D Z.l.Q @ 8.w.5.5.e.e.5.! c { [ c X.I { M ",
"% j.l.h.N.x.9.x X.' y d < :.E h w.4.5.w.w.w.w.| M n.v.| l.h.>.NX9Xu.N.d.Z.x.v.k U x.c.D A.Z.! h 8.4.5.5.5.5.5.! c 9.t.B w...r._ ",
"$ j.l.k.N.x.9.k -.m.} ~ / C.H h w.5.w.5.w.5...W b N.v.=.c.l.VXlXgX7Xs.h.x.x.v.h U x.x.=.A.Z.E h 8.5.5.5.5.5.5.! c e.t.B w.4.w.L ",
"& u.k.h.Z.c.y.x =.Z.A.y.A.Z.E h 8.5.w.w.5.e.w.W b Z.n.3.c.h.NXhXiXBXi.6.x.x.v.l P N.N.,.V.Z.Q h 2.5.5.5.e.e.5.! c 9.q.A 5.5.5.` ",
"$ u.v.j.b.n.q.@  .x.Z.,.l.c.U h 8.w.5.5.5.5.w.W b n.j.6.c.7XNXsXtXBXCX6.n.b.s.c P x.N.<.N.N.E @ 8.5.5.5.5.5.w.W c 9.e.P w.w.w._ ",
"- G Y H Y U K k -.N.N.3.l.Z.E h 8.e.e.5.5.5.w.W b c.l.u.>.vXhXtXrXjXCXA I H E x H x.x.3.n.N.Q h 8.5.5.e.e.5.4.! v e.e.| 5.e.5.` ",
"  @ @ O @ O O @ 7.N.x.3.l.Z.E h 8.5.5.5.5.5.w.W b n.l.h.H.nXhXeXeXhXVX@ # O + @ P x.x.6.n.x.Q h 8.5.w.5.e.e.4.! c 8.t.| e.5.w.` ",
"- F H j C l F @ 1.B.c.6.k.Z.Y @ 9.w.4.5.5.5.4.W b c.n.g.6XjXtXeXqXaXNXO.J.k _ k P x.x.u.l.Z.E @ 8.w.e.e.w.w.5.! c e.w.| e.5.e.I ",
"  | 2.B  .R { k 1.B.c.6.k.n.U @ 8.w.5.5.5.5.w.W b c.l.zXNXfXyXqX:XyXlXNXVXF 7.k T N.x.d.l.Z.! h X.w.w.5.5.w.5.! v 8.w.4.5.w.w.` ",
"$ ..2.B .. .W h 7.N.x.d.l.N.Y @ e.e.5.w.5.w.e.W b c.c.vXlXdXeXqXqXeXfXNXVXH 8.k U x.x.h.n.N.T h 8.w.t.[ [ 8.5.W c t.w.w.5.e.e._ ",
"$ 2...B 8...! k 7.N.x.h.l.N.T h w.5.w.5.w.5.5.T b l.c.uXfXyXeX:XqXqXdXmXNX3X8.k U x.x.l.k.N.! @  .e.^ 1 1 0.r.{ c q.e.w.e.e.w.` ",
"% w.2.A 4.2.W h 7.B.x.l.k.x.U h 8.5.e.5.w.e.w.W b >.VXkXfXwX:X:XqX-X:XfXMXvX8.k P N.x.l.l.N.Q h 8.0.7 2Xf > i.{ v w.e.e.e.e.e.L ",
"- e.2.S w.4.! k 7.x.x.l.l.Z.I h 9.5.5.w.5.e.5.W b >.NXkXdXqX:X:XqX:X:XaXmXvXX.k T N.N.x.l.c.T h ..q.> #.7 m i.! c r.e.e.e.5.e._ ",
"% w.8.S w.w.! h 1.N.c.x.x.N.E j 8.w.e.5.e.w.w.W b >.MXfXdXqX;X:X0X:X;XrXlXbX8.x U N.x.x.x.x.! h 7.e.:.> * L.w.{ v r.e.e.5.5.5.` ",
"- w.4.S w.5.! k 1.x.x.x.x.N.Y h w.w.e.4.e.e.w.I b K.lXdXyX:X;XqX0X:X;XrXgXbX} x U N.N.x.x.x.T @ 9.5.t.0.q.4.w.X.c r.e.e.5.5.e.L ",
"; w.4.D w.5.! k 1.B.x.c.x.N.E h 8.5.5.2.e.e.W ( v VXlXdXyX:X;XqXrX:X=XqXkXmX1Xx U N.x.x.c.x.R h 8.2.5. .w.5.e.{ v t.e.e.5.5.5.` ",
"; w...R 9.5.Q k 7.x.x.x.c.N.T h Y U E C R Z cX( M VXkXiXeX:X;XqXrX:X=X:XfXmX1Xc T x.x.x.c.B.Q h Y T E C T U G K x w.e.e.5.5.5.` ",
"; w.2.| 5.5.! k 1.N.x.c.x.N.E + N B C x n <X6X@ O.NXfXdXeX:X:XqXeX:X;X:XdXlX1Xx U x.x.x.c.x.E @ M F C k V C c k c r.e.w.5.5.5.L ",
"% 8.4. .e.5.Q h 1.N.x.Z.N.Z.T @ 0.X.q.G 1.2X8XL 8XmXsXaXwX:X:XqXeX:X;X:XtXmX,Xx U c.c.x.x.c.Q @ E 7.=.L 8.7.7.E c w.e.e.5.5.e.` ",
"; w.2. .5.4.W k 1.x.x.Z.x.Z.U h Y.B.S.u.l.3XzX/ 8XmXaXaXeX:XqXrXeX:X-X:XfXmX,Xx U x.x.x.x.x.T @ m.N.M.u.N.N.N.y.c r.w.e.5.5.5.Y ",
"; w.4...4.5.! h -.N.N.B.x.C.E h V.x.Z.u.l.3XVXzXvXnXaXdXeXqXwXrXyXqX-X:XfXmX,Xx U N.c.x.x.x.! @ b.x.Z.u.N.c.x.q.c r.e.w.5.5.5.` ",
"% w.4.2.4.4.! k 7.m.-.Z ;.C.T @ V.x.B.h.c.3XBXCXVXlXaXtXeXwX0XrXrXqX:XqXaXmX1Xx T x.x.x.x.Z.Q h b.N.c.d.Z.c.x.9.v r.w.w.5.5.5.` ",
"% 8.4.8.4.4.! k 7.;.< J.2 a.Y @ N.x.N.h.c.3XBXNXNXlXaXtXrXeXrXtXyXeXqXeXkXMX,Xx T N.N.x.x.B.T h b.x.B.v.Z.c.x.9.v w.w.w.5.5.5._ ",
"; w.w.w.5.w.! k -.^ J.t y / Y z M.x.B.k.x.3XNXNXNXlXaXtXtXyXyXtXtXrXeXeXkXNX,Xk U x.x.x.x.N.E k v.x.N.j.N.c.x.9.c t.e.5.5.5.5.` ",
"- w.w.w.5.5.! k =.:.< y > a.T @ A.x.x.b.B.3XVXmXmXlXaXtXtXtXtXiXpXtXwXyXkXNX1Xk U N.x.x.x.Z.T @ n.x.N.k.x.c.x.9.v t.e.w.5.5.w.L ",
"; w.w.w.5.5.! k =.U.:.^ >.C.Y @ V.x.N.k.B.j.BXnXmXlXfXaXaXaXaXpXpXaX0XyXlXVX1Xx U x.x.x.B.Z.! h v.x.c.k.N.x.x.9.v t.5.w.5.5.5.` ",
"; w.w.w.5.5.! h 0.A.S.A.S.S.Y z V.x.N.x.c.c.BXjXlXlXfXdXaXsXsXhXgXpXrXaXlXVX1Xh P S.S.S.S.S.W h v.x.x.x.x.c.x.9.c t.w.w.5.5.5.` ",
"  w.5.w.5.w. .j J Q ! Q Q =.G h V.x.c.l.c.c.VXjXlXlXkXsXsXsXsXgXjXuXtXaXnXNXK.x F  .! R ! Q J @ b.c.x.n.x.x.l.y.l 9.4.w.w.w.4._ ",
": 4.5.w.w.w. .. O h h O z O O @ n.x.c.x.c.c.s.VXlXhXhXsXsXkXgXjXgXpXtXhXnXBXNXVX. @ l + c + O O v.x.x.c.x.c.x.5.v t...8.w.4..._ ",
". t.4.w.5.w.W k M H [ c ] C Z @ V.z.x.c.c.c.s.VXmXlXlXsXhXhXgXgXgXpXiXhXNXBXVXCXZ F [ v E F C @ b.x.x.x.x.c.x.9.v 0.Q ! X. . ._ ",
"; e.4.4.w.w. .k K 7.8.A t.! Y h n.x.c.c.c.c.Z.F.mXlXnXlXgXgXjXjXjXhXtXjXNXVXVXCXH ! 8.B 8...H h v.l.x.x.x.x.x.9.h G b b N B N N ",
"; 8.4...5.w.! k E 4.w.B 5.2.L h V.x.x.x.c.c.x.D.VXNXNXlXnXjXnXjXbXhXiXlXVXCXCX2XH 2.8.B e.8.H h b.c.x.N.x.c.x.9.# x z O N v v # ",
"; 2.4...5.w.W k E 4.w.F 4.5.L @ V.z.x.x.c.c.x.F.VXVXVXbXbXbXnXnXbXgXpXmXVXCXCX& H 2.4.A t.w.H k b.Z.x.Z.x.x.x.9.c 0.;.z  .T 7.M ",
"; ,.2...w.w. .k I w.w.A 4.8.U h N.x.x.x.B.c.Z.o.BXVXBXMXMXbXbXbXbXgXpXmXzX6XcX# H w.w.A t.e.I h v.x.N.x.x.c.x.5.v S.Y.H Z.h.V.[ ",
"-  .2...w.w.W k I w.w.A 4.9.L h V.x.x.x.c.c.Z.! ~ CXVXCXBXMXMXMXMXhXjXMXD.q.} k G w.w.S r.e.H h n.x.x.c.x.c.x.9.v Y.Y.S Z.l.x.] ",
"% W 8...4.4.! j W 4.4.S 2.4.H k M.x.x.x.x.x.B. .b BXVXCXCXBXMXmXmXnXbX6X .2.0.x G 4.5.S t.8.E h k.x.x.c.c.l.x.9.z S.U.=.y.U.Z.;.",
"$ W 0...2.8.[ k T 4.4.S 8.w.H j V.x.x.x.x.x.N.7.b >.VXCX7XxXBXmXmXmXBXF.8.2.8.x G 5.5.S r.e.H @ b.x.c.x.N.c.x.9.v A.' 2 y ~ m.] ",
"- F G A H L J k I 4.w.S 8.w.L j M.x.x.x.c.B.x.X.b m.3XCXK.u.>.BXMXNX( n H H Y x H 4.5.R w.w.H h b.x.x.x.c.x.N.9.b M., J.f O.;.] ",
"  x h h h @ + h E 4.w.R 2.w.L h M.x.x.x.c.x.N.X.b Z.l.vXK.c.Z.J.BXzX# @ k # @ # A 4.4.| r.e.H @ v.x.x.c.N.c.N.9.v A.^ y t < a.;.",
"$ V G z C v G @ W 5.5.| 2.r.H @ N.c.x.x.c.B.x.1.b Z.l.vX6XK.g.6XnXJ.o.f ~ l L k S 4.5.| 2.e.H k n.x.x.x.x.x.x.9.v C.s.^ ~ ;.C.] ",
"% s.n.A s.y.y.x I 5.5.| 2.w.H h b.x.x.x.x.x.N. .b n.c.d.h.h.b.J.mXK.m.2Xv.,.b.j H 5.5. .8.e.H k v.x.B.x.N.c.n.9.v C.c.l.Y.Z.l.;.",
"$ j.l.A h.d.9.x E 5.5. .8.w.L h V.x.x.x.x.x.x. .v Z.c.c.c.l.8X<XfX5Xs.F l.6.j.h H 5.w.1.2.e.I h z.c.x.B.x.c.x.9.l S.x.l.c.l.c.] ",
"& l.l.A l.l.9.h E 4.5.2.w.w.H h n.x.x.Z.N.x.N.-.n N.c.1XK.*.4X9X0X4Xf y J.2Xj.x U 5.w.2.2.5.H k v.c.c.c.x.c.x.9.l S.c.c.c.x.l.-.",
"& l.l.D N.z.e.k E 5.4.2.8.4.H j C.l.a., ~ m.i.^ >Xg i i $.!.!.%X-X}.~.0 9 0 r (.2X` 2...2.e.H h v.x.x.x.Z.c.x.9.c V.x.x.x.x.x. .",
"& C.h.=.B.x.y.x E 5.4.2.4.4.G j C.m., F.F.> >Xd s 0 p ^.}.}.{.%X$Xg Q.}.`.!.`.p 0 g 2 ( 8.w.H @ n.x.x.c.l.c.x.9.v S.x.x.x.x.z.{ ",
"& Z.h.,.Z.x.e.k E 4.9.w...4.H j m.a.< J.(.%.$.a #X@X#XOX*X=X=X=X-X@XXX.X/.E.}.$Xp a ~.%.>X .( # f.x.x.c.n.c.n.9.v S.x.x.c.x.x.{ ",
"$ c.l.3.Z.c.9.x E 5.5.4.w.4.J j U.m.- /.`.$.i ^.&. X=X$X{.].$X$X$X|.{.$X[.[.^.a i _.~.).&.>Xm h n.x.x.x.c.c.c.9.v V.x.x.x.x.x.Q ",
"& Z.l.3.c.N.9.x E 5.e.5.w.4.P j C.a.(.`.$XQ.$./.^.#X@X!.d oX}./.%X|.E.f d g ].E.p }.%.$X Xi >X# v.c.Z.k.n.x.N.9.c A.x.x.x.x.x.-.",
"& n.l.3.N.x.t.k E 5.e.e.5.5.I j T C &.|.*Xg `.}.+X$X*X{.E.$X&X'.{.{.~.d !.(.~..X$.}.0 $X}./.~.o E R ! H Q Q I ` b N.x.x.x.x.x.] ",
"$ C.k.3.x.N.9.k E 5.w.5.5.2.H @ C m i %X$Xa _.].p ].*X$X&X*X*X$X{.|.|.|.+X|.d d p g 4 $XoX/.Q.o n F C x V F v c l Y.x.x.x.x.x.Q ",
"& n.l.d.x.x.9.x E w.5.5.9.4.U + K M g !.$X~.0 ^.^.+X{.(.OX@X$X$X@XOX&X_.E.|.W.~..Xq 6 #X].g ).o K L L N L H H K b S.x.x.x.x.x.-.",
"$ C.x.d.x.c.9.k E 5.5.e.e.4.H + w.o.i &.].$X!.8 7 Q.{.'.XXXX^.|..X^.[._.(.r %.!.i 9 _.oX~.%./.. 0.w.w.[ e.4.w.{ v A.x.x.c.c.z.Q ",
"& n.x.h.x.c.9.k E 5.e.e.5.4.H j w.7Xr p Q.XX+XW.w 5 e 3 a `.`.g Q.}.a a p 3 e 9 9 !.XX!.&.g i . 8.w.w.! 8.w.e.! v A.x.x.x.x.x.-.",
"$ N.z.k.x.x.y.k E 5.w.e.w.4.H h 8.8Xf 8 s /.)._.}.%.8 4 5 4 6 6 8 5 4 8 7 7 5 q (.`./.g i 6 f # 8.w.w. .e.e.w.! b V.x.x.x.x.c.{ ",
"$ N.x.z.x.x.t.k E w.5.w.w.4.H h 8.' J.s 6 6 r f Q.E.p $.$.r 7 7 5 6 5 q r r t *.%.a u r 4 f M k X.4.5.X.9.e.w.W v V.x.c.c.x.c.] ",
"& N.x.N.x.x.y.k W 5.e.e.9.2.H h 8.4.w.J.f 9 8 6 9 t s t s s f t s s f y t r r s q q 4 4 f } J # w.w.4...w.w.w.W v V.x.x.x.x.l.=.",
"$ V.z.x.x.x.t.k E w.e.w.w.4.H h 8.5.w.8.o.J.g 4 4 7 4 6 t q r w r q w q 7 q 8 8 7 7 #.q f / _ j w.w.5...w.w.w. .n Y.x.x.x.x.x.] ",
"& Z.x.x.x.x.t.x W w.e.w.w.w.I j 0.w.w.w.e.2.{ o.>Xs 4 = 4 6 4 = 7 7 7 7 8 4 4 s >XO.< f < ' _ j 8.w.4...w.w.w.{ v V.x.c.x.x.x.{ ",
"- M.M.Z.C.A.i.k ` w.w.r.r.w.L h r.r.t.8.t.t.r.` M U.H.O.y 2 < = X > > y O.F.J.J.J p.G.} :.p._ k 0.w.w.w.r.r.r.[ M U.C.b.V.V.M.;."
};
