/* XPM */
static char *result[] = {
/* columns rows colors chars-per-pixel */
"64 64 236 2 ",
"   c #5D3A1F",
".  c #6C3D0A",
"X  c #653B24",
"o  c #754302",
"O  c #7B4503",
"+  c #7D4A05",
"@  c #7E4A0B",
"#  c #66421C",
"$  c #6B451D",
"%  c #6D491B",
"&  c #76531D",
"*  c #4F453A",
"=  c #664421",
"-  c #6C4320",
";  c #724A25",
":  c #6D5627",
">  c #7A5928",
",  c #675839",
"<  c #765F32",
"1  c #766136",
"2  c #3B5546",
"3  c #38675C",
"4  c #4B4B44",
"5  c #534B4A",
"6  c #4E5145",
"7  c #4A554A",
"8  c #53534B",
"9  c #58574C",
"0  c #544C54",
"q  c #4C5A58",
"w  c #565A54",
"e  c #644E4E",
"r  c #685A5A",
"t  c #4B685D",
"y  c #576458",
"u  c #72684E",
"i  c #65665A",
"p  c #72685E",
"a  c #6D5D6D",
"s  c #4D6F6F",
"d  c #5A6867",
"f  c #597769",
"g  c #577574",
"h  c #656A65",
"j  c #6A6B64",
"k  c #746965",
"l  c #697569",
"z  c #75776B",
"x  c #6E6A75",
"c  c #677775",
"v  c #787B75",
"b  c #824804",
"n  c #824B04",
"m  c #884E05",
"M  c #844D09",
"N  c #895507",
"B  c #8B5406",
"V  c #86520A",
"C  c #8C530A",
"Z  c #975806",
"A  c #915609",
"S  c #945C0C",
"D  c #9A5D0C",
"F  c #885C17",
"G  c #945C13",
"H  c #995E14",
"J  c #A15D07",
"K  c #9E630C",
"L  c #9D6313",
"P  c #9C6719",
"I  c #A3640B",
"U  c #AA6708",
"Y  c #B36C0C",
"T  c #B86F0C",
"R  c #B8750B",
"E  c #A26413",
"W  c #A96617",
"Q  c #A56A14",
"!  c #AD6D15",
"~  c #A56B1A",
"^  c #AC6D1B",
"/  c #B16E14",
"(  c #B26E19",
")  c #A77016",
"_  c #AE7114",
"`  c #AE721B",
"'  c #B37315",
"]  c #BB7513",
"[  c #BB7B17",
"{  c #B3731B",
"}  c #B9741B",
"|  c #B67919",
" . c #BC791B",
".. c #8B6727",
"X. c #936A26",
"o. c #9D722D",
"O. c #886533",
"+. c #996F39",
"@. c #A56D21",
"#. c #AB6E20",
"$. c #AE7020",
"%. c #A5782A",
"&. c #B57B23",
"*. c #B77924",
"=. c #BB7C23",
"-. c #B37E31",
";. c #C27816",
":. c #C57A16",
">. c #C47D1B",
",. c #CA7E1B",
"<. c #C27E21",
"1. c #926841",
"2. c #857758",
"3. c #AA7B4A",
"4. c #B47E4A",
"5. c #836166",
"6. c #867B62",
"7. c #3D8B79",
"8. c #53856E",
"9. c #4B8A7A",
"0. c #5A8578",
"q. c #6C8178",
"w. c #7E8377",
"e. c #BA8119",
"r. c #BE811B",
"t. c #BB8023",
"y. c #B78229",
"u. c #B78736",
"i. c #C3830F",
"p. c #CA8916",
"a. c #C2821D",
"s. c #CD831D",
"d. c #D18E16",
"f. c #D3871E",
"g. c #D4881E",
"h. c #D6941C",
"j. c #C48223",
"k. c #CC8523",
"l. c #CE8B24",
"z. c #C48529",
"x. c #CB852A",
"c. c #CD8B2B",
"v. c #D38622",
"b. c #D38821",
"n. c #D18629",
"m. c #D28A29",
"M. c #CB9027",
"N. c #D89626",
"B. c #CC8C33",
"V. c #D08D39",
"C. c #CA9439",
"Z. c #D99A32",
"A. c #E19E28",
"S. c #E29E34",
"D. c #DCA43B",
"F. c #E6A224",
"G. c #EAA326",
"H. c #EFAB26",
"J. c #E4A22C",
"K. c #EBA62B",
"L. c #EDAA2C",
"P. c #F0A72B",
"I. c #F3AE2D",
"U. c #F4B02D",
"Y. c #E5A233",
"T. c #EAA634",
"R. c #EEAC33",
"E. c #E5A73A",
"W. c #EDAC3A",
"Q. c #F3AE32",
"!. c #FAAC34",
"~. c #F3AE3B",
"^. c #EDB13C",
"/. c #F5B033",
"(. c #FAB337",
"). c #F4B03C",
"_. c #F9B33C",
"`. c #AD804E",
"'. c #B88447",
"]. c #898774",
"[. c #D59B42",
"{. c #D6A55E",
"}. c #D9A75D",
"|. c #EAAC44",
" X c #F4AE41",
".X c #EEB143",
"XX c #F5B241",
"oX c #CB9C60",
"OX c #D7A762",
"+X c #3DB595",
"@X c #598A85",
"#X c #4B948D",
"$X c #579489",
"%X c #589B95",
"&X c #6B9189",
"*X c #4FAC91",
"=X c #5AA796",
"-X c #63A99A",
";X c #5B9DA5",
":X c #50B4AD",
">X c #69B2B2",
",X c #35D3B6",
"<X c #61C89D",
"1X c #4EC9B2",
"2X c #3BD9D3",
"3X c #39E3CF",
"4X c #37F2EA",
"5X c #57C8C6",
"6X c #4FD3CD",
"7X c #68D6D6",
"8X c #49F1EC",
"9X c #7CFFFF",
"0X c #8E8E8B",
"qX c #939385",
"wX c #969693",
"eX c #A09B9E",
"rX c #A6A69B",
"tX c #AAAFA8",
"yX c #B9BAB5",
"uX c #C0BCB8",
"iX c #BAC4BB",
"pX c #91D7E2",
"aX c #84FBFE",
"sX c #8CFCFD",
"dX c #94FAFC",
"fX c #9BFBFC",
"gX c #A9F6FB",
"hX c #A4FCFD",
"jX c #ABFCFC",
"kX c #B7FCF9",
"lX c #C8CBC4",
"zX c #CDD3C9",
"xX c #D9DCD6",
"cX c #DFE2DC",
"vX c #C7FDF8",
"bX c #D9FDFC",
/* pixels */
"* OXOXOX{.OX'.; 1.`.`.3.4.4.1.- '.'.'.'.'.4.4.+.O.OX{.{.}.}.}.+.; OX}.}.{.{.oX; O.3.4.3.4.3.1.- 4.4.4.'.'.'.4.3.> OX{.}.}.OX}.3.",
"% !.I.I.U.Q.N.o @ N A M S b @ M x.f.f.v.f.f.v.{ A Q.K.P.P.P.G.{ m ~.I.I.I.Q.E.n + N G O G n M O k.g.g.g.b.b.v. .A ~.F.I.P.H.K.=.",
"X Q.I.I.I.U.l.V P e.t.G a._ @.b v.v.b.v.v.v.f.{ A S.l.Z.N.Z.N.P n ).P.P.I.Q.S.V ~ { a.Z j._ ~ + n.v.g.g.v.v.v. .C S.l.m.S.N.N.%.",
"% ~.I.I.I.U.b.V ' Y.|.@.|.S.{ n v.v.v.f.g.f.f.' M W D H L E D P m ~.I.H.I.I.Y.m _ J.^._ /.F.[ + <.v.b.b.v.v.v. .M ~ H G H J D X.",
"$ L.L.H.Q.I.l.n | u.< 2.1 [.$.n k.v.v.f.g.f.v.( O C V + G B C @ + ~.Q.K.Q.U.Y.n _ L.R.R /.U.| b n.f.b.v.b.b.v. .n C G O H A G @ ",
"% J.I.G.Q.I.l.+ t.X.].].6.%.` n v.f.f.f.g.v.v.( C N.M.I N.e.Z.S M T.Q.K.Q.U.Y.B _ L.H.R ).U.' + k.f.g.g.b.b.f. .N =.=.C <.( *.G ",
"% J.L.G.I.Q.l.V j.%.u z , u.{ n v.v.b.g.b.b.n.;.G R.Y.[ Q.F.Q.Q m Y./.F./.I.Y.n ! I.U.R ).U. .+ k.f.f.g.f.g.f. .N m.m.J b.,.v.#.",
"= A.R.G.Q.I.l.n j.D.%.< o..X_ b v.f.g.b.g.b.,.} S Q.T.e.I.H.I.Q n A.P.A.U.I.Y.n ' I.I.e.)./.| n k.f.f.f.g.g.f. .C m.m.J v.f.v.@.",
"$ N.L.F.Q.Q.M.V r./.).M.W./.{ n k.f.v.b.b.g.v.;.S R.L.M.I.I.U.` M N.L.h.U.Q.Y.C / Q.Q.i.~./. .n s.g.g.g.b.b.f. .B l.x.U b.b.f.$.",
"# N.T.A.R.R.M.+ r.Q./.i.L./.' n v.v.f.g.b.g.,.} D R.L.h.H.I.Q.~ n m.R.h.T.K.Z.V / I.I.p.Q.Q.' + v.g.g.g.g.b.f. .C v.m.T b.b.b.^ ",
"= Q ' Q ` ` ! n j.Q.Q.d.L./.{ n k.b.g.g.g.g.b.} S U.K.h.I.L.I.` M K { I ^ { { V / I.I.d.R.Q.| n k.v.g.b.b.g.v.} C l.b.] b.g.b.$.",
"  b + o + o . + a.Q.I.d.L./.{ n k.b.g.g.g.g.b.} S /.I.A.U.U.I.` o b M O O o o + / I.I.h.R.U.} n <.f.b.b.g.b.v. .C m.v.:.b.b.v.$.",
"X J ^ m P C E M a.!.U.h.K.U.` + l.v.f.g.f.f.v.} S R.R.K.I.I.I.bXvXI } m W m #.M / I.I.h.Q./.| + v.v.v.v.f.b.f.;.C v.v.,.g.b.g.$.",
"$ [ v.Z >.] *.n j.Q./.h.K.R.` + k.g.g.g.g.f.v.{ S U.H.K.I.I.Q.kXkX .v.Z >./ j.M ' Q.I.A.R.Q.[ n k.v.f.f.f.f.g. .C v.v.,.b.g.b.$.",
"# ,.s.Z ,.:. .n a.Q.I.F.H.Q.` + n.g.b.g.g.b.v.} S R.U.U.U.I.Q.kXkX,.v.J s.;.k.m _ Q.I.G.L.Q.{ + k.f.m.&.*.k.v. .C n.v.v.b.g.g.#.",
"# s.f.J k.,. .M <.Q.I.G.L.Q.' b v.g.g.b.b.g.b.| S R.U.U.I.I.Q.jXkXs.v.Z s.,.x.M _ I.I.L.K.Q.| b >.m...< < u.v.=.C m.b.b.g.b.b.$.",
"$ k.s.U f.s. .M j.Q.I.H.K.Q.` b k.g.b.g.b.b.b.} S U.U.U.U.U.Q.hXkXv.b.J v.v.<.V ` Q.I.I.L.I. .n s.z., rXz : B.*.C m.b.b.g.b.f.#.",
"# b.s.Y v.s. .n a.!.I.I.H.Q.{ b l.g.g.b.g.b.v.} S R.U.U.U.L.Q.hXjXn.b.U v.v.x.M ' Q.I.P.L.U.' n s.B.< z 9 F c. .C m.v.b.g.b.g.#.",
"- v.v.Y b.v. .M a.Q.I.I.L.Q.{ n k.f.b.f.g.b.v.} S R.U.U.U.U.U.dXhXx.v.U v.f.x.C ! /./.I.P./. .n j.m.u.: & [.v.*.A m.v.g.g.g.g.$.",
"= b.s.T b.v. .n a.I.I.U.I.Q.` n v.v.b.f.b.b.b.( S L.U.L.U.L.I.sXfXm.v.U v.f.<.V _ I.I.I.I.I.' + k.b.b.z.n.f.v.<.C n.b.b.g.g.b.^ ",
"- v.f.T b.f. .M a.!.I.I.I.Q.{ n k.f.g.s.b.v.f.( S R.U.I.I.I.I.aXdXl.b.Y v.f.<.m ' Q.I.I.I.I.;.+ a.g.f.>.b.g.l.*.C v.b.b.g.g.g.{ ",
"# f.s.;.l.f.[ M j.I.I.U.I.Q.' n ` ` { L ] { E W G R.U.I.I.I.I.aXsXx.v.T v.f.n.m _ I.I.I.I.U. .n ` ' { L ' ' Q ` C m.v.b.g.g.v.#.",
"= v.s.] v.f. .M a.Q.I.U.I.Q.{ + D J P V S Q n n G R.U.I.I.I.I.9XaXn.v.] v.g.j.B ` I.U.I.I.I.| M G L L M D L N n V n.v.b.g.g.g.#.",
"- v.f.>.b.f.[ n a.Q.I./.Q./.' + <.j.c.Q a.j.a.! S R.I.U.I.P.U.aXsXn.v.[ v.v.k.M ' U.I.I.I.I.| O | j.r.^ k.j.j.{ C m.b.g.g.g.g.$.",
"- v.s.>.g.f.} n j.Q.U.Q.I.Q.` b  X!._.N.L./.R.j.S R.I.I.I.I.I.aXdXv.b.:.g.g.k.m ' I.I.I.I.I.' + E./.R.N.Q.Q.Q.M.C v.g.b.g.g.g.^ ",
"- v.f.,.f.f. .M r.Q.Q.!.I.^.' n ~.Q.(.N.Q.U.I.[ S R.I.I.I.I.bXsXfXv.b.:.g.g.<.C ! Q.U.I.I.I.[ + T.Q./.N.Q.U.U.m.A n.v.b.g.g.g.$.",
"$ v.f.s.f.g.} M t.E.t.P y.^._ N ~.I./.G.Q.U.I.[ S R.U.I.I.I.vXsXfXv.f.:.f.f.x.m ' I.Q.I.I./.[ + T.I.!.A./.U.Q.l.C n.b.b.g.g.g.#.",
"= k.f.k.f.f. .M j.y.1 ].1 C.` + ~.I.Q.F.Q.I.U.r.S R.I.U.I.U.vXhXgXn.f.,.b.f.x.m ' Q.I.I.I.!.' n T.I./.Y./.U.I.l.A n.b.b.g.g.g.#.",
"- v.v.b.g.g. .M t.X.].i u o.` + W.I.!.K.I.U.I.r.S Q.U.I.I.I.vXjXjXv.g.f.f.g.k.m ' I.I.I.I.Q.} M Y.I.U.J.Q.U.I.l.A m.b.g.g.g.g.$.",
"X v.b.v.g.g. .M e.u.1 u : [.e.+ ).I.Q.L./.I.I.a.H Q.I.U.I.I.vXjXgXv.b.v.f.g.x.m ' I.I.I.I.Q.| O T.Q./.K.I.I.I.l.A m.b.b.g.g.b.^ ",
"% v.v.v.g.b. .M r..Xu.X.u..Xe.+ ~.I.I.L.I.U.Q.a.S ~.I.I.I.U.vXhXhXv.g.v.g.g.k.M / Q.I.I.I.Q.| n Y.I.U.K.I.I.I.l.A n.b.v.g.g.g.$.",
"- v.b.v.g.g. .n z.).(.)._._.) + ~.I.!.P.U.I.I.a.S Q.I.I.I.L.vXhXhXx.g.b.g.g.j.M / XX_._.(._. .n T.I.I.L.I.I.I.l.A n.b.b.g.g.g.#.",
"$ v.f.b.v.v.} m Q [  .| r.| Q n Q.I.Q.Q.I.U.Q.>.S R.I.U.P.I.vXhXhXm.g.f.f.g.k.m I >. .} [ [ Q M Y.I.I.Q.I.I.I.l.C m.v.v.v.f.v.#.",
"- v.f.f.v.v.;.. o b n o N o o + T.I.I.U.U.U.I.a.S L.K.!.R.L.vXkXsXk.g.m.b.g.k.O . + N O C O o o Y.P.I.I.I.U.I.p.A m.,.k.v.f.,.#.",
"X g.f.v.v.v.=.M G W *.C *.K P + ~.I.U.I.U.U.I.a.S Z.g.N.N.A.kXkXsXc.b.j.k.v.k.m L W *.A { E P + T.Q.I.I.I.I.I.l.C M.'  .<.;.;.#.",
"% b.f.v.g.v.;.M ^ j.v.E m.[ ` n W.I.I.U.U.U.I.a.M U Z D D D kXhXsXc.o.: & B.x.m ! =.k.J v.:.! n Y.L.I.I.I.U.I.l.V Q S S E H D H ",
"$ k.f.,.f.b. .M { s.m.I g.s.` + ~.I.I.I.I.I.!.r.O A V @ S B kXfXdX'.2.tX6.> j.M ! s.s.J m.k.! n T.U.I.I.I.U.I.l.+ V F o H C A @ ",
"- ,.f.,.v.v.;.M { f.v.J g.s.^ n W.P.I.I./.I.U.r.V z.*.S a.Y kXdXfXu.2.z r F j.m ! s.v.U b.g.^ M T./.Q.I.I.I.I.l.C z.y.N <.] <.G ",
"$ a.s.,.v.f.} M } g.v.I g.l.! n Q.I.I.I.I.U.I.a.S Q.E. .I.F.kXsXfXC.O.1 : u.x.V ! v.f.U m.b./ n Y.Q.I./.I.U.I.g.A _.XXU Q.K.~.&.",
"X >.f.:.v.n.;.m ( g.m.I f.k.` b ~.I.I.I.U.I.I.a.S Q.J.e.I.H.I.sXfX>.V.y.B.m.x.M ! b.f.U m.m.^ n R.I.I.U.I.U.I.l.A  XXXY /.L.L.&.",
"$  .k.,.f.v.;.M { f.f.Y f.k./ M ~.P.I.I.U.U.I.<.S Q.L.d.L.I.I.sXhX} s.:.s.s.k.V Q g.g.Y m.v.^ n J.I.I.I.I.I.I.l.B ).^.e.M.W./.t.",
"# [ k.>.,.k.*.M ' f.f.Y f.v.^ n ~.I.I.U.!.U.!.>.S R.R.d.H.I.I.dXjX} k.[ k.s.z.V ! g.g.Y v.v.! n R.U.I.U.Q.U.I.l.Z ).%.1 u O.E.&.",
"# I Q E ! ! W M ( f.v.T k.v.^ n W.P.I.I.I.I.Q.a.S Q.L.h.U.U.U.dXgXD ! J Q W $.V ! g.g.T v.m.^ + T.I.I.I.I.U.I.l.A  X> qXz 6.u.&.",
"  N N + n + O @ { f.f.T s.v.^ n W.I.I.I.U.I.Q.j.S ^.U.F.I.I.I.dXgXb B + N @ + @ U g.g.] k.v./ M Y.I.I.U.Q.I.R.l.A ).X.u p : C.y.",
"# K ) n L A L n { f.f.;.s.m.! b ).I.I.I.I.U.!.j.S ^.L.F.I.I.I.fXkXL ) m ) M ` + _ g.g.;.k.g.! n R.I.I.I.I.U.Q.l.C ^.Z.X...%.^.&.",
"$ Z.R.U Z.M.M.V | f.f.,.s.v.^ b R.P.I.I.I.I.Q.>.S R.U.H.I.P.I.gXjXZ.).L T.p.Y.n / g.g.>.k.b.^ n Y.I.!.I.I.I.Q.l.C ^.U.R.)./.L.t.",
"# J.L.U J.h.M.B { f.f.>.s.b.^ b W.I.I.I.I.I.Q.>.S R.I.P.I.I.I.hXgXS.~.I T.d.J.n ! f.f.,.s.b.^ M Q.I.I.!.Q.U.I.l.S ).H.H.U.L.U.&.",
"% L.L.Y L.H.M.M { f.v.s.v.v.! n R.I.I./.Q.I.Q.a.S Q.I.xXuXeXwXpX>XwXwXtXzXxXZ.N _ f.v.s.s.g./ n Y.I.I.I.I.U.I.l.Z ).U.U.U.U.L.t.",
"% U.L.R Q.P.l.N { s.v.s.s.v.! n /.R.C.F P D.Y.xXuX].q t 8.g d 7X6X%X$X3 0 w d wXlXv.g.s.,.f.( M Y.I.I.I./.U.I.l.A ).U.U.U.I.H.>.",
"# ^.F.e.!.I.l.V { g.f.s.s.v.! n ^.D.: ].2.lX0Xh 5 4 t q.q.@X-X7X-Xx @X-Xs #X%Xh w z rXcXs.v.^ b R.I.I.I.U.L.Q.k.A ).U.I.!.I.I.*.",
"% /.H.i.!.I.l.V { b.b.f.f.f.! b W.C., qXwXy u d :X5X:X0.7X8X4X8X8X2X1X;X4 x =X1Xt e p y iXb.( b K.U.I.I./.U.Q.k.A _.I.I.I.I.H.t.",
"# /.H.p./.U.l.M { b.g.b.f.f.W b ^.E.& 0Xj l t %Xq.&X2X3X=X$X5X6X6X>X1X5X:X=X8.d $X#Xd z p yX( n R.U.I.P.U.U.L.M.A ).P.I.I.I.I. .",
"% R.H.p./.Q.l.V { b.b.g.v.f.! b W.Q.eXh l g x x y #X4Xa a :X=X&X>X>X&Xl h $X@Xi x 6Xx u p l zXn Y.I./.J./.Q.Q.l.A ).U.H.I.I.I.=.",
"$ R.H.h.I.Q.l.M { g.g.b.f.f./ n | ] v z q.$X9.#X<X:X3X=Xc >X:X>X:X+Xc j 0.8.g *Xx :X$X0.p h wXn { ] [ ^ [ ] ' $.S ~.I.I.I.I.I.t.",
"# /.L.h.Q.Q.l.M { f.g.b.g.f.! + L E z y &X7.@X;Xk x 3X5X,X1X6X6X:X=X=X%X%X%Xa e g c 9.$Xh h 0X+ L E L V L L A C B XXI.I.I.I.I.| ",
"% R.L.N.I.I.b.V { v.b.g.g.f.) + W ! ].l 0.=X7 *X%X:X;Xk g 2X@X$X;Xg :Xj j *Xg $X+Xw c k x z 0X+ L ^ ~ H ^ ! / ~ A _.I.I.I.I.I.t.",
"# Q.P.A.I.I.l.M { f.f.b.b.g.! O l.zXj j f &X9.7 q @X=X#X1X1Xc s -Xg @X%X&Xt h #X7 0 0.z k j v @ k.v.v.*.m.k.v. .S ~.I.U.I.H.I. .",
"% R.U.F.I.I.M.M { f.b.b.g.f.! n k.lXi i l f q.*X5 0 w s d $X=Xf *X*Xd h s 8 3 8 r h f f j w v + z.v.v. .k.v.v.} S ~.I.I.I.U.I.t.",
"# ).I.K.P.I.M.M { f.v.b.v.f.! n s.cXz * i j k q.:Xs q 7 7 q 5 e 7 5 7 8 6 y e q l k 5.i 7 8 lX@ k.v.b.>.b.b.v.=.A ~.I.I.I.I.I.=.",
"# R.I.I.I.I.m.m { v.g.b.b.f.! b l.g.lXz 4 6 y h p v 0.9.f y 7 8 8 9 7 q i i i l t y 9 4 w yX! n k.f.b.>.b.f.v.=.A ~.I.I.U.I.I.&.",
"% Q.I.Q.I.I.M.M } g.b.b.b.b.! n k.f.m.lXw.7 , * q d l i k z f j i j p 5.5.k y r 8 w 2 w yX-.^ b <.g.g.,.v.b.b.;.A ~.I.I.I.I.I.| ",
"# ~.I.I.I.I.l.M ( g.b.b.v.s.! b k.f.v.k.s.yXc 8 * 7 8 w w 9 y w y y 9 y y 9 8 8 6 r qXxX6.o.#.b v.b.g.,.v.v.b.;.A _.I.I.I.I.I.&.",
"$ Q.I.I.I.Q.m.M } v.b.b.b.v.! n x.v.v.v.f.f.v.xXrXy * 4 6 6 4 4 6 9 8 6 4 4 6 z tXxX, z , -.#.b n.b.f.,.n.v.v. .A  XL.U.I.I.Q.t.",
"= .XQ.R.).^.B.M } n.v.m.n.n.^ n x.n.n.k.m.m.m.$.F |.W.yXwX0Xw.z z z q.0XrXyXlXV ! V.'.o.4.V.#.M <.n.v.v.n.n.n.*.G .X^.W.~.~.~.&."
};
