/* XPM */
static char *result[] = {
/* columns rows colors chars-per-pixel */
"64 64 255 2 ",
"   c #6A3F0B",
".  c #5D3C25",
"X  c #794606",
"o  c #7D4A05",
"O  c #66421C",
"+  c #6B451D",
"@  c #6D491B",
"#  c #764E10",
"$  c #534B3B",
"%  c #664422",
"&  c #6C4320",
"*  c #73552E",
"=  c #746335",
"-  c #534D4B",
";  c #485548",
":  c #56554B",
">  c #4A5757",
",  c #585955",
"<  c #655151",
"1  c #556758",
"2  c #6C6B52",
"3  c #515863",
"4  c #615062",
"5  c #596965",
"6  c #48726E",
"7  c #57746A",
"8  c #577674",
"9  c #676C66",
"0  c #697365",
"q  c #73706B",
"w  c #657979",
"e  c #854A03",
"r  c #824B04",
"t  c #844D09",
"y  c #8B5508",
"u  c #8E540A",
"i  c #93590B",
"p  c #955809",
"a  c #8C5915",
"s  c #945D14",
"d  c #A15C06",
"f  c #956211",
"g  c #9C6315",
"h  c #A96608",
"j  c #B36C0B",
"k  c #B7740A",
"l  c #A46917",
"z  c #AC6D16",
"x  c #AB6D1B",
"c  c #B26E18",
"v  c #AD7119",
"b  c #B4721B",
"n  c #B97618",
"m  c #BC791C",
"M  c #936824",
"N  c #8E6D33",
"B  c #A56D21",
"V  c #AB6E20",
"C  c #AD7020",
"Z  c #A77729",
"A  c #B57923",
"S  c #BB7C23",
"D  c #A37939",
"F  c #C47916",
"G  c #C57C1C",
"H  c #CB7E1B",
"J  c #C27C22",
"K  c #8A714C",
"L  c #A97B49",
"P  c #B47E4A",
"I  c #827A62",
"U  c #3E8F7B",
"Y  c #6C865F",
"T  c #508973",
"R  c #578679",
"E  c #66887A",
"W  c #728C74",
"Q  c #BB811E",
"!  c #BB8023",
"~  c #B7822A",
"^  c #B78836",
"/  c #BF9136",
"(  c #CB8A13",
")  c #C3821E",
"_  c #CD831D",
"`  c #D18E16",
"'  c #D3861E",
"]  c #D4881E",
"[  c #D19017",
"{  c #C38122",
"}  c #CC8523",
"|  c #CE8B24",
" . c #CA8829",
".. c #D38722",
"X. c #D38821",
"o. c #D1862A",
"O. c #D28929",
"+. c #CC942B",
"@. c #D69627",
"#. c #C89435",
"$. c #D09332",
"%. c #E19E2B",
"&. c #DCA43B",
"*. c #E5A42C",
"=. c #E9A528",
"-. c #EDAA2C",
";. c #F0A72B",
":. c #F3AE2D",
">. c #F4B02C",
",. c #E6A435",
"<. c #EDAB35",
"1. c #ECAC3A",
"2. c #F3AD32",
"3. c #F4AE3B",
"4. c #EBB03A",
"5. c #F4B136",
"6. c #F4B03C",
"7. c #9C8354",
"8. c #B68447",
"9. c #B39045",
"0. c #AF8F53",
"q. c #908C6F",
"w. c #A6966C",
"e. c #AEA373",
"r. c #D29B4C",
"t. c #D8A65D",
"y. c #EEAF43",
"u. c #F3AD41",
"i. c #D7A762",
"p. c #687D81",
"a. c #3CB197",
"s. c #508E8C",
"d. c #57978A",
"f. c #579895",
"g. c #6A8E8C",
"h. c #639696",
"j. c #4FAB9B",
"k. c #59A696",
"l. c #69AB94",
"z. c #6394A1",
"x. c #5AA9A8",
"c. c #4AB7A4",
"v. c #57B2AF",
"b. c #4CBAB5",
"n. c #6FADAC",
"m. c #66BAB8",
"M. c #35CFB7",
"N. c #4CCBB8",
"B. c #70C6B5",
"V. c #7DB6C1",
"C. c #3CCFC7",
"Z. c #3FE5C6",
"A. c #3DE5D8",
"S. c #3CEEEA",
"D. c #49D6C6",
"F. c #50D2CC",
"G. c #70D2CF",
"H. c #4CE6D7",
"J. c #76E5D6",
"K. c #4FEAE7",
"L. c #4BF5E7",
"P. c #4CF5EB",
"I. c #54F6EC",
"U. c #58F7EA",
"Y. c #4CF6F4",
"T. c #44FBF7",
"R. c #4DF9F5",
"E. c #4DFBF9",
"W. c #53F7F6",
"Q. c #5DF6F3",
"!. c #54F9F5",
"~. c #5BFAF5",
"^. c #53FAF9",
"/. c #5CFAFA",
"(. c #6FEAE4",
"). c #63F6EC",
"_. c #6CF5ED",
"`. c #68F9EB",
"'. c #78F6E6",
"]. c #73F6ED",
"[. c #7BF6ED",
"{. c #74F9ED",
"}. c #7AF9ED",
"|. c #64F6F4",
" X c #6CF6F3",
".X c #62FAF4",
"XX c #6BF9F5",
"oX c #6CF7F9",
"OX c #64FAF9",
"+X c #6BFAF9",
"@X c #75F6F2",
"#X c #7CF6F3",
"$X c #73FAF4",
"%X c #7BFAF5",
"&X c #76F6F9",
"*X c #74FBF9",
"=X c #7BFBFA",
"-X c #87A688",
";X c #A0A38B",
":X c #8AAEAD",
">X c #ADBAAA",
",X c #84C3BA",
"<X c #B3C8B4",
"1X c #90D4D2",
"2X c #ADD2D1",
"3X c #8FE2DD",
"4X c #ABE5D6",
"5X c #91DEE5",
"6X c #88EAE5",
"7X c #99EAE9",
"8X c #87F8E6",
"9X c #83F6EC",
"0X c #8BF6EC",
"qX c #83F9ED",
"wX c #8BF9ED",
"eX c #99F7EC",
"rX c #94F9EE",
"tX c #84F6F4",
"yX c #8BF5F3",
"uX c #84FAF4",
"iX c #8CFAF4",
"pX c #89F7FA",
"aX c #83FBFA",
"sX c #8BFBFB",
"dX c #93F6F3",
"fX c #9AF6F2",
"gX c #94FAF4",
"hX c #9CFAF4",
"jX c #98F6FB",
"kX c #93FBFB",
"lX c #9DFBFA",
"zX c #AFEBE8",
"xX c #A7F8EE",
"cX c #B7F6ED",
"vX c #A4F6F3",
"bX c #AAF6F3",
"nX c #A4FAF3",
"mX c #ABFAF3",
"MX c #A3FBF9",
"NX c #ACFBFA",
"BX c #B5F7F5",
"VX c #B3FAF4",
"CX c #BCFAF6",
"ZX c #B4FBFA",
"AX c #BBFBFA",
"SX c #C8E5DA",
"DX c #C9EAE5",
"FX c #CAF2EA",
"GX c #C8F7F6",
"HX c #C4F9F6",
"JX c #C4FBFB",
"KX c #CBFCFB",
"LX c #D4FCFB",
"PX c #DAFBF9",
"IX c #E1FBFA",
/* pixels */
"$ t.i.i.i.i.8.* N P 8.L L P K & 8.8.8.P 8.8.P L * i.t.t.t.9.0.= % 0.0.t.t.t.r.* N L L L L L K & P P P 8.8.8.P L * i.t.t.t.t.t.L ",
"+ 2.:.:.>.2.@.X o t p e s e e e } ] ' X.] ] ..b p 2.=.*.e.4XmXxXvXmXCXe.+.<.&.X X y s e i t r X _ ' ] ] ....X.G p 3.=.-.;.;.=.S ",
". 2.2.:.:.>.| t g S { s { z B e o.] ..X.X...] b u FXDX4XrX'.`.'.9X8XeXxXcXFXe.X f v Q p { j x o ..] ] ] ......m u ,.} @.%.@.@.Z ",
"@ 3.:.:.:.>.| t b ,.y.M y.%.b e X.....X.X.] H N 2XmXMX[.'.8X8XeXxXeXxXxXxXvXbXAX2X9.9.k 3.=.n r J ............m r l s s g g d M ",
"@ -.;.;.:.:.| r A ^ = K = r.c e } ..X.] X.7.<XCXvX9X_.].gXmXGXPXPXGXCXVXbXlXiXrXnXVXKX7.4.>.n e o.X.X.X.X.X...m t u i X s u s t ",
"+ *.-.=.2.:.@.o J M q.W I D v e } ' ' C LXAXNXgXqX'.9XeXmXGXPXPXPXcXVXcXVXBXVXeXeXeXmXZXJX<Xl r } X.] ] X.X.' m y S S p J b S a ",
"@ *.-.=.:.2.| t J D 2 q * ^ b r } ' Z DXAXVXfX9X[.9XfXcXHXPXPXIXPXFXcXxXxXeXvXvXeXeXnXxXVXJX<XX J ] ] ] ] ] ] m y o.O.d o.H H V ",
"& %.:.=.2.:.| r ) &.Z = D 4.z e ..b GXCXnXgX0X'.'.rXVXGXPXPXPXIXPXGXHXVXxXxXbXbXvXeXrXrXeXxXKX2XJ ] ] ] ] X.] F u } O.d ......V ",
"@ @.=.=.2.2.+.t ) >.6.+.<.2.b X 7.FXHXvXkXyX9X9X0XmXJXLXKXHXcXcXmXxXxXmXcXcXcXnXnXeXrX8X0XrXxXCX>XF ] ] ' X.' m u | o.h ' ] ' C ",
"O @.*.%.<.<.| o Q 2.<.( -.>.v X KXGXZXjXiX}.9XfXVXJXGXJXCXvX0X9X'.'.qX8XrXeXeXeXgXgX0X9X9X0XeXmXKXSX] ] X.' ' m p } O.j X.X.X.V ",
"% l v z v v l t { 2.2.` -.5.M = GXAXnXdXtX[.9XvXHXHXVXfXrX9X[.@X$X`.{.}.qX8X0X0XiXiXqX}.}.9XwXeXAXKX] ..X.] ..m u | O.F ] X.X.x ",
". r o X X X X o G 2.:.[ -.2.>XKXGXNXkXtXqXuXyXVXGXbXfX#XtXyXtX#X$X@X#X#X0XwX8X8XqX}.}.tX{.'.{.wXvXAXw.X.] X.' m u } X.F X.X.X.C ",
". d x e l y g o _ 2.:.[ *.2.>XJXBXhXqX[.[.uXMXJXbX6XyXfXrXqXuX0XdX}.@X].tXfXeX0X8X}.#X#X`.{.'.qXfXNXLXD ' X.' G u ....H ] ] X.x ",
"+ F ] p G n m t ) 2.:.@.-.#.4XBXhXqX].].9XfXAXJXdX'.fXrXgXrXrXdXyXgXqX}.].tXgXrXwXqX}.].`.`.`.{.tXhXFX>X_ ' ' m u ....H X.X.o.b ",
"  _ _ d H F n t { 2.:.=.-.9.KXNXgX[._.].yXbXCXVX0XuXlXfXyX{.$X%XyXdXdXwXuX%XuXrXrXqX].`.).).U.`.}.iXHXLXz } ' m u o.X...] X.] V ",
"% _ _ d } _ n t J 2.:.=.-.8.AXvXyX].).].fXCXCXgXtXiXdX#X#XXXXX.X.X_.tXgXgXiXyXhXyXqX].).).U.U.)._.}.VXHX2 ^ o.S y o.X.X.X.] X.C ",
"+ } _ h ' _ m r { 2.:.-.;.9.mXiX%XXXXXuXnXGXcXwX#XuX#X|.Q.!.^.~./.Q. XuXgXeXrXrXrXqX{.`.U.I.U.I.).`.lXJXDX*  .S u o.X.X.X.X.] C ",
"O O._ j ..' m t ) 2.:.:.;.9.lXuX#X X&XdXVXJXmXuX#X#X$XXX*X+X+XOXOX|.|.+XuXgXfXrXrX0X{.).Q.I.L.I.U.`.dXAXDXa #.b u ..X.X.' ] ] V ",
"+ ..} j X.X.m r ) 2.:.:.=.<XgX#X_.@X#XhXAXCXnXqXuXpX=XpXtX=X&X@X X+X!.!.XXaXhXkXrXwX}.XXQ.I.P.L.U.U.yXZXSXr...S u o.o.' ] ] ] C ",
"% ..' j X.X.n t ) 2.:.>.=.CXgX]._.].pXMXAXNXrXqXkXlXsXtXaX#X#X@X@X&XQ.R.~.&XdXgXeXrX}.`.!.!.R.L.I.I.}.MXGXw...J u o.X.X.] ] X.x ",
"+ ..' k X...n t G 2.:.:.0.AXiX@XXX#XyXMXNXMXgXrXhXMXkXtXqXuXqXtXuXtX$XOX/.OX%XhXhXrXuX].Q.!.Y.L.L.I.`.gXHX<X! S p o.X.X.] ] ] x ",
"& ' ' n X.X.m t _ 2.:.>.DXBXuXXXXXuXyXMXMXMXMXhXbXfXpXyXyXgXkXhXhXyXuX&X+X~.$XMXnXrXuX@X/.^.P.L.L.L.`.gXCXPXa C u o.X.X.] ] ] C ",
"O .._ F ] ] m r ) :.>.:.DXhXtX%X].%XaXsXhXvXmXMXpXtXqXnXnXnXmXnXMXvXhXuX@X XXX%XxXnXqXXXQ.W.Y.T.L.L.L.uXAXKX# r e o.X.X.] ] ] C ",
"& .._ G X.] n t ) :.>.:.cXhXuX%X_.%XuXkXjXMXMXsX=XtXfXxXnXvXnXlXhXhXgXkXsXaX$X#XnXnXuXXXQ.Y.Y.T.L.L.U.uXAXKXZ v y o.X.] ] ] ] C ",
"O ..} G ' ' n t ) :.:.e.JXhXuX&X$XiXlXMXlXlXkX=X$XwXNXmXxXnXfXiXuX%XtXpXkXsX=XtXhXnXwXXX^.^.T.T.L.L.L.uXZXKX$.O.u o.X.X.] ] ] x ",
"& ..' H ' ' m r ! 2.2.e.CXlXuX#X%XlXZXZXMXkXaX%XqXhXcXcXmXnXyX%X+X.X@X%XtXaXaXtXhXxXwX.XE.E.T.T.L.L.L.qXNXGX$.@.u o.X.X.] ] ] C ",
"+ ..' H ] ' m t J 1.! q.CXhXuX@X@XlXAXZXlXaX%XtXrXxXcXmXmXgXuXOX/.oX*X=XuXiXsXtXgXxXgX.XE.T.T.T.Y.I.L.qXZXJXDX@.u o.] X.] ] ] C ",
"& } ' ..] ] m t { A * -XCXMXsX_..XiXnXMXsX*X%XwXxXVXVXVXnXyX&XOX/.=X=X&XaXhXpXuXhXxXyX.XR.E.T.T.P.L.L.#XNXKX;X| u X.X.] ] ] ] V ",
"& } ....' ' m t ~ N q.g.HXVXkX{.$XpXkXaX*X=XiXrXxXmXVXVXMXuX$X+XoX=XtXtXiXkXsXiXnXxXwXXXR.T.T.Y.I.L.U.}.MXHX$.| u O.X.] ] ] ] b ",
"& ..X.X.] ] m t { ~ = g.CXZXkX{.+XdXkXaX*X%XwXgXxXmXcXZXnXiX%X+X+XtXjXlXlXjXsXgXnXmXiXXX!.T.T.R.I.L.U.#XvXKX+. .p o.X.X.] ] ' V ",
"& } X.X.] X.m t ) y.^ q.HXZXMX[.XXpXjXaX*XaXiXrXnXmXcXVXmXlXuX$X+X&XtXkXsXtXuXMXmXvXiXXX!.T.T.E.I.L.).%XNXLX+.| u o.X.X.] ] ' C ",
"& ....X.] ] m r { 6.5.e.GXAXMXqX.XyXjXsX=XaXgXrXhXmXmXVXVXMXkX=XXXXXXX%X=XuXyXnXmXvXaXOX!.E.T.R.I.I.).qXbXGX$.X.p O.X.X.] ] ' V ",
"& ......X...G e l n n w.KXJXNXqX|.pXlXkXsXyXrXgXhXmXmXcXAXNXlXpX#X&XOXXX%XkXMXmXmXlX%XOX!.E.T.R.I.I.`.uXNXe.:.[ y  ._ X.] ' X.x ",
"& ..] ..X.H J   X e e   SXGXAXgX|.XXjXkXaXkXkXpXgXeXxXVXmXVXvXfXpXdXsXiXgXhXnXnXMXkX$X!.E.E.E.I.I.U.].gXJXe.:.] u O._ | ....H V ",
"  O.' H ] ..A e i l b u ;XKXAXnX|..XpXsX=XsXsXiXkXeXmXVXBXVXNXMXlXhXhXlXhXMXnXnXgXuX+X~.^.^.^.!.I.I.$XnXKXe.:.| u  .n m J J G V ",
"& X.' ] ....G t x { ..g } LXJXVX@X).=X=X=XaXuXuXaXhXMXmXVXVXVXmXMXmXnXnXnXmXmXhXuXXX~./.E.E.^.!.U.).uXmXFX+.:.| t l i i g d s s ",
"& } ' H ' X.G t b ' O.h ) SXKXAXuX`.$XXX*XaXuX=X%XsXgXMXnXmXmXmXNXmXmXmXnXnXhXgX&X~.~./.^.R.!.~.`.`.kXBXDX:.:.| X a y X p y u t ",
"& ' ' H ' X.m e b _ o.d ' D LXKXMX`.$XXX=XkXaX*X*X*XiXgXhXlXbXmXmXnXmXvXhXgXuX*X*XOX~./.R.!.!.).`.`.MXJX0.:.:.| u ~ ~ y } n { a ",
"+ _ _ H X...m t c ' ..h ] D LXLXZX{.XX+X$XkXsX*X+X+X$XsXkXfXhXMXMXMXlXhXkXuX$XOX+X+XOX!.R.Y.Q..X@X{.NXKX-.>.:.] u 6.u.j 2.*.2.A ",
". F _ H X.X.m t c ..o.h ' O.>XLXKXiX_.aX*X$XaXaXOXOXOX$X&XtXtXaX%XuXuX%X*X*X+XOX$X%XXX~./.I.Q._.[.kXJXLX*.>.:.| p u.u.j :.:.2.A ",
"+ m } F ] ' m e n ' ' j _ ..f LXKXlX].uX=X%X@X~.+X+X^./.OX$X%XuXuXuX%X=X&X$XXX$X$X X.X!./.Q..X].0XMXKXLX*.:.:.| y 6.4.Q +.<.2.! ",
"O m  .J _ } S t c ] ' j } ..z e e.AXwXuXaX@X`..X.XQ.Y.E./.OX*X%XuX%X%X%X%X&X%X%XXXXX!.!./.Q.).#XnXJX<X#.:.>.2.| p 6.Z * 2 N ,.A ",
"O h l h z z l t c ' ' j } X.c e / FXMXuXuX_.$X*XY.T.W.E.E.!.OXXX*X$X$X&X%X%X%X@XXXQ.!.~.|.XX XqXAX0.:.:.2.>.:.| p 3.* ;Xq I ^ A ",
". e y o r o X t n ' ' n _ o.x e 1.@.ZXiX0X#XXXoX/.^.^.W.E.E.E.^./.XXXX$X%X%X%X@X.X!.!..XoXXX$XrXHX+.:.>.:.>.:.| p 6.g 2 2 * #.~ ",
"O f v r g p g t n ' ' F } O.z o <.=.HXhXyX#X|.Q.+X|.Y.P.Y.E.E.W.Y./.Q.|.oXXXoX/.!.~..X.X X X%XzX9.:.:.:.:.>.2.| y 6.&.M N ~ &.! ",
"@ @.<.h @.+.+.y b ' ' G _ ..z r <.:.0.BXlX].).).Q.Q.Q.T.Y.^.W./.Q.Y.E.E.^.!././.!.|.oXQ.XX@XhXDX,.>.>.>.2.>.2. .i 4.-.*.6.5.-.! ",
"@ *.-.h %.%.| r b ' X.H ' ..z e 1.:.#.DXAXtX_.$XoX|.OX^.!.Y.Y.W.^.E.E.W./.OXOXOXQ.&X=X@X_.tXVXX 2.:.>.2.:.>.>.| y 5.-.>.>.>.-.Q ",
"@ <.-.h -.-.| t b ' ' H } ..z e <.:.:.<XJXiX_.|.|.oX&XQ.P.L.S.S.S.S.S.Y.K.K.Q.|._.%XsX&X_.iXCXX ,.:.:.:.2.>.:.| p 6.>.>.>.-.-.! ",
"@ <.=.k 2.;.X.t b _ ] _ } ' z e 1.<.#.>XMXpX_.I.I.].1X(.(.K.A.A.S.S.S.H.F.H.(.G.3X3X8X{.].uXnXX ,.>.:.:.>.>.2.| u 6.>.:.:.>.:.G ",
"O 5.=.( 2.:.@.t b ] ] _ _ ..z e 1.,.= ZXaX/.I.F.B.m.1X1X5X(.(.K.K.K.K.F.(.J.J.1X3X1X:Xn.F.].iXcX^ >.:.:.>.-.:. .p 6.>.:.:.:.:.m ",
"@ >.=.( 2.2.@.t b X.X.' ' H z e 1./ 4XjXU.A.z.l.8 b.J.7X3XJ.7X7X#X@XtX6X6X5X2X4X3Xm.g.h.g.m.J.MXzX+.:.:.5.>.-.| u 3.:.:.>.:.;.! ",
"O <.=.( 2.-.| t b X.] X...' z o 4.8.VX/.F.x.x.d.h.z.m.G.[.6X5X7X7X7XvXzX7X7X1X6XB.g.k.f.f.x.v.1XAX+.:.:.>.>.2.| p 3.:.:.:.:.:.A ",
"@ 4.;.( >.2.O.y b ] ] X.X.' c e 3.SXrXH.k.b.D.8 f.s.N.A.F.:X,X9X1X2X7X4X>X:X:Xn.z.E w c.j.b.s.f.yX$.2.*.2.>.2.| p 3.>.>.:.:.:.! ",
"O 5.;.[ 2.:.| y b ] X.] ' ' c e n 4XwXm.g.D.F.d.h.D.D.F.H.n.z.G.V.V.G.V.:Xn.k.n.n.N.g.j.x.D.k.w G.<Xm z n n c V i 2.:.>.:.:.:.S ",
"O 4.-.[ >.:.| t b X.] ] ] ] z X g N E v.E N.F.8 N.f.w F.H.A.C.A.F.F.N.m.m.c.N.g.9 6 R 7 v.C.f.q J.a s t g l p y y u.>.:.:.:.:.m ",
"@ >.-.%.:.2.| t b ] ] ] ' ] v X x c = b.8 v.N.6 T c.k.K.x.z.F.A.F.H.C.C.N.s.z.N.w j.s.- c.F.g.8 (.M x s v z z l i 6.:.:.:.:.>.! ",
"O <.>.%.:.:.| t b X.X.X.] ] z o | ..N f.R d.b.b.6 $ 5 c.k.s.D.c.z.b.x.f.c.f.w 8 s.d.> 6 D.k.0 c.V.C } S } ....m i 3.>.>.>.>.>.n ",
"@ <.>.=.:.:.@.t b ] ] X.X._ z e | ] 7.c.> E h.C.N.p.> > 6 6 U d.j.p.c.a.8 E 1 , , - > c.n.R R > G.C ..m } ....A i 3.:.:.;.:.:.! ",
"O 2.-.*.;.:.| t b X.X.X.' ' z e { ) <XZ.4 < R j.s.c.s., , < < - ; , ; - < , : ; ; T f.l.w 7 : 4 J.C X.G ..X...m i 3.:.:.:.:.:.A ",
"O 2.:.:.:.:.O.t b ' ] X.X.' z o  ._ ~ B.N.; , < 7 w W R 8 d.7 1 > ; > : 1 : , 9 9 g.E 5 < ; 5 ,X-XG X.G X.X...m p 3.:.:.>.>.>.A ",
"@ <.:.:.>.:.+.t b ' X.X...' z e { X...J 8XN., $ - 5 , 9 2 1 0 0 0 9 9 q q 9 5 q 0 2 , ; ; 5 B.n.{ ] ] H ..X.X.m p 3.:.:.:.:.:.S ",
"O 3.:.:.:.:.| t b ' X.X...} z e } ..A A D D H.N.6 3 - - 1 5 7 6 7 8 9 8 7 7 5 1 : ; ; 1 g.J.-XX Z G ] _ ......G i u.:.:.:.:.-.m ",
"@ <.:.:.:.2.O.t m ..X.X.X...z e } ..o.......v = L.M.d.$ ; $ - - > ; ; ; : : : - , E n.J.VX<Xx X } o.' H ......J p 3.>.>.:.:.2.! ",
"& y.3.2.3.1.$.t b o...O.o...x t  .o...} O.O.+.Q f >XW l.W Y 2 : . * * * = Y Y 7 T l.-XD D  .V X  .......o.o.o.S a y.4.1.1.3.<.~ "
};
