/* XPM */
static char *eb20135da6af428cee88e2d6fbbc8bf3njHlM2QfGdAz8YRU[] = {
/* columns rows colors chars-per-pixel */
"64 64 254 2 ",
"   c #633C1A",
".  c #794504",
"X  c #7D4A05",
"o  c #66421C",
"O  c #6B451D",
"+  c #6D491B",
"@  c #755017",
"#  c #574D38",
"$  c #664421",
"%  c #6C4320",
"&  c #724A25",
"*  c #6B5627",
"=  c #795928",
"-  c #6A5A36",
";  c #766136",
":  c #3B6255",
">  c #4C4B46",
",  c #544B49",
"<  c #4B5649",
"1  c #57564B",
"2  c #544E54",
"3  c #455B54",
"4  c #565855",
"5  c #5C5259",
"6  c #4B6757",
"7  c #58665C",
"8  c #6E6A4F",
"9  c #566965",
"0  c #50706C",
"q  c #557869",
"w  c #6D6F69",
"e  c #66756D",
"r  c #677A76",
"t  c #824B04",
"y  c #854A04",
"u  c #844D09",
"i  c #8C5406",
"p  c #895409",
"a  c #8D540A",
"s  c #95580A",
"d  c #935A0C",
"f  c #885C17",
"g  c #945D13",
"h  c #985F15",
"j  c #A15C06",
"k  c #976312",
"l  c #9D6313",
"z  c #9B6518",
"x  c #A96608",
"c  c #B36C0B",
"v  c #B8750B",
"b  c #A46716",
"n  c #AC6D15",
"m  c #AC6D1B",
"M  c #B16E18",
"N  c #AE7114",
"B  c #AE721B",
"V  c #B37315",
"C  c #B97716",
"Z  c #B3731A",
"A  c #BA761B",
"S  c #BC791B",
"D  c #926C2F",
"F  c #A56D21",
"G  c #AB6E20",
"H  c #AD7122",
"J  c #A6772A",
"K  c #B57B23",
"L  c #B97A24",
"P  c #C47916",
"I  c #C57C1C",
"U  c #CB7E1B",
"Y  c #C27B24",
"T  c #8C724E",
"R  c #8A774C",
"E  c #AA7B4A",
"W  c #B47E4A",
"Q  c #867C63",
"!  c #2D9C7E",
"~  c #59877A",
"^  c #528C78",
"/  c #6A8378",
"(  c #BB811E",
")  c #AB812A",
"_  c #BB8023",
"`  c #B78329",
"'  c #B78836",
"]  c #CB8914",
"[  c #CF8E16",
"{  c #C3821E",
"}  c #CD831D",
"|  c #D18E16",
" . c #D3871E",
".. c #D4881E",
"X. c #C38222",
"o. c #CC8523",
"O. c #CE8B24",
"+. c #CA882A",
"@. c #D38621",
"#. c #D38821",
"$. c #D1862A",
"%. c #D28A29",
"&. c #CB9027",
"*. c #D89728",
"=. c #C79437",
"-. c #D39333",
";. c #E29E27",
":. c #E29E34",
">. c #DDA233",
",. c #E7A328",
"<. c #EBA62A",
"1. c #EDAA2C",
"2. c #F0A72B",
"3. c #F3AE2D",
"4. c #F4B02D",
"5. c #E5A233",
"6. c #EDAB34",
"7. c #E7A738",
"8. c #EDAC3A",
"9. c #F3AE32",
"0. c #FAAC34",
"q. c #F4AE3B",
"w. c #EBB03A",
"e. c #F4B034",
"r. c #F4B03B",
"t. c #F8B03E",
"y. c #8F8B59",
"u. c #AF8E4B",
"i. c #B78348",
"p. c #8E9172",
"a. c #AD9B69",
"s. c #9DA274",
"d. c #A4A26C",
"f. c #A5A277",
"g. c #D59B42",
"h. c #D8A65D",
"j. c #EDAF43",
"k. c #F3AD41",
"l. c #CB9C60",
"z. c #D7A762",
"x. c #637D8D",
"c. c #3AB2A0",
"v. c #5B8C88",
"b. c #50968F",
"n. c #6A8F8F",
"m. c #4DA596",
"M. c #69A794",
"N. c #6A9EA8",
"B. c #54B4AA",
"V. c #6FB2AC",
"C. c #2DC19F",
"Z. c #3CD0BC",
"A. c #69C19D",
"S. c #4CC8B3",
"D. c #6CC6BA",
"F. c #54BFC4",
"G. c #2BF4CD",
"H. c #35F2CC",
"J. c #29F6D8",
"K. c #37F6D7",
"L. c #0FFAEA",
"P. c #19F8E7",
"I. c #05FEFD",
"U. c #0AFCF9",
"Y. c #13FBF5",
"T. c #1BF9F6",
"R. c #12FDFC",
"E. c #1DFCFB",
"W. c #34ECEC",
"Q. c #26F8E7",
"!. c #36F7EB",
"~. c #24F6F7",
"^. c #2CF5F4",
"/. c #24FBF4",
"(. c #2CFCF4",
"). c #24FBFC",
"_. c #2CFCFC",
"`. c #3AF5F3",
"'. c #35F9F6",
"]. c #3CFBF4",
"[. c #33FCFC",
"{. c #3CFDFC",
"}. c #46D7C7",
"|. c #50D4CD",
" X c #73D3C9",
".X c #4FEACE",
"XX c #48F5D9",
"oX c #57F6DB",
"OX c #75EED7",
"+X c #6AF7DC",
"@X c #54D4E9",
"#X c #51EAE8",
"$X c #48F7E7",
"%X c #4CF6ED",
"&X c #43FCEE",
"*X c #54F5ED",
"=X c #58F8E8",
"-X c #49F6F6",
";X c #44FAF4",
":X c #4CFCF4",
">X c #44FCFB",
",X c #4CFBFC",
"<X c #55F6F5",
"1X c #5CF5F3",
"2X c #53FBF5",
"3X c #5CFAF3",
"4X c #53FDFC",
"5X c #5BFBFB",
"6X c #70ECE9",
"7X c #65F8E6",
"8X c #6BF5EC",
"9X c #6BF9ED",
"0X c #76F8E8",
"qX c #7BF9EC",
"wX c #69F7F7",
"eX c #63FAF3",
"rX c #6BFBF3",
"tX c #63FAFB",
"yX c #77F9F7",
"uX c #7DFBF4",
"iX c #8F9693",
"pX c #95A78C",
"aX c #ABAF95",
"sX c #8CB6AB",
"dX c #9DCBB1",
"fX c #A3BDC4",
"gX c #95CFCC",
"hX c #A9D7D5",
"jX c #8DEDDA",
"kX c #A4E2D2",
"lX c #89EBE4",
"zX c #97E8E6",
"xX c #88F8EA",
"cX c #99F8EC",
"vX c #84FCF2",
"bX c #8CFBF3",
"nX c #89F8F7",
"mX c #95FCF3",
"MX c #9DFBF4",
"NX c #98FAF9",
"BX c #AEECE7",
"VX c #A4FAEC",
"CX c #A8F8E9",
"ZX c #A3FCF3",
"AX c #ABFBF3",
"SX c #A7FAF9",
"DX c #B5FAF7",
"FX c #BCFDFA",
"GX c #C1E8DB",
"HX c #C8EFEB",
"JX c #C6FAF9",
"KX c #CCFCFD",
"LX c #DAFBFC",
"PX c #E4F8F9",
/* pixels */
"# z.z.h.h.h.i.& T E i.E E W T % i.i.i.i.i.i.W D D z.z.z.h.h.h.D & z.h.h.h.h.l.& D E E E E E D & E W W i.i.i.i.E = z.h.h.h.h.h.E ",
"% 0.3.3.4.e.*.. . i a u g y y y o.@. .@.@. .@.Z a 8.;.2.2.3.<.Z u t.3.3.2.3.5.u . p g X g u u . o.@.....#.#.@.A d q.,.3.2.1.<.L ",
"o q.3.3.4.3.O.p l ( _ d { n F t @.@.#.@.@.@...Z d :.#.:.*.*.;.b y t.3.3.3.9.>.u b C { s X.c b X $. .#.#.@.#.@.A a :.O.%.:.*.*.H ",
"+ 6.9.3.3.4.O.u Z 5.j.F j.:.B y @.@.@. ..... .V u m s h l l k k y q.3.2.3.3.5.i N ,.w.N r.,.S u U @.#.@.@.@.@.S u b g g l l h z ",
"o 6.3.<.3.3.#.u Z ' = Q ; g.H X $.@.........@.Z . a p X k i s X u 8.4.<.9.4.5.t N 1.1.v e.1.C X $.@.@.@.@.#.@.S t a g . h a g X ",
"O ,.3.,.3.3.&.X L D p.p.Q J B y @.#. . .....o.V d %.O.x _ R y.8 ; 5.9.1.4.e.5.t N 1.1.v e.4.C X o.@.@.....@...S p L L p Y B L g ",
"O >.1.,.3.3.#.u X.J 8 w - ' Z y U @.#...@...@.A d e.-.pXjX.XG.G.XXcXu.,.e.3.5.t N 3.1.v r.e.A u X.............S a #.%.j @.U $.m ",
"o ,.3.,.9.3.O.u X.>.D D D 8.N y @.....#...@.@.Z d u.xXXXJ.L.J.XXXXXX+Xy.d.u.5.i n e.4.] r.e.V u o.............S p %.%.j @. .@.m ",
"O *.1.,.9.e.&.u _ e.r.&.6.e.Z t o.......@.#.#.Z @ qXK.K.=X6XcXxXqX7XXXK.XX+XVXp.n 4.w.] 9.e.A X } ........@. .S a O.+.x #.#...H ",
"o *.1.*.6.9.&.X { 9.6.] 1.4.V t o.@.@.......#.D +XXXoXxXJXPXPXKXZXqX9XqXoXK.XX+Xp.w.1.] e.e.C X o.......#.@...S a O.%.c #.#.#.m ",
"$ b N n B B b X X.9.9.| 1.e.Z t o.#.........H jXoX+XHXJXLXPXPXKXCXxX+X7X=X=XK.H.OXCX&.[ 6.4.C t o...#.....#.@.S a o.#.P #...#.H ",
"  t X . . . . X { 9.3.| 1.e.Z t O.#.......J jXK.0XCXPXPXPXPXPXKXDXCXxX+X+X=X$XK.H.oXVX) w.4.C t X.@...@.#...@.P a @.#.P ..#...H ",
"$ j m y b i z u { 0.4.| <.4.B X O.@. .#.J CXXX=XcXPXPXPXPXJXCXmXVXAXVXcXxX6X=X=XH.H.+Xy.4.4.V X @.@.@.@.#.#...S a @.@.U #.#. .G ",
"$ C @.s I C A u { 3.4.;.<.6.B X o.....H CXoX+XzXKXPXKXBXmX0X=X+X+X0XqXcXcX0X7X=X!.G.XXOXaX4.( t o.@... .......A a @.@.U #...@.Z ",
"o U } j } P A u { 9.3.;.1.9.B y O...J F +X=XjXJXLXDXxX0X%X$X*X*X=X7X7X7X+X7X=XeX=XG.G.oXdX;.( X }  .$.K L o...A a $.#.@. .#.@.G ",
"O } U j } { A u I 0.3.,.1.e.N t o...Y jX$XoXcXJXDXqX$X=XrXrX=X:X%X=X7X+X+XoXoX7X=XK.G.XX+XGXV X { #.D - = ' $.L a $.#.#.@.#.#.G ",
"O o.} x  .} C u X.0.3.1.<.3.B y o...pX$X$XOXKXJXqX=X8X7X0X0XxXqX1X$X=X+XxX+XoX=X=X$XK.G.oXCX( X } +.- aXw = =.A a %.#.@...#.#.m ",
"o #.} c @. .A u X.3.3.3.1.9.V X o.J XX=X=XAXPXZX$X=X9XuXvXvXxXCXxXeX<XeXqXqX+XXX=X%XK.G.H.OXpXp } +.- w 1 f -.A a +.#.#.....#.G ",
"% @.o.c #...S u { 9.4.3.1.9.Z y o.ZXXX*XyXKXKX6X$X9X7X3X=X%X*X9XxXxXqXeX9XqX0XXX!.&XK.J.G.oX/ X X.%.' * @ g.%.A d $.@.........H ",
"$ #. .c #...A u { 0.3.4.3.e.V y pX0X1X$XNXJXSX=XXX8X1X%X(.(.[.~.-XxXcXqX3XrX0X=XK.!.J.G.G.oXM.. @.#.%.+.+... .Y a $.#.@.....#.m ",
"% @. .v #...S u X.3.3.3.9.9.H . JX=X-XeXSXJXnX$X-X-X^.^././.~./.^.].yXxXvX8X=X7XXXQ.J.J.J.XX+X. o. . .I #. ...L a %.#.@.......Z ",
"% @.U C O. .S u { 9.3.3.3.9.V X DX#X%XuXJXJX8X!.-X^.~.E.E.T.).T.~.).].qXbX0XeX=X!.Q.P.P.J.K.oX* B N V b V N b B a #.#.#.....@.G ",
"% @.} P ....C u { 3.3.4.3.9.Z . MX%X<XNXFXSX!.(.'.R.T.).~.[.'.^.~.T.Y.;XxXvX6X*X!.!.Q.P.P.K.XXAXh l l u h l i u u $.#.#.......G ",
"% o. .P #...C u { 9.3.e.9.e.A HXvX%X1XNXmXwXQ.(.~.).!.`.%X*X=X:X-X).).(.3XvXxX=X&X!./.L.P.J.XXlXZ X.( m o.{ X.Z a #.#.........G ",
"% @.} P  . .C u { 9.3.3.3.9.B HX8X4XtXnXeX;XT.~.T.`.4XeXyXvXxXxX3X,X{.T.^.yXcX+X].^.(.Y.L.J.H.OX7.9.6.*.0.9.9.&.a $.@.#.......m ",
"% @. .}  . .S u ( 9.0.0.3.9.R FX8X-X>X4X,X_.T.T.^.4XqXxXcXCXcXVXxX8X-X`.`.&XZX0X%XQ.P.Y.L.J.K.oXf.3.e.*.e.4.9.O.a $.#.#.......H ",
"O @. .}  ...S u X.8._ z ) j.R SX1X>X>X[.I.E.R.Y.;XqXcXAXBXAXmXbXnXyXtX;X].&XMX0X%X/.T.U.L.Q.H.oXs.9.0.,.9.4.3.O.a $.#.#.......m ",
"% o...o. ...S u X.) - p.; g.R SX<X4XnXwXT.R.I.(.3XmXCXCXcXvXrX;X<XwXwX1X:X;XmXqX&XT.Y.I.U.P.K.XXs.3.4.5.e.4.4.%.a %.@.......#.G ",
"% o.@.@.....S u L D p.8 8 J y.SX*XeXSXSX>XR.E.&XqXVXCXcXxX1X'.).(.;X3X9X1X%XmXvX-XT.U.I.U.J.H.XXs.3.3.:.9.4.3.O.a #.#.#.......Z ",
"O @.#.@.....S u ( ' ; 8 - ' KXNX<X-XNXNX[.R.^.eXxXMXZXcXvX4X~.>X>X].2XrXwX-XbXbX<XY.I.I.U.P.K.XXs.3.3.,.3.3.3.O.s %.#.@.......G ",
"% o.@.@...#.S u { w.' D =.8.JXNX1X>X5X5X).T.!.0XZXCXCXcX8X-X_.&X>X-XtXuXrX&XSXxX3XT.U.I.U.L.J.=XFX,.4.<.3.3.9.O.a $.#.#.......G ",
"% @.#.@.....S u X.r.t.r.r.8.KXNX1X{.4X4X).(.&X0XVXCXAXmX8X-X~.-X1XwXyXyX3X3XSXcXwXT.R.I.U.J.K.XXFX*.3.3.3.3.3.o.d %.#.@.......G ",
"% @. .@.#.$.L y b C S V ( C KXSX5X{.,X,X).`.$X0XVXCXSXMXuX-X~.{.5XuXuXtX:XuXZXVXyXE.U.I.E.!.K.=XFX>.4.3.3.3.3.O.i &.o.#.#. .@.m ",
"%  . .@.#.U P . . t t . p . w SX1X{.4X5X{.;X$X0XcXVXVXZXbXwX;X(.`.<X*X<XeXMXVXAXtX).U.I._.:XXXoXJX*.3.3.3.4.3. .i %.U #.@.@.U G ",
"% ....@.@.@.A u d n Z d Z b 8 DX1X>X5XyX5X,X$X0XcXZXcXVXMXvX3X{.^._.-XeXbXSXAXAX:X'.R.I.{.%XXXoXs.3.3.3.3.4.3.O.d o.C A Y I I G ",
"% @. . .@.@.I u m X.o.b %.C HXFX8X%X>XyX2X4X!.2XnXVXVXSXVXmXbXwX1X8X8XnXmXDXFXvX;X/.I.R.{.*XXX0Xs.3.3.3.3.3.3.O.u b k i l l s h ",
"% }  .U #.@.P u Z  .#.j ..} aXJXyX!.{.4X4X>X(.&XvXcXZXVXSXZXNXnXnXvXmXSXAXFXSXrX'.~.R.E.>X$XXXuXf.9.3.3.3.4.3.O.. p p . s a a u ",
"% U  .U #.@.A u Z o.@.b ..} R KXNX!.^.{.4X>X(.].eXxXcXcXVXZXZXZXSXAXAXDXJXDXvX:X(.).)._.;X%XoXNXf.3.3.e.3.3.3.O.p +.` i X.C Y g ",
"O { } U #.@.P u M ..@.b ..O.m HXFX4X/.(.5X4X{./.].rXMXMXVXAXAXAXAXDXDXDXDXnX2X].[.).).[.:X=X7XDXf.3.3.4.3.4.3.O.a k.k.N 0.;.q.K ",
"  I } U #.U L y Z  . .x  .O.n . FXnX!.].5XrX,XE.E.4XuXvXmXZXZXZXAXDXSXZXnX3X].{.{.).).>X%X=X9XJXa.3.0.4.3.4.3.#.d k.k.c e.1.3.K ",
"O S o.U .. .S u A  . .c U @.m y aXSX&X5X].uXyX).I.[.&XeXuXnXuXnXbXmXnXyXtX,X].:X>XE.[.{.rX7XcXKX<.4.3.4.3.3.3.O.i r.t.( &.8.9.L ",
"o A o.{ U o.L u M  . .c @.@.m y aXDX=X5X(.yX:X,XY.E.>X>X2X3XrX3X5X5X4X,X>X;X%X3X>X_.{.>XrX0XAXKX7.3.3.3.9.4.3.O.s r.J ; 8 D 7.K ",
"o b n x n b b u Z  .@.v @.@.m t -.JXNX8X2X3X4X`.^.Y.E.[.>X:X:X1XtXtXtX5X2X3XeX4X[._.>X4XrXxXFX* 1.3.3.4.3.4.9.O.s 8.= p.w Q ' L ",
"  u X X u t . u Z ..@.c } @.m t 1.aXKXxXuX,XvX(.].(.I.R._.>X,X:X4X5X5X3XrXyXwX{.E.[.,X3X9XAXpXt 5.3.3.3.9.4.6.O.d r.D 8 8 - =.` ",
"o k N t l i z u Z ....P X.#.n X w.*.LXmXqXeXwXwX(.{.'.T.Y.).{.<XeXyXyXyXyXyX<X(._.4X5X8X7XFXh u 6.3.3.0.3.4.9.O.d w.*.D D J w.K ",
"+ *.w.x *.*.&.p Z  ...I  .@.n y 6.4.u.ZX0XrX3XnX<X[.`.{.[.).Y.~.(.{.:X:X<X5X>X_.,XwX2X7XqXJ M u 5.9.0.3.9.3.3.O.i r.4.1.t.9.4._ ",
"o ,.1.x ;.;.O.p V @.@.U o.@.m y 8.3.3.HXbXyXwXyXwX;X!.].>X;X'.~.)._.{.>X>X{.[.>X5X5X:X0XAXL Z y 6.3.3.3.3.4.4.O.i r.1.1.3.3.1.K ",
"+ 6.1.x 1.<.O.u Z  . .U @.@.N t 6.3.2.=.FXcXnXnXnXeX$X&X].].;X`.`.!.'.;X[.{.4XwXyXrX9XZXdX..M y 5.3.3.3.3.4.3.O.d t.4.4.4.4.1.` ",
"+ w.<.v 9.2.#.p Z  .@.} } @.n y r.6.g.f f AXVXMXxXnXwX-X`.W.`.W.W.W.W.`.`.<XnXbXbXnXNXBXU @.m u 5.3.3.3.3.4.9.O.a q.4.4.4.3.2.I ",
"o e.,.] 3.0.&.u V  . .}  .@.n y 8.7.* Q Q KXDXzXlXSXNX6X@X#XW.`.W.W.-X#XwXnXzXBXzXzXDXJ U U m y 6.3.4.4.9.4.3.O.a q.3.3.4.3.3.A ",
"+ 6.,.] e.3.O.u Z #.#. . .U n y 7.=.- p.1 BXhXgX XzXBXzXlX6X#X<X#X#X6XlXzXhXkXkXsXV.hXHXL $.M y <.3.4.4.6.4.6.O.s t.3.3.3.3.3._ ",
"o 4.<.] e.4.O.u Z #.#.@.@. .n . j.7.& sXcXgXV./ B.D.zXBXVXcXzXnXqXNXbXcXzXzXjXN.M.N.N.V.GXaXm y 6.3.3.2.4.4.4.O.a t.3.3.3.3.3.K ",
"+ 4.1.[ 4.9.O.p Z #.#...@. .M y q.q.j.0XsXm.B.~ N.v.6XlXgXfXBXhXhXhXfXhXfXgXn.e B.m.V.m.M.BXM y 5.0.e.,.e.e.9.O.a q.4.3.3.3.3.( ",
"+ w.3.| 9.3.O.u V ....#... .M y A c y.}.v.|.|.0 m.S. X6XV.iXOXsXgX XsXiXiXB.V.V.x.m.|.B.r |.T a Z v C n S V V B d 9.3.3.3.3.3.L ",
"o 9.1.| 3.3.%.u Z #...#... .n X h b M.Z.~ }.}.~ |.x.N.xX0X|. X|.|.N.V.V.|.b.e ^ b.q W.B.w }.y.X h b l u l b a a i k.3.3.3.3.3.S ",
"+ 6.1.*.3.9.O.p V #.#... . .N . G m aX}.r B.}.2 b.m.S.S.sX@X|.W.|.F.}.m.n.Z.0 M.4 , @XB.q Z.n X b m m h n n n b d t.3.3.4.3.3._ ",
"o w.1.,.3.3.O.u Z @.#...#. .n . %.} aXZ.q v.S.B.2 # m.v.m.H.N.B.B.b.B.m.n.0 ~ ^ : v.B.b.v.C.B X +.@.o.L #.@.@.L d r.3.3.4.3.3.C ",
"+ 6.3.,.3.4.*.u Z #...#.#. .n y o. .pX}.4 / b.Z.Z.0 2 4 3 6 m.! v.B.v.9 4 > 2 2 q S.n.~ 9 m.B X o.@. .S o. .#.A d r.3.3.3.3.3._ ",
"+ 6.3.,.2.3.O.u Z @.@.#...} n y o...%..Xx.< 0 n.b.m.b.6 3 , , 4 , > > 1 < , 7 ^ v.v.w 6 , S.B X o.@.@.I #.#.@.A d q.3.3.3.3.1.( ",
"O 9.3.2.3.3.%.u Z @...#.#. .n y o.@.%.F }.3 3 1 5 e w / v.r 7 6 < < < 7 7 w w / q 9 > 2 sXkXB X U @.#.I O.#.@.L s q.3.3.3.4.4.K ",
"+ 6.3.3.3.3.&.u A ..#.#.#. .n X J ..@.L D 6Xb.3 , 3 5 9 9 ~ e w e r e 6 w q 6 7 2 > 7 D.gXJ m . o. ...U #.#...A s t.3.3.3.3.3.L ",
"  q.3.3.3.3.%.u Z ..#.@.#.o.n y o...@.$.%.J D.Z.b.9 2 > > < < 6 9 q q 6 < < 1 4 0 V.zX7 Q D G y $. . .U @.@.@.P s k.3.4.3.3.1.S ",
"+ 6.3.3.3.9.%.u Z @.@.@.@.@.n y o.@.@.@.#.#.@.z * OXZ.c.^ q < # > > 1 q b.m.B.D.zXD - w - i.G y o... .U @.@.$.A d q.4.1.3.3.e._ ",
"$ j.9.9.w.8.-.u Z $.@.%.$.@.m u +.$.$.O.%.%.$.G g j.8.f.sXV.S.c.c.B.m.S.A.sX=.p m -.u.D i.+.G X o.$.$.@.$.$.$.L g j.8.8.q.q.9.) "
};
