/* XPM */
static char *fecc4dd3af6c46bb90de0dad18df1cceaKeSCKPxmyQg4EK5[] = {
/* columns rows colors chars-per-pixel */
"64 64 214 2 ",
"   c #5D3A1F",
".  c #723D01",
"X  c #613E1E",
"o  c #653B24",
"O  c #754302",
"+  c #7A4502",
"@  c #7E4A05",
"#  c #7E470D",
"$  c #7E4B0A",
"%  c #66421C",
"&  c #6B451D",
"*  c #6D491B",
"=  c #76531D",
"-  c #5D4236",
";  c #664421",
":  c #6C4320",
">  c #704721",
",  c #744C27",
"<  c #6E5424",
"1  c #6C572A",
"2  c #7E5B24",
"3  c #775929",
"4  c #645837",
"5  c #6D5E3C",
"6  c #755D33",
"7  c #756035",
"8  c #79633B",
"9  c #5B5945",
"0  c #6C664D",
"q  c #726A4E",
"w  c #78694C",
"e  c #676554",
"r  c #77745C",
"t  c #767767",
"y  c #814703",
"u  c #824C04",
"i  c #884E05",
"p  c #844D09",
"a  c #884F09",
"s  c #855005",
"d  c #8B5406",
"f  c #8E5906",
"g  c #86520A",
"h  c #8C530A",
"j  c #8D590B",
"k  c #915706",
"l  c #9B5A05",
"z  c #995906",
"x  c #915609",
"c  c #945B0C",
"v  c #9A5D0C",
"b  c #885C17",
"n  c #945C12",
"m  c #995E12",
"M  c #985E19",
"N  c #A15C04",
"B  c #A05F0C",
"V  c #9E630C",
"C  c #9D6313",
"Z  c #9A671A",
"A  c #A56206",
"S  c #AB6505",
"D  c #AD6C03",
"F  c #A3640B",
"G  c #AA6609",
"H  c #AB6B0C",
"J  c #B36C0C",
"K  c #B86F0C",
"L  c #B4720C",
"P  c #BA7708",
"I  c #BD7C0C",
"U  c #A26413",
"Y  c #A56B14",
"T  c #AC6D15",
"R  c #A66618",
"E  c #A56B1A",
"W  c #AB6D1B",
"Q  c #B26E15",
"!  c #B26E19",
"~  c #A77017",
"^  c #AE7114",
"/  c #AD731A",
"(  c #B37315",
")  c #BB7513",
"_  c #B67916",
"`  c #BB7B17",
"'  c #B3731B",
"]  c #BA741B",
"[  c #B6791B",
"{  c #BC791B",
"}  c #8F6923",
"|  c #86642C",
" . c #946824",
".. c #936D2A",
"X. c #9D7027",
"o. c #9D732E",
"O. c #886533",
"+. c #966B3B",
"@. c #9B7239",
"#. c #A56D21",
"$. c #AB6E20",
"%. c #AD7020",
"&. c #A1762A",
"*. c #A67829",
"=. c #B67725",
"-. c #B57B23",
";. c #BB7C23",
":. c #BB7E2A",
">. c #AE7D32",
",. c #C07715",
"<. c #C57A16",
"1. c #C67A19",
"2. c #C47C1B",
"3. c #CA7E1B",
"4. c #C27E21",
"5. c #926841",
"6. c #857758",
"7. c #A67746",
"8. c #AC7D4C",
"9. c #B47E4A",
"0. c #837B62",
"q. c #8C7B62",
"w. c #BA8119",
"e. c #BE811C",
"r. c #BB8023",
"t. c #B38128",
"y. c #BA822B",
"u. c #B78633",
"i. c #B3843A",
"p. c #BB8C38",
"a. c #C3830F",
"s. c #C48313",
"d. c #CD8C16",
"f. c #C2821D",
"g. c #CD831D",
"h. c #CB8B19",
"j. c #D18E16",
"k. c #D3871E",
"l. c #D4881E",
"z. c #D4931C",
"x. c #D9961D",
"c. c #C48223",
"v. c #CC8523",
"b. c #C78A25",
"n. c #CE8B24",
"m. c #C3842A",
"M. c #CB852A",
"N. c #CD8B2B",
"B. c #D38722",
"V. c #D38821",
"C. c #D18629",
"Z. c #D28A29",
"A. c #CB9027",
"S. c #D39225",
"D. c #DA9623",
"F. c #D69822",
"G. c #DC9A23",
"H. c #D5942A",
"J. c #DB9529",
"K. c #DC9A2B",
"L. c #CC8C33",
"P. c #D08D39",
"I. c #CA9439",
"U. c #DA9931",
"Y. c #E39D24",
"T. c #E19E2C",
"R. c #E19E33",
"E. c #E39F38",
"W. c #DDA33A",
"Q. c #E6A224",
"!. c #EAA426",
"~. c #EFAB26",
"^. c #E4A22C",
"/. c #EBA62B",
"(. c #EDAA2C",
"). c #F0A72B",
"_. c #F3AE2D",
"`. c #F4B02D",
"'. c #E4A232",
"]. c #EAA634",
"[. c #EEAC33",
"{. c #E4A53A",
"}. c #E8A93B",
"|. c #EDAC3A",
" X c #F3AE32",
".X c #FAAC34",
"XX c #F3AE3B",
"oX c #ECB13D",
"OX c #F5B033",
"+X c #FAB337",
"@X c #F4B13B",
"#X c #F9B33C",
"$X c #AD804E",
"%X c #B58247",
"&X c #B98346",
"*X c #BB8B42",
"=X c #B58248",
"-X c #B9844B",
";X c #868268",
":X c #938C73",
">X c #939379",
",X c #D59B42",
"<X c #D6A55E",
"1X c #DBA65B",
"2X c #D9A75E",
"3X c #E9AC44",
"4X c #F4AE41",
"5X c #EDB242",
"6X c #F2B141",
"7X c #F9B341",
"8X c #CB9C60",
"9X c #D6A661",
"0X c #949382",
"qX c #ABAA9A",
/* pixels */
"- 9X9X9X<X2X-X, 5.$X$X8.8.8.5.> =X=X&X&X&X&X9.@.3 9X2X9X2X9X1X+.> 9X2X1X2X<X8X, O.8.8.8.8.8.5.: 9.9.9.%X&X&X-X7.3 9X2X2X1X1X1X7.",
"* XX`._.`.OXH.O @ d h u v y p y v.k.l.B.V.V.B.! v XX/.).(.).).' i #X`._._. XE.@ @ s v y c u p + c.l.l.l.V.V.C.{ x XXY.[.)././.y.",
"%  X_._._. Xn.g Z w.r.C c.^ #.y C.l.V.B.B.B.k.' n R.n.K.H.K.J.Z y @X).)._. XE.s E ' e.c c.( R u C.k.l.V.B.V.B.] j E.n.H.U.J.J.*.",
"& XX_._._._.n.s ( '.3X#.3XR.' u B.B.B.k.l.l.k.( p R c C F C v Z a XX_.~._._.'.s / ^.[.L XXQ._ u 4.B.V.V.V.B.B.{ p R m c U B m Z ",
"% [.(.~. X_.V.@ -.p.6 0.6 ,X=.u C.B.l.l.l.B.B.! O h d @ n f j @ u |. X/._.`.'.u ^ (.(.L @X(.( u B.B.B.B.V.V.k.{ @ x n + M h n # ",
"* ^._.!. X_.S.$ ;...:Xt 0.&./ u B.B.l.l.k.B.B.] c Z.b.C F.w.U.c i ]. X/.OX`.'.s ^ (.(.I @X_._ @ v.B.B.l.V.B.l.{ g ;.:.d 4.' ;.n ",
"* ^.(.!._. Xn.s c.*.w t 4 p.' u 3.B.V.V.B.B.C.,.c [.].`  X^.).~ u '. XY.OX X'.i ^  X(.I OXOX{ u v.k.l.l.l.l.l.{ d V.Z.B V.3.B.#.",
"; T.(.!. X_.n.u r.W.o.| o.|.T u B.k.l.l.V.l.3.] v  X].` _.~. XY u R._.Y.`._.'.i ^ OX Xa.@XOX( @ v.k.l.l.l.l.l.] h Z.Z.N V.k.B.E ",
"& G./.Q. XOXS.g f.OX@XA.|.OX' i v.l.B.B.V.l.B.,.V [.].h._._. X/ i F.(.x._. XR.i Q  X Xs.XXOX{ u k.l.l.l.V.l.l.] d V.M.H B.V.l.W ",
"% S.].^.].[.A.@ r._.OXs.(.`.^ u B.V.l.l.l.l.3.] c [.(.F.~._. X~ u Z.].x.[.(.E.s ( _._.s. X X_ @ v.l.l.l.l.V.B.] h n.Z.K l.B.V.$.",
"; Y ^ T / / E $ f. X_.j.(.OX' u v.V.l.l.l.l.V.] V (.~.D._.(._./ u U ' F ! W ' g T _._.j.[. X' u v.k.l.V.V.l.l.{ h C.V.) V.l.V.%.",
"  @ @ O @ O O @ c. X_.j.(. X' u v.V.l.l.l.l.B.] j [.(.Y.`.`.`./ O u u + @ . + @ Q _.`.x.[.`.{ u 4.k.V.l.V.V.B.{ x n.V.<.l.V.B.%.",
"o v W i C h R $ c. X_.x./.[./ u v.B.l.l.l.l.B.' V `.(./.`.(.`.~ @ C ! i R h #.p L  X_.x.[.OX' @ C.B.l.B.V.l.l.{ x B.V.1.V.V.l.%.",
"* { k.l 2.) ] p c. X_.x./.[.^ u v.l.l.l.l.l.B.] j [.(./._.`.`./ p { C.l 1.Q c.a ^  X_.Y.[. X{ u v.k.l.l.k.k.k.{ h C.V.3.l.V.l.%.",
"% 3.g.l 3.2.] u 2. X_.Q.~. X/ u C.l.l.V.V.l.V.' V [.`.`.`.(.OX/ u 4.B.N g.) v.a ^  X_.^.(._.' u v.B.C.=.=.V.k.;.h C.B.B.l.B.V.%.",
"& g.3.N v.3.{ p c. X_.!.(. X^ u B.l.V.V.l.V.V.[ j [._.`.`.(.OX/ u v.V.N g.1.M.a ( _._.~.]._.` u f.n. .6 6 y.C.;.h V.V.V.V.V.k.%.",
"& v.g.S g.g.{ p f. X_.~./. X( u v.l.l.B.l.V.V.] j `.`.`.`.(.`./ u C.B.A v.B.4.a ^  X_. X(. X{ u g.m.5 qXt 1 L.=.h V.V.V.B.V.V.! ",
"; V.g.J V.B.[ p c. X_._.~. X! y n.l.B.l.V.l.B.] V [.`.`.`.`.OX/ u C.B.G B.B.M.a ^  X`.).~.`.( @ 3.L.1 t 9 b L.{ h C.V.V.V.l.V.#.",
"* B.g.J B.B.{ u f..X_._.(. X=.u v.l.B.l.V.V.B.] j OX_._.(.`.`./ u v.B.G B.k.M.h (  X`._.). X{ u c.n.i.< = ,XB.=.x C.V.B.l.l.l.%.",
"o V.k.K V.l.[ p f._._.`._. X/ u C.l.B.l.V.V.B.! j [._._.`.(.`.~ u Z.B.G l.k.4.a ^  X X_._.`.( @ n.V.Z.M.M.k.B.4.j C.V.V.l.l.l.$.",
"& B.k.K V.V.{ u f. X_._._. X' u v.l.l.g.V.B.k.' c [._._._._.`.' u C.l.H k.k.4.i ^  X_._._.`.) u c.k.l.3.V.l.V.;.x Z.l.V.l.l.l.' ",
": B.g.,.B.l.{ u f. X_._._. X( i / ^ ' C ) ' U U c  X_._._._._./ u C.B.K k.k.C.a ( _._._._.`.{ u / ( ( C ^ ^ Y W h V.V.B.l.l.l.$.",
"o V.g.,.l.V.{ u c._._._._. X' + v B Z s c R i u n [._.`._._._.~ u C.B.) k.k.v.g ^ `._._._._.' u n C C g m C d s a C.V.V.l.l.l.$.",
"* B.k.2.V.V.{ u f. X`.`.OXOX' @ m.4.N.Y c.f.f.T j [.`._._._._./ u C.B.,.C.B.v.g ^ _.`._._.`.{ @ [ c.{ W v.c.c.' h C.B.B.l.l.l.%.",
"o B.g.2.k.k.] u c. X_._._. X^ @ 4X.X@XF.[. X[.{ c (.`.`._._._.~ @ C.V.<.l.l.v.a ^ _.`._._._.( @ }. XOXH. X X XA.h C.B.V.l.l.l.W ",
"> B.k.g.k.l.] p e. X.X.X_.@X' u XX_.+XY._.`._.e.c [.`._._._._.^ i C.l.<.l.l.v.a ^  X_._._.`._ @ '. XOXD. X`.`.n.h V.V.V.l.l.l.%.",
"& B.g.g.l.k.{ p m.}.t.Z t.|.^ u XX_. XT.OX`._.2.c [._.`._._._./ @ v.l.<.k.l.v.p ^ _._._.`._._ u ]. X_.T.OX`. XZ.x C.V.V.l.l.l.$.",
"; v.k.k.l.B.{ p m.t.7 ;X8 I./ u XX_. X!.(.`._.w.c [.`._._._._.~ u B.B.g.V.k.v.a (  X X_._..X] @ ]._.OX'.OX`._.n.h Z.B.V.l.l.l.$.",
"> v.B.B.l.V.{ p r...>Xe q o./ s |._..X/.OX_._.e.c  X_.`.(._._./ u C.l.k.l.l.4.a L  X_._._. X] u '._. X/._.`._.n.x V.V.B.l.l.l.%.",
"X B.V.B.l.l.{ u e.t.7 0 1 ,X^ @ XX_. X/. X`._.f.v XX`._.`._._.~ y B.V.B.l.l.v.a ^  X_. X_.OX' @ [._. X/._._._.n.x Z.B.l.l.l.V.W ",
"> B.B.B.l.V.{ p e.5Xp...p.oX/ s XX_._.).`._._.f.c XX_.`._.`._./ u C.l.B.l.l.v.u Q _._.`._.OX] u '._._./. X_. Xn.x C.V.V.l.l.l.%.",
"& B.B.B.l.l.{ u m.@XOX@X@X#X/ s XX`..X)._.`. Xf.c  X_._._.(._./ @ B.l.V.B.l.v.p Q 7X#X#X+X#X[ u ]._._.(._._._.n.x Z.V.V.l.l.l.$.",
"X B.k.B.B.B.;.a R ` { ' ` { Y u [._.OX_._.`. Xe.c  X_._._.`.`./ u n.l.V.l.l.v.a R { { ] 2._ R u ]._._. X_._._.n.d N.v.B.l.k.B.W ",
"> B.l.B.B.B.1.. O u u O g O O @ [._.`.`.`.`._.2.c (.Q. X/.(.(./ u v.V.V.B.l.g.+ . @ d + d + O O '.)._._._.`._.h.f Z.3.B.B.B.3.$.",
"X B.k.k.k.B.] p n W ' c -.C Z @ XX(.`.(.`.`._.f.j R.k.K.K.G.G.~ u Z.n.m.v.B.v.a C R ' x ' F Z $ ]._._._._._._.n.x m.] { 4.4.1.#.",
"> V.l.B.l.v.{ i E v.n.F Z.2./ u |._._.`.`.`._.f.u Y l v v V c Z u L.X.< = L.M.i T 4.M.B v.3.T u ].(._._._._._.n.s Y c c m B B M ",
"X g.k.3.l.B.] p ' k.C.A l.g./ @ XX_._._.`.`..Xe.+ x g # c s n $ $ *X6.qX0.3 4.i T v.k.A Z.g.W u ].[._. X_.`._.n.+ g j + m h x # ",
"> k.k.1.B.B.2.p ! k.B.v k.g.W u XX_._._.`.`._.e.g c.;.c b.H r.j s *X6.t e b 4.a T g.B.N H.v.Q u ].`._.OX_._._.n.h m.u.s 3.( c.n ",
"* <.k.<.B.B.{ p ! l.C.G k.n.T u [._._._.`. X_.f.c  X{.{ _.Q.[.~ g I.O.8 1 :.M.h T B.B.G V.B.Q u ].`. X_._.`._.n.k 7X4XH OX!. X=.",
"o 2.k.3.B.B.{ i ! l.V.F k.n.W u XX_._._._._._.f.c  X^.w._.~.`.~ u { P.:.L.L.M.p T V.B.G Z.V.W u ].`._.`._.`._.h.h 4X6XL OX(.[.-.",
"& { v.<.l.k.] p ) k.k.J g.B.T i |._._._..X_..X2.j [./.d._._._./ u ) v.,.g.k.c.g Y g.k.J V.V.W u ^._._.`._.`._.n.f @X6Xw.A.}. X;.",
"% { v.3.g.v.-.p ! k.k.J g.C.W u XX_._._._._.`.f.C [.(.z._.~.(./ u ] v.,.v.g.M.g T k.k.K C.V.T u ].`._._._.`._.n.l @Xo.6 6.| {.-.",
": F E U R W E u ' k.g.K v.V.W u |._._._.`.`..X2.C [.(.F._.~.`./ u l T B T Y %.g T k.l.K C.V.W $ ].`._._. X_. Xn.l 5X2 0Xt 6.u.:.",
"  s s u u u + u ' k.B.) g.V.! u |.)._._._._. X4.j [._.Y.~.`.`./ + u s @ g # + $ H k.l.,.v.B.Q u ]._._.`._.`.[.n.h 4X} q e 1 I.:.",
"X V ~ i C f C i ] k.l.,.v.V.R u XX_._._.`.`..X4.V [.(.Q._._. X/ y C / s ~ s E s H V.l.,.v.l.W u ]._._.`._._. Xn.f oXW.} O.t.}.t.",
"> K.].A U.S.A.g ' k.l.1.g.B.T u ]._._._._._. X2.c [._.~._._.`.' p U.@XV ].f.'.i Q l.l.3.v.B.! u '._.`.`._.`._.n.j oX(.[.@X@X(.r.",
"& ^.[.D ^.x.A.s ' k.l.3.B.B.W @ [._._._._._. X{ c [.`._._._.OXT u '.XXF (.z.^.s Q V.V.f.g.V.W u [._._..X X_._.n.k XX_.~._._.(.t.",
"* (.(.D (.(.S.p ' k.k.g.v.B.T i [._._.`. X_.OXc.c [.`._.~._.OX/ u |. XG  XY.T.s H V.B.g.g.l.Q u ]._._._._._. Xn.x +X`.`.~.`.(.w.",
"* `.^.P  X).Z.s ' g.k.g.v.B.T u oX(.,Xb } }.[.e.j [.(._.~._.OX^ u  X XP )._.^.s T B.l.g.3.B.W p R._._._.[.`.`.n.j XX_._._._._.` ",
"% oX~.w. X_.V.g ' V.k.g.g.l.T y [.W.< ;X;XX.5Xe.V [._.`._._.OX~ u @X_.I  X_.W.u H B.l.v.v.B.! u [._._._.`._._.n.l XX_._..X_._.=.",
"* [.Q.a. X_.S.p ' l.V.k.3.k.! y oXI.4 0X0 1 oXe.j [._.`._._.OX' g XX X<._. X'.s ^ V.l.V.g.B.! y ].~.`._._._.[.n.h XX_.`._._.~.c.",
"% OX~.d.OX_.Z.p ' V.V.V.B.k.T y 5X{.< q 4 t.oXw.c [.`.`._._.OX~ u OX_.a. X`.'.u T V.B.B.B.l.W y [._._._._.`.[.n.c XX_._._._._.-.",
"* [.(.d.OX XS.p ' V.V.l.B.l.! y |.@X3XZ o.oX(.{ c  X_.`._._._./ s @X_.s._._.'.g T B.l.B.V.V.Q u '._. X/.`. X Xn.x +X_.`._._._.{ ",
"* OX~.j._. Xn.p ' l.l.V.B.l.Q i ( ] e.T _ ` T ' n XX_._._._._./ s  X_.h._.OX'.u T B.l.V.B.l.! u ' ) _ T ` ( Q / c XX_.~._._._.r.",
"% @X(.z. X_.n.p ' l.l.V.l.k.T @ C U R g V C h p c  XOX_._._._.~ u OX`.z.`.`.T.i ! B.l.l.B.V.W @ m U C g C C x h d 7X`._._._._.-.",
"* [.(.G._._.Z.s ' l.V.l.l.k.~ + W T ' v ~ T R R j (._._._._._.' g XX Xx._._.'.i T B.l.l.l.l.W @ R W W M W Q Q E x @X~._._._._.r.",
"% [.(.Y._._.n.p ' B.V.l.V.l.T + C.k.Z.] C.B.B.! c  X_._._._._.~ u @X_.Y.).`.R.s T B.l.k.l.l.W @ n.C.v.] V.v.C.] c XX~.`._._._.{ ",
"* |._.Q._._.S.p ' l.l.V.V.k.T u v.k.V.2.l.B.B.) c  X_._._._._./ s XX_.Y._.`./.s T B.l.l.l.l.T $ c.B.B.` n.B.B.` c XX_._._._._.r.",
"* |._.!._._.A.p ' B.l.B.B.k.T u v.l.Z.3.l.l.B.Q c  X`._._._._./ u @X_.Y._.`.R.u T V.g.n.B.B.T u v.B.B.2.C.l.B.;.x XX_._._._._.;.",
"%  X_.)._._.Z.p ' k.B.V.V.k.T y B.l.Z.4.l.k.B.! c [.(._._._.OX/ u @X_.~._.OX'.s W Z.y.#.4.L.T u v.B.n.3.V.l.B.] x 4X_._._.`.`.[ ",
"*  X).OX_._.A.p ] l.V.V.V.B.T u v.k.V.v.k.B.l.! x XX_._._.(.OX/ i .X_.`.`._.R.i R :.6 :X8 >.$.y 4.B.l.3.V.V.V.] l XX_._._.(._.r.",
"% XX_._._._.n.p ! l.l.B.v.k.T u v.B.V.v.k.l.l.! m  X_.(._._.OXE u XX_.`.`.`.R.i R ..r r q.o.%.y B.B.l.3.B.B.B.1.x 4X_._._._._.-.",
"*  X_._._. XZ.p ] V.B.V.B.B.T i v.B.B.B.l.B.V.( c [._._. XOXOX/ s @X_._._. X'.g R >.5 t 4 %XW y C.B.k.3.V.B.C.4.x 4X`.`. X_._.r.",
"; 5X|. X@XoXN.p =.C.C.Z.B.C.W y M.C.C.v.Z.C.Z.*.n }.|.|.XX@XOX#.u 6X|. XXXXXW.s R P.p.@.i.L.$.# M.B.B.B.C.C.C.=.n 5XoX}. XXX|.-."
};
