/* XPM */
static char *a01f4432e4144caba7bf55c92a1c7d04cjFAjUJYrJPg1976[] = {
/* columns rows colors chars-per-pixel */
"64 64 197 2 ",
"   c #060707",
".  c #080707",
"X  c #060807",
"o  c #090807",
"O  c #090708",
"+  c #0A0A0A",
"@  c #10100F",
"#  c #100F12",
"$  c #131414",
"%  c #1A1716",
"&  c #1D1D1C",
"*  c #221B1B",
"=  c #20201F",
"-  c #1F2020",
";  c #252524",
":  c #292623",
">  c #272825",
",  c #282826",
"<  c #272728",
"1  c #2D2C2B",
"2  c #312725",
"3  c #312F2D",
"4  c #2F302C",
"5  c #30302E",
"6  c #39342F",
"7  c #312F31",
"8  c #2E3130",
"9  c #323332",
"0  c #3B3635",
"q  c #3A3936",
"w  c #373839",
"e  c #3D3D3B",
"r  c #5D3B1E",
"t  c #633E1F",
"y  c #5D3E24",
"u  c #413B37",
"i  c #423E3B",
"p  c #653B24",
"a  c #3D403F",
"s  c #6A420C",
"d  c #7B4909",
"f  c #634217",
"g  c #66421C",
"h  c #6A441D",
"j  c #6D491B",
"k  c #5D4322",
"l  c #44403C",
"z  c #4C443D",
"x  c #5D4236",
"c  c #634321",
"v  c #6D4420",
"b  c #6A4E2A",
"n  c #734B26",
"m  c #685035",
"M  c #3F4547",
"N  c #3D576A",
"B  c #3A5673",
"V  c #3C5C72",
"C  c #3D6075",
"Z  c #454544",
"A  c #494643",
"S  c #454844",
"D  c #484846",
"F  c #454A4B",
"G  c #4C4C4A",
"H  c #534A44",
"J  c #524E4C",
"K  c #51514E",
"L  c #59534C",
"P  c #4C4F53",
"I  c #485257",
"U  c #4A555B",
"Y  c #4D5A5E",
"T  c #545553",
"R  c #5D5652",
"E  c #5C5954",
"W  c #535A5C",
"Q  c #5B5C5A",
"!  c #605652",
"~  c #615954",
"^  c #615C5D",
"/  c #7E6343",
"(  c #62615F",
")  c #6D635C",
"_  c #70665D",
"`  c #756D5D",
"'  c #475A65",
"]  c #425B6A",
"[  c #545E63",
"{  c #435D73",
"}  c #4D636C",
"|  c #576A6F",
" . c #426275",
".. c #476778",
"X. c #4F6A7B",
"o. c #576B78",
"O. c #5F7078",
"+. c #646463",
"@. c #696866",
"#. c #6C6B6B",
"$. c #736A64",
"%. c #736F6C",
"&. c #73726E",
"*. c #7A726B",
"=. c #696E72",
"-. c #737372",
";. c #7A7976",
":. c #797979",
">. c #854D06",
",. c #96590E",
"<. c #925B16",
"1. c #9B6118",
"2. c #AA6E1F",
"3. c #986420",
"4. c #88633A",
"5. c #AB6E20",
"6. c #AE7020",
"7. c #AC7826",
"8. c #B57B22",
"9. c #B57B26",
"0. c #B97F23",
"q. c #926841",
"w. c #85745D",
"e. c #A87948",
"r. c #AC7D4C",
"t. c #B77D46",
"y. c #B07E4F",
"u. c #84726A",
"i. c #867969",
"p. c #857570",
"a. c #857973",
"s. c #8B7C74",
"d. c #827D7A",
"f. c #8B7F79",
"g. c #77807F",
"h. c #BB8024",
"j. c #BA8328",
"k. c #CE8A24",
"l. c #EBA528",
"z. c #F5AF2E",
"x. c #F4B02D",
"c. c #E9A633",
"v. c #F3AD36",
"b. c #AB844B",
"n. c #B98346",
"m. c #B58248",
"M. c #B78449",
"N. c #AB8753",
"B. c #BA8F50",
"V. c #99876C",
"C. c #8E8176",
"Z. c #81827F",
"A. c #8C817A",
"S. c #94857D",
"D. c #99867E",
"F. c #96897E",
"G. c #99897F",
"H. c #A88F65",
"J. c #D5A55E",
"K. c #D9A65D",
"L. c #CB9C60",
"P. c #D8A661",
"I. c #567483",
"U. c #627882",
"Y. c #7B7D83",
"T. c #788085",
"R. c #838382",
"E. c #8C8786",
"W. c #8C8C8C",
"Q. c #978681",
"!. c #998781",
"~. c #978981",
"^. c #9A8981",
"/. c #948E89",
"(. c #998E89",
"). c #9F9085",
"_. c #9B938D",
"`. c #9A9794",
"'. c #A18E84",
"]. c #A28F89",
"[. c #A19185",
"{. c #A29188",
"}. c #A89789",
"|. c #AE998D",
" X c #B19A8E",
".X c #A89C94",
"XX c #AC9F99",
"oX c #ACA29B",
"OX c #B6A194",
"+X c #B1A69F",
"@X c #B7ACA7",
"#X c #B9ADA6",
"$X c #B6AFAA",
"%X c #B9AFA9",
"&X c #B6B0AA",
"*X c #BCB3AC",
"=X c #C4B8B2",
/* pixels */
"x P.P.P.K.P.B.n 4.M.m.e.y.y.q.v b.m.n.M.n.M.4.4.b N.N.}.G.&XoX.X(.~.&XB.K.J.L.b 4.y.r.e.r.e.4.n t.t.t.t.n.n.r.4.m #XXX_.*XP.K.e.",
"j v.z.z.x.v.k.s j d d t / i.i.` w.`.Z.-.+.E K G J z l l l i l l l l ~ E.b.x.c.>.d >.,.>.,.>.>.d k.2.5.V.C.Z._ ! J H z H *.H.l.j.",
"g W.-.-.#.Q K G Z a e q q 9 6 5 9 9 9 5 5 4 9 5 5 9 6 9 6 9 w w w w 0 a K ;.T.R.:.-.-.-.&.-.-.-.Q D Z q w 9 w w 0 e e e l ( _.7.",
"j #.D Z Z D A S Z S S Z Z Z Z S D G G G K T T T T T E Q Q Q Q Q Q ^ ^ ( ( ( ( ( T Z D D D D Z D D Z D D G G J T T E Q Q Q T T.3.",
"g #.D D D D D S D Z D Z Z Z Z Z D Z Z D Z Z D D G G D D G G G J K K T T E T T K G S Z D D D G D D D Z Z D Z Z Z Z D D D D D Z.d ",
"h #.Z D Z Z S S D Z D D D D D Z D Z D D D Z D D S S D S S S D D D Z D D D Z D D Z D D D D D Z Z D D D D D D D D D D Z D D Z Z.<.",
"j @.D D D D T K D D D D D D D D G D D D D D D D G D S A D D D D D D D D D D D D G Z D D Z D D D D D D D D D D D D D D D D D Z.5.",
"c +.e e J -.o.} D i e e e e e e e e e e a e e e e e a e e e e e e e e e e e e e e e e e e e e e e e e e e e e e e e e e e e :.2.",
"h T 9 8 6 [ V V F 8 5 5 5 5 3 4 9 1 5 5 5 5 5 5 5 5 4 5 1 4 4 5 4 4 8 5 5 5 5 5 5 5 4 5 5 5 5 5 9 3 5 5 5 5 5 5 7 9 5 5 5 1 -.6.",
"v Q 5 5 5 M ] ] G 5 5 5 5 5 5 5 4 9 5 5 5 5 5 9 5 5 5 4 5 a 5 4 4 8 5 5 5 5 5 5 5 5 5 5 1 9 5 5 1 8 3 4 4 5 5 9 5 1 5 5 5 4 -.5.",
"c T 4 5 4 9 D G A 3 3 5 5 1 5 4 3 1 5 5 5 5 1 1 5 5 4 4 l R q l i 9 5 4 5 5 5 5 4 5 5 5 1 4 5 5 5 5 5 5 9 1 4 1 9 5 1 5 5 5 -.6.",
"y T 5 4 5 5 5 5 6 5 5 5 5 9 1 9 8 3 5 5 5 5 9 4 5 4 4 q _ ;.O.| | P 9 9 5 5 5 5 5 5 5 5 9 4 5 5 5 5 5 5 4 9 4 9 1 9 5 5 3 5 -.5.",
"p T 5 9 5 9 1 5 4 5 5 5 5 5 4 9 5 4 5 5 5 5 4 5 4 1 w K G ) T.C C } M 5 3 3 5 5 5 5 5 5 5 1 1 5 5 5 5 5 9 4 4 5 9 1 1 5 1 5 -.5.",
"v T 9 1 1 9 5 5 1 3 5 1 5 5 5 1 5 5 5 5 5 5 4 5 4 w G ; 5 Q ..V V ] G 5 1 5 1 4 5 1 5 5 5 5 9 4 5 5 5 5 4 8 9 1 Z l 5 8 5 5 -.6.",
"g Q 1 5 4 1 5 5 9 4 4 9 5 5 5 5 5 5 5 5 5 5 5 1 9 K ; X 4 Q ' { ] I S 1 5 5 5 5 5 5 5 5 5 5 5 5 5 5 1 5 8 4 9 z a.6 4 4 5 5 -.2.",
"h T 1 4 5 1 5 5 5 5 5 5 5 5 5 5 5 5 5 5 5 5 5 5 G > + & e T S ^ %.$.u 3 5 5 5 5 5 5 5 5 5 5 5 5 5 5 5 4 4 6 F P Y.Q 6 1 5 5 -.6.",
"h T 5 5 5 5 5 5 9 1 9 5 5 5 5 5 5 5 5 5 1 5 9 G , o + % < T 8 9 6 9 Z 4 1 9 4 9 9 1 9 4 5 5 5 5 5 5 9 1 3 M ' I.I.o.^ 3 3 3 -.5.",
"c T 5 5 5 5 5 5 4 5 1 5 5 5 5 5 5 5 5 1 9 5 G 1 + + $ @ & K 5 5 4 3 9 9 9 1 5 1 4 9 1 3 5 5 5 5 5 5 8 4 0 I ..B B I.=.9 1 9 -.5.",
"v T 8 5 5 5 4 5 5 5 4 9 5 1 9 5 1 5 9 4 6 D 5 + : z A A z J 5 1 1 9 9 1 4 5 1 9 5 5 9 4 5 5 5 5 4 5 5 4 u W ] B B o.[ 0 5 5 -.2.",
"v T 5 5 3 5 5 5 5 5 5 1 4 5 1 5 5 4 1 9 D 0 + 6 |.OXOXOX^.T 6 4 9 4 4 1 5 5 9 4 4 5 1 9 4 5 5 5 9 4 9 4 9 &.U { { ' l 7 4 5 -.2.",
"v T 5 8 8 5 5 5 5 5 5 4 5 5 5 5 3 9 Z T w + 2 A.~.~.^.D.u.3 G G w 5 4 5 4 1 9 3 9 5 5 5 4 9 1 5 4 4 8 5 5 H Q K F S 9 9 4 1 -.6.",
"v T 5 4 3 5 9 4 4 4 5 9 5 5 5 0 G K Z , + : s.G.D.!.~.D.i.$ + & Z G l 5 9 1 5 5 1 5 5 5 3 1 9 1 1 9 4 4 0 L l l q 3 4 4 5 5 -.6.",
"t -.K K K P G T K K K K K G A q & @ + O ; p.F.G.^.^.^.G.S.1 + . + % e K G K G T T G T G K T J T T K K T T E K K K K K K K K E.6.",
"v -.T Q E E Q T Q E Q K 0 & @ O   O $ 2 u.G.D.G.^.^.^.D.S.S.$.0 $ X + $ 3 T Q Q T Q E Q Q T Q T T Q E T Q T Q T Q T Q T Q Q W.6.",
"y e $ $ $ $ @ $ @ $ @ + O O O % 3 ~ s.S.^.^.^.^.^.^.^.^.^.'.D.D.*.H % .   + $ $ $ @ @ $ @ @ @ $ $ @ @ $ @ $ @ $ $ @ $ @ $ $ +.2.",
"c w .   O O O O . . o + * u ^ s.D.D.D.G.G.^.^.^.^.^.^.^.^.^.D.G.D.F.s.L * + . . O O O . . O . . . . . . + . o .   X o o . . Q 2.",
"t ;.! R ~ H q z ~ ! ~ $.f.D.^.^.G.^.^.G.G.^.G.^.G.^.G.^.^.G.^.^.D.G.D.~.S.^ ! ! ! ! ! R ! ! ! ! ! ! ! ! ! ! R ~ J u A ~ ~ ! /.2.",
"t XX!.^.D.'.S.s.^.D.^.!.^.^.G.~.~.G.^.^.^.G.^.^.^.G.^.^.^.^.^.^.G.G.G.~.^.D.!.!.!.!.!.!.!.!.!.!.!.^.^.^.^.D.D.~.^.~.s.G.~.^.#X2.",
"v OXG.~.S.S.S.D.^.D.^.^.!.!.^.D.G.G.D.G.G.G.D.D.G.G.^.D.G.D.G.G.G.G.~.D.^.^.^.D.!.!.!.!.!.D.!.D.D.D.D.!.D.D.D.G.D.S.G.G.D.D.#X6.",
"t @X].].{.{.[.{.{.[.[.[.{.'.'.].].{.{.].{.{.{.].{.{.{.[.[.{.].].{.{.'.].'.{.'.].[.{.[.[.[.[.[.{.].'.[.].[.].[.].[.[.[.].[.[.=X2.",
"t ~ 9 0 6 9 9 9 9 0 6 9 9 0 9 9 9 6 9 9 9 9 9 9 9 6 9 9 9 9 9 9 9 9 0 7 9 9 9 9 9 9 9 9 9 9 9 9 9 9 5 9 0 9 9 9 9 9 9 0 9 9 ;.2.",
"t J < , , , 1 < , , , < , , , , , 1 , < , , 1 , , 1 , < 1 , , , 2 , , , 1 , , , 2 , , , , , , , , 1 , , , , , 1 , 1 , , , < %.5.",
"k w + o + + + + + + + + + + + o + + + o + + + + + + + + + + + + + + o + + + + + + + + O + + + + O + + + o o + + + + + + + + Q 5.",
"k K > : > : > , > : , , > > > > > > : > , , , , > > > , , , , , , , > > , > > > , , , , , , , , , : > > > > > > ; > > > > > %.5.",
"t +X[.[.[.[.).^.[.[.'.G.'.'.'.].).).).).).).'.'.[.[.^.[.'.'.'.'.].'.'.'.'.].'.'.'.G.'.'.'.'.'.'.].].[.[.[.[.[.[.[.^.[.).[.^.#X5.",
"h +X'.[.[.[.].].[.^.].'.'.'.'.].^.[.).'.'.'.'.'.'.'.].[.[.^.'.'.'.'.'.[.'.'.'.'.].'.'.'.'.'.'.'.[.[.[.^.'.'.[.{.'.'.[.[.[.{.*X1.",
"t XX^.^.{.^.~.!.G.D.~.^.^.^.^.^.^.^.~.~.!.!.!.^.D.G.~.^.^.~.^.^.!.^.^.^.D.!.~.^.^.^.^.^.^.^.^.^.D.D.~.^.^.!.G.{.^.^.!.^.~.D.#X>.",
"h XXD.^.~.}.E.(.'.!.^.~.~.~.~.~.^.^.F.^.~.G.~.~.~.~.~.~.~.~.^.~.~.~.!.G.G.~.~.~.~.~.D.!.!.^.D.~.F.G.G.^.~.~.G.A..XE._.~.~.D.$X<.",
"h XXD.^.+.I.X.O.a.D.^.^.^.^.^.^.^.^.^.^.^.^.~.D.^.^.^.^.^.^.^.^.^.^.^.^.^.^.^.^.^.^.^.^.~.^.^.~.~.^.^.^.^.^.G.( I.X.O.:.D.~.#X9.",
"t XX'.f.W V B ..[ !.^.^.^.^.^.^.~.^.^.^.^.^.^.^.^.^.^.^.^.^.^.^.^.^.^.^.^.^.^.^.^.^.^.^.^.^.^.!.^.^.^.^.^.^.D.Y { N  .W !.!.#X9.",
"h XX~.S.T { B C Q D.!.^.~.^.~.^.~.^.^.^.^.^.~.^.^.^.^.D.^.^.~.^.^.!.^.^.^.^.^.^.^.^.^.^.^.^.^.^.^.^.D.^.G.G.S.U V B  .T Q.S.#Xj.",
"t XX!.!.d.' ' U f.D.~.^.^.^.!.!.^.^.^.~.^.^.^.^.^.^.^.^.^.^.!.!.^.^.~.^.^.^.^.^.^.^.^.~.^.^.^.^.^.^.^.^.G.G.G.a.Y N U A.!.!.#X9.",
"v XXD.D.^.^.a.i.G.^.G.G.^.^.D.!.^.^.G.!.!.!.D.^.^.^.G.G.^.D.^.!.^.!.^.^.~.D.G.G.^.^.D.^.~.G.G.G.D.^.G.^.G.G.G.G.'.S.p.!.!.!.%X9.",
"r .X~.^.^.Q.S.~.~.~.^.G.!.!.!.!.!.!.!.Q.!.!.!.!.!.~.~.G.!.!.!.!.!.!.!.!.Q.Q.!.G.!.!.!.!.!.Q.Q.F.!.!.!.~.~.~.^.G.G.Q.S.~.S.~.&Xj.",
"f +XG.G.].G.[.G.G.).G.G.G.G.G.).G.G.G.).^.G.[.G.).G.).G.G.G.'.^.^.'.^.^.'.'.^.).^.'.^.'.^.'.^.).^.G.'.G.G.).G.G.G.G.'.^.'.'.*X8.",
"h ;.~ Q R E ~ ~ E E ~ E ) E E E ) E E E E R ~ ~ E E R E ~ R ~ E R ! E E ~ R E E R ! E E ~ R E E ~ R ~ ~ E E E E ) R E R R R /.0.",
"k T 8 4 4 4 6 4 4 4 4 4 4 4 4 4 4 4 4 4 4 4 5 4 8 4 4 4 6 4 1 4 3 4 4 4 4 4 4 4 3 4 4 4 4 4 4 4 4 4 5 4 4 4 4 4 4 4 4 4 5 1 -.9.",
"k Z $ $ $ $ $ $ $ $ $ $ $ $ $ $ $ $ $ $ $ $ $ $ $ $ $ $ $ $ $ $ $ $ $ $ $ $ $ $ $ $ $ $ $ $ $ $ $ $ $ $ $ $ $ $ $ $ $ $ $ # +.0.",
"k l $ $ % $ $ $ $ % $ % $ $ $ $ $ % $ % $ $ $ % $ % $ $ $ % $ % $ $ % $ % $ % $ % $ % $ $ $ % $ $ $ $ $ % $ % $ $ $ $ $ % $ +.h.",
"f A._ _ _ _ _ _ _ _ _ _ _ _ _ ` _ _ _ _ _ _ _ _ _ _ _ _ _ _ _ _ _ _ _ ) _ _ _ _ _ _ _ _ _ _ _ _ _ _ _ ` _ _ _ _ ) ` _ _ _ ) `.0.",
"j #X|.|.|.}.|. X|.|.}.|. X}. X X|.|. X X X|.|.|.|.|. X|.|.|.|. X X|.|.|.|.|. X|.|.|.|.|. X X X|.|.|.|.|.|.|.|.|. X}.|. X X|.=Xh.",
"f XXS.F.).G.^.^.F.F.G.G.G.G.F.F.F.~.G.~.G.F.G.F.G.F.F.G.F.~.~.~.F.G.F.F.S.F.~.~.G.F.~.F.G.F.F.G.~.F.F.F.F.F.F.).G.F.G.F.F.G.#X8.",
"j XXG.D.].].^.G.G.D.G.^.G.G.G.G.^.D.G.~.^.~.!.!.G.F.G.G.~.G.G.G.G.G.G.G.~.D.~.!.F.G.G.D.!.!.~.D.G.F.F.D.G.G.~.G.].'.D.s.F.F.#Xh.",
"j XXF.D.*.g.I.:.^.^.~.~.G.G.~.^.~.!.~.^.~.!.!.^.~.~.^.~.~.^.~.!.G.~.~.~.!.~.^.~.~.~.~.~.^.!.^.S.$.R L ~ ) *.A.` Y.U.-.A.D.D.#X0.",
"f XXD.D.[ X.V X.+.^.^.G.G.~.^.^.^.^.^.^.^.^.^.^.^.^.^.^.^.^.^.^.^.^.~.^.^.!.^.^.^.^.^.^.^.^.!.!.G.A._ L 6 5 6 U X.V X.+.G.G.&X0.",
"j XXG.C.W V B  .Y ~.~.^.^.~.^.^.^.^.^.^.^.^.^.^.^.^.^.^.^.^.^.^.^.^.^.^.^.^.^.^.^.^.^.^.!.^.!.^.^.^.^.~.S.a.*.U V B C P F.G.#X0.",
"f XXD.!.+.] { ' #.!.^.^.^.^.^.^.^.^.^.^.^.!.!.^.^.!.^.^.^.^.^.^.~.^.^.^.^.^.^.^.^.^.^.!.^.^.^.!.!.^.^.!.~.~.Q.+.] N ] %.D.!.#X8.",
"j XX^.Q.'.f.#.$.^.~.^.^.^.^.^.!.^.^.^.^.^.^.^.^.^.^.^.^.^.!.^.^.^.^.^.^.^.^.^.^.^.^.^.^.^.!.!.!.!.^.!.^.!.^.!.^.f.%.$.^.!.!.#X0.",
"h XX!.!.S.!.f.f.^.!.^.^.!.(.^.!.^.!.^.!.^.(.!.!.^.!.^.^.!.^.!.!.^.^.^.(.!.(.!.!.^.!.^.!.^.!.^.'.^.^.^.^.~.^.Q.~.Q.S.f.^.!.!.#X0.",
"h XX'.^.^.^.!.(.^.^.!.(.(.!.!.^.(.!.!.!.!.!.(.!.!.(.(.!.!.(.!.Q.^.^.^.!.^.!.!.^.(.!.!.!.(.^.(.!.(.^.^.(.^.!.^.!.~.~.^.^.~.^.*X8.",
"h ^.u.*.*.u.u.u.u.u.u.u.u.u.u.u.u.u.u.u.u.u.u.u.u.u.u.u.u.u.u.u.u.u.u.u.u.p.u.u.u.u.u.p.u.p.u.u.u.u.p.u.u.u.u.u.u.u.*.u.u.*.oXj.",
"r T 5 9 7 7 7 7 7 7 7 7 7 7 7 7 7 7 7 8 7 7 7 7 7 7 7 7 7 7 7 7 7 7 7 7 7 7 7 7 7 7 7 7 7 8 7 1 7 7 7 7 8 7 7 7 9 7 3 3 9 3 &.8.",
"c G > > ; ; ; ; ; ; ; - ; ; ; ; ; ; - ; ; ; ; ; ; ; ; ; ; ; ; ; ; ; ; ; ; ; ; ; ; ; ; ; ; ; ; ; ; ; > ; ; ; ; ; ; ; = ; ; ; #.j.",
"c +.Z Z a Z Z Z Z Z Z Z Z Z Z Z Z Z M Z Z Z Z a Z Z Z Z Z Z M a Z Z Z Z Z Z Z Z Z M a Z Z Z Z Z Z Z Z Z Z l M Z Z Z Z M Z Z R.9."
};
